<?xml version="1.0" encoding="UTF-8" standalone="no"?><svg xmlns="http://www.w3.org/2000/svg" xmlns:xlink="http://www.w3.org/1999/xlink" clip-rule="evenodd" stroke-miterlimit="4.00" viewBox="0 0 49 49"><desc>SVG generated by Keynote</desc><defs></defs><g transform="matrix(1.00, 0.00, -0.00, -1.00, 0.0, 49.0)"><path d="M 39.7 40.1 C 48.3 31.5 48.3 17.6 39.7 9.0 C 31.1 0.4 17.1 0.4 8.5 9.0 C -0.0 17.6 -0.0 31.5 8.5 40.1 C 17.1 48.7 31.1 48.7 39.7 40.1 Z M 39.7 40.1 " fill="#FEFFFF" fill-opacity="0.75"></path><path d="M 37.6 6.4 C 46.1 15.0 46.1 29.0 37.6 37.6 C 29.0 46.1 15.0 46.1 6.4 37.6 C -2.1 29.0 -2.1 15.0 6.4 6.4 C 15.0 -2.1 29.0 -2.1 37.6 6.4 Z M 37.6 6.4 " fill="none" stroke="#154E86" stroke-width="2.00" transform="matrix(1.00, 0.00, 0.00, -1.00, 2.1, 46.5)"></path></g></svg>