<?xml version="1.0" encoding="UTF-8" standalone="no"?><svg xmlns="http://www.w3.org/2000/svg" xmlns:xlink="http://www.w3.org/1999/xlink" clip-rule="evenodd" stroke-miterlimit="4.00" viewBox="0 0 424 49"><desc>SVG generated by Keynote</desc><defs></defs><g transform="matrix(1.00, 0.00, -0.00, -1.00, 0.0, 49.0)"><path d="M 2.0 46.6 L 422.0 46.6 L 422.0 1.6 L 2.0 1.6 Z M 2.0 46.6 " fill="#164E86"></path><path d="M 0.0 0.0 L 420.0 0.0 L 420.0 45.0 L 0.0 45.0 Z M 0.0 0.0 " fill="none" stroke="#002451" stroke-width="1.00" transform="matrix(1.00, 0.00, 0.00, -1.00, 2.0, 46.6)"></path><g><clipPath id="clip-432"><path d="M -2.5 -2.9 L 426.5 -2.9 L 426.5 51.1 L -2.5 51.1 Z M -2.5 -2.9 "></path></clipPath><g clip-path="url(#clip-432)"><text xml:space="preserve" font-family="Akrobat-Regular" font-size="30.0" fill="#FEFFFF" transform="matrix(1.00, 0.00, -0.00, -1.00, 181.0, 12.0)">S</text><text xml:space="preserve" font-family="Akrobat-Regular" font-size="30.0" fill="#FEFFFF" transform="matrix(1.00, 0.00, -0.00, -1.00, 197.8, 12.0)">A</text><text xml:space="preserve" font-family="Akrobat-Regular" font-size="30.0" fill="#FEFFFF" transform="matrix(1.00, 0.00, -0.00, -1.00, 213.9, 12.0)">V</text><text xml:space="preserve" font-family="Akrobat-Regular" font-size="30.0" fill="#FEFFFF" transform="matrix(1.00, 0.00, -0.00, -1.00, 230.4, 12.0)">E</text></g></g></g></svg>