<?xml version="1.0" encoding="UTF-8" standalone="no"?><svg xmlns="http://www.w3.org/2000/svg" xmlns:xlink="http://www.w3.org/1999/xlink" clip-rule="evenodd" stroke-miterlimit="4.00" viewBox="0 0 53 53"><desc>SVG generated by Keynote</desc><defs></defs><g transform="matrix(1.00, 0.00, -0.00, -1.00, 0.0, 53.0)"><path d="M 43.5 43.2 C 52.8 33.8 52.8 18.6 43.5 9.3 C 34.1 -0.1 18.9 -0.1 9.5 9.3 C 0.1 18.6 0.1 33.8 9.5 43.2 C 18.9 52.6 34.1 52.6 43.5 43.2 Z M 43.5 43.2 " fill="#FEFFFF"></path><path d="M 41.0 7.0 C 50.3 16.4 50.3 31.6 41.0 41.0 C 31.6 50.3 16.4 50.3 7.0 41.0 C -2.3 31.6 -2.3 16.4 7.0 7.0 C 16.4 -2.3 31.6 -2.3 41.0 7.0 Z M 41.0 7.0 " fill="none" stroke="#FF9200" stroke-width="2.00" transform="matrix(1.00, 0.00, 0.00, -1.00, 2.5, 50.2)"></path></g></svg>