<?xml version="1.0" encoding="UTF-8" standalone="no"?><svg xmlns="http://www.w3.org/2000/svg" xmlns:xlink="http://www.w3.org/1999/xlink" clip-rule="evenodd" stroke-miterlimit="4.00" viewBox="0 0 286 38"><desc>SVG generated by Keynote</desc><defs></defs><g transform="matrix(1.00, 0.00, -0.00, -1.00, 0.0, 38.0)"><text xml:space="preserve" font-family="Akrobat-SemiBold" font-weight="bold" font-size="48.0" fill="#A9A9A9" transform="matrix(1.00, 0.00, -0.00, -1.00, 1.2, 2.0)">T</text><text xml:space="preserve" font-family="Akrobat-SemiBold" font-weight="bold" font-size="38.4" fill="#A9A9A9" transform="matrix(1.00, 0.00, -0.00, -1.00, 26.0, 2.0)">H</text><text xml:space="preserve" font-family="Akrobat-SemiBold" font-weight="bold" font-size="38.4" fill="#A9A9A9" transform="matrix(1.00, 0.00, -0.00, -1.00, 51.3, 2.0)">E</text><text xml:space="preserve" font-family="Akrobat-SemiBold" font-weight="bold" font-size="38.4" fill="#A9A9A9" transform="matrix(1.00, 0.00, -0.00, -1.00, 73.7, 2.0)">Y</text><text xml:space="preserve" font-family="Akrobat-SemiBold" font-weight="bold" font-size="48.0" fill="#A9A9A9" transform="matrix(1.00, 0.00, -0.00, -1.00, 95.2, 2.0)"> </text><text xml:space="preserve" font-family="Akrobat-SemiBold" font-weight="bold" font-size="38.4" fill="#A9A9A9" transform="matrix(1.00, 0.00, -0.00, -1.00, 110.7, 2.0)">C</text><text xml:space="preserve" font-family="Akrobat-SemiBold" font-weight="bold" font-size="38.4" fill="#A9A9A9" transform="matrix(1.00, 0.00, -0.00, -1.00, 133.4, 2.0)">A</text><text xml:space="preserve" font-family="Akrobat-SemiBold" font-weight="bold" font-size="38.4" fill="#A9A9A9" transform="matrix(1.00, 0.00, -0.00, -1.00, 156.1, 2.0)">N</text><text xml:space="preserve" font-family="Akrobat-SemiBold" font-weight="bold" font-size="48.0" fill="#A9A9A9" transform="matrix(1.00, 0.00, -0.00, -1.00, 181.9, 2.0)"> </text><text xml:space="preserve" font-family="Akrobat-SemiBold" font-weight="bold" font-size="38.4" fill="#A9A9A9" transform="matrix(1.00, 0.00, -0.00, -1.00, 197.4, 2.0)">T</text><text xml:space="preserve" font-family="Akrobat-SemiBold" font-weight="bold" font-size="38.4" fill="#A9A9A9" transform="matrix(1.00, 0.00, -0.00, -1.00, 218.1, 2.0)">H</text><text xml:space="preserve" font-family="Akrobat-SemiBold" font-weight="bold" font-size="38.4" fill="#A9A9A9" transform="matrix(1.00, 0.00, -0.00, -1.00, 243.4, 2.0)">E</text><text xml:space="preserve" font-family="Akrobat-SemiBold" font-weight="bold" font-size="38.4" fill="#A9A9A9" transform="matrix(1.00, 0.00, -0.00, -1.00, 265.8, 2.0)">N</text></g></svg>