<?xml version="1.0" encoding="UTF-8" standalone="no"?><svg xmlns="http://www.w3.org/2000/svg" xmlns:xlink="http://www.w3.org/1999/xlink" clip-rule="evenodd" stroke-miterlimit="4.00" viewBox="0 0 424 57"><desc>SVG generated by Keynote</desc><defs></defs><g transform="matrix(1.00, 0.00, -0.00, -1.00, 0.0, 57.0)"><path d="M 2.0 55.3 L 422.0 55.3 L 422.0 2.3 L 2.0 2.3 Z M 2.0 55.3 " fill="#E2F6FF"></path><path d="M 0.0 0.0 L 420.0 0.0 L 420.0 53.0 L 0.0 53.0 Z M 0.0 0.0 " fill="none" stroke="#000000" stroke-width="1.00" transform="matrix(1.00, 0.00, 0.00, -1.00, 2.0, 55.3)"></path><g><clipPath id="clip-26"><path d="M 1.1 1.4 L 422.9 1.4 L 422.9 56.2 L 1.1 56.2 Z M 1.1 1.4 "></path></clipPath><g clip-path="url(#clip-26)"><text xml:space="preserve" font-family="Akrobat-SemiBold" font-weight="bold" font-size="18.0" fill="#002451" transform="matrix(1.00, 0.00, -0.00, -1.00, 148.0, 32.0)">1</text><text xml:space="preserve" font-family="Akrobat-SemiBold" font-weight="bold" font-size="18.0" fill="#002451" transform="matrix(1.00, 0.00, -0.00, -1.00, 155.0, 32.0)">2</text><text xml:space="preserve" font-family="Akrobat-SemiBold" font-weight="bold" font-size="18.0" fill="#002451" transform="matrix(1.00, 0.00, -0.00, -1.00, 164.2, 32.0)">3</text><text xml:space="preserve" font-family="Akrobat-SemiBold" font-weight="bold" font-size="18.0" fill="#002451" transform="matrix(1.00, 0.00, -0.00, -1.00, 173.5, 32.0)">3</text><text xml:space="preserve" font-family="Akrobat-SemiBold" font-weight="bold" font-size="18.0" fill="#002451" transform="matrix(1.00, 0.00, -0.00, -1.00, 182.7, 32.0)"> </text><text xml:space="preserve" font-family="Akrobat-SemiBold" font-weight="bold" font-size="18.0" fill="#002451" transform="matrix(1.00, 0.00, -0.00, -1.00, 188.5, 32.0)">O</text><text xml:space="preserve" font-family="Akrobat-SemiBold" font-weight="bold" font-size="18.0" fill="#002451" transform="matrix(1.00, 0.00, -0.00, -1.00, 199.7, 32.0)">U</text><text xml:space="preserve" font-family="Akrobat-SemiBold" font-weight="bold" font-size="18.0" fill="#002451" transform="matrix(1.00, 0.00, -0.00, -1.00, 210.9, 32.0)">T</text><text xml:space="preserve" font-family="Akrobat-SemiBold" font-weight="bold" font-size="18.0" fill="#002451" transform="matrix(1.00, 0.00, -0.00, -1.00, 220.2, 32.0)">C</text><text xml:space="preserve" font-family="Akrobat-SemiBold" font-weight="bold" font-size="18.0" fill="#002451" transform="matrix(1.00, 0.00, -0.00, -1.00, 230.8, 32.0)">R</text><text xml:space="preserve" font-family="Akrobat-SemiBold" font-weight="bold" font-size="18.0" fill="#002451" transform="matrix(1.00, 0.00, -0.00, -1.00, 241.5, 32.0)">Y</text><text xml:space="preserve" font-family="Akrobat-SemiBold" font-weight="bold" font-size="18.0" fill="#002451" transform="matrix(1.00, 0.00, -0.00, -1.00, 251.1, 32.0)"> </text><text xml:space="preserve" font-family="Akrobat-SemiBold" font-weight="bold" font-size="18.0" fill="#002451" transform="matrix(1.00, 0.00, -0.00, -1.00, 256.9, 32.0)">L</text><text xml:space="preserve" font-family="Akrobat-SemiBold" font-weight="bold" font-size="18.0" fill="#002451" transform="matrix(1.00, 0.00, -0.00, -1.00, 266.0, 32.0)">N</text><text xml:space="preserve" font-family="Akrobat-SemiBold" font-weight="bold" font-size="18.0" fill="#002451" transform="matrix(1.00, 0.00, -0.00, -1.00, 277.7, 32.0)"> </text><text xml:space="preserve" font-family="Akrobat-SemiBold" font-weight="bold" font-size="18.0" fill="#002451" transform="matrix(1.00, 0.00, -0.00, -1.00, 116.0, 10.0)">W</text><text xml:space="preserve" font-family="Akrobat-SemiBold" font-weight="bold" font-size="18.0" fill="#002451" transform="matrix(1.00, 0.00, -0.00, -1.00, 130.5, 10.0)">A</text><text xml:space="preserve" font-family="Akrobat-SemiBold" font-weight="bold" font-size="18.0" fill="#002451" transform="matrix(1.00, 0.00, -0.00, -1.00, 140.6, 10.0)">S</text><text xml:space="preserve" font-family="Akrobat-SemiBold" font-weight="bold" font-size="18.0" fill="#002451" transform="matrix(1.00, 0.00, -0.00, -1.00, 150.5, 10.0)">H</text><text xml:space="preserve" font-family="Akrobat-SemiBold" font-weight="bold" font-size="18.0" fill="#002451" transform="matrix(1.00, 0.00, -0.00, -1.00, 161.9, 10.0)">I</text><text xml:space="preserve" font-family="Akrobat-SemiBold" font-weight="bold" font-size="18.0" fill="#002451" transform="matrix(1.00, 0.00, -0.00, -1.00, 167.8, 10.0)">N</text><text xml:space="preserve" font-family="Akrobat-SemiBold" font-weight="bold" font-size="18.0" fill="#002451" transform="matrix(1.00, 0.00, -0.00, -1.00, 179.5, 10.0)">G</text><text xml:space="preserve" font-family="Akrobat-SemiBold" font-weight="bold" font-size="18.0" fill="#002451" transform="matrix(1.00, 0.00, -0.00, -1.00, 190.3, 10.0)">T</text><text xml:space="preserve" font-family="Akrobat-SemiBold" font-weight="bold" font-size="18.0" fill="#002451" transform="matrix(1.00, 0.00, -0.00, -1.00, 199.6, 10.0)">O</text><text xml:space="preserve" font-family="Akrobat-SemiBold" font-weight="bold" font-size="18.0" fill="#002451" transform="matrix(1.00, 0.00, -0.00, -1.00, 210.8, 10.0)">N</text><text xml:space="preserve" font-family="Akrobat-SemiBold" font-weight="bold" font-size="18.0" fill="#002451" transform="matrix(1.00, 0.00, -0.00, -1.00, 222.5, 10.0)">,</text><text xml:space="preserve" font-family="Akrobat-SemiBold" font-weight="bold" font-size="18.0" fill="#002451" transform="matrix(1.00, 0.00, -0.00, -1.00, 227.2, 10.0)"> </text><text xml:space="preserve" font-family="Akrobat-SemiBold" font-weight="bold" font-size="18.0" fill="#002451" transform="matrix(1.00, 0.00, -0.00, -1.00, 232.9, 10.0)">D</text><text xml:space="preserve" font-family="Akrobat-SemiBold" font-weight="bold" font-size="18.0" fill="#002451" transform="matrix(1.00, 0.00, -0.00, -1.00, 243.8, 10.0)">C</text><text xml:space="preserve" font-family="Akrobat-SemiBold" font-weight="bold" font-size="18.0" fill="#002451" transform="matrix(1.00, 0.00, -0.00, -1.00, 254.4, 10.0)"> </text><text xml:space="preserve" font-family="Akrobat-SemiBold" font-weight="bold" font-size="18.0" fill="#002451" transform="matrix(1.00, 0.00, -0.00, -1.00, 260.2, 10.0)">2</text><text xml:space="preserve" font-family="Akrobat-SemiBold" font-weight="bold" font-size="18.0" fill="#002451" transform="matrix(1.00, 0.00, -0.00, -1.00, 269.4, 10.0)">0</text><text xml:space="preserve" font-family="Akrobat-SemiBold" font-weight="bold" font-size="18.0" fill="#002451" transform="matrix(1.00, 0.00, -0.00, -1.00, 279.5, 10.0)">0</text><text xml:space="preserve" font-family="Akrobat-SemiBold" font-weight="bold" font-size="18.0" fill="#002451" transform="matrix(1.00, 0.00, -0.00, -1.00, 289.7, 10.0)">0</text><text xml:space="preserve" font-family="Akrobat-SemiBold" font-weight="bold" font-size="18.0" fill="#002451" transform="matrix(1.00, 0.00, -0.00, -1.00, 299.9, 10.0)">2</text></g></g></g></svg>