<?xml version="1.0" encoding="UTF-8" standalone="no"?><svg xmlns="http://www.w3.org/2000/svg" xmlns:xlink="http://www.w3.org/1999/xlink" clip-rule="evenodd" stroke-miterlimit="4.00" viewBox="0 0 101 101"><desc>SVG generated by Keynote</desc><defs></defs><g transform="matrix(1.00, 0.00, -0.00, -1.00, 0.0, 101.0)"><g><clipPath id="clip-3291"><path d="M 49.6 96.9 L 49.6 96.9 C 74.8 96.9 95.2 76.5 95.2 51.3 L 95.2 51.3 C 95.2 26.1 74.8 5.7 49.6 5.7 L 49.6 5.7 C 24.4 5.7 4.0 26.1 4.0 51.3 L 4.0 51.3 C 4.0 76.5 24.4 96.9 49.6 96.9 Z M 49.6 96.9 "></path></clipPath><g clip-path="url(#clip-3291)"><g><clipPath id="clip-3292"><path d="M 1.0 2.5 L 98.4 2.5 L 98.4 100.0 L 1.0 100.0 Z M 1.0 2.5 "></path></clipPath><g clip-path="url(#clip-3292)"><g><g><clipPath id="clip-3293"><path d="M 1.2 99.5 L 98.0 99.5 L 98.0 2.7 L 1.2 2.7 Z M 1.2 99.5 "></path></clipPath><g clip-path="url(#clip-3293)"><g><clipPath id="clip-3294"><path d="M 4.0 5.0 L 96.0 5.0 L 96.0 97.0 L 4.0 97.0 Z M 4.0 5.0 "></path></clipPath><g clip-path="url(#clip-3294)"><image xlink:href="7C7500CBD6CAB428A0937BBD4143F309.png" width="121.00" height="121.00" transform="matrix(0.80, 0.00, -0.00, -0.80, 0.8, 99.3)"></image></g></g></g></g></g></g></g></g></g><g><clipPath id="clip-3295"><path d="M 1.0 2.0 L 99.0 2.0 L 99.0 100.0 L 1.0 100.0 Z M 1.0 2.0 "></path></clipPath><g clip-path="url(#clip-3295)"><path d="M 615.5 49.0 L 615.5 49.0 C 640.6 49.0 661.0 69.4 661.0 94.5 L 661.0 94.5 C 661.0 119.6 640.6 140.0 615.5 140.0 L 615.5 140.0 C 590.4 140.0 570.0 119.6 570.0 94.5 L 570.0 94.5 C 570.0 69.4 590.4 49.0 615.5 49.0 Z M 615.5 49.0 " fill="none" stroke="#000000" stroke-width="4.00" stroke-miterlimit="0.00" stroke-linecap="round" stroke-linejoin="round" transform="matrix(1.00, 0.00, 0.00, -1.00, -566.0, 146.0)"></path><path d="M 615.5 49.0 L 615.5 49.0 C 640.6 49.0 661.0 69.4 661.0 94.5 L 661.0 94.5 C 661.0 119.6 640.6 140.0 615.5 140.0 L 615.5 140.0 C 590.4 140.0 570.0 119.6 570.0 94.5 L 570.0 94.5 C 570.0 69.4 590.4 49.0 615.5 49.0 Z M 615.5 49.0 " fill="none" stroke="#FEFFFF" stroke-width="2.00" stroke-miterlimit="0.00" stroke-linecap="round" stroke-linejoin="round" transform="matrix(1.00, 0.00, 0.00, -1.00, -566.0, 146.0)"></path></g></g></g></svg>