<?xml version="1.0" encoding="UTF-8" standalone="no"?><svg xmlns="http://www.w3.org/2000/svg" xmlns:xlink="http://www.w3.org/1999/xlink" clip-rule="evenodd" stroke-miterlimit="4.00" viewBox="0 0 453 31"><desc>SVG generated by Keynote</desc><defs></defs><g transform="matrix(1.00, 0.00, -0.00, -1.00, 0.0, 31.0)"><text xml:space="preserve" font-family="Akrobat-SemiBold" font-weight="bold" font-size="38.4" fill="#A9A9A9" transform="matrix(1.00, 0.00, -0.00, -1.00, -1.1, 2.0)">R</text><text xml:space="preserve" font-family="Akrobat-SemiBold" font-weight="bold" font-size="38.4" fill="#A9A9A9" transform="matrix(1.00, 0.00, -0.00, -1.00, 22.7, 2.0)">E</text><text xml:space="preserve" font-family="Akrobat-SemiBold" font-weight="bold" font-size="38.4" fill="#A9A9A9" transform="matrix(1.00, 0.00, -0.00, -1.00, 45.1, 2.0)">V</text><text xml:space="preserve" font-family="Akrobat-SemiBold" font-weight="bold" font-size="38.4" fill="#A9A9A9" transform="matrix(1.00, 0.00, -0.00, -1.00, 67.5, 2.0)">I</text><text xml:space="preserve" font-family="Akrobat-SemiBold" font-weight="bold" font-size="38.4" fill="#A9A9A9" transform="matrix(1.00, 0.00, -0.00, -1.00, 81.1, 2.0)">E</text><text xml:space="preserve" font-family="Akrobat-SemiBold" font-weight="bold" font-size="38.4" fill="#A9A9A9" transform="matrix(1.00, 0.00, -0.00, -1.00, 103.5, 2.0)">W</text><text xml:space="preserve" font-family="Akrobat-SemiBold" font-weight="bold" font-size="38.4" fill="#A9A9A9" transform="matrix(1.00, 0.00, -0.00, -1.00, 136.4, 2.0)">E</text><text xml:space="preserve" font-family="Akrobat-SemiBold" font-weight="bold" font-size="38.4" fill="#A9A9A9" transform="matrix(1.00, 0.00, -0.00, -1.00, 158.8, 2.0)">R</text><text xml:space="preserve" font-family="Akrobat-SemiBold" font-weight="bold" font-size="38.4" fill="#A9A9A9" transform="matrix(1.00, 0.00, -0.00, -1.00, 182.5, 2.0)">S</text><text xml:space="preserve" font-family="Akrobat-SemiBold" font-weight="bold" font-size="48.0" fill="#A9A9A9" transform="matrix(1.00, 0.00, -0.00, -1.00, 204.9, 2.0)"> </text><text xml:space="preserve" font-family="Akrobat-SemiBold" font-weight="bold" font-size="38.4" fill="#A9A9A9" transform="matrix(1.00, 0.00, -0.00, -1.00, 220.3, 2.0)">T</text><text xml:space="preserve" font-family="Akrobat-SemiBold" font-weight="bold" font-size="38.4" fill="#A9A9A9" transform="matrix(1.00, 0.00, -0.00, -1.00, 241.2, 2.0)">O</text><text xml:space="preserve" font-family="Akrobat-SemiBold" font-weight="bold" font-size="48.0" fill="#A9A9A9" transform="matrix(1.00, 0.00, -0.00, -1.00, 266.0, 2.0)"> </text><text xml:space="preserve" font-family="Akrobat-SemiBold" font-weight="bold" font-size="38.4" fill="#A9A9A9" transform="matrix(1.00, 0.00, -0.00, -1.00, 281.5, 2.0)">E</text><text xml:space="preserve" font-family="Akrobat-SemiBold" font-weight="bold" font-size="38.4" fill="#A9A9A9" transform="matrix(1.00, 0.00, -0.00, -1.00, 303.9, 2.0)">V</text><text xml:space="preserve" font-family="Akrobat-SemiBold" font-weight="bold" font-size="38.4" fill="#A9A9A9" transform="matrix(1.00, 0.00, -0.00, -1.00, 325.3, 2.0)">A</text><text xml:space="preserve" font-family="Akrobat-SemiBold" font-weight="bold" font-size="38.4" fill="#A9A9A9" transform="matrix(1.00, 0.00, -0.00, -1.00, 348.1, 2.0)">L</text><text xml:space="preserve" font-family="Akrobat-SemiBold" font-weight="bold" font-size="38.4" fill="#A9A9A9" transform="matrix(1.00, 0.00, -0.00, -1.00, 367.4, 2.0)">U</text><text xml:space="preserve" font-family="Akrobat-SemiBold" font-weight="bold" font-size="38.4" fill="#A9A9A9" transform="matrix(1.00, 0.00, -0.00, -1.00, 392.2, 2.0)">A</text><text xml:space="preserve" font-family="Akrobat-SemiBold" font-weight="bold" font-size="38.4" fill="#A9A9A9" transform="matrix(1.00, 0.00, -0.00, -1.00, 413.6, 2.0)">T</text><text xml:space="preserve" font-family="Akrobat-SemiBold" font-weight="bold" font-size="38.4" fill="#A9A9A9" transform="matrix(1.00, 0.00, -0.00, -1.00, 434.3, 2.0)">E</text></g></svg>