<?xml version="1.0" encoding="UTF-8" standalone="no"?><svg xmlns="http://www.w3.org/2000/svg" xmlns:xlink="http://www.w3.org/1999/xlink" clip-rule="evenodd" stroke-miterlimit="4.00" viewBox="0 0 48 49"><desc>SVG generated by Keynote</desc><defs></defs><g transform="matrix(1.00, 0.00, -0.00, -1.00, 0.0, 49.0)"><path d="M 39.6 39.8 C 48.1 31.2 48.1 17.2 39.6 8.6 C 31.0 0.0 17.0 0.0 8.4 8.6 C -0.1 17.2 -0.1 31.2 8.4 39.8 C 17.0 48.3 31.0 48.3 39.6 39.8 Z M 39.6 39.8 " fill="#FFDA52"></path><path d="M 37.6 6.4 C 46.1 15.0 46.1 29.0 37.6 37.6 C 29.0 46.1 15.0 46.1 6.4 37.6 C -2.1 29.0 -2.1 15.0 6.4 6.4 C 15.0 -2.1 29.0 -2.1 37.6 6.4 Z M 37.6 6.4 " fill="none" stroke="#FFDA52" stroke-width="2.00" transform="matrix(1.00, 0.00, 0.00, -1.00, 2.0, 46.2)"></path><g><clipPath id="clip-668"><path d="M 2.0 2.2 L 46.0 2.2 L 46.0 46.2 L 2.0 46.2 Z M 2.0 2.2 "></path></clipPath><g clip-path="url(#clip-668)"><text xml:space="preserve" font-family="Akrobat-Bold" font-weight="bold" font-size="20.0" fill="#FEFFFF" transform="matrix(1.00, 0.00, -0.00, -1.00, 13.0, 16.0)">1</text><text xml:space="preserve" font-family="Akrobat-Bold" font-weight="bold" font-size="20.0" fill="#FEFFFF" transform="matrix(1.00, 0.00, -0.00, -1.00, 20.9, 16.0)">.</text><text xml:space="preserve" font-family="Akrobat-Bold" font-weight="bold" font-size="20.0" fill="#FEFFFF" transform="matrix(1.00, 0.00, -0.00, -1.00, 26.8, 16.0)">5</text></g></g></g></svg>