<?xml version="1.0" encoding="UTF-8" standalone="no"?><svg xmlns="http://www.w3.org/2000/svg" xmlns:xlink="http://www.w3.org/1999/xlink" clip-rule="evenodd" stroke-miterlimit="4.00" viewBox="0 0 423 33"><desc>SVG generated by Keynote</desc><defs></defs><g transform="matrix(1.00, 0.00, -0.00, -1.00, 0.0, 33.0)"><path d="M 1.6 31.7 L 421.6 31.7 L 421.6 1.7 L 1.6 1.7 Z M 1.6 31.7 " fill="#000000" fill-opacity="0.51"></path><g><clipPath id="clip-491"><path d="M 0.2 0.3 L 423.0 0.3 L 423.0 33.1 L 0.2 33.1 Z M 0.2 0.3 "></path></clipPath><g clip-path="url(#clip-491)"><text xml:space="preserve" font-family="Akrobat-SemiBold" font-weight="bold" font-size="18.0" fill="#FEFFFF" transform="matrix(1.00, 0.00, -0.00, -1.00, 181.0, 9.0)">R</text><text xml:space="preserve" font-family="Akrobat-SemiBold" font-weight="bold" font-size="18.0" fill="#FEFFFF" transform="matrix(1.00, 0.00, -0.00, -1.00, 191.7, 9.0)">E</text><text xml:space="preserve" font-family="Akrobat-SemiBold" font-weight="bold" font-size="18.0" fill="#FEFFFF" transform="matrix(1.00, 0.00, -0.00, -1.00, 201.7, 9.0)">P</text><text xml:space="preserve" font-family="Akrobat-SemiBold" font-weight="bold" font-size="18.0" fill="#FEFFFF" transform="matrix(1.00, 0.00, -0.00, -1.00, 212.4, 9.0)">O</text><text xml:space="preserve" font-family="Akrobat-SemiBold" font-weight="bold" font-size="18.0" fill="#FEFFFF" transform="matrix(1.00, 0.00, -0.00, -1.00, 223.6, 9.0)">R</text><text xml:space="preserve" font-family="Akrobat-SemiBold" font-weight="bold" font-size="18.0" fill="#FEFFFF" transform="matrix(1.00, 0.00, -0.00, -1.00, 234.3, 9.0)">T</text></g></g></g></svg>