<?xml version="1.0" encoding="UTF-8" standalone="no"?><svg xmlns="http://www.w3.org/2000/svg" xmlns:xlink="http://www.w3.org/1999/xlink" clip-rule="evenodd" stroke-miterlimit="4.00" viewBox="0 0 102 149"><desc>SVG generated by Keynote</desc><defs></defs><g transform="matrix(1.00, 0.00, -0.00, -1.00, 0.0, 149.0)"><g><clipPath id="clip-504"><path d="M 1.0 48.9 L 101.0 48.9 L 101.0 148.9 L 1.0 148.9 Z M 1.0 48.9 "></path></clipPath><g clip-path="url(#clip-504)"><path d="M 81.9 14.1 C 100.7 32.8 100.7 63.2 81.9 81.9 C 63.2 100.7 32.8 100.7 14.1 81.9 C -4.7 63.2 -4.7 32.8 14.1 14.1 C 32.8 -4.7 63.2 -4.7 81.9 14.1 Z M 81.9 14.1 " fill="none" stroke="#FEFFFF" stroke-width="2.00" transform="matrix(1.00, 0.00, 0.00, -1.00, 3.0, 146.9)"></path></g></g><g><clipPath id="clip-505"><path d="M -1.3 50.9 L 103.3 50.9 L 103.3 146.9 L -1.3 146.9 Z M -1.3 50.9 "></path></clipPath><g clip-path="url(#clip-505)"><text xml:space="preserve" font-family="Akrobat-ExtraLight" font-size="36.0" fill="#FEFFFF" transform="matrix(1.00, 0.00, -0.00, -1.00, 27.0, 85.0)">9</text><text xml:space="preserve" font-family="Akrobat-ExtraLight" font-size="36.0" fill="#FEFFFF" transform="matrix(1.00, 0.00, -0.00, -1.00, 46.0, 85.0)">9</text><text xml:space="preserve" font-family="Akrobat-ExtraLight" font-size="24.0" fill="#FEFFFF" transform="matrix(1.00, 0.00, -0.00, -1.00, 65.0, 97.0)">¢</text></g></g><g><clipPath id="clip-506"><path d="M 1.4 1.2 L 190.9 1.2 L 190.9 43.6 L 1.4 43.6 Z M 1.4 1.2 "></path></clipPath><g clip-path="url(#clip-506)"><text xml:space="preserve" font-family="Akrobat-Regular" font-size="14.0" fill="#FEFFFF" transform="matrix(1.00, 0.00, -0.00, -1.00, 11.0, 25.0)">T</text><text xml:space="preserve" font-family="Akrobat-Regular" font-size="14.0" fill="#FEFFFF" transform="matrix(1.00, 0.00, -0.00, -1.00, 18.1, 25.0)">H</text><text xml:space="preserve" font-family="Akrobat-Regular" font-size="14.0" fill="#FEFFFF" transform="matrix(1.00, 0.00, -0.00, -1.00, 26.9, 25.0)">I</text><text xml:space="preserve" font-family="Akrobat-Regular" font-size="14.0" fill="#FEFFFF" transform="matrix(1.00, 0.00, -0.00, -1.00, 31.3, 25.0)">S</text><text xml:space="preserve" font-family="Akrobat-Regular" font-size="14.0" fill="#FEFFFF" transform="matrix(1.00, 0.00, -0.00, -1.00, 39.0, 25.0)"> </text><text xml:space="preserve" font-family="Akrobat-Regular" font-size="14.0" fill="#FEFFFF" transform="matrix(1.00, 0.00, -0.00, -1.00, 43.6, 25.0)">R</text><text xml:space="preserve" font-family="Akrobat-Regular" font-size="14.0" fill="#FEFFFF" transform="matrix(1.00, 0.00, -0.00, -1.00, 51.8, 25.0)">E</text><text xml:space="preserve" font-family="Akrobat-Regular" font-size="14.0" fill="#FEFFFF" transform="matrix(1.00, 0.00, -0.00, -1.00, 59.5, 25.0)">P</text><text xml:space="preserve" font-family="Akrobat-Regular" font-size="14.0" fill="#FEFFFF" transform="matrix(1.00, 0.00, -0.00, -1.00, 67.6, 25.0)">O</text><text xml:space="preserve" font-family="Akrobat-Regular" font-size="14.0" fill="#FEFFFF" transform="matrix(1.00, 0.00, -0.00, -1.00, 76.3, 25.0)">R</text><text xml:space="preserve" font-family="Akrobat-Regular" font-size="14.0" fill="#FEFFFF" transform="matrix(1.00, 0.00, -0.00, -1.00, 84.5, 25.0)">T</text><text xml:space="preserve" font-family="Akrobat-Regular" font-size="14.0" fill="#FEFFFF" transform="matrix(1.00, 0.00, -0.00, -1.00, 91.5, 25.0)"> </text><text xml:space="preserve" font-family="Akrobat-Regular" font-size="14.0" fill="#FEFFFF" transform="matrix(1.00, 0.00, -0.00, -1.00, 96.1, 25.0)"> </text></g></g></g></svg>