<?xml version="1.0" encoding="UTF-8" standalone="no"?><svg xmlns="http://www.w3.org/2000/svg" xmlns:xlink="http://www.w3.org/1999/xlink" clip-rule="evenodd" stroke-miterlimit="4.00" viewBox="0 0 424 32"><desc>SVG generated by Keynote</desc><defs></defs><g transform="matrix(1.00, 0.00, -0.00, -1.00, 0.0, 32.0)"><path d="M 2.0 29.0 L 422.0 29.0 L 422.0 2.0 L 2.0 2.0 Z M 2.0 29.0 " fill="#797979" fill-opacity="0.50"></path><path d="M 0.0 0.0 L 420.0 0.0 L 420.0 27.0 L 0.0 27.0 Z M 0.0 0.0 " fill="none" stroke="#FEFFFF" stroke-width="2.00" transform="matrix(1.00, 0.00, 0.00, -1.00, 2.0, 29.0)"></path><g><clipPath id="clip-2996"><path d="M 2.8 2.8 L 421.2 2.8 L 421.2 28.2 L 2.8 28.2 Z M 2.8 2.8 "></path></clipPath><g clip-path="url(#clip-2996)"><text xml:space="preserve" font-family="Akrobat-SemiBold" font-weight="bold" font-size="14.0" fill="#FEFFFF" transform="matrix(1.00, 0.00, -0.00, -1.00, 152.0, 10.0)">R</text><text xml:space="preserve" font-family="Akrobat-SemiBold" font-weight="bold" font-size="14.0" fill="#FEFFFF" transform="matrix(1.00, 0.00, -0.00, -1.00, 160.3, 10.0)">E</text><text xml:space="preserve" font-family="Akrobat-SemiBold" font-weight="bold" font-size="14.0" fill="#FEFFFF" transform="matrix(1.00, 0.00, -0.00, -1.00, 168.1, 10.0)">A</text><text xml:space="preserve" font-family="Akrobat-SemiBold" font-weight="bold" font-size="14.0" fill="#FEFFFF" transform="matrix(1.00, 0.00, -0.00, -1.00, 176.1, 10.0)">D</text><text xml:space="preserve" font-family="Akrobat-SemiBold" font-weight="bold" font-size="14.0" fill="#FEFFFF" transform="matrix(1.00, 0.00, -0.00, -1.00, 184.5, 10.0)"> </text><text xml:space="preserve" font-family="Akrobat-SemiBold" font-weight="bold" font-size="14.0" fill="#FEFFFF" transform="matrix(1.00, 0.00, -0.00, -1.00, 189.0, 10.0)">F</text><text xml:space="preserve" font-family="Akrobat-SemiBold" font-weight="bold" font-size="14.0" fill="#FEFFFF" transform="matrix(1.00, 0.00, -0.00, -1.00, 196.4, 10.0)">U</text><text xml:space="preserve" font-family="Akrobat-SemiBold" font-weight="bold" font-size="14.0" fill="#FEFFFF" transform="matrix(1.00, 0.00, -0.00, -1.00, 205.1, 10.0)">L</text><text xml:space="preserve" font-family="Akrobat-SemiBold" font-weight="bold" font-size="14.0" fill="#FEFFFF" transform="matrix(1.00, 0.00, -0.00, -1.00, 212.2, 10.0)">L</text><text xml:space="preserve" font-family="Akrobat-SemiBold" font-weight="bold" font-size="14.0" fill="#FEFFFF" transform="matrix(1.00, 0.00, -0.00, -1.00, 219.3, 10.0)"> </text><text xml:space="preserve" font-family="Akrobat-SemiBold" font-weight="bold" font-size="14.0" fill="#FEFFFF" transform="matrix(1.00, 0.00, -0.00, -1.00, 223.8, 10.0)">R</text><text xml:space="preserve" font-family="Akrobat-SemiBold" font-weight="bold" font-size="14.0" fill="#FEFFFF" transform="matrix(1.00, 0.00, -0.00, -1.00, 232.1, 10.0)">E</text><text xml:space="preserve" font-family="Akrobat-SemiBold" font-weight="bold" font-size="14.0" fill="#FEFFFF" transform="matrix(1.00, 0.00, -0.00, -1.00, 239.9, 10.0)">P</text><text xml:space="preserve" font-family="Akrobat-SemiBold" font-weight="bold" font-size="14.0" fill="#FEFFFF" transform="matrix(1.00, 0.00, -0.00, -1.00, 248.2, 10.0)">O</text><text xml:space="preserve" font-family="Akrobat-SemiBold" font-weight="bold" font-size="14.0" fill="#FEFFFF" transform="matrix(1.00, 0.00, -0.00, -1.00, 256.9, 10.0)">R</text><text xml:space="preserve" font-family="Akrobat-SemiBold" font-weight="bold" font-size="14.0" fill="#FEFFFF" transform="matrix(1.00, 0.00, -0.00, -1.00, 265.2, 10.0)">T</text></g></g></g></svg>