<?xml version="1.0" encoding="UTF-8" standalone="no"?><svg xmlns="http://www.w3.org/2000/svg" xmlns:xlink="http://www.w3.org/1999/xlink" clip-rule="evenodd" stroke-miterlimit="4.00" viewBox="0 0 105 18"><desc>SVG generated by Keynote</desc><defs></defs><g transform="matrix(1.00, 0.00, -0.00, -1.00, 0.0, 18.0)"><text xml:space="preserve" font-family="Akrobat-SemiBold" font-weight="bold" font-size="14.0" fill="#FEFFFF" transform="matrix(1.00, 0.00, -0.00, -1.00, 1.0, 2.0)">B</text><text xml:space="preserve" font-family="Akrobat-SemiBold" font-weight="bold" font-size="14.0" fill="#FEFFFF" transform="matrix(1.00, 0.00, -0.00, -1.00, 9.4, 2.0)">U</text><text xml:space="preserve" font-family="Akrobat-SemiBold" font-weight="bold" font-size="14.0" fill="#FEFFFF" transform="matrix(1.00, 0.00, -0.00, -1.00, 18.1, 2.0)">Y</text><text xml:space="preserve" font-family="Akrobat-SemiBold" font-weight="bold" font-size="14.0" fill="#FEFFFF" transform="matrix(1.00, 0.00, -0.00, -1.00, 25.6, 2.0)"> </text><text xml:space="preserve" font-family="Akrobat-SemiBold" font-weight="bold" font-size="14.0" fill="#FEFFFF" transform="matrix(1.00, 0.00, -0.00, -1.00, 30.1, 2.0)">W</text><text xml:space="preserve" font-family="Akrobat-SemiBold" font-weight="bold" font-size="14.0" fill="#FEFFFF" transform="matrix(1.00, 0.00, -0.00, -1.00, 41.8, 2.0)">I</text><text xml:space="preserve" font-family="Akrobat-SemiBold" font-weight="bold" font-size="14.0" fill="#FEFFFF" transform="matrix(1.00, 0.00, -0.00, -1.00, 46.4, 2.0)">T</text><text xml:space="preserve" font-family="Akrobat-SemiBold" font-weight="bold" font-size="14.0" fill="#FEFFFF" transform="matrix(1.00, 0.00, -0.00, -1.00, 53.6, 2.0)">H</text><text xml:space="preserve" font-family="Akrobat-SemiBold" font-weight="bold" font-size="14.0" fill="#FEFFFF" transform="matrix(1.00, 0.00, -0.00, -1.00, 62.4, 2.0)"> </text><text xml:space="preserve" font-family="LucidaGrande-Bold" font-weight="bold" font-size="14.0" fill="#FEFFFF" transform="matrix(1.00, 0.00, -0.00, -1.00, 66.9, 2.0)"></text><text xml:space="preserve" font-family="Akrobat-SemiBold" font-weight="bold" font-size="14.0" fill="#FEFFFF" transform="matrix(1.00, 0.00, -0.00, -1.00, 82.3, 2.0)">P</text><text xml:space="preserve" font-family="Akrobat-SemiBold" font-weight="bold" font-size="14.0" fill="#FEFFFF" transform="matrix(1.00, 0.00, -0.00, -1.00, 90.0, 2.0)">A</text><text xml:space="preserve" font-family="Akrobat-SemiBold" font-weight="bold" font-size="14.0" fill="#FEFFFF" transform="matrix(1.00, 0.00, -0.00, -1.00, 97.7, 2.0)">Y</text></g></svg>