<?xml version="1.0" encoding="UTF-8" standalone="no"?><svg xmlns="http://www.w3.org/2000/svg" xmlns:xlink="http://www.w3.org/1999/xlink" clip-rule="evenodd" stroke-miterlimit="4.00" viewBox="0 0 210 258"><desc>SVG generated by Keynote</desc><defs></defs><g transform="matrix(1.00, 0.00, -0.00, -1.00, 0.0, 258.0)"><g><clipPath id="clip-1876"><path d="M 3.0 256.0 L 208.0 256.0 L 208.0 56.0 L 3.0 56.0 Z M 2.5 256.4 "></path></clipPath><g clip-path="url(#clip-1876)"><g><clipPath id="clip-1877"><path d="M 1.5 55.4 L 208.5 55.4 L 208.5 257.4 L 1.5 257.4 Z M 1.5 55.4 "></path></clipPath><g clip-path="url(#clip-1877)"><image xlink:href="../../7D845C88-9D36-4D54-84B6-6D208BC815DA/assets/265EAB72B09A19BD068ED02E419A7BFE.png" width="498.00" height="332.00" transform="matrix(1.00, 0.00, -0.00, -0.65, -246.0, 264.0)"></image></g></g></g></g><g><clipPath id="clip-1878"><path d="M 1.5 55.4 L 208.5 55.4 L 208.5 257.4 L 1.5 257.4 Z M 1.5 55.4 "></path></clipPath><g clip-path="url(#clip-1878)"><path d="M 0.0 0.0 L 0.0 200.0 L 205.0 200.0 L 205.0 0.0 L 0.0 0.0 Z M 0.0 0.0 " fill="none" stroke="#FEFFFF" stroke-width="2.00" transform="matrix(1.00, 0.00, 0.00, -1.00, 2.5, 256.4)"></path></g></g><g><clipPath id="clip-1879"><path d="M 0.5 0.8 L 209.5 0.8 L 209.5 58.8 L 0.5 58.8 Z M 0.5 0.8 "></path></clipPath><g clip-path="url(#clip-1879)"><path d="M 2.5 56.8 L 207.5 56.8 L 207.5 2.8 L 2.5 2.8 Z M 2.5 56.8 " fill="#797979" fill-opacity="0.50"></path><path d="M 0.0 0.0 L 205.0 0.0 L 205.0 54.0 L 0.0 54.0 Z M 0.0 0.0 " fill="none" stroke="#FEFFFF" stroke-width="2.00" transform="matrix(1.00, 0.00, 0.00, -1.00, 2.5, 56.8)"></path></g></g><g><clipPath id="clip-1880"><path d="M 2.1 2.4 L 207.9 2.4 L 207.9 57.2 L 2.1 57.2 Z M 2.1 2.4 "></path></clipPath><g clip-path="url(#clip-1880)"><text xml:space="preserve" font-family="Akrobat-SemiBold" font-weight="bold" font-size="18.0" fill="#FEFFFF" transform="matrix(1.00, 0.00, -0.00, -1.00, 51.0, 33.0)">1</text><text xml:space="preserve" font-family="Akrobat-SemiBold" font-weight="bold" font-size="18.0" fill="#FEFFFF" transform="matrix(1.00, 0.00, -0.00, -1.00, 58.0, 33.0)">8</text><text xml:space="preserve" font-family="Akrobat-SemiBold" font-weight="bold" font-size="18.0" fill="#FEFFFF" transform="matrix(1.00, 0.00, -0.00, -1.00, 68.0, 33.0)">5</text><text xml:space="preserve" font-family="Akrobat-SemiBold" font-weight="bold" font-size="18.0" fill="#FEFFFF" transform="matrix(1.00, 0.00, -0.00, -1.00, 77.3, 33.0)">5</text><text xml:space="preserve" font-family="Akrobat-SemiBold" font-weight="bold" font-size="18.0" fill="#FEFFFF" transform="matrix(1.00, 0.00, -0.00, -1.00, 86.6, 33.0)"> </text><text xml:space="preserve" font-family="Akrobat-SemiBold" font-weight="bold" font-size="18.0" fill="#FEFFFF" transform="matrix(1.00, 0.00, -0.00, -1.00, 92.4, 33.0)">K</text><text xml:space="preserve" font-family="Akrobat-SemiBold" font-weight="bold" font-size="18.0" fill="#FEFFFF" transform="matrix(1.00, 0.00, -0.00, -1.00, 103.0, 33.0)"> </text><text xml:space="preserve" font-family="Akrobat-SemiBold" font-weight="bold" font-size="18.0" fill="#FEFFFF" transform="matrix(1.00, 0.00, -0.00, -1.00, 108.8, 33.0)">S</text><text xml:space="preserve" font-family="Akrobat-SemiBold" font-weight="bold" font-size="18.0" fill="#FEFFFF" transform="matrix(1.00, 0.00, -0.00, -1.00, 118.9, 33.0)">T</text><text xml:space="preserve" font-family="Akrobat-SemiBold" font-weight="bold" font-size="18.0" fill="#FEFFFF" transform="matrix(1.00, 0.00, -0.00, -1.00, 128.2, 33.0)"> </text><text xml:space="preserve" font-family="Akrobat-SemiBold" font-weight="bold" font-size="18.0" fill="#FEFFFF" transform="matrix(1.00, 0.00, -0.00, -1.00, 134.0, 33.0)">N</text><text xml:space="preserve" font-family="Akrobat-SemiBold" font-weight="bold" font-size="18.0" fill="#FEFFFF" transform="matrix(1.00, 0.00, -0.00, -1.00, 145.6, 33.0)">W</text><text xml:space="preserve" font-family="Akrobat-SemiBold" font-weight="bold" font-size="18.0" fill="#FEFFFF" transform="matrix(1.00, 0.00, -0.00, -1.00, 160.6, 33.0)"> </text><text xml:space="preserve" font-family="Akrobat-SemiBold" font-weight="bold" font-size="18.0" fill="#FEFFFF" transform="matrix(1.00, 0.00, -0.00, -1.00, 9.0, 11.0)">W</text><text xml:space="preserve" font-family="Akrobat-SemiBold" font-weight="bold" font-size="18.0" fill="#FEFFFF" transform="matrix(1.00, 0.00, -0.00, -1.00, 23.5, 11.0)">A</text><text xml:space="preserve" font-family="Akrobat-SemiBold" font-weight="bold" font-size="18.0" fill="#FEFFFF" transform="matrix(1.00, 0.00, -0.00, -1.00, 33.6, 11.0)">S</text><text xml:space="preserve" font-family="Akrobat-SemiBold" font-weight="bold" font-size="18.0" fill="#FEFFFF" transform="matrix(1.00, 0.00, -0.00, -1.00, 43.5, 11.0)">H</text><text xml:space="preserve" font-family="Akrobat-SemiBold" font-weight="bold" font-size="18.0" fill="#FEFFFF" transform="matrix(1.00, 0.00, -0.00, -1.00, 54.9, 11.0)">I</text><text xml:space="preserve" font-family="Akrobat-SemiBold" font-weight="bold" font-size="18.0" fill="#FEFFFF" transform="matrix(1.00, 0.00, -0.00, -1.00, 60.8, 11.0)">N</text><text xml:space="preserve" font-family="Akrobat-SemiBold" font-weight="bold" font-size="18.0" fill="#FEFFFF" transform="matrix(1.00, 0.00, -0.00, -1.00, 72.5, 11.0)">G</text><text xml:space="preserve" font-family="Akrobat-SemiBold" font-weight="bold" font-size="18.0" fill="#FEFFFF" transform="matrix(1.00, 0.00, -0.00, -1.00, 83.3, 11.0)">T</text><text xml:space="preserve" font-family="Akrobat-SemiBold" font-weight="bold" font-size="18.0" fill="#FEFFFF" transform="matrix(1.00, 0.00, -0.00, -1.00, 92.6, 11.0)">O</text><text xml:space="preserve" font-family="Akrobat-SemiBold" font-weight="bold" font-size="18.0" fill="#FEFFFF" transform="matrix(1.00, 0.00, -0.00, -1.00, 103.8, 11.0)">N</text><text xml:space="preserve" font-family="Akrobat-SemiBold" font-weight="bold" font-size="18.0" fill="#FEFFFF" transform="matrix(1.00, 0.00, -0.00, -1.00, 115.5, 11.0)">,</text><text xml:space="preserve" font-family="Akrobat-SemiBold" font-weight="bold" font-size="18.0" fill="#FEFFFF" transform="matrix(1.00, 0.00, -0.00, -1.00, 120.2, 11.0)"> </text><text xml:space="preserve" font-family="Akrobat-SemiBold" font-weight="bold" font-size="18.0" fill="#FEFFFF" transform="matrix(1.00, 0.00, -0.00, -1.00, 125.9, 11.0)">D</text><text xml:space="preserve" font-family="Akrobat-SemiBold" font-weight="bold" font-size="18.0" fill="#FEFFFF" transform="matrix(1.00, 0.00, -0.00, -1.00, 136.8, 11.0)">C</text><text xml:space="preserve" font-family="Akrobat-SemiBold" font-weight="bold" font-size="18.0" fill="#FEFFFF" transform="matrix(1.00, 0.00, -0.00, -1.00, 147.4, 11.0)"> </text><text xml:space="preserve" font-family="Akrobat-SemiBold" font-weight="bold" font-size="18.0" fill="#FEFFFF" transform="matrix(1.00, 0.00, -0.00, -1.00, 153.2, 11.0)">2</text><text xml:space="preserve" font-family="Akrobat-SemiBold" font-weight="bold" font-size="18.0" fill="#FEFFFF" transform="matrix(1.00, 0.00, -0.00, -1.00, 162.4, 11.0)">0</text><text xml:space="preserve" font-family="Akrobat-SemiBold" font-weight="bold" font-size="18.0" fill="#FEFFFF" transform="matrix(1.00, 0.00, -0.00, -1.00, 172.5, 11.0)">0</text><text xml:space="preserve" font-family="Akrobat-SemiBold" font-weight="bold" font-size="18.0" fill="#FEFFFF" transform="matrix(1.00, 0.00, -0.00, -1.00, 182.7, 11.0)">0</text><text xml:space="preserve" font-family="Akrobat-SemiBold" font-weight="bold" font-size="18.0" fill="#FEFFFF" transform="matrix(1.00, 0.00, -0.00, -1.00, 192.9, 11.0)">2</text></g></g></g></svg>