<?xml version="1.0" encoding="UTF-8" standalone="no"?><svg xmlns="http://www.w3.org/2000/svg" xmlns:xlink="http://www.w3.org/1999/xlink" clip-rule="evenodd" stroke-miterlimit="4.00" viewBox="0 0 126 139"><desc>SVG generated by Keynote</desc><defs></defs><g transform="matrix(1.00, 0.00, -0.00, -1.00, 0.0, 139.0)"><g><clipPath id="clip-1868"><path d="M 98.1 121.6 C 117.7 102.1 117.7 70.5 98.1 50.9 C 78.6 31.4 47.0 31.4 27.4 50.9 C 7.9 70.5 7.9 102.1 27.4 121.6 C 47.0 141.2 78.6 141.2 98.1 121.6 Z M 98.1 121.6 "></path></clipPath><g clip-path="url(#clip-1868)"><g><clipPath id="clip-1869"><path d="M 10.8 34.3 L 114.8 34.3 L 114.8 138.3 L 10.8 138.3 Z M 10.8 34.3 "></path></clipPath><g clip-path="url(#clip-1869)"><image xlink:href="../../A7F56E83-3409-4C94-8A14-5763672FA6E0/assets/2C5BAB8805D629FCCF097B961E18B253.jpeg" width="224.00" height="103.00" transform="matrix(0.97, 0.00, -0.00, -0.97, -45.8, 136.3)"></image></g></g></g></g><g><clipPath id="clip-1870"><path d="M 10.8 34.3 L 114.8 34.3 L 114.8 138.3 L 10.8 138.3 Z M 10.8 34.3 "></path></clipPath><g clip-path="url(#clip-1870)"><path d="M 85.4 14.6 C 104.9 34.2 104.9 65.8 85.4 85.4 C 65.8 104.9 34.2 104.9 14.6 85.4 C -4.9 65.8 -4.9 34.2 14.6 14.6 C 34.2 -4.9 65.8 -4.9 85.4 14.6 Z M 85.4 14.6 " fill="none" stroke="#FEFFFF" stroke-width="2.00" transform="matrix(1.00, 0.00, 0.00, -1.00, 12.8, 136.3)"></path></g></g><g><clipPath id="clip-1871"><path d="M -0.0 0.6 L 125.6 0.6 L 125.6 33.4 L -0.0 33.4 Z M -0.0 0.6 "></path></clipPath><g clip-path="url(#clip-1871)"><text xml:space="preserve" font-family="Akrobat-SemiBold" font-weight="bold" font-size="18.0" fill="#FEFFFF" transform="matrix(1.00, 0.00, -0.00, -1.00, 6.0, 10.0)">B</text><text xml:space="preserve" font-family="Akrobat-SemiBold" font-weight="bold" font-size="18.0" fill="#FEFFFF" transform="matrix(1.00, 0.00, -0.00, -1.00, 16.5, 10.0)">A</text><text xml:space="preserve" font-family="Akrobat-SemiBold" font-weight="bold" font-size="18.0" fill="#FEFFFF" transform="matrix(1.00, 0.00, -0.00, -1.00, 26.7, 10.0)">B</text><text xml:space="preserve" font-family="Akrobat-SemiBold" font-weight="bold" font-size="18.0" fill="#FEFFFF" transform="matrix(1.00, 0.00, -0.00, -1.00, 37.5, 10.0)">S</text><text xml:space="preserve" font-family="Akrobat-SemiBold" font-weight="bold" font-size="18.0" fill="#FEFFFF" transform="matrix(1.00, 0.00, -0.00, -1.00, 47.6, 10.0)"> </text><text xml:space="preserve" font-family="Akrobat-SemiBold" font-weight="bold" font-size="18.0" fill="#FEFFFF" transform="matrix(1.00, 0.00, -0.00, -1.00, 53.4, 10.0)">G</text><text xml:space="preserve" font-family="Akrobat-SemiBold" font-weight="bold" font-size="18.0" fill="#FEFFFF" transform="matrix(1.00, 0.00, -0.00, -1.00, 64.2, 10.0)">O</text><text xml:space="preserve" font-family="Akrobat-SemiBold" font-weight="bold" font-size="18.0" fill="#FEFFFF" transform="matrix(1.00, 0.00, -0.00, -1.00, 75.4, 10.0)">R</text><text xml:space="preserve" font-family="Akrobat-SemiBold" font-weight="bold" font-size="18.0" fill="#FEFFFF" transform="matrix(1.00, 0.00, -0.00, -1.00, 86.1, 10.0)">D</text><text xml:space="preserve" font-family="Akrobat-SemiBold" font-weight="bold" font-size="18.0" fill="#FEFFFF" transform="matrix(1.00, 0.00, -0.00, -1.00, 97.0, 10.0)">O</text><text xml:space="preserve" font-family="Akrobat-SemiBold" font-weight="bold" font-size="18.0" fill="#FEFFFF" transform="matrix(1.00, 0.00, -0.00, -1.00, 108.2, 10.0)">N</text></g></g></g></svg>