<?xml version="1.0" encoding="UTF-8" standalone="no"?><svg xmlns="http://www.w3.org/2000/svg" xmlns:xlink="http://www.w3.org/1999/xlink" clip-rule="evenodd" stroke-miterlimit="4.00" viewBox="0 0 120 139"><desc>SVG generated by Keynote</desc><defs></defs><g transform="matrix(1.00, 0.00, -0.00, -1.00, 0.0, 139.0)"><g><clipPath id="clip-1864"><path d="M 95.5 121.6 C 115.0 102.1 115.0 70.5 95.5 50.9 C 76.0 31.4 44.3 31.4 24.8 50.9 C 5.3 70.5 5.3 102.1 24.8 121.6 C 44.3 141.2 76.0 141.2 95.5 121.6 Z M 95.5 121.6 "></path></clipPath><g clip-path="url(#clip-1864)"><g><clipPath id="clip-1865"><path d="M 8.1 34.3 L 112.1 34.3 L 112.1 138.3 L 8.1 138.3 Z M 8.1 34.3 "></path></clipPath><g clip-path="url(#clip-1865)"><image xlink:href="../../452615F7-26D9-4567-A7A7-81A717ADE565/assets/1B1FB6C32AC8C9342D5987367E6BD8E5.png" width="103.00" height="109.00" transform="matrix(0.97, 0.00, -0.00, -0.97, 10.1, 139.1)"></image></g></g></g></g><g><clipPath id="clip-1866"><path d="M 8.1 34.3 L 112.1 34.3 L 112.1 138.3 L 8.1 138.3 Z M 8.1 34.3 "></path></clipPath><g clip-path="url(#clip-1866)"><path d="M 85.4 14.6 C 104.9 34.2 104.9 65.8 85.4 85.4 C 65.8 104.9 34.2 104.9 14.6 85.4 C -4.9 65.8 -4.9 34.2 14.6 14.6 C 34.2 -4.9 65.8 -4.9 85.4 14.6 Z M 85.4 14.6 " fill="none" stroke="#FEFFFF" stroke-width="2.00" transform="matrix(1.00, 0.00, 0.00, -1.00, 10.1, 136.3)"></path></g></g><g><clipPath id="clip-1867"><path d="M 0.4 0.6 L 119.9 0.6 L 119.9 33.4 L 0.4 33.4 Z M 0.4 0.6 "></path></clipPath><g clip-path="url(#clip-1867)"><text xml:space="preserve" font-family="Akrobat-SemiBold" font-weight="bold" font-size="18.0" fill="#FEFFFF" transform="matrix(1.00, 0.00, -0.00, -1.00, 6.0, 10.0)">B</text><text xml:space="preserve" font-family="Akrobat-SemiBold" font-weight="bold" font-size="18.0" fill="#FEFFFF" transform="matrix(1.00, 0.00, -0.00, -1.00, 16.5, 10.0)">A</text><text xml:space="preserve" font-family="Akrobat-SemiBold" font-weight="bold" font-size="18.0" fill="#FEFFFF" transform="matrix(1.00, 0.00, -0.00, -1.00, 26.7, 10.0)">R</text><text xml:space="preserve" font-family="Akrobat-SemiBold" font-weight="bold" font-size="18.0" fill="#FEFFFF" transform="matrix(1.00, 0.00, -0.00, -1.00, 37.4, 10.0)">R</text><text xml:space="preserve" font-family="Akrobat-SemiBold" font-weight="bold" font-size="18.0" fill="#FEFFFF" transform="matrix(1.00, 0.00, -0.00, -1.00, 48.1, 10.0)">Y</text><text xml:space="preserve" font-family="Akrobat-SemiBold" font-weight="bold" font-size="18.0" fill="#FEFFFF" transform="matrix(1.00, 0.00, -0.00, -1.00, 57.8, 10.0)"> </text><text xml:space="preserve" font-family="Akrobat-SemiBold" font-weight="bold" font-size="18.0" fill="#FEFFFF" transform="matrix(1.00, 0.00, -0.00, -1.00, 63.5, 10.0)">A</text><text xml:space="preserve" font-family="Akrobat-SemiBold" font-weight="bold" font-size="18.0" fill="#FEFFFF" transform="matrix(1.00, 0.00, -0.00, -1.00, 73.8, 10.0)">L</text><text xml:space="preserve" font-family="Akrobat-SemiBold" font-weight="bold" font-size="18.0" fill="#FEFFFF" transform="matrix(1.00, 0.00, -0.00, -1.00, 82.9, 10.0)">L</text><text xml:space="preserve" font-family="Akrobat-SemiBold" font-weight="bold" font-size="18.0" fill="#FEFFFF" transform="matrix(1.00, 0.00, -0.00, -1.00, 92.0, 10.0)">E</text><text xml:space="preserve" font-family="Akrobat-SemiBold" font-weight="bold" font-size="18.0" fill="#FEFFFF" transform="matrix(1.00, 0.00, -0.00, -1.00, 102.0, 10.0)">N</text></g></g></g></svg>