<?xml version="1.0" encoding="UTF-8" standalone="no"?><svg xmlns="http://www.w3.org/2000/svg" xmlns:xlink="http://www.w3.org/1999/xlink" clip-rule="evenodd" stroke-miterlimit="4.00" viewBox="0 0 193 22"><desc>SVG generated by Keynote</desc><defs></defs><g transform="matrix(1.00, 0.00, -0.00, -1.00, 0.0, 22.0)"><text xml:space="preserve" font-family="JosefinSans-Bold" font-weight="bold" font-size="18.0" fill="#000000" transform="matrix(1.00, 0.00, -0.00, -1.00, 2.0, 6.0)">w</text><text xml:space="preserve" font-family="JosefinSans-Bold" font-weight="bold" font-size="18.0" fill="#000000" transform="matrix(1.00, 0.00, -0.00, -1.00, 13.9, 6.0)">w</text><text xml:space="preserve" font-family="JosefinSans-Bold" font-weight="bold" font-size="18.0" fill="#000000" transform="matrix(1.00, 0.00, -0.00, -1.00, 25.8, 6.0)">w</text><text xml:space="preserve" font-family="JosefinSans-Bold" font-weight="bold" font-size="18.0" fill="#000000" transform="matrix(1.00, 0.00, -0.00, -1.00, 37.2, 6.0)">.</text><text xml:space="preserve" font-family="JosefinSans-Bold" font-weight="bold" font-size="18.0" fill="#000000" transform="matrix(1.00, 0.00, -0.00, -1.00, 41.2, 6.0)">c</text><text xml:space="preserve" font-family="JosefinSans-Bold" font-weight="bold" font-size="18.0" fill="#000000" transform="matrix(1.00, 0.00, -0.00, -1.00, 48.9, 6.0)">r</text><text xml:space="preserve" font-family="JosefinSans-Bold" font-weight="bold" font-size="18.0" fill="#000000" transform="matrix(1.00, 0.00, -0.00, -1.00, 54.6, 6.0)">a</text><text xml:space="preserve" font-family="JosefinSans-Bold" font-weight="bold" font-size="18.0" fill="#000000" transform="matrix(1.00, 0.00, -0.00, -1.00, 64.4, 6.0)">n</text><text xml:space="preserve" font-family="JosefinSans-Bold" font-weight="bold" font-size="18.0" fill="#000000" transform="matrix(1.00, 0.00, -0.00, -1.00, 73.8, 6.0)">f</text><text xml:space="preserve" font-family="JosefinSans-Bold" font-weight="bold" font-size="18.0" fill="#000000" transform="matrix(1.00, 0.00, -0.00, -1.00, 79.8, 6.0)">o</text><text xml:space="preserve" font-family="JosefinSans-Bold" font-weight="bold" font-size="18.0" fill="#000000" transform="matrix(1.00, 0.00, -0.00, -1.00, 89.0, 6.0)">r</text><text xml:space="preserve" font-family="JosefinSans-Bold" font-weight="bold" font-size="18.0" fill="#000000" transform="matrix(1.00, 0.00, -0.00, -1.00, 94.7, 6.0)">d</text><text xml:space="preserve" font-family="JosefinSans-Bold" font-weight="bold" font-size="18.0" fill="#000000" transform="matrix(1.00, 0.00, -0.00, -1.00, 104.6, 6.0)">t</text><text xml:space="preserve" font-family="JosefinSans-Bold" font-weight="bold" font-size="18.0" fill="#000000" transform="matrix(1.00, 0.00, -0.00, -1.00, 110.1, 6.0)">e</text><text xml:space="preserve" font-family="JosefinSans-Bold" font-weight="bold" font-size="18.0" fill="#000000" transform="matrix(1.00, 0.00, -0.00, -1.00, 118.6, 6.0)">a</text><text xml:space="preserve" font-family="JosefinSans-Bold" font-weight="bold" font-size="18.0" fill="#000000" transform="matrix(1.00, 0.00, -0.00, -1.00, 128.5, 6.0)">g</text><text xml:space="preserve" font-family="JosefinSans-Bold" font-weight="bold" font-size="18.0" fill="#000000" transform="matrix(1.00, 0.00, -0.00, -1.00, 138.3, 6.0)">u</text><text xml:space="preserve" font-family="JosefinSans-Bold" font-weight="bold" font-size="18.0" fill="#000000" transform="matrix(1.00, 0.00, -0.00, -1.00, 147.7, 6.0)">e</text><text xml:space="preserve" font-family="JosefinSans-Bold" font-weight="bold" font-size="18.0" fill="#000000" transform="matrix(1.00, 0.00, -0.00, -1.00, 156.3, 6.0)">.</text><text xml:space="preserve" font-family="JosefinSans-Bold" font-weight="bold" font-size="18.0" fill="#000000" transform="matrix(1.00, 0.00, -0.00, -1.00, 160.3, 6.0)">c</text><text xml:space="preserve" font-family="JosefinSans-Bold" font-weight="bold" font-size="18.0" fill="#000000" transform="matrix(1.00, 0.00, -0.00, -1.00, 167.7, 6.0)">o</text><text xml:space="preserve" font-family="JosefinSans-Bold" font-weight="bold" font-size="18.0" fill="#000000" transform="matrix(1.00, 0.00, -0.00, -1.00, 177.0, 6.0)">m</text></g></svg>