<?xml version="1.0" encoding="UTF-8" standalone="no"?><svg xmlns="http://www.w3.org/2000/svg" xmlns:xlink="http://www.w3.org/1999/xlink" clip-rule="evenodd" stroke-miterlimit="4.00" viewBox="0 0 1920 1080"><desc>SVG generated by Keynote</desc><defs><linearGradient id="gradSh1.56" x1="0.0" y1="0.0" x2="100.0" y2="0.0" gradientUnits="userSpaceOnUse" gradientTransform="matrix(4.22, 0.00, 0.00, -0.12, 750.6, 687.8)"><stop offset="0.00000" stop-color="#FFBF00"></stop><stop offset="0.01540" stop-color="#FEC000"></stop><stop offset="0.17595" stop-color="#7EFF01"></stop><stop offset="0.17742" stop-color="#7DFF01"></stop><stop offset="0.17815" stop-color="#7CFF02"></stop><stop offset="0.17962" stop-color="#7BFF02"></stop><stop offset="0.18328" stop-color="#78FF04"></stop><stop offset="0.18475" stop-color="#77FF04"></stop><stop offset="0.19428" stop-color="#70FF08"></stop><stop offset="0.19501" stop-color="#6FFF08"></stop><stop offset="0.21481" stop-color="#60FF10"></stop><stop offset="0.21628" stop-color="#5FFF10"></stop><stop offset="0.25660" stop-color="#40FF20"></stop><stop offset="0.25806" stop-color="#3FFF20"></stop><stop offset="0.25953" stop-color="#3EFF21"></stop><stop offset="0.29912" stop-color="#1FFF30"></stop><stop offset="0.30132" stop-color="#1EFF31"></stop><stop offset="0.32038" stop-color="#0FFF38"></stop><stop offset="0.32331" stop-color="#0DFF39"></stop><stop offset="0.33065" stop-color="#07FF3C"></stop><stop offset="0.33284" stop-color="#06FF3D"></stop><stop offset="0.33578" stop-color="#03FF3E"></stop><stop offset="0.33798" stop-color="#02FF3F"></stop><stop offset="0.33871" stop-color="#01FF3F"></stop><stop offset="0.33944" stop-color="#00FF40"></stop><stop offset="0.34091" stop-color="#00FF41"></stop><stop offset="0.62317" stop-color="#007FFF"></stop><stop offset="0.62610" stop-color="#007CFF"></stop><stop offset="0.68109" stop-color="#013FFF"></stop><stop offset="0.68255" stop-color="#023FFF"></stop><stop offset="0.68475" stop-color="#033EFF"></stop><stop offset="0.68548" stop-color="#043EFF"></stop><stop offset="0.68695" stop-color="#053DFF"></stop><stop offset="0.69062" stop-color="#083CFF"></stop><stop offset="0.69355" stop-color="#0A3BFF"></stop><stop offset="0.70088" stop-color="#1039FF"></stop><stop offset="0.70161" stop-color="#1038FF"></stop><stop offset="0.72141" stop-color="#2031FF"></stop><stop offset="0.72361" stop-color="#2131FF"></stop><stop offset="0.76320" stop-color="#4023FF"></stop><stop offset="0.76393" stop-color="#4022FF"></stop><stop offset="0.84677" stop-color="#8005FF"></stop><stop offset="0.84897" stop-color="#8104FF"></stop><stop offset="0.85044" stop-color="#8205FE"></stop><stop offset="1.00000" stop-color="#942177"></stop></linearGradient></defs><g transform="matrix(1.00, 0.00, -0.00, -1.00, 0.0, 1080.0)"><path d="M 0.0 1080.0 L 1920.0 1080.0 L 1920.0 0.0 L 0.0 0.0 Z M 0.0 1080.0 " fill="#FEFFFF"></path><g opacity="0.50"><g><clipPath id="clip-965"><path d="M 1206.0 757.0 L 1207.5 757.0 C 1208.3 757.0 1209.0 757.7 1209.0 758.5 L 1209.0 830.5 C 1209.0 831.3 1208.3 832.0 1207.5 832.0 L 1206.0 832.0 L 1206.0 972.0 C 1206.0 1013.4 1172.4 1047.0 1131.0 1047.0 L 790.0 1047.0 C 748.6 1047.0 715.0 1013.4 715.0 972.0 L 715.0 919.0 L 713.5 919.0 C 712.7 919.0 712.0 918.3 712.0 917.5 L 712.0 879.5 C 712.0 878.7 712.7 878.0 713.5 878.0 L 715.0 878.0 L 715.0 832.0 L 713.5 832.0 C 712.7 832.0 712.0 831.3 712.0 830.5 L 712.0 758.5 C 712.0 757.7 712.7 757.0 713.5 757.0 L 715.0 757.0 L 715.0 740.0 L 713.5 740.0 C 712.7 740.0 712.0 739.3 712.0 738.5 L 712.0 666.5 C 712.0 665.7 712.7 665.0 713.5 665.0 L 715.0 665.0 L 715.0 108.0 C 715.0 66.6 748.6 33.0 790.0 33.0 L 1131.0 33.0 C 1172.4 33.0 1206.0 66.6 1206.0 108.0 L 1206.0 757.0 L 1206.0 757.0 L 1206.0 757.0 Z M 745.0 924.0 L 745.0 158.0 L 1176.0 158.0 L 1176.0 924.0 L 745.0 924.0 L 745.0 924.0 Z M 960.0 64.0 C 981.0 64.0 998.0 81.0 998.0 102.0 C 998.0 123.0 981.0 140.0 960.0 140.0 C 939.0 140.0 922.0 123.0 922.0 102.0 C 922.0 81.0 939.0 64.0 960.0 64.0 L 960.0 64.0 Z M 960.0 68.0 C 978.8 68.0 994.0 83.2 994.0 102.0 C 994.0 120.8 978.8 136.0 960.0 136.0 C 941.2 136.0 926.0 120.8 926.0 102.0 C 926.0 83.2 941.2 68.0 960.0 68.0 L 960.0 68.0 Z M 882.0 975.0 C 886.4 975.0 890.0 978.6 890.0 983.0 C 890.0 987.4 886.4 991.0 882.0 991.0 C 877.6 991.0 874.0 987.4 874.0 983.0 C 874.0 978.6 877.6 975.0 882.0 975.0 L 882.0 975.0 Z M 961.0 1010.0 C 963.8 1010.0 966.0 1012.2 966.0 1015.0 C 966.0 1017.8 963.8 1020.0 961.0 1020.0 C 958.2 1020.0 956.0 1017.8 956.0 1015.0 C 956.0 1012.2 958.2 1010.0 961.0 1010.0 L 961.0 1010.0 Z M 925.0 987.0 C 922.8 987.0 921.0 985.2 921.0 983.0 C 921.0 980.8 922.8 979.0 925.0 979.0 L 997.0 979.0 C 999.2 979.0 1001.0 980.8 1001.0 983.0 C 1001.0 985.2 999.2 987.0 997.0 987.0 L 925.0 987.0 L 925.0 987.0 Z M 925.0 987.0 "></path></clipPath><g clip-path="url(#clip-965)"><g><clipPath id="clip-966"><path d="M 712.0 33.0 L 1209.0 33.0 L 1209.0 1047.0 L 712.0 1047.0 Z M 712.0 33.0 "></path></clipPath><g clip-path="url(#clip-966)"><path d="M 707.0 1052.0 L 1214.0 1052.0 L 1214.0 28.0 L 707.0 28.0 Z M 707.0 1052.0 " fill="#000000"></path></g></g></g></g></g><image xlink:href="../../7D845C88-9D36-4D54-84B6-6D208BC815DA/assets/23B6A4889E4950E0BA49A0B1EBAA65A9.png" width="50.00" height="50.00" transform="matrix(1.00, 0.00, -0.00, -1.00, 935.0, 916.0)"></image><path d="M 750.0 859.0 L 1170.0 859.0 L 1170.0 829.0 L 750.0 829.0 Z M 750.0 859.0 " fill="#000000"></path><g><clipPath id="clip-967"><path d="M 748.6 827.6 L 1171.4 827.6 L 1171.4 860.4 L 748.6 860.4 Z M 748.6 827.6 "></path></clipPath><g clip-path="url(#clip-967)"><text xml:space="preserve" font-family="Akrobat-Black" font-weight="bold" font-size="18.0" fill="#FEFFFF" transform="matrix(1.00, 0.00, -0.00, -1.00, 945.0, 837.0)">R</text><text xml:space="preserve" font-family="Akrobat-Black" font-weight="bold" font-size="18.0" fill="#FEFFFF" transform="matrix(1.00, 0.00, -0.00, -1.00, 956.3, 837.0)">E</text><text xml:space="preserve" font-family="Akrobat-Black" font-weight="bold" font-size="18.0" fill="#FEFFFF" transform="matrix(1.00, 0.00, -0.00, -1.00, 966.5, 837.0)">F</text></g></g><g><clipPath id="clip-968"><path d="M 1144.0 873.0 L 1170.0 873.0 L 1170.0 900.0 L 1144.0 900.0 Z M 1144.0 873.0 "></path></clipPath><g clip-path="url(#clip-968)"><path d="M 1168.1 883.9 C 1166.7 886.4 1167.5 889.5 1170.0 890.9 L 1167.3 895.5 C 1166.6 895.1 1165.7 894.8 1164.7 894.8 C 1161.9 894.8 1159.6 897.1 1159.6 900.0 L 1154.3 900.0 C 1154.4 899.1 1154.1 898.2 1153.7 897.4 C 1152.3 894.9 1149.1 894.1 1146.7 895.5 L 1144.0 891.0 C 1144.8 890.5 1145.4 889.9 1145.9 889.1 C 1147.3 886.6 1146.5 883.5 1144.0 882.1 L 1146.7 877.5 C 1147.4 877.9 1148.3 878.2 1149.2 878.2 C 1152.0 878.2 1154.3 875.9 1154.3 873.1 L 1159.6 873.1 C 1159.6 873.9 1159.8 874.8 1160.3 875.6 C 1161.7 878.1 1164.8 878.9 1167.3 877.5 L 1169.9 882.1 C 1169.2 882.5 1168.5 883.1 1168.1 883.9 Z M 1157.0 881.1 C 1154.0 881.1 1151.5 883.5 1151.5 886.5 C 1151.5 889.5 1154.0 892.0 1157.0 892.0 C 1160.0 892.0 1162.4 889.5 1162.4 886.5 C 1162.4 883.5 1160.0 881.1 1157.0 881.1 Z M 1157.0 881.1 " fill="#000000"></path></g></g><g opacity="0.26"><g><clipPath id="clip-969"><path d="M 1385.0 38.0 L 1886.0 38.0 L 1886.0 141.0 L 1385.0 141.0 Z M 1385.0 38.0 "></path></clipPath><g clip-path="url(#clip-969)"><image xlink:href="../../F28C9CA0-A05A-4A2C-90F7-8BC49B335395/assets/C81748EE4541B41AB8E62948DB0A057F.png" width="498.00" height="100.00" transform="matrix(1.00, 0.00, -0.00, -1.00, 1387.0, 140.0)"></image></g></g></g><path d="M 750.0 734.2 L 1170.0 734.2 L 1170.0 703.2 L 750.0 703.2 Z M 750.0 734.2 " fill="#000000"></path><path d="M 0.0 0.0 L 420.0 0.0 L 420.0 31.0 L 0.0 31.0 Z M 0.0 0.0 " fill="none" stroke="#000000" stroke-width="1.00" transform="matrix(1.00, 0.00, 0.00, -1.00, 750.0, 734.2)"></path><g><clipPath id="clip-970"><path d="M 749.1 702.3 L 1170.9 702.3 L 1170.9 735.1 L 749.1 735.1 Z M 749.1 702.3 "></path></clipPath><g clip-path="url(#clip-970)"><text xml:space="preserve" font-family="Akrobat-SemiBold" font-weight="bold" font-size="18.0" fill="#FEFFFF" transform="matrix(1.00, 0.00, -0.00, -1.00, 907.0, 711.0)">P</text><text xml:space="preserve" font-family="Akrobat-SemiBold" font-weight="bold" font-size="18.0" fill="#FEFFFF" transform="matrix(1.00, 0.00, -0.00, -1.00, 917.3, 711.0)">E</text><text xml:space="preserve" font-family="Akrobat-SemiBold" font-weight="bold" font-size="18.0" fill="#FEFFFF" transform="matrix(1.00, 0.00, -0.00, -1.00, 927.4, 711.0)">R</text><text xml:space="preserve" font-family="Akrobat-SemiBold" font-weight="bold" font-size="18.0" fill="#FEFFFF" transform="matrix(1.00, 0.00, -0.00, -1.00, 938.0, 711.0)">S</text><text xml:space="preserve" font-family="Akrobat-SemiBold" font-weight="bold" font-size="18.0" fill="#FEFFFF" transform="matrix(1.00, 0.00, -0.00, -1.00, 948.1, 711.0)">O</text><text xml:space="preserve" font-family="Akrobat-SemiBold" font-weight="bold" font-size="18.0" fill="#FEFFFF" transform="matrix(1.00, 0.00, -0.00, -1.00, 959.3, 711.0)">N</text><text xml:space="preserve" font-family="Akrobat-SemiBold" font-weight="bold" font-size="18.0" fill="#FEFFFF" transform="matrix(1.00, 0.00, -0.00, -1.00, 971.0, 711.0)">A</text><text xml:space="preserve" font-family="Akrobat-SemiBold" font-weight="bold" font-size="18.0" fill="#FEFFFF" transform="matrix(1.00, 0.00, -0.00, -1.00, 981.2, 711.0)">L</text><text xml:space="preserve" font-family="Akrobat-SemiBold" font-weight="bold" font-size="18.0" fill="#FEFFFF" transform="matrix(1.00, 0.00, -0.00, -1.00, 990.3, 711.0)">I</text><text xml:space="preserve" font-family="Akrobat-SemiBold" font-weight="bold" font-size="18.0" fill="#FEFFFF" transform="matrix(1.00, 0.00, -0.00, -1.00, 996.2, 711.0)">T</text><text xml:space="preserve" font-family="Akrobat-SemiBold" font-weight="bold" font-size="18.0" fill="#FEFFFF" transform="matrix(1.00, 0.00, -0.00, -1.00, 1005.5, 711.0)">Y</text></g></g><path d="M 750.0 209.3 L 1170.0 209.3 L 1170.0 164.3 L 750.0 164.3 Z M 750.0 209.3 " fill="#164E86"></path><path d="M 0.0 0.0 L 420.0 0.0 L 420.0 45.0 L 0.0 45.0 Z M 0.0 0.0 " fill="none" stroke="#002451" stroke-width="1.00" transform="matrix(1.00, 0.00, 0.00, -1.00, 750.0, 209.3)"></path><g><clipPath id="clip-971"><path d="M 745.5 159.8 L 1174.5 159.8 L 1174.5 213.8 L 745.5 213.8 Z M 745.5 159.8 "></path></clipPath><g clip-path="url(#clip-971)"><text xml:space="preserve" font-family="Akrobat-Regular" font-size="30.0" fill="#FEFFFF" transform="matrix(1.00, 0.00, -0.00, -1.00, 929.0, 175.0)">S</text><text xml:space="preserve" font-family="Akrobat-Regular" font-size="30.0" fill="#FEFFFF" transform="matrix(1.00, 0.00, -0.00, -1.00, 945.8, 175.0)">A</text><text xml:space="preserve" font-family="Akrobat-Regular" font-size="30.0" fill="#FEFFFF" transform="matrix(1.00, 0.00, -0.00, -1.00, 961.9, 175.0)">V</text><text xml:space="preserve" font-family="Akrobat-Regular" font-size="30.0" fill="#FEFFFF" transform="matrix(1.00, 0.00, -0.00, -1.00, 978.4, 175.0)">E</text></g></g><path d="M 750.0 826.8 L 1170.0 826.8 L 1170.0 773.8 L 750.0 773.8 Z M 750.0 826.8 " fill="#000000"></path><path d="M 0.0 0.0 L 420.0 0.0 L 420.0 53.0 L 0.0 53.0 Z M 0.0 0.0 " fill="none" stroke="#000000" stroke-width="1.00" transform="matrix(1.00, 0.00, 0.00, -1.00, 750.0, 826.8)"></path><g><clipPath id="clip-972"><path d="M 749.1 772.9 L 1170.9 772.9 L 1170.9 827.7 L 749.1 827.7 Z M 749.1 772.9 "></path></clipPath><g clip-path="url(#clip-972)"><text xml:space="preserve" font-family="Akrobat-SemiBold" font-weight="bold" font-size="18.0" fill="#FEFFFF" transform="matrix(1.00, 0.00, -0.00, -1.00, 880.0, 804.0)">1</text><text xml:space="preserve" font-family="Akrobat-SemiBold" font-weight="bold" font-size="18.0" fill="#FEFFFF" transform="matrix(1.00, 0.00, -0.00, -1.00, 887.0, 804.0)">7</text><text xml:space="preserve" font-family="Akrobat-SemiBold" font-weight="bold" font-size="18.0" fill="#FEFFFF" transform="matrix(1.00, 0.00, -0.00, -1.00, 895.3, 804.0)">1</text><text xml:space="preserve" font-family="Akrobat-SemiBold" font-weight="bold" font-size="18.0" fill="#FEFFFF" transform="matrix(1.00, 0.00, -0.00, -1.00, 902.3, 804.0)">3</text><text xml:space="preserve" font-family="Akrobat-SemiBold" font-weight="bold" font-size="18.0" fill="#FEFFFF" transform="matrix(1.00, 0.00, -0.00, -1.00, 911.5, 804.0)"> </text><text xml:space="preserve" font-family="Akrobat-SemiBold" font-weight="bold" font-size="18.0" fill="#FEFFFF" transform="matrix(1.00, 0.00, -0.00, -1.00, 917.3, 804.0)">L</text><text xml:space="preserve" font-family="Akrobat-SemiBold" font-weight="bold" font-size="18.0" fill="#FEFFFF" transform="matrix(1.00, 0.00, -0.00, -1.00, 926.4, 804.0)">I</text><text xml:space="preserve" font-family="Akrobat-SemiBold" font-weight="bold" font-size="18.0" fill="#FEFFFF" transform="matrix(1.00, 0.00, -0.00, -1.00, 932.4, 804.0)">N</text><text xml:space="preserve" font-family="Akrobat-SemiBold" font-weight="bold" font-size="18.0" fill="#FEFFFF" transform="matrix(1.00, 0.00, -0.00, -1.00, 944.0, 804.0)">C</text><text xml:space="preserve" font-family="Akrobat-SemiBold" font-weight="bold" font-size="18.0" fill="#FEFFFF" transform="matrix(1.00, 0.00, -0.00, -1.00, 954.6, 804.0)">O</text><text xml:space="preserve" font-family="Akrobat-SemiBold" font-weight="bold" font-size="18.0" fill="#FEFFFF" transform="matrix(1.00, 0.00, -0.00, -1.00, 965.8, 804.0)">L</text><text xml:space="preserve" font-family="Akrobat-SemiBold" font-weight="bold" font-size="18.0" fill="#FEFFFF" transform="matrix(1.00, 0.00, -0.00, -1.00, 974.9, 804.0)">N</text><text xml:space="preserve" font-family="Akrobat-SemiBold" font-weight="bold" font-size="18.0" fill="#FEFFFF" transform="matrix(1.00, 0.00, -0.00, -1.00, 986.6, 804.0)"> </text><text xml:space="preserve" font-family="Akrobat-SemiBold" font-weight="bold" font-size="18.0" fill="#FEFFFF" transform="matrix(1.00, 0.00, -0.00, -1.00, 992.4, 804.0)">R</text><text xml:space="preserve" font-family="Akrobat-SemiBold" font-weight="bold" font-size="18.0" fill="#FEFFFF" transform="matrix(1.00, 0.00, -0.00, -1.00, 1003.1, 804.0)">D</text><text xml:space="preserve" font-family="Akrobat-SemiBold" font-weight="bold" font-size="18.0" fill="#FEFFFF" transform="matrix(1.00, 0.00, -0.00, -1.00, 1014.0, 804.0)"> </text><text xml:space="preserve" font-family="Akrobat-SemiBold" font-weight="bold" font-size="18.0" fill="#FEFFFF" transform="matrix(1.00, 0.00, -0.00, -1.00, 1019.8, 804.0)">N</text><text xml:space="preserve" font-family="Akrobat-SemiBold" font-weight="bold" font-size="18.0" fill="#FEFFFF" transform="matrix(1.00, 0.00, -0.00, -1.00, 1031.4, 804.0)">E</text><text xml:space="preserve" font-family="Akrobat-SemiBold" font-weight="bold" font-size="18.0" fill="#FEFFFF" transform="matrix(1.00, 0.00, -0.00, -1.00, 1041.5, 804.0)"> </text><text xml:space="preserve" font-family="Akrobat-SemiBold" font-weight="bold" font-size="18.0" fill="#FEFFFF" transform="matrix(1.00, 0.00, -0.00, -1.00, 864.0, 782.0)">W</text><text xml:space="preserve" font-family="Akrobat-SemiBold" font-weight="bold" font-size="18.0" fill="#FEFFFF" transform="matrix(1.00, 0.00, -0.00, -1.00, 878.5, 782.0)">A</text><text xml:space="preserve" font-family="Akrobat-SemiBold" font-weight="bold" font-size="18.0" fill="#FEFFFF" transform="matrix(1.00, 0.00, -0.00, -1.00, 888.6, 782.0)">S</text><text xml:space="preserve" font-family="Akrobat-SemiBold" font-weight="bold" font-size="18.0" fill="#FEFFFF" transform="matrix(1.00, 0.00, -0.00, -1.00, 898.5, 782.0)">H</text><text xml:space="preserve" font-family="Akrobat-SemiBold" font-weight="bold" font-size="18.0" fill="#FEFFFF" transform="matrix(1.00, 0.00, -0.00, -1.00, 909.9, 782.0)">I</text><text xml:space="preserve" font-family="Akrobat-SemiBold" font-weight="bold" font-size="18.0" fill="#FEFFFF" transform="matrix(1.00, 0.00, -0.00, -1.00, 915.8, 782.0)">N</text><text xml:space="preserve" font-family="Akrobat-SemiBold" font-weight="bold" font-size="18.0" fill="#FEFFFF" transform="matrix(1.00, 0.00, -0.00, -1.00, 927.5, 782.0)">G</text><text xml:space="preserve" font-family="Akrobat-SemiBold" font-weight="bold" font-size="18.0" fill="#FEFFFF" transform="matrix(1.00, 0.00, -0.00, -1.00, 938.3, 782.0)">T</text><text xml:space="preserve" font-family="Akrobat-SemiBold" font-weight="bold" font-size="18.0" fill="#FEFFFF" transform="matrix(1.00, 0.00, -0.00, -1.00, 947.6, 782.0)">O</text><text xml:space="preserve" font-family="Akrobat-SemiBold" font-weight="bold" font-size="18.0" fill="#FEFFFF" transform="matrix(1.00, 0.00, -0.00, -1.00, 958.8, 782.0)">N</text><text xml:space="preserve" font-family="Akrobat-SemiBold" font-weight="bold" font-size="18.0" fill="#FEFFFF" transform="matrix(1.00, 0.00, -0.00, -1.00, 970.5, 782.0)">,</text><text xml:space="preserve" font-family="Akrobat-SemiBold" font-weight="bold" font-size="18.0" fill="#FEFFFF" transform="matrix(1.00, 0.00, -0.00, -1.00, 975.2, 782.0)"> </text><text xml:space="preserve" font-family="Akrobat-SemiBold" font-weight="bold" font-size="18.0" fill="#FEFFFF" transform="matrix(1.00, 0.00, -0.00, -1.00, 980.9, 782.0)">D</text><text xml:space="preserve" font-family="Akrobat-SemiBold" font-weight="bold" font-size="18.0" fill="#FEFFFF" transform="matrix(1.00, 0.00, -0.00, -1.00, 991.8, 782.0)">C</text><text xml:space="preserve" font-family="Akrobat-SemiBold" font-weight="bold" font-size="18.0" fill="#FEFFFF" transform="matrix(1.00, 0.00, -0.00, -1.00, 1002.4, 782.0)"> </text><text xml:space="preserve" font-family="Akrobat-SemiBold" font-weight="bold" font-size="18.0" fill="#FEFFFF" transform="matrix(1.00, 0.00, -0.00, -1.00, 1008.2, 782.0)">2</text><text xml:space="preserve" font-family="Akrobat-SemiBold" font-weight="bold" font-size="18.0" fill="#FEFFFF" transform="matrix(1.00, 0.00, -0.00, -1.00, 1017.4, 782.0)">0</text><text xml:space="preserve" font-family="Akrobat-SemiBold" font-weight="bold" font-size="18.0" fill="#FEFFFF" transform="matrix(1.00, 0.00, -0.00, -1.00, 1027.5, 782.0)">0</text><text xml:space="preserve" font-family="Akrobat-SemiBold" font-weight="bold" font-size="18.0" fill="#FEFFFF" transform="matrix(1.00, 0.00, -0.00, -1.00, 1037.7, 782.0)">0</text><text xml:space="preserve" font-family="Akrobat-SemiBold" font-weight="bold" font-size="18.0" fill="#FEFFFF" transform="matrix(1.00, 0.00, -0.00, -1.00, 1047.9, 782.0)">2</text></g></g><path d="M 750.0 772.1 L 1170.0 772.1 L 1170.0 741.1 L 750.0 741.1 Z M 750.0 772.1 " fill="#000000"></path><path d="M 0.0 0.0 L 420.0 0.0 L 420.0 31.0 L 0.0 31.0 Z M 0.0 0.0 " fill="none" stroke="#000000" stroke-width="1.00" transform="matrix(1.00, 0.00, 0.00, -1.00, 750.0, 772.1)"></path><g><clipPath id="clip-973"><path d="M 749.1 740.2 L 1170.9 740.2 L 1170.9 773.0 L 749.1 773.0 Z M 749.1 740.2 "></path></clipPath><g clip-path="url(#clip-973)"><text xml:space="preserve" font-family="Akrobat-SemiBold" font-weight="bold" font-size="18.0" fill="#FEFFFF" transform="matrix(1.00, 0.00, -0.00, -1.00, 922.0, 749.0)">E</text><text xml:space="preserve" font-family="Akrobat-SemiBold" font-weight="bold" font-size="18.0" fill="#FEFFFF" transform="matrix(1.00, 0.00, -0.00, -1.00, 932.0, 749.0)">V</text><text xml:space="preserve" font-family="Akrobat-SemiBold" font-weight="bold" font-size="18.0" fill="#FEFFFF" transform="matrix(1.00, 0.00, -0.00, -1.00, 941.7, 749.0)">A</text><text xml:space="preserve" font-family="Akrobat-SemiBold" font-weight="bold" font-size="18.0" fill="#FEFFFF" transform="matrix(1.00, 0.00, -0.00, -1.00, 951.9, 749.0)">L</text><text xml:space="preserve" font-family="Akrobat-SemiBold" font-weight="bold" font-size="18.0" fill="#FEFFFF" transform="matrix(1.00, 0.00, -0.00, -1.00, 960.4, 749.0)">U</text><text xml:space="preserve" font-family="Akrobat-SemiBold" font-weight="bold" font-size="18.0" fill="#FEFFFF" transform="matrix(1.00, 0.00, -0.00, -1.00, 971.6, 749.0)">A</text><text xml:space="preserve" font-family="Akrobat-SemiBold" font-weight="bold" font-size="18.0" fill="#FEFFFF" transform="matrix(1.00, 0.00, -0.00, -1.00, 981.2, 749.0)">T</text><text xml:space="preserve" font-family="Akrobat-SemiBold" font-weight="bold" font-size="18.0" fill="#FEFFFF" transform="matrix(1.00, 0.00, -0.00, -1.00, 990.5, 749.0)">E</text></g></g><path d="M 750.0 283.9 L 1170.0 283.9 L 1170.0 252.9 L 750.0 252.9 Z M 750.0 283.9 " fill="#E2F6FF"></path><path d="M 0.0 0.0 L 420.0 0.0 L 420.0 31.0 L 0.0 31.0 Z M 0.0 0.0 " fill="none" stroke="#51A7F9" stroke-width="1.00" transform="matrix(1.00, 0.00, 0.00, -1.00, 750.0, 283.9)"></path><g><clipPath id="clip-974"><path d="M 749.1 252.0 L 1170.9 252.0 L 1170.9 284.8 L 749.1 284.8 Z M 749.1 252.0 "></path></clipPath><g clip-path="url(#clip-974)"><text xml:space="preserve" font-family="Akrobat-SemiBold" font-weight="bold" font-size="18.0" fill="#002451" transform="matrix(1.00, 0.00, -0.00, -1.00, 917.0, 261.0)">A</text><text xml:space="preserve" font-family="Akrobat-SemiBold" font-weight="bold" font-size="18.0" fill="#002451" transform="matrix(1.00, 0.00, -0.00, -1.00, 927.2, 261.0)">M</text><text xml:space="preserve" font-family="Akrobat-SemiBold" font-weight="bold" font-size="18.0" fill="#002451" transform="matrix(1.00, 0.00, -0.00, -1.00, 941.1, 261.0)">E</text><text xml:space="preserve" font-family="Akrobat-SemiBold" font-weight="bold" font-size="18.0" fill="#002451" transform="matrix(1.00, 0.00, -0.00, -1.00, 951.1, 261.0)">N</text><text xml:space="preserve" font-family="Akrobat-SemiBold" font-weight="bold" font-size="18.0" fill="#002451" transform="matrix(1.00, 0.00, -0.00, -1.00, 962.8, 261.0)">I</text><text xml:space="preserve" font-family="Akrobat-SemiBold" font-weight="bold" font-size="18.0" fill="#002451" transform="matrix(1.00, 0.00, -0.00, -1.00, 968.7, 261.0)">T</text><text xml:space="preserve" font-family="Akrobat-SemiBold" font-weight="bold" font-size="18.0" fill="#002451" transform="matrix(1.00, 0.00, -0.00, -1.00, 978.0, 261.0)">I</text><text xml:space="preserve" font-family="Akrobat-SemiBold" font-weight="bold" font-size="18.0" fill="#002451" transform="matrix(1.00, 0.00, -0.00, -1.00, 983.9, 261.0)">E</text><text xml:space="preserve" font-family="Akrobat-SemiBold" font-weight="bold" font-size="18.0" fill="#002451" transform="matrix(1.00, 0.00, -0.00, -1.00, 993.9, 261.0)">S</text></g></g><path d="M 750.0 361.5 L 1170.0 361.5 L 1170.0 330.5 L 750.0 330.5 Z M 750.0 361.5 " fill="#E2F6FF"></path><path d="M 0.0 0.0 L 420.0 0.0 L 420.0 31.0 L 0.0 31.0 Z M 0.0 0.0 " fill="none" stroke="#51A7F9" stroke-width="1.00" transform="matrix(1.00, 0.00, 0.00, -1.00, 750.0, 361.5)"></path><g><clipPath id="clip-975"><path d="M 749.1 329.6 L 1170.9 329.6 L 1170.9 362.4 L 749.1 362.4 Z M 749.1 329.6 "></path></clipPath><g clip-path="url(#clip-975)"><text xml:space="preserve" font-family="Akrobat-SemiBold" font-weight="bold" font-size="18.0" fill="#002451" transform="matrix(1.00, 0.00, -0.00, -1.00, 917.0, 339.0)">B</text><text xml:space="preserve" font-family="Akrobat-SemiBold" font-weight="bold" font-size="18.0" fill="#002451" transform="matrix(1.00, 0.00, -0.00, -1.00, 927.6, 339.0)">E</text><text xml:space="preserve" font-family="Akrobat-SemiBold" font-weight="bold" font-size="18.0" fill="#002451" transform="matrix(1.00, 0.00, -0.00, -1.00, 937.7, 339.0)">D</text><text xml:space="preserve" font-family="Akrobat-SemiBold" font-weight="bold" font-size="18.0" fill="#002451" transform="matrix(1.00, 0.00, -0.00, -1.00, 948.6, 339.0)">R</text><text xml:space="preserve" font-family="Akrobat-SemiBold" font-weight="bold" font-size="18.0" fill="#002451" transform="matrix(1.00, 0.00, -0.00, -1.00, 959.2, 339.0)">O</text><text xml:space="preserve" font-family="Akrobat-SemiBold" font-weight="bold" font-size="18.0" fill="#002451" transform="matrix(1.00, 0.00, -0.00, -1.00, 970.5, 339.0)">O</text><text xml:space="preserve" font-family="Akrobat-SemiBold" font-weight="bold" font-size="18.0" fill="#002451" transform="matrix(1.00, 0.00, -0.00, -1.00, 981.7, 339.0)">M</text><text xml:space="preserve" font-family="Akrobat-SemiBold" font-weight="bold" font-size="18.0" fill="#002451" transform="matrix(1.00, 0.00, -0.00, -1.00, 995.6, 339.0)">S</text></g></g><path d="M 750.0 322.7 L 1170.0 322.7 L 1170.0 291.7 L 750.0 291.7 Z M 750.0 322.7 " fill="#E2F6FF"></path><path d="M 0.0 0.0 L 420.0 0.0 L 420.0 31.0 L 0.0 31.0 Z M 0.0 0.0 " fill="none" stroke="#51A7F9" stroke-width="1.00" transform="matrix(1.00, 0.00, 0.00, -1.00, 750.0, 322.7)"></path><g><clipPath id="clip-976"><path d="M 749.1 290.8 L 1170.9 290.8 L 1170.9 323.6 L 749.1 323.6 Z M 749.1 290.8 "></path></clipPath><g clip-path="url(#clip-976)"><text xml:space="preserve" font-family="Akrobat-SemiBold" font-weight="bold" font-size="18.0" fill="#002451" transform="matrix(1.00, 0.00, -0.00, -1.00, 936.0, 300.0)">B</text><text xml:space="preserve" font-family="Akrobat-SemiBold" font-weight="bold" font-size="18.0" fill="#002451" transform="matrix(1.00, 0.00, -0.00, -1.00, 946.5, 300.0)">A</text><text xml:space="preserve" font-family="Akrobat-SemiBold" font-weight="bold" font-size="18.0" fill="#002451" transform="matrix(1.00, 0.00, -0.00, -1.00, 956.1, 300.0)">T</text><text xml:space="preserve" font-family="Akrobat-SemiBold" font-weight="bold" font-size="18.0" fill="#002451" transform="matrix(1.00, 0.00, -0.00, -1.00, 965.3, 300.0)">H</text><text xml:space="preserve" font-family="Akrobat-SemiBold" font-weight="bold" font-size="18.0" fill="#002451" transform="matrix(1.00, 0.00, -0.00, -1.00, 976.8, 300.0)">S</text></g></g><path d="M 750.0 246.5 L 1170.0 246.5 L 1170.0 215.5 L 750.0 215.5 Z M 750.0 246.5 " fill="#E2F6FF"></path><path d="M 0.0 0.0 L 420.0 0.0 L 420.0 31.0 L 0.0 31.0 Z M 0.0 0.0 " fill="none" stroke="#51A7F9" stroke-width="1.00" transform="matrix(1.00, 0.00, 0.00, -1.00, 750.0, 246.5)"></path><g><clipPath id="clip-977"><path d="M 749.1 214.6 L 1170.9 214.6 L 1170.9 247.4 L 749.1 247.4 Z M 749.1 214.6 "></path></clipPath><g clip-path="url(#clip-977)"><text xml:space="preserve" font-family="Akrobat-SemiBold" font-weight="bold" font-size="18.0" fill="#002451" transform="matrix(1.00, 0.00, -0.00, -1.00, 935.0, 224.0)">N</text><text xml:space="preserve" font-family="Akrobat-SemiBold" font-weight="bold" font-size="18.0" fill="#002451" transform="matrix(1.00, 0.00, -0.00, -1.00, 946.7, 224.0)">O</text><text xml:space="preserve" font-family="Akrobat-SemiBold" font-weight="bold" font-size="18.0" fill="#002451" transform="matrix(1.00, 0.00, -0.00, -1.00, 957.6, 224.0)">T</text><text xml:space="preserve" font-family="Akrobat-SemiBold" font-weight="bold" font-size="18.0" fill="#002451" transform="matrix(1.00, 0.00, -0.00, -1.00, 966.8, 224.0)">E</text><text xml:space="preserve" font-family="Akrobat-SemiBold" font-weight="bold" font-size="18.0" fill="#002451" transform="matrix(1.00, 0.00, -0.00, -1.00, 976.9, 224.0)">S</text></g></g><g><clipPath id="clip-978"><path d="M 961.0 683.0 L 1171.0 683.0 L 1171.0 382.0 L 961.0 382.0 Z M 961.2 682.7 "></path></clipPath><g clip-path="url(#clip-978)"><image xlink:href="../../4415C848-0C85-45FA-BF62-8A4057D6BD91/assets/BF0F8BA60D9F0758313BE27EE84F9B5F.png" width="806.00" height="535.00" transform="matrix(0.60, 0.00, -0.00, -0.57, 825.0, 683.0)"></image></g></g><g><clipPath id="clip-979"><path d="M 752.0 683.0 L 962.0 683.0 L 962.0 383.0 L 752.0 383.0 Z M 752.0 682.5 "></path></clipPath><g clip-path="url(#clip-979)"><image xlink:href="../../4415C848-0C85-45FA-BF62-8A4057D6BD91/assets/9D3CBD253A2B895B5B8A41004E8C3402.png" width="850.00" height="566.00" transform="matrix(0.60, 0.00, -0.00, -0.57, 498.0, 694.0)"></image></g></g><g><clipPath id="clip-980"><path d="M 751.6 692.8 L 1171.6 692.8 L 1171.6 682.8 L 751.6 682.8 Z M 751.6 692.8 "></path></clipPath><g clip-path="url(#clip-980)"><path d="M 751.6 692.8 L 1171.6 692.8 L 1171.6 682.8 L 751.6 682.8 Z M 751.6 692.8 " fill="url(#gradSh1.56)"></path></g></g><path d="M 960.6 690.7 L 966.1 679.7 L 955.0 679.7 Z M 960.6 690.7 " fill="#0267FF"></path><path d="M 5.5 0.0 L 11.1 11.1 L 0.0 11.1 Z M 5.5 0.0 " fill="none" stroke="#FEFFFF" stroke-width="1.00" transform="matrix(1.00, 0.00, 0.00, -1.00, 955.0, 690.7)"></path><g opacity="0.75"><g><clipPath id="clip-981"><path d="M 1117.0 382.0 L 1170.0 382.0 L 1170.0 435.0 L 1117.0 435.0 Z M 1117.0 382.0 "></path></clipPath><g clip-path="url(#clip-981)"><path d="M 1160.6 425.6 C 1170.0 416.2 1170.0 401.1 1160.6 391.7 C 1151.2 382.3 1136.0 382.3 1126.7 391.7 C 1117.3 401.1 1117.3 416.2 1126.7 425.6 C 1136.0 435.0 1151.2 435.0 1160.6 425.6 Z M 1160.6 425.6 " fill="#FEFFFF"></path><path d="M 41.0 7.0 C 50.3 16.4 50.3 31.6 41.0 41.0 C 31.6 50.3 16.4 50.3 7.0 41.0 C -2.3 31.6 -2.3 16.4 7.0 7.0 C 16.4 -2.3 31.6 -2.3 41.0 7.0 Z M 41.0 7.0 " fill="none" stroke="#932092" stroke-width="2.00" transform="matrix(1.00, 0.00, 0.00, -1.00, 1119.6, 432.7)"></path></g></g><g><clipPath id="clip-982"><path d="M 1119.6 384.7 L 1167.6 384.7 L 1167.6 432.7 L 1119.6 432.7 Z M 1119.6 384.7 "></path></clipPath><g clip-path="url(#clip-982)"><text xml:space="preserve" font-family="Akrobat-Light" font-size="24.0" fill="#932092" transform="matrix(1.00, 0.00, -0.00, -1.00, 1138.0, 399.0)">B</text></g></g></g><g opacity="0.75"><g><clipPath id="clip-983"><path d="M 750.0 383.0 L 803.0 383.0 L 803.0 436.0 L 750.0 436.0 Z M 750.0 383.0 "></path></clipPath><g clip-path="url(#clip-983)"><path d="M 793.5 426.2 C 802.8 416.8 802.8 401.6 793.5 392.3 C 784.1 382.9 768.9 382.9 759.5 392.3 C 750.1 401.6 750.1 416.8 759.5 426.2 C 768.9 435.6 784.1 435.6 793.5 426.2 Z M 793.5 426.2 " fill="#FEFFFF"></path><path d="M 41.0 7.0 C 50.3 16.4 50.3 31.6 41.0 41.0 C 31.6 50.3 16.4 50.3 7.0 41.0 C -2.3 31.6 -2.3 16.4 7.0 7.0 C 16.4 -2.3 31.6 -2.3 41.0 7.0 Z M 41.0 7.0 " fill="none" stroke="#FF9200" stroke-width="2.00" transform="matrix(1.00, 0.00, 0.00, -1.00, 752.5, 433.2)"></path></g></g><g><clipPath id="clip-984"><path d="M 752.5 385.2 L 800.5 385.2 L 800.5 433.2 L 752.5 433.2 Z M 752.5 385.2 "></path></clipPath><g clip-path="url(#clip-984)"><text xml:space="preserve" font-family="Akrobat-Light" font-size="24.0" fill="#FF9200" transform="matrix(1.00, 0.00, -0.00, -1.00, 771.0, 399.0)">A</text></g></g></g></g></svg>