<?xml version="1.0" encoding="UTF-8" standalone="no"?><svg xmlns="http://www.w3.org/2000/svg" xmlns:xlink="http://www.w3.org/1999/xlink" clip-rule="evenodd" stroke-miterlimit="4.00" viewBox="0 0 1920 1080"><desc>SVG generated by Keynote</desc><defs></defs><g transform="matrix(1.00, 0.00, -0.00, -1.00, 0.0, 1080.0)"><path d="M 0.0 1080.0 L 1920.0 1080.0 L 1920.0 0.0 L 0.0 0.0 Z M 0.0 1080.0 " fill="#FEFFFF"></path><g opacity="0.50"><g><clipPath id="clip-4202"><path d="M 1206.0 757.0 L 1207.5 757.0 C 1208.3 757.0 1209.0 757.7 1209.0 758.5 L 1209.0 830.5 C 1209.0 831.3 1208.3 832.0 1207.5 832.0 L 1206.0 832.0 L 1206.0 972.0 C 1206.0 1013.4 1172.4 1047.0 1131.0 1047.0 L 790.0 1047.0 C 748.6 1047.0 715.0 1013.4 715.0 972.0 L 715.0 919.0 L 713.5 919.0 C 712.7 919.0 712.0 918.3 712.0 917.5 L 712.0 879.5 C 712.0 878.7 712.7 878.0 713.5 878.0 L 715.0 878.0 L 715.0 832.0 L 713.5 832.0 C 712.7 832.0 712.0 831.3 712.0 830.5 L 712.0 758.5 C 712.0 757.7 712.7 757.0 713.5 757.0 L 715.0 757.0 L 715.0 740.0 L 713.5 740.0 C 712.7 740.0 712.0 739.3 712.0 738.5 L 712.0 666.5 C 712.0 665.7 712.7 665.0 713.5 665.0 L 715.0 665.0 L 715.0 108.0 C 715.0 66.6 748.6 33.0 790.0 33.0 L 1131.0 33.0 C 1172.4 33.0 1206.0 66.6 1206.0 108.0 L 1206.0 757.0 L 1206.0 757.0 L 1206.0 757.0 Z M 745.0 924.0 L 745.0 158.0 L 1176.0 158.0 L 1176.0 924.0 L 745.0 924.0 L 745.0 924.0 Z M 960.0 64.0 C 981.0 64.0 998.0 81.0 998.0 102.0 C 998.0 123.0 981.0 140.0 960.0 140.0 C 939.0 140.0 922.0 123.0 922.0 102.0 C 922.0 81.0 939.0 64.0 960.0 64.0 L 960.0 64.0 Z M 960.0 68.0 C 978.8 68.0 994.0 83.2 994.0 102.0 C 994.0 120.8 978.8 136.0 960.0 136.0 C 941.2 136.0 926.0 120.8 926.0 102.0 C 926.0 83.2 941.2 68.0 960.0 68.0 L 960.0 68.0 Z M 882.0 975.0 C 886.4 975.0 890.0 978.6 890.0 983.0 C 890.0 987.4 886.4 991.0 882.0 991.0 C 877.6 991.0 874.0 987.4 874.0 983.0 C 874.0 978.6 877.6 975.0 882.0 975.0 L 882.0 975.0 Z M 961.0 1010.0 C 963.8 1010.0 966.0 1012.2 966.0 1015.0 C 966.0 1017.8 963.8 1020.0 961.0 1020.0 C 958.2 1020.0 956.0 1017.8 956.0 1015.0 C 956.0 1012.2 958.2 1010.0 961.0 1010.0 L 961.0 1010.0 Z M 925.0 987.0 C 922.8 987.0 921.0 985.2 921.0 983.0 C 921.0 980.8 922.8 979.0 925.0 979.0 L 997.0 979.0 C 999.2 979.0 1001.0 980.8 1001.0 983.0 C 1001.0 985.2 999.2 987.0 997.0 987.0 L 925.0 987.0 L 925.0 987.0 Z M 925.0 987.0 "></path></clipPath><g clip-path="url(#clip-4202)"><g><clipPath id="clip-4203"><path d="M 712.0 33.0 L 1209.0 33.0 L 1209.0 1047.0 L 712.0 1047.0 Z M 712.0 33.0 "></path></clipPath><g clip-path="url(#clip-4203)"><path d="M 707.0 1052.0 L 1214.0 1052.0 L 1214.0 28.0 L 707.0 28.0 Z M 707.0 1052.0 " fill="#000000"></path></g></g></g></g></g><image xlink:href="../../7D845C88-9D36-4D54-84B6-6D208BC815DA/assets/23B6A4889E4950E0BA49A0B1EBAA65A9.png" width="50.00" height="50.00" transform="matrix(1.00, 0.00, -0.00, -1.00, 935.0, 916.0)"></image><path d="M 750.0 859.0 L 1170.0 859.0 L 1170.0 829.0 L 750.0 829.0 Z M 750.0 859.0 " fill="#000000"></path><g><clipPath id="clip-4204"><path d="M 748.6 827.6 L 1171.4 827.6 L 1171.4 860.4 L 748.6 860.4 Z M 748.6 827.6 "></path></clipPath><g clip-path="url(#clip-4204)"><text xml:space="preserve" font-family="Akrobat-Black" font-weight="bold" font-size="18.0" fill="#FEFFFF" transform="matrix(1.00, 0.00, -0.00, -1.00, 945.0, 837.0)">R</text><text xml:space="preserve" font-family="Akrobat-Black" font-weight="bold" font-size="18.0" fill="#FEFFFF" transform="matrix(1.00, 0.00, -0.00, -1.00, 956.3, 837.0)">E</text><text xml:space="preserve" font-family="Akrobat-Black" font-weight="bold" font-size="18.0" fill="#FEFFFF" transform="matrix(1.00, 0.00, -0.00, -1.00, 966.5, 837.0)">F</text></g></g><g><clipPath id="clip-4205"><path d="M 1144.0 873.0 L 1170.0 873.0 L 1170.0 900.0 L 1144.0 900.0 Z M 1144.0 873.0 "></path></clipPath><g clip-path="url(#clip-4205)"><path d="M 1168.1 883.9 C 1166.7 886.4 1167.5 889.5 1170.0 890.9 L 1167.3 895.5 C 1166.6 895.1 1165.7 894.8 1164.7 894.8 C 1161.9 894.8 1159.6 897.1 1159.6 900.0 L 1154.3 900.0 C 1154.4 899.1 1154.1 898.2 1153.7 897.4 C 1152.3 894.9 1149.1 894.1 1146.7 895.5 L 1144.0 891.0 C 1144.8 890.5 1145.4 889.9 1145.9 889.1 C 1147.3 886.6 1146.5 883.5 1144.0 882.1 L 1146.7 877.5 C 1147.4 877.9 1148.3 878.2 1149.2 878.2 C 1152.0 878.2 1154.3 875.9 1154.3 873.1 L 1159.6 873.1 C 1159.6 873.9 1159.8 874.8 1160.3 875.6 C 1161.7 878.1 1164.8 878.9 1167.3 877.5 L 1169.9 882.1 C 1169.2 882.5 1168.5 883.1 1168.1 883.9 Z M 1157.0 881.1 C 1154.0 881.1 1151.5 883.5 1151.5 886.5 C 1151.5 889.5 1154.0 892.0 1157.0 892.0 C 1160.0 892.0 1162.4 889.5 1162.4 886.5 C 1162.4 883.5 1160.0 881.1 1157.0 881.1 Z M 1157.0 881.1 " fill="#000000"></path></g></g><image xlink:href="../../F28C9CA0-A05A-4A2C-90F7-8BC49B335395/assets/1DA3DC7FF4F320EB7CB273595CED7E5B.png" width="555.00" height="200.00" transform="matrix(0.50, 0.00, -0.00, -0.50, 1591.0, 150.0)"></image><path d="M 750.0 826.9 L 1170.0 826.9 L 1170.0 773.9 L 750.0 773.9 Z M 750.0 826.9 " fill="#000000"></path><path d="M 0.0 0.0 L 420.0 0.0 L 420.0 53.0 L 0.0 53.0 Z M 0.0 0.0 " fill="none" stroke="#000000" stroke-width="1.00" transform="matrix(1.00, 0.00, 0.00, -1.00, 750.0, 826.9)"></path><g><clipPath id="clip-4206"><path d="M 749.1 773.0 L 1170.9 773.0 L 1170.9 827.8 L 749.1 827.8 Z M 749.1 773.0 "></path></clipPath><g clip-path="url(#clip-4206)"><text xml:space="preserve" font-family="Akrobat-SemiBold" font-weight="bold" font-size="18.0" fill="#FEFFFF" transform="matrix(1.00, 0.00, -0.00, -1.00, 880.0, 804.0)">1</text><text xml:space="preserve" font-family="Akrobat-SemiBold" font-weight="bold" font-size="18.0" fill="#FEFFFF" transform="matrix(1.00, 0.00, -0.00, -1.00, 887.0, 804.0)">7</text><text xml:space="preserve" font-family="Akrobat-SemiBold" font-weight="bold" font-size="18.0" fill="#FEFFFF" transform="matrix(1.00, 0.00, -0.00, -1.00, 895.3, 804.0)">1</text><text xml:space="preserve" font-family="Akrobat-SemiBold" font-weight="bold" font-size="18.0" fill="#FEFFFF" transform="matrix(1.00, 0.00, -0.00, -1.00, 902.3, 804.0)">3</text><text xml:space="preserve" font-family="Akrobat-SemiBold" font-weight="bold" font-size="18.0" fill="#FEFFFF" transform="matrix(1.00, 0.00, -0.00, -1.00, 911.5, 804.0)"> </text><text xml:space="preserve" font-family="Akrobat-SemiBold" font-weight="bold" font-size="18.0" fill="#FEFFFF" transform="matrix(1.00, 0.00, -0.00, -1.00, 917.3, 804.0)">L</text><text xml:space="preserve" font-family="Akrobat-SemiBold" font-weight="bold" font-size="18.0" fill="#FEFFFF" transform="matrix(1.00, 0.00, -0.00, -1.00, 926.4, 804.0)">I</text><text xml:space="preserve" font-family="Akrobat-SemiBold" font-weight="bold" font-size="18.0" fill="#FEFFFF" transform="matrix(1.00, 0.00, -0.00, -1.00, 932.4, 804.0)">N</text><text xml:space="preserve" font-family="Akrobat-SemiBold" font-weight="bold" font-size="18.0" fill="#FEFFFF" transform="matrix(1.00, 0.00, -0.00, -1.00, 944.0, 804.0)">C</text><text xml:space="preserve" font-family="Akrobat-SemiBold" font-weight="bold" font-size="18.0" fill="#FEFFFF" transform="matrix(1.00, 0.00, -0.00, -1.00, 954.6, 804.0)">O</text><text xml:space="preserve" font-family="Akrobat-SemiBold" font-weight="bold" font-size="18.0" fill="#FEFFFF" transform="matrix(1.00, 0.00, -0.00, -1.00, 965.8, 804.0)">L</text><text xml:space="preserve" font-family="Akrobat-SemiBold" font-weight="bold" font-size="18.0" fill="#FEFFFF" transform="matrix(1.00, 0.00, -0.00, -1.00, 974.9, 804.0)">N</text><text xml:space="preserve" font-family="Akrobat-SemiBold" font-weight="bold" font-size="18.0" fill="#FEFFFF" transform="matrix(1.00, 0.00, -0.00, -1.00, 986.6, 804.0)"> </text><text xml:space="preserve" font-family="Akrobat-SemiBold" font-weight="bold" font-size="18.0" fill="#FEFFFF" transform="matrix(1.00, 0.00, -0.00, -1.00, 992.4, 804.0)">R</text><text xml:space="preserve" font-family="Akrobat-SemiBold" font-weight="bold" font-size="18.0" fill="#FEFFFF" transform="matrix(1.00, 0.00, -0.00, -1.00, 1003.1, 804.0)">D</text><text xml:space="preserve" font-family="Akrobat-SemiBold" font-weight="bold" font-size="18.0" fill="#FEFFFF" transform="matrix(1.00, 0.00, -0.00, -1.00, 1014.0, 804.0)"> </text><text xml:space="preserve" font-family="Akrobat-SemiBold" font-weight="bold" font-size="18.0" fill="#FEFFFF" transform="matrix(1.00, 0.00, -0.00, -1.00, 1019.8, 804.0)">N</text><text xml:space="preserve" font-family="Akrobat-SemiBold" font-weight="bold" font-size="18.0" fill="#FEFFFF" transform="matrix(1.00, 0.00, -0.00, -1.00, 1031.4, 804.0)">E</text><text xml:space="preserve" font-family="Akrobat-SemiBold" font-weight="bold" font-size="18.0" fill="#FEFFFF" transform="matrix(1.00, 0.00, -0.00, -1.00, 1041.5, 804.0)"> </text><text xml:space="preserve" font-family="Akrobat-SemiBold" font-weight="bold" font-size="18.0" fill="#FEFFFF" transform="matrix(1.00, 0.00, -0.00, -1.00, 864.0, 782.0)">W</text><text xml:space="preserve" font-family="Akrobat-SemiBold" font-weight="bold" font-size="18.0" fill="#FEFFFF" transform="matrix(1.00, 0.00, -0.00, -1.00, 878.5, 782.0)">A</text><text xml:space="preserve" font-family="Akrobat-SemiBold" font-weight="bold" font-size="18.0" fill="#FEFFFF" transform="matrix(1.00, 0.00, -0.00, -1.00, 888.6, 782.0)">S</text><text xml:space="preserve" font-family="Akrobat-SemiBold" font-weight="bold" font-size="18.0" fill="#FEFFFF" transform="matrix(1.00, 0.00, -0.00, -1.00, 898.5, 782.0)">H</text><text xml:space="preserve" font-family="Akrobat-SemiBold" font-weight="bold" font-size="18.0" fill="#FEFFFF" transform="matrix(1.00, 0.00, -0.00, -1.00, 909.9, 782.0)">I</text><text xml:space="preserve" font-family="Akrobat-SemiBold" font-weight="bold" font-size="18.0" fill="#FEFFFF" transform="matrix(1.00, 0.00, -0.00, -1.00, 915.8, 782.0)">N</text><text xml:space="preserve" font-family="Akrobat-SemiBold" font-weight="bold" font-size="18.0" fill="#FEFFFF" transform="matrix(1.00, 0.00, -0.00, -1.00, 927.5, 782.0)">G</text><text xml:space="preserve" font-family="Akrobat-SemiBold" font-weight="bold" font-size="18.0" fill="#FEFFFF" transform="matrix(1.00, 0.00, -0.00, -1.00, 938.3, 782.0)">T</text><text xml:space="preserve" font-family="Akrobat-SemiBold" font-weight="bold" font-size="18.0" fill="#FEFFFF" transform="matrix(1.00, 0.00, -0.00, -1.00, 947.6, 782.0)">O</text><text xml:space="preserve" font-family="Akrobat-SemiBold" font-weight="bold" font-size="18.0" fill="#FEFFFF" transform="matrix(1.00, 0.00, -0.00, -1.00, 958.8, 782.0)">N</text><text xml:space="preserve" font-family="Akrobat-SemiBold" font-weight="bold" font-size="18.0" fill="#FEFFFF" transform="matrix(1.00, 0.00, -0.00, -1.00, 970.5, 782.0)">,</text><text xml:space="preserve" font-family="Akrobat-SemiBold" font-weight="bold" font-size="18.0" fill="#FEFFFF" transform="matrix(1.00, 0.00, -0.00, -1.00, 975.2, 782.0)"> </text><text xml:space="preserve" font-family="Akrobat-SemiBold" font-weight="bold" font-size="18.0" fill="#FEFFFF" transform="matrix(1.00, 0.00, -0.00, -1.00, 980.9, 782.0)">D</text><text xml:space="preserve" font-family="Akrobat-SemiBold" font-weight="bold" font-size="18.0" fill="#FEFFFF" transform="matrix(1.00, 0.00, -0.00, -1.00, 991.8, 782.0)">C</text><text xml:space="preserve" font-family="Akrobat-SemiBold" font-weight="bold" font-size="18.0" fill="#FEFFFF" transform="matrix(1.00, 0.00, -0.00, -1.00, 1002.4, 782.0)"> </text><text xml:space="preserve" font-family="Akrobat-SemiBold" font-weight="bold" font-size="18.0" fill="#FEFFFF" transform="matrix(1.00, 0.00, -0.00, -1.00, 1008.2, 782.0)">2</text><text xml:space="preserve" font-family="Akrobat-SemiBold" font-weight="bold" font-size="18.0" fill="#FEFFFF" transform="matrix(1.00, 0.00, -0.00, -1.00, 1017.4, 782.0)">0</text><text xml:space="preserve" font-family="Akrobat-SemiBold" font-weight="bold" font-size="18.0" fill="#FEFFFF" transform="matrix(1.00, 0.00, -0.00, -1.00, 1027.5, 782.0)">0</text><text xml:space="preserve" font-family="Akrobat-SemiBold" font-weight="bold" font-size="18.0" fill="#FEFFFF" transform="matrix(1.00, 0.00, -0.00, -1.00, 1037.7, 782.0)">0</text><text xml:space="preserve" font-family="Akrobat-SemiBold" font-weight="bold" font-size="18.0" fill="#FEFFFF" transform="matrix(1.00, 0.00, -0.00, -1.00, 1047.9, 782.0)">2</text></g></g><g><clipPath id="clip-4207"><path d="M 750.0 493.0 L 1170.0 493.0 L 1170.0 163.0 L 750.0 163.0 Z M 750.0 493.0 "></path></clipPath><g clip-path="url(#clip-4207)"><image xlink:href="../../4A4A63BD-BC17-4589-89EF-8DA50A8D0187/assets/7AF3B5AE458869A3FCCA9B4FD53BDE0B.png" width="470.00" height="533.00" transform="matrix(1.01, 0.00, -0.00, -1.01, 749.0, 631.0)"></image></g></g><path d="M 0.0 0.0 L 0.0 330.1 L 420.0 330.1 L 420.0 0.0 L 0.0 0.0 Z M 0.0 0.0 " fill="none" stroke="#000000" stroke-width="1.00" transform="matrix(1.00, 0.00, 0.00, -1.00, 750.0, 493.0)"></path><path d="M 750.0 493.0 L 1170.0 493.0 L 1170.0 462.0 L 750.0 462.0 Z M 750.0 493.0 " fill="#E2F6FF"></path><path d="M 0.0 0.0 L 420.0 0.0 L 420.0 31.0 L 0.0 31.0 Z M 0.0 0.0 " fill="none" stroke="#51A7F9" stroke-width="1.00" transform="matrix(1.00, 0.00, 0.00, -1.00, 750.0, 493.0)"></path><g><clipPath id="clip-4208"><path d="M 749.1 461.1 L 1170.9 461.1 L 1170.9 493.9 L 749.1 493.9 Z M 749.1 461.1 "></path></clipPath><g clip-path="url(#clip-4208)"><text xml:space="preserve" font-family="Akrobat-SemiBold" font-weight="bold" font-size="18.0" fill="#002451" transform="matrix(1.00, 0.00, -0.00, -1.00, 913.0, 470.0)">D</text><text xml:space="preserve" font-family="Akrobat-SemiBold" font-weight="bold" font-size="18.0" fill="#002451" transform="matrix(1.00, 0.00, -0.00, -1.00, 923.9, 470.0)">I</text><text xml:space="preserve" font-family="Akrobat-SemiBold" font-weight="bold" font-size="18.0" fill="#002451" transform="matrix(1.00, 0.00, -0.00, -1.00, 929.8, 470.0)">R</text><text xml:space="preserve" font-family="Akrobat-SemiBold" font-weight="bold" font-size="18.0" fill="#002451" transform="matrix(1.00, 0.00, -0.00, -1.00, 940.5, 470.0)">E</text><text xml:space="preserve" font-family="Akrobat-SemiBold" font-weight="bold" font-size="18.0" fill="#002451" transform="matrix(1.00, 0.00, -0.00, -1.00, 950.5, 470.0)">C</text><text xml:space="preserve" font-family="Akrobat-SemiBold" font-weight="bold" font-size="18.0" fill="#002451" transform="matrix(1.00, 0.00, -0.00, -1.00, 961.1, 470.0)">T</text><text xml:space="preserve" font-family="Akrobat-SemiBold" font-weight="bold" font-size="18.0" fill="#002451" transform="matrix(1.00, 0.00, -0.00, -1.00, 970.3, 470.0)">I</text><text xml:space="preserve" font-family="Akrobat-SemiBold" font-weight="bold" font-size="18.0" fill="#002451" transform="matrix(1.00, 0.00, -0.00, -1.00, 976.2, 470.0)">O</text><text xml:space="preserve" font-family="Akrobat-SemiBold" font-weight="bold" font-size="18.0" fill="#002451" transform="matrix(1.00, 0.00, -0.00, -1.00, 987.4, 470.0)">N</text><text xml:space="preserve" font-family="Akrobat-SemiBold" font-weight="bold" font-size="18.0" fill="#002451" transform="matrix(1.00, 0.00, -0.00, -1.00, 999.1, 470.0)">S</text></g></g><path d="M 750.0 546.5 L 1170.0 546.5 L 1170.0 501.5 L 750.0 501.5 Z M 750.0 546.5 " fill="#164E86"></path><path d="M 0.0 0.0 L 420.0 0.0 L 420.0 45.0 L 0.0 45.0 Z M 0.0 0.0 " fill="none" stroke="#002451" stroke-width="1.00" transform="matrix(1.00, 0.00, 0.00, -1.00, 750.0, 546.5)"></path><g><clipPath id="clip-4209"><path d="M 745.5 497.0 L 1174.5 497.0 L 1174.5 551.0 L 745.5 551.0 Z M 745.5 497.0 "></path></clipPath><g clip-path="url(#clip-4209)"><text xml:space="preserve" font-family="Akrobat-Regular" font-size="30.0" fill="#FEFFFF" transform="matrix(1.00, 0.00, -0.00, -1.00, 884.0, 512.0)">S</text><text xml:space="preserve" font-family="Akrobat-Regular" font-size="30.0" fill="#FEFFFF" transform="matrix(1.00, 0.00, -0.00, -1.00, 900.5, 512.0)">T</text><text xml:space="preserve" font-family="Akrobat-Regular" font-size="30.0" fill="#FEFFFF" transform="matrix(1.00, 0.00, -0.00, -1.00, 914.7, 512.0)">A</text><text xml:space="preserve" font-family="Akrobat-Regular" font-size="30.0" fill="#FEFFFF" transform="matrix(1.00, 0.00, -0.00, -1.00, 931.4, 512.0)">R</text><text xml:space="preserve" font-family="Akrobat-Regular" font-size="30.0" fill="#FEFFFF" transform="matrix(1.00, 0.00, -0.00, -1.00, 948.9, 512.0)">T</text><text xml:space="preserve" font-family="Akrobat-Regular" font-size="30.0" fill="#FEFFFF" transform="matrix(1.00, 0.00, -0.00, -1.00, 964.1, 512.0)"> </text><text xml:space="preserve" font-family="Akrobat-Regular" font-size="30.0" fill="#FEFFFF" transform="matrix(1.00, 0.00, -0.00, -1.00, 974.0, 512.0)">E</text><text xml:space="preserve" font-family="Akrobat-Regular" font-size="30.0" fill="#FEFFFF" transform="matrix(1.00, 0.00, -0.00, -1.00, 990.6, 512.0)">V</text><text xml:space="preserve" font-family="Akrobat-Regular" font-size="30.0" fill="#FEFFFF" transform="matrix(1.00, 0.00, -0.00, -1.00, 1006.4, 512.0)">A</text><text xml:space="preserve" font-family="Akrobat-Regular" font-size="30.0" fill="#FEFFFF" transform="matrix(1.00, 0.00, -0.00, -1.00, 1023.2, 512.0)">L</text></g></g><text xml:space="preserve" font-family="Akrobat-SemiBold" font-weight="bold" font-size="14.0" fill="#000000" transform="matrix(1.00, 0.00, -0.00, -1.00, 760.0, 708.0)">C</text><text xml:space="preserve" font-family="Akrobat-SemiBold" font-weight="bold" font-size="14.0" fill="#000000" transform="matrix(1.00, 0.00, -0.00, -1.00, 768.2, 708.0)">O</text><text xml:space="preserve" font-family="Akrobat-SemiBold" font-weight="bold" font-size="14.0" fill="#000000" transform="matrix(1.00, 0.00, -0.00, -1.00, 776.9, 708.0)">N</text><text xml:space="preserve" font-family="Akrobat-SemiBold" font-weight="bold" font-size="14.0" fill="#000000" transform="matrix(1.00, 0.00, -0.00, -1.00, 786.0, 708.0)">T</text><text xml:space="preserve" font-family="Akrobat-SemiBold" font-weight="bold" font-size="14.0" fill="#000000" transform="matrix(1.00, 0.00, -0.00, -1.00, 792.7, 708.0)">A</text><text xml:space="preserve" font-family="Akrobat-SemiBold" font-weight="bold" font-size="14.0" fill="#000000" transform="matrix(1.00, 0.00, -0.00, -1.00, 800.5, 708.0)">C</text><text xml:space="preserve" font-family="Akrobat-SemiBold" font-weight="bold" font-size="14.0" fill="#000000" transform="matrix(1.00, 0.00, -0.00, -1.00, 808.7, 708.0)">T</text><text xml:space="preserve" font-family="Akrobat-Light" font-size="36.0" fill="#000000" transform="matrix(1.00, 0.00, -0.00, -1.00, 759.0, 665.0)">B</text><text xml:space="preserve" font-family="Akrobat-Light" font-size="36.0" fill="#000000" transform="matrix(1.00, 0.00, -0.00, -1.00, 776.4, 665.0)">e</text><text xml:space="preserve" font-family="Akrobat-Light" font-size="36.0" fill="#000000" transform="matrix(1.00, 0.00, -0.00, -1.00, 792.2, 665.0)">t</text><text xml:space="preserve" font-family="Akrobat-Light" font-size="36.0" fill="#000000" transform="matrix(1.00, 0.00, -0.00, -1.00, 802.6, 665.0)">t</text><text xml:space="preserve" font-family="Akrobat-Light" font-size="36.0" fill="#000000" transform="matrix(1.00, 0.00, -0.00, -1.00, 813.0, 665.0)">y</text><text xml:space="preserve" font-family="Akrobat-Light" font-size="36.0" fill="#000000" transform="matrix(1.00, 0.00, -0.00, -1.00, 826.6, 665.0)"> </text><text xml:space="preserve" font-family="Akrobat-Light" font-size="36.0" fill="#000000" transform="matrix(1.00, 0.00, -0.00, -1.00, 835.4, 665.0)">D</text><text xml:space="preserve" font-family="Akrobat-Light" font-size="36.0" fill="#000000" transform="matrix(1.00, 0.00, -0.00, -1.00, 853.1, 665.0)">r</text><text xml:space="preserve" font-family="Akrobat-Light" font-size="36.0" fill="#000000" transform="matrix(1.00, 0.00, -0.00, -1.00, 864.3, 665.0)">a</text><text xml:space="preserve" font-family="Akrobat-Light" font-size="36.0" fill="#000000" transform="matrix(1.00, 0.00, -0.00, -1.00, 880.1, 665.0)">p</text><text xml:space="preserve" font-family="Akrobat-Light" font-size="36.0" fill="#000000" transform="matrix(1.00, 0.00, -0.00, -1.00, 896.4, 665.0)">e</text><text xml:space="preserve" font-family="Akrobat-Light" font-size="36.0" fill="#000000" transform="matrix(1.00, 0.00, -0.00, -1.00, 912.3, 665.0)">r</text><text xml:space="preserve" font-family="Akrobat-Light" font-size="24.0" fill="#000000" transform="matrix(1.00, 0.00, -0.00, -1.00, 924.0, 665.0)"> </text><text xml:space="preserve" font-family="Akrobat-Light" font-size="23.0" fill="#000000" transform="matrix(1.00, 0.00, -0.00, -1.00, 929.8, 665.0)">—</text><text xml:space="preserve" font-family="Akrobat-Light" font-size="23.0" fill="#000000" transform="matrix(1.00, 0.00, -0.00, -1.00, 942.5, 665.0)"> </text><text xml:space="preserve" font-family="Akrobat-Light" font-size="23.0" fill="#000000" transform="matrix(1.00, 0.00, -0.00, -1.00, 948.1, 665.0)">O</text><text xml:space="preserve" font-family="Akrobat-Light" font-size="23.0" fill="#000000" transform="matrix(1.00, 0.00, -0.00, -1.00, 959.9, 665.0)">W</text><text xml:space="preserve" font-family="Akrobat-Light" font-size="23.0" fill="#000000" transform="matrix(1.00, 0.00, -0.00, -1.00, 975.7, 665.0)">N</text><text xml:space="preserve" font-family="Akrobat-Light" font-size="23.0" fill="#000000" transform="matrix(1.00, 0.00, -0.00, -1.00, 988.0, 665.0)">E</text><text xml:space="preserve" font-family="Akrobat-Light" font-size="23.0" fill="#000000" transform="matrix(1.00, 0.00, -0.00, -1.00, 998.3, 665.0)">R</text><text xml:space="preserve" font-family="LucidaGrande" font-size="24.0" fill="#000000" transform="matrix(1.00, 0.00, -0.00, -1.00, 1009.1, 665.0)"> </text><text xml:space="preserve" font-family="Akrobat-SemiBold" font-weight="bold" font-size="24.0" fill="#000000" transform="matrix(1.00, 0.00, -0.00, -1.00, 759.0, 634.0)">»</text><text xml:space="preserve" font-family="Akrobat-Light" font-size="24.0" fill="#000000" transform="matrix(1.00, 0.00, -0.00, -1.00, 769.8, 634.0)"> </text><text xml:space="preserve" font-family="Akrobat-SemiBold" font-weight="bold" font-size="24.0" fill="#00B4FF" transform="matrix(1.00, 0.00, -0.00, -1.00, 775.7, 634.0)">2</text><text xml:space="preserve" font-family="Akrobat-SemiBold" font-weight="bold" font-size="24.0" fill="#00B4FF" transform="matrix(1.00, 0.00, -0.00, -1.00, 785.5, 634.0)">0</text><text xml:space="preserve" font-family="Akrobat-SemiBold" font-weight="bold" font-size="24.0" fill="#00B4FF" transform="matrix(1.00, 0.00, -0.00, -1.00, 796.7, 634.0)">2</text><text xml:space="preserve" font-family="Akrobat-SemiBold" font-weight="bold" font-size="24.0" fill="#00B4FF" transform="matrix(1.00, 0.00, -0.00, -1.00, 806.6, 634.0)">-</text><text xml:space="preserve" font-family="Akrobat-SemiBold" font-weight="bold" font-size="24.0" fill="#00B4FF" transform="matrix(1.00, 0.00, -0.00, -1.00, 814.4, 634.0)">2</text><text xml:space="preserve" font-family="Akrobat-SemiBold" font-weight="bold" font-size="24.0" fill="#00B4FF" transform="matrix(1.00, 0.00, -0.00, -1.00, 824.3, 634.0)">2</text><text xml:space="preserve" font-family="Akrobat-SemiBold" font-weight="bold" font-size="24.0" fill="#00B4FF" transform="matrix(1.00, 0.00, -0.00, -1.00, 834.2, 634.0)">2</text><text xml:space="preserve" font-family="Akrobat-SemiBold" font-weight="bold" font-size="24.0" fill="#00B4FF" transform="matrix(1.00, 0.00, -0.00, -1.00, 844.1, 634.0)">-</text><text xml:space="preserve" font-family="Akrobat-SemiBold" font-weight="bold" font-size="24.0" fill="#00B4FF" transform="matrix(1.00, 0.00, -0.00, -1.00, 851.9, 634.0)">2</text><text xml:space="preserve" font-family="Akrobat-SemiBold" font-weight="bold" font-size="24.0" fill="#00B4FF" transform="matrix(1.00, 0.00, -0.00, -1.00, 861.8, 634.0)">2</text><text xml:space="preserve" font-family="Akrobat-SemiBold" font-weight="bold" font-size="24.0" fill="#00B4FF" transform="matrix(1.00, 0.00, -0.00, -1.00, 871.7, 634.0)">2</text><text xml:space="preserve" font-family="Akrobat-SemiBold" font-weight="bold" font-size="24.0" fill="#00B4FF" transform="matrix(1.00, 0.00, -0.00, -1.00, 881.6, 634.0)">2</text><text xml:space="preserve" font-family="Akrobat-SemiBold" font-weight="bold" font-size="24.0" fill="#00B4FF" transform="matrix(1.00, 0.00, -0.00, -1.00, 891.5, 634.0)"> </text><text xml:space="preserve" font-family="LucidaGrande-Bold" font-weight="bold" font-size="24.0" fill="#00B4FF" transform="matrix(1.00, 0.00, -0.00, -1.00, 896.8, 634.0)"> </text><text xml:space="preserve" font-family="Akrobat-SemiBold" font-weight="bold" font-size="24.0" fill="#000000" transform="matrix(1.00, 0.00, -0.00, -1.00, 759.0, 605.0)">»</text><text xml:space="preserve" font-family="Akrobat-SemiBold" font-weight="bold" font-size="24.0" fill="#000000" transform="matrix(1.00, 0.00, -0.00, -1.00, 769.8, 605.0)"> </text><text xml:space="preserve" font-family="Akrobat-SemiBold" font-weight="bold" font-size="24.0" fill="#00B4FF" transform="matrix(1.00, 0.00, -0.00, -1.00, 775.2, 605.0)">b</text><text xml:space="preserve" font-family="Akrobat-SemiBold" font-weight="bold" font-size="24.0" fill="#00B4FF" transform="matrix(1.00, 0.00, -0.00, -1.00, 786.3, 605.0)">e</text><text xml:space="preserve" font-family="Akrobat-SemiBold" font-weight="bold" font-size="24.0" fill="#00B4FF" transform="matrix(1.00, 0.00, -0.00, -1.00, 797.2, 605.0)">t</text><text xml:space="preserve" font-family="Akrobat-SemiBold" font-weight="bold" font-size="24.0" fill="#00B4FF" transform="matrix(1.00, 0.00, -0.00, -1.00, 804.6, 605.0)">t</text><text xml:space="preserve" font-family="Akrobat-SemiBold" font-weight="bold" font-size="24.0" fill="#00B4FF" transform="matrix(1.00, 0.00, -0.00, -1.00, 811.9, 605.0)">y</text><text xml:space="preserve" font-family="Akrobat-SemiBold" font-weight="bold" font-size="24.0" fill="#00B4FF" transform="matrix(1.00, 0.00, -0.00, -1.00, 821.6, 605.0)">@</text><text xml:space="preserve" font-family="Akrobat-SemiBold" font-weight="bold" font-size="24.0" fill="#00B4FF" transform="matrix(1.00, 0.00, -0.00, -1.00, 840.3, 605.0)">s</text><text xml:space="preserve" font-family="Akrobat-SemiBold" font-weight="bold" font-size="24.0" fill="#00B4FF" transform="matrix(1.00, 0.00, -0.00, -1.00, 850.1, 605.0)">c</text><text xml:space="preserve" font-family="Akrobat-SemiBold" font-weight="bold" font-size="24.0" fill="#00B4FF" transform="matrix(1.00, 0.00, -0.00, -1.00, 860.5, 605.0)">d</text><text xml:space="preserve" font-family="Akrobat-SemiBold" font-weight="bold" font-size="24.0" fill="#00B4FF" transform="matrix(1.00, 0.00, -0.00, -1.00, 871.7, 605.0)">p</text><text xml:space="preserve" font-family="Akrobat-SemiBold" font-weight="bold" font-size="24.0" fill="#00B4FF" transform="matrix(1.00, 0.00, -0.00, -1.00, 882.9, 605.0)">.</text><text xml:space="preserve" font-family="Akrobat-SemiBold" font-weight="bold" font-size="24.0" fill="#00B4FF" transform="matrix(1.00, 0.00, -0.00, -1.00, 887.4, 605.0)">c</text><text xml:space="preserve" font-family="Akrobat-SemiBold" font-weight="bold" font-size="24.0" fill="#00B4FF" transform="matrix(1.00, 0.00, -0.00, -1.00, 897.8, 605.0)">o</text><text xml:space="preserve" font-family="Akrobat-SemiBold" font-weight="bold" font-size="24.0" fill="#00B4FF" transform="matrix(1.00, 0.00, -0.00, -1.00, 908.9, 605.0)">m</text><g><clipPath id="clip-4210"><path d="M 1115.6 714.9 L 1115.6 714.9 C 1140.8 714.9 1161.2 694.5 1161.2 669.3 L 1161.2 669.3 C 1161.2 644.1 1140.8 623.7 1115.6 623.7 L 1115.6 623.7 C 1090.4 623.7 1070.0 644.1 1070.0 669.3 L 1070.0 669.3 C 1070.0 694.5 1090.4 714.9 1115.6 714.9 Z M 1115.6 714.9 "></path></clipPath><g clip-path="url(#clip-4210)"><g><clipPath id="clip-4211"><path d="M 1067.0 620.0 L 1165.0 620.0 L 1165.0 718.0 L 1067.0 718.0 Z M 1067.0 620.0 "></path></clipPath><g clip-path="url(#clip-4211)"><image xlink:href="../../4A4A63BD-BC17-4589-89EF-8DA50A8D0187/assets/93D647E8B3BE8C5E7DAEBA86DB03095B.png" width="670.00" height="377.00" transform="matrix(0.30, 0.00, -0.00, -0.30, 1015.1, 714.2)"></image></g></g></g></g><g><clipPath id="clip-4212"><path d="M 1067.0 620.0 L 1165.0 620.0 L 1165.0 718.0 L 1067.0 718.0 Z M 1067.0 620.0 "></path></clipPath><g clip-path="url(#clip-4212)"><path d="M 615.5 49.0 L 615.5 49.0 C 640.6 49.0 661.0 69.4 661.0 94.5 L 661.0 94.5 C 661.0 119.6 640.6 140.0 615.5 140.0 L 615.5 140.0 C 590.4 140.0 570.0 119.6 570.0 94.5 L 570.0 94.5 C 570.0 69.4 590.4 49.0 615.5 49.0 Z M 615.5 49.0 " fill="none" stroke="#000000" stroke-width="4.00" stroke-miterlimit="0.00" stroke-linecap="round" stroke-linejoin="round" transform="matrix(1.00, 0.00, 0.00, -1.00, 500.0, 764.0)"></path><path d="M 615.5 49.0 L 615.5 49.0 C 640.6 49.0 661.0 69.4 661.0 94.5 L 661.0 94.5 C 661.0 119.6 640.6 140.0 615.5 140.0 L 615.5 140.0 C 590.4 140.0 570.0 119.6 570.0 94.5 L 570.0 94.5 C 570.0 69.4 590.4 49.0 615.5 49.0 Z M 615.5 49.0 " fill="none" stroke="#FEFFFF" stroke-width="2.00" stroke-miterlimit="0.00" stroke-linecap="round" stroke-linejoin="round" transform="matrix(1.00, 0.00, 0.00, -1.00, 500.0, 764.0)"></path></g></g></g></svg>