<?xml version="1.0" encoding="UTF-8" standalone="no"?><svg xmlns="http://www.w3.org/2000/svg" xmlns:xlink="http://www.w3.org/1999/xlink" clip-rule="evenodd" stroke-miterlimit="4.00" viewBox="0 0 1920 1080"><desc>SVG generated by Keynote</desc><defs></defs><g transform="matrix(1.00, 0.00, -0.00, -1.00, 0.0, 1080.0)"><path d="M 0.0 1080.0 L 1920.0 1080.0 L 1920.0 0.0 L 0.0 0.0 Z M 0.0 1080.0 " fill="#FEFFFF"></path><path d="M 750.0 734.2 L 1170.0 734.2 L 1170.0 703.2 L 750.0 703.2 Z M 750.0 734.2 " fill="#E2F6FF"></path><path d="M 0.0 0.0 L 420.0 0.0 L 420.0 31.0 L 0.0 31.0 Z M 0.0 0.0 " fill="none" stroke="#51A7F9" stroke-width="1.00" transform="matrix(1.00, 0.00, 0.00, -1.00, 750.0, 734.2)"></path><g><clipPath id="clip-2602"><path d="M 749.1 702.3 L 1170.9 702.3 L 1170.9 735.1 L 749.1 735.1 Z M 749.1 702.3 "></path></clipPath><g clip-path="url(#clip-2602)"><text xml:space="preserve" font-family="Akrobat-SemiBold" font-weight="bold" font-size="18.0" fill="#002451" transform="matrix(1.00, 0.00, -0.00, -1.00, 907.0, 711.0)">P</text><text xml:space="preserve" font-family="Akrobat-SemiBold" font-weight="bold" font-size="18.0" fill="#002451" transform="matrix(1.00, 0.00, -0.00, -1.00, 917.3, 711.0)">E</text><text xml:space="preserve" font-family="Akrobat-SemiBold" font-weight="bold" font-size="18.0" fill="#002451" transform="matrix(1.00, 0.00, -0.00, -1.00, 927.4, 711.0)">R</text><text xml:space="preserve" font-family="Akrobat-SemiBold" font-weight="bold" font-size="18.0" fill="#002451" transform="matrix(1.00, 0.00, -0.00, -1.00, 938.0, 711.0)">S</text><text xml:space="preserve" font-family="Akrobat-SemiBold" font-weight="bold" font-size="18.0" fill="#002451" transform="matrix(1.00, 0.00, -0.00, -1.00, 948.1, 711.0)">O</text><text xml:space="preserve" font-family="Akrobat-SemiBold" font-weight="bold" font-size="18.0" fill="#002451" transform="matrix(1.00, 0.00, -0.00, -1.00, 959.3, 711.0)">N</text><text xml:space="preserve" font-family="Akrobat-SemiBold" font-weight="bold" font-size="18.0" fill="#002451" transform="matrix(1.00, 0.00, -0.00, -1.00, 971.0, 711.0)">A</text><text xml:space="preserve" font-family="Akrobat-SemiBold" font-weight="bold" font-size="18.0" fill="#002451" transform="matrix(1.00, 0.00, -0.00, -1.00, 981.2, 711.0)">L</text><text xml:space="preserve" font-family="Akrobat-SemiBold" font-weight="bold" font-size="18.0" fill="#002451" transform="matrix(1.00, 0.00, -0.00, -1.00, 990.3, 711.0)">I</text><text xml:space="preserve" font-family="Akrobat-SemiBold" font-weight="bold" font-size="18.0" fill="#002451" transform="matrix(1.00, 0.00, -0.00, -1.00, 996.2, 711.0)">T</text><text xml:space="preserve" font-family="Akrobat-SemiBold" font-weight="bold" font-size="18.0" fill="#002451" transform="matrix(1.00, 0.00, -0.00, -1.00, 1005.5, 711.0)">Y</text></g></g><path d="M 750.0 618.7 L 1170.0 618.7 L 1170.0 587.7 L 750.0 587.7 Z M 750.0 618.7 " fill="#000000"></path><path d="M 0.0 0.0 L 420.0 0.0 L 420.0 31.0 L 0.0 31.0 Z M 0.0 0.0 " fill="none" stroke="#000000" stroke-width="1.00" transform="matrix(1.00, 0.00, 0.00, -1.00, 750.0, 618.7)"></path><g><clipPath id="clip-2603"><path d="M 749.1 586.8 L 1170.9 586.8 L 1170.9 619.6 L 749.1 619.6 Z M 749.1 586.8 "></path></clipPath><g clip-path="url(#clip-2603)"><text xml:space="preserve" font-family="Akrobat-SemiBold" font-weight="bold" font-size="18.0" fill="#FEFFFF" transform="matrix(1.00, 0.00, -0.00, -1.00, 917.0, 596.0)">A</text><text xml:space="preserve" font-family="Akrobat-SemiBold" font-weight="bold" font-size="18.0" fill="#FEFFFF" transform="matrix(1.00, 0.00, -0.00, -1.00, 927.2, 596.0)">M</text><text xml:space="preserve" font-family="Akrobat-SemiBold" font-weight="bold" font-size="18.0" fill="#FEFFFF" transform="matrix(1.00, 0.00, -0.00, -1.00, 941.1, 596.0)">E</text><text xml:space="preserve" font-family="Akrobat-SemiBold" font-weight="bold" font-size="18.0" fill="#FEFFFF" transform="matrix(1.00, 0.00, -0.00, -1.00, 951.1, 596.0)">N</text><text xml:space="preserve" font-family="Akrobat-SemiBold" font-weight="bold" font-size="18.0" fill="#FEFFFF" transform="matrix(1.00, 0.00, -0.00, -1.00, 962.8, 596.0)">I</text><text xml:space="preserve" font-family="Akrobat-SemiBold" font-weight="bold" font-size="18.0" fill="#FEFFFF" transform="matrix(1.00, 0.00, -0.00, -1.00, 968.7, 596.0)">T</text><text xml:space="preserve" font-family="Akrobat-SemiBold" font-weight="bold" font-size="18.0" fill="#FEFFFF" transform="matrix(1.00, 0.00, -0.00, -1.00, 978.0, 596.0)">I</text><text xml:space="preserve" font-family="Akrobat-SemiBold" font-weight="bold" font-size="18.0" fill="#FEFFFF" transform="matrix(1.00, 0.00, -0.00, -1.00, 983.9, 596.0)">E</text><text xml:space="preserve" font-family="Akrobat-SemiBold" font-weight="bold" font-size="18.0" fill="#FEFFFF" transform="matrix(1.00, 0.00, -0.00, -1.00, 993.9, 596.0)">S</text></g></g><path d="M 750.0 696.3 L 1170.0 696.3 L 1170.0 665.3 L 750.0 665.3 Z M 750.0 696.3 " fill="#E2F6FF"></path><path d="M 0.0 0.0 L 420.0 0.0 L 420.0 31.0 L 0.0 31.0 Z M 0.0 0.0 " fill="none" stroke="#51A7F9" stroke-width="1.00" transform="matrix(1.00, 0.00, 0.00, -1.00, 750.0, 696.3)"></path><g><clipPath id="clip-2604"><path d="M 749.1 664.4 L 1170.9 664.4 L 1170.9 697.2 L 749.1 697.2 Z M 749.1 664.4 "></path></clipPath><g clip-path="url(#clip-2604)"><text xml:space="preserve" font-family="Akrobat-SemiBold" font-weight="bold" font-size="18.0" fill="#002451" transform="matrix(1.00, 0.00, -0.00, -1.00, 917.0, 673.0)">B</text><text xml:space="preserve" font-family="Akrobat-SemiBold" font-weight="bold" font-size="18.0" fill="#002451" transform="matrix(1.00, 0.00, -0.00, -1.00, 927.6, 673.0)">E</text><text xml:space="preserve" font-family="Akrobat-SemiBold" font-weight="bold" font-size="18.0" fill="#002451" transform="matrix(1.00, 0.00, -0.00, -1.00, 937.7, 673.0)">D</text><text xml:space="preserve" font-family="Akrobat-SemiBold" font-weight="bold" font-size="18.0" fill="#002451" transform="matrix(1.00, 0.00, -0.00, -1.00, 948.6, 673.0)">R</text><text xml:space="preserve" font-family="Akrobat-SemiBold" font-weight="bold" font-size="18.0" fill="#002451" transform="matrix(1.00, 0.00, -0.00, -1.00, 959.2, 673.0)">O</text><text xml:space="preserve" font-family="Akrobat-SemiBold" font-weight="bold" font-size="18.0" fill="#002451" transform="matrix(1.00, 0.00, -0.00, -1.00, 970.5, 673.0)">O</text><text xml:space="preserve" font-family="Akrobat-SemiBold" font-weight="bold" font-size="18.0" fill="#002451" transform="matrix(1.00, 0.00, -0.00, -1.00, 981.7, 673.0)">M</text><text xml:space="preserve" font-family="Akrobat-SemiBold" font-weight="bold" font-size="18.0" fill="#002451" transform="matrix(1.00, 0.00, -0.00, -1.00, 995.6, 673.0)">S</text></g></g><path d="M 750.0 657.5 L 1170.0 657.5 L 1170.0 626.5 L 750.0 626.5 Z M 750.0 657.5 " fill="#E2F6FF"></path><path d="M 0.0 0.0 L 420.0 0.0 L 420.0 31.0 L 0.0 31.0 Z M 0.0 0.0 " fill="none" stroke="#51A7F9" stroke-width="1.00" transform="matrix(1.00, 0.00, 0.00, -1.00, 750.0, 657.5)"></path><g><clipPath id="clip-2605"><path d="M 749.1 625.6 L 1170.9 625.6 L 1170.9 658.4 L 749.1 658.4 Z M 749.1 625.6 "></path></clipPath><g clip-path="url(#clip-2605)"><text xml:space="preserve" font-family="Akrobat-SemiBold" font-weight="bold" font-size="18.0" fill="#002451" transform="matrix(1.00, 0.00, -0.00, -1.00, 936.0, 635.0)">B</text><text xml:space="preserve" font-family="Akrobat-SemiBold" font-weight="bold" font-size="18.0" fill="#002451" transform="matrix(1.00, 0.00, -0.00, -1.00, 946.5, 635.0)">A</text><text xml:space="preserve" font-family="Akrobat-SemiBold" font-weight="bold" font-size="18.0" fill="#002451" transform="matrix(1.00, 0.00, -0.00, -1.00, 956.1, 635.0)">T</text><text xml:space="preserve" font-family="Akrobat-SemiBold" font-weight="bold" font-size="18.0" fill="#002451" transform="matrix(1.00, 0.00, -0.00, -1.00, 965.3, 635.0)">H</text><text xml:space="preserve" font-family="Akrobat-SemiBold" font-weight="bold" font-size="18.0" fill="#002451" transform="matrix(1.00, 0.00, -0.00, -1.00, 976.8, 635.0)">S</text></g></g><g opacity="0.25"><g><clipPath id="clip-2606"><path d="M 1387.0 40.0 L 1884.0 40.0 L 1884.0 140.0 L 1387.0 140.0 Z M 1387.0 40.0 "></path></clipPath><g clip-path="url(#clip-2606)"><g><g><clipPath id="clip-2607"><path d="M 1387.0 347.8 L 1884.0 347.8 L 1884.0 -149.5 L 1387.0 -149.5 Z M 1387.0 347.8 "></path></clipPath><g clip-path="url(#clip-2607)"><g><clipPath id="clip-2608"><path d="M 1387.0 40.0 L 1884.0 40.0 L 1884.0 140.0 L 1387.0 140.0 Z M 1387.0 40.0 "></path></clipPath><g clip-path="url(#clip-2608)"><g opacity="0.25"><g><clipPath id="clip-2609"><path d="M 1788.3 44.2 L 1884.0 44.2 L 1884.0 133.4 L 1788.3 133.4 Z M 1788.3 44.2 "></path></clipPath><g clip-path="url(#clip-2609)"><path d="M 1835.9 55.7 C 1835.9 55.7 1841.7 68.7 1842.0 76.7 C 1821.8 76.7 1805.4 87.2 1805.4 100.2 C 1805.4 113.2 1821.8 123.8 1841.9 123.8 C 1862.1 123.8 1878.5 113.2 1878.5 100.2 C 1878.5 78.5 1835.9 55.7 1835.9 55.7 M 1836.1 133.4 C 1809.7 133.4 1788.3 119.5 1788.3 102.5 C 1788.3 85.4 1809.7 71.7 1836.1 71.7 C 1835.8 61.3 1828.1 44.2 1828.1 44.2 C 1828.1 44.2 1884.0 74.0 1884.0 102.5 C 1884.0 119.5 1862.6 133.4 1836.1 133.4 " fill="#020302"></path></g></g></g></g></g></g></g><g><clipPath id="clip-2610"><path d="M 1387.0 40.0 L 1884.0 40.0 L 1884.0 140.0 L 1387.0 140.0 Z M 1387.0 40.0 "></path></clipPath><g clip-path="url(#clip-2610)"><text xml:space="preserve" font-family="JosefinSlab" font-size="12.8" fill="#221F1F" transform="matrix(2.48, 0.00, -0.00, -2.49, 1730.8, 48.0)">G</text><text xml:space="preserve" font-family="JosefinSlab" font-size="12.8" fill="#221F1F" transform="matrix(2.48, 0.00, -0.00, -2.49, 1750.2, 48.0)">R</text><text xml:space="preserve" font-family="JosefinSlab" font-size="12.8" fill="#221F1F" transform="matrix(2.48, 0.00, -0.00, -2.49, 1768.4, 48.0)">O</text><text xml:space="preserve" font-family="JosefinSlab" font-size="12.8" fill="#221F1F" transform="matrix(2.48, 0.00, -0.00, -2.49, 1793.5, 48.0)">U</text><text xml:space="preserve" font-family="JosefinSlab" font-size="12.8" fill="#221F1F" transform="matrix(2.48, 0.00, -0.00, -2.49, 1815.7, 48.0)">P</text><text xml:space="preserve" font-family="JosefinSlab" font-size="12.8" fill="#221F1F" transform="matrix(2.48, 0.00, -0.00, -2.49, 1390.0, 112.9)">T</text><text xml:space="preserve" font-family="JosefinSlab" font-size="12.8" fill="#221F1F" transform="matrix(2.48, 0.00, -0.00, -2.49, 1409.8, 112.9)">H</text><text xml:space="preserve" font-family="JosefinSlab" font-size="12.8" fill="#221F1F" transform="matrix(2.48, 0.00, -0.00, -2.49, 1433.4, 112.9)">E</text></g></g><g><clipPath id="clip-2611"><path d="M 1387.0 347.8 L 1884.0 347.8 L 1884.0 -149.5 L 1387.0 -149.5 Z M 1387.0 347.8 "></path></clipPath><g clip-path="url(#clip-2611)"><g><clipPath id="clip-2612"><path d="M 1387.0 40.0 L 1884.0 40.0 L 1884.0 140.0 L 1387.0 140.0 Z M 1387.0 40.0 "></path></clipPath><g clip-path="url(#clip-2612)"><text xml:space="preserve" font-family="JosefinSlab-Bold" font-weight="bold" font-size="19.3" fill="#221F1F" transform="matrix(2.48, 0.00, -0.00, -2.49, 1387.0, 74.6)">C</text><text xml:space="preserve" font-family="JosefinSlab-Bold" font-weight="bold" font-size="19.3" fill="#221F1F" transform="matrix(2.48, 0.00, -0.00, -2.49, 1416.2, 74.6)">R</text><text xml:space="preserve" font-family="JosefinSlab-Bold" font-weight="bold" font-size="19.3" fill="#221F1F" transform="matrix(2.48, 0.00, -0.00, -2.49, 1443.8, 74.6)">A</text><text xml:space="preserve" font-family="JosefinSlab-Bold" font-weight="bold" font-size="19.3" fill="#221F1F" transform="matrix(2.48, 0.00, -0.00, -2.49, 1481.5, 74.6)">N</text><text xml:space="preserve" font-family="JosefinSlab-Bold" font-weight="bold" font-size="19.3" fill="#221F1F" transform="matrix(2.48, 0.00, -0.00, -2.49, 1522.4, 74.6)">F</text><text xml:space="preserve" font-family="JosefinSlab-Bold" font-weight="bold" font-size="19.3" fill="#221F1F" transform="matrix(2.48, 0.00, -0.00, -2.49, 1549.0, 74.6)">O</text><text xml:space="preserve" font-family="JosefinSlab-Bold" font-weight="bold" font-size="19.3" fill="#221F1F" transform="matrix(2.48, 0.00, -0.00, -2.49, 1586.6, 74.6)">R</text><text xml:space="preserve" font-family="JosefinSlab-Bold" font-weight="bold" font-size="19.3" fill="#221F1F" transform="matrix(2.48, 0.00, -0.00, -2.49, 1614.2, 74.6)">D</text><text xml:space="preserve" font-family="JosefinSlab-Bold" font-weight="bold" font-size="19.3" fill="#221F1F" transform="matrix(2.48, 0.00, -0.00, -2.49, 1644.4, 74.6)">T</text><text xml:space="preserve" font-family="JosefinSlab-Bold" font-weight="bold" font-size="19.3" fill="#221F1F" transform="matrix(2.48, 0.00, -0.00, -2.49, 1674.3, 74.6)">E</text><text xml:space="preserve" font-family="JosefinSlab-Bold" font-weight="bold" font-size="19.3" fill="#221F1F" transform="matrix(2.48, 0.00, -0.00, -2.49, 1701.6, 74.6)">A</text><text xml:space="preserve" font-family="JosefinSlab-Bold" font-weight="bold" font-size="19.3" fill="#221F1F" transform="matrix(2.48, 0.00, -0.00, -2.49, 1739.3, 74.6)">G</text><text xml:space="preserve" font-family="JosefinSlab-Bold" font-weight="bold" font-size="19.3" fill="#221F1F" transform="matrix(2.48, 0.00, -0.00, -2.49, 1768.4, 74.6)">U</text><text xml:space="preserve" font-family="JosefinSlab-Bold" font-weight="bold" font-size="19.3" fill="#221F1F" transform="matrix(2.48, 0.00, -0.00, -2.49, 1803.3, 74.6)">E</text></g></g></g></g></g></g></g></g><g opacity="0.50"><g><clipPath id="clip-2613"><path d="M 1206.0 757.0 L 1207.5 757.0 C 1208.3 757.0 1209.0 757.7 1209.0 758.5 L 1209.0 830.5 C 1209.0 831.3 1208.3 832.0 1207.5 832.0 L 1206.0 832.0 L 1206.0 972.0 C 1206.0 1013.4 1172.4 1047.0 1131.0 1047.0 L 790.0 1047.0 C 748.6 1047.0 715.0 1013.4 715.0 972.0 L 715.0 919.0 L 713.5 919.0 C 712.7 919.0 712.0 918.3 712.0 917.5 L 712.0 879.5 C 712.0 878.7 712.7 878.0 713.5 878.0 L 715.0 878.0 L 715.0 832.0 L 713.5 832.0 C 712.7 832.0 712.0 831.3 712.0 830.5 L 712.0 758.5 C 712.0 757.7 712.7 757.0 713.5 757.0 L 715.0 757.0 L 715.0 740.0 L 713.5 740.0 C 712.7 740.0 712.0 739.3 712.0 738.5 L 712.0 666.5 C 712.0 665.7 712.7 665.0 713.5 665.0 L 715.0 665.0 L 715.0 108.0 C 715.0 66.6 748.6 33.0 790.0 33.0 L 1131.0 33.0 C 1172.4 33.0 1206.0 66.6 1206.0 108.0 L 1206.0 757.0 L 1206.0 757.0 L 1206.0 757.0 Z M 745.0 924.0 L 745.0 158.0 L 1176.0 158.0 L 1176.0 924.0 L 745.0 924.0 L 745.0 924.0 Z M 960.0 64.0 C 981.0 64.0 998.0 81.0 998.0 102.0 C 998.0 123.0 981.0 140.0 960.0 140.0 C 939.0 140.0 922.0 123.0 922.0 102.0 C 922.0 81.0 939.0 64.0 960.0 64.0 L 960.0 64.0 Z M 960.0 68.0 C 978.8 68.0 994.0 83.2 994.0 102.0 C 994.0 120.8 978.8 136.0 960.0 136.0 C 941.2 136.0 926.0 120.8 926.0 102.0 C 926.0 83.2 941.2 68.0 960.0 68.0 L 960.0 68.0 Z M 882.0 975.0 C 886.4 975.0 890.0 978.6 890.0 983.0 C 890.0 987.4 886.4 991.0 882.0 991.0 C 877.6 991.0 874.0 987.4 874.0 983.0 C 874.0 978.6 877.6 975.0 882.0 975.0 L 882.0 975.0 Z M 961.0 1010.0 C 963.8 1010.0 966.0 1012.2 966.0 1015.0 C 966.0 1017.8 963.8 1020.0 961.0 1020.0 C 958.2 1020.0 956.0 1017.8 956.0 1015.0 C 956.0 1012.2 958.2 1010.0 961.0 1010.0 L 961.0 1010.0 Z M 925.0 987.0 C 922.8 987.0 921.0 985.2 921.0 983.0 C 921.0 980.8 922.8 979.0 925.0 979.0 L 997.0 979.0 C 999.2 979.0 1001.0 980.8 1001.0 983.0 C 1001.0 985.2 999.2 987.0 997.0 987.0 L 925.0 987.0 L 925.0 987.0 Z M 925.0 987.0 "></path></clipPath><g clip-path="url(#clip-2613)"><g><clipPath id="clip-2614"><path d="M 712.0 33.0 L 1209.0 33.0 L 1209.0 1047.0 L 712.0 1047.0 Z M 712.0 33.0 "></path></clipPath><g clip-path="url(#clip-2614)"><path d="M 707.0 1052.0 L 1214.0 1052.0 L 1214.0 28.0 L 707.0 28.0 Z M 707.0 1052.0 " fill="#000000"></path></g></g></g></g></g><image xlink:href="../../7D845C88-9D36-4D54-84B6-6D208BC815DA/assets/23B6A4889E4950E0BA49A0B1EBAA65A9.png" width="50.00" height="50.00" transform="matrix(1.00, 0.00, -0.00, -1.00, 935.0, 916.0)"></image><path d="M 750.0 859.0 L 1170.0 859.0 L 1170.0 829.0 L 750.0 829.0 Z M 750.0 859.0 " fill="#000000"></path><g><clipPath id="clip-2615"><path d="M 748.6 827.6 L 1171.4 827.6 L 1171.4 860.4 L 748.6 860.4 Z M 748.6 827.6 "></path></clipPath><g clip-path="url(#clip-2615)"><text xml:space="preserve" font-family="Akrobat-Black" font-weight="bold" font-size="18.0" fill="#FEFFFF" transform="matrix(1.00, 0.00, -0.00, -1.00, 945.0, 837.0)">R</text><text xml:space="preserve" font-family="Akrobat-Black" font-weight="bold" font-size="18.0" fill="#FEFFFF" transform="matrix(1.00, 0.00, -0.00, -1.00, 956.3, 837.0)">E</text><text xml:space="preserve" font-family="Akrobat-Black" font-weight="bold" font-size="18.0" fill="#FEFFFF" transform="matrix(1.00, 0.00, -0.00, -1.00, 966.5, 837.0)">F</text></g></g><g><clipPath id="clip-2616"><path d="M 1144.0 873.0 L 1170.0 873.0 L 1170.0 900.0 L 1144.0 900.0 Z M 1144.0 873.0 "></path></clipPath><g clip-path="url(#clip-2616)"><path d="M 1168.1 883.9 C 1166.7 886.4 1167.5 889.5 1170.0 890.9 L 1167.3 895.5 C 1166.6 895.1 1165.7 894.8 1164.7 894.8 C 1161.9 894.8 1159.6 897.1 1159.6 900.0 L 1154.3 900.0 C 1154.4 899.1 1154.1 898.2 1153.7 897.4 C 1152.3 894.9 1149.1 894.1 1146.7 895.5 L 1144.0 891.0 C 1144.8 890.5 1145.4 889.9 1145.9 889.1 C 1147.3 886.6 1146.5 883.5 1144.0 882.1 L 1146.7 877.5 C 1147.4 877.9 1148.3 878.2 1149.2 878.2 C 1152.0 878.2 1154.3 875.9 1154.3 873.1 L 1159.6 873.1 C 1159.6 873.9 1159.8 874.8 1160.3 875.6 C 1161.7 878.1 1164.8 878.9 1167.3 877.5 L 1169.9 882.1 C 1169.2 882.5 1168.5 883.1 1168.1 883.9 Z M 1157.0 881.1 C 1154.0 881.1 1151.5 883.5 1151.5 886.5 C 1151.5 889.5 1154.0 892.0 1157.0 892.0 C 1160.0 892.0 1162.4 889.5 1162.4 886.5 C 1162.4 883.5 1160.0 881.1 1157.0 881.1 Z M 1157.0 881.1 " fill="#000000"></path></g></g><text xml:space="preserve" font-family="Akrobat-SemiBold" font-weight="bold" font-size="14.0" fill="#000000" transform="matrix(1.00, 0.00, -0.00, -1.00, 753.0, 542.0)">W</text><text xml:space="preserve" font-family="Akrobat-SemiBold" font-weight="bold" font-size="14.0" fill="#000000" transform="matrix(1.00, 0.00, -0.00, -1.00, 764.6, 542.0)">I</text><text xml:space="preserve" font-family="Akrobat-SemiBold" font-weight="bold" font-size="14.0" fill="#000000" transform="matrix(1.00, 0.00, -0.00, -1.00, 769.3, 542.0)">R</text><text xml:space="preserve" font-family="Akrobat-SemiBold" font-weight="bold" font-size="14.0" fill="#000000" transform="matrix(1.00, 0.00, -0.00, -1.00, 777.6, 542.0)">E</text><text xml:space="preserve" font-family="Akrobat-SemiBold" font-weight="bold" font-size="14.0" fill="#000000" transform="matrix(1.00, 0.00, -0.00, -1.00, 785.4, 542.0)">L</text><text xml:space="preserve" font-family="Akrobat-SemiBold" font-weight="bold" font-size="14.0" fill="#000000" transform="matrix(1.00, 0.00, -0.00, -1.00, 792.5, 542.0)">E</text><text xml:space="preserve" font-family="Akrobat-SemiBold" font-weight="bold" font-size="14.0" fill="#000000" transform="matrix(1.00, 0.00, -0.00, -1.00, 800.3, 542.0)">S</text><text xml:space="preserve" font-family="Akrobat-SemiBold" font-weight="bold" font-size="14.0" fill="#000000" transform="matrix(1.00, 0.00, -0.00, -1.00, 808.1, 542.0)">S</text><text xml:space="preserve" font-family="Akrobat-SemiBold" font-weight="bold" font-size="14.0" fill="#000000" transform="matrix(1.00, 0.00, -0.00, -1.00, 815.9, 542.0)"> </text><text xml:space="preserve" font-family="Akrobat-SemiBold" font-weight="bold" font-size="14.0" fill="#000000" transform="matrix(1.00, 0.00, -0.00, -1.00, 820.4, 542.0)">I</text><text xml:space="preserve" font-family="Akrobat-SemiBold" font-weight="bold" font-size="14.0" fill="#000000" transform="matrix(1.00, 0.00, -0.00, -1.00, 825.0, 542.0)">N</text><text xml:space="preserve" font-family="Akrobat-SemiBold" font-weight="bold" font-size="14.0" fill="#000000" transform="matrix(1.00, 0.00, -0.00, -1.00, 834.1, 542.0)">T</text><text xml:space="preserve" font-family="Akrobat-SemiBold" font-weight="bold" font-size="14.0" fill="#000000" transform="matrix(1.00, 0.00, -0.00, -1.00, 841.3, 542.0)">E</text><text xml:space="preserve" font-family="Akrobat-SemiBold" font-weight="bold" font-size="14.0" fill="#000000" transform="matrix(1.00, 0.00, -0.00, -1.00, 849.1, 542.0)">R</text><text xml:space="preserve" font-family="Akrobat-SemiBold" font-weight="bold" font-size="14.0" fill="#000000" transform="matrix(1.00, 0.00, -0.00, -1.00, 857.4, 542.0)">N</text><text xml:space="preserve" font-family="Akrobat-SemiBold" font-weight="bold" font-size="14.0" fill="#000000" transform="matrix(1.00, 0.00, -0.00, -1.00, 866.5, 542.0)">E</text><text xml:space="preserve" font-family="Akrobat-SemiBold" font-weight="bold" font-size="14.0" fill="#000000" transform="matrix(1.00, 0.00, -0.00, -1.00, 874.3, 542.0)">T</text><text xml:space="preserve" font-family="Akrobat-SemiBold" font-weight="bold" font-size="14.0" fill="#000000" transform="matrix(1.00, 0.00, -0.00, -1.00, 753.0, 483.0)">K</text><text xml:space="preserve" font-family="Akrobat-SemiBold" font-weight="bold" font-size="14.0" fill="#000000" transform="matrix(1.00, 0.00, -0.00, -1.00, 761.3, 483.0)">I</text><text xml:space="preserve" font-family="Akrobat-SemiBold" font-weight="bold" font-size="14.0" fill="#000000" transform="matrix(1.00, 0.00, -0.00, -1.00, 765.9, 483.0)">T</text><text xml:space="preserve" font-family="Akrobat-SemiBold" font-weight="bold" font-size="14.0" fill="#000000" transform="matrix(1.00, 0.00, -0.00, -1.00, 773.1, 483.0)">C</text><text xml:space="preserve" font-family="Akrobat-SemiBold" font-weight="bold" font-size="14.0" fill="#000000" transform="matrix(1.00, 0.00, -0.00, -1.00, 781.3, 483.0)">H</text><text xml:space="preserve" font-family="Akrobat-SemiBold" font-weight="bold" font-size="14.0" fill="#000000" transform="matrix(1.00, 0.00, -0.00, -1.00, 790.2, 483.0)">E</text><text xml:space="preserve" font-family="Akrobat-SemiBold" font-weight="bold" font-size="14.0" fill="#000000" transform="matrix(1.00, 0.00, -0.00, -1.00, 798.0, 483.0)">N</text><text xml:space="preserve" font-family="Akrobat-SemiBold" font-weight="bold" font-size="14.0" fill="#000000" transform="matrix(1.00, 0.00, -0.00, -1.00, 753.0, 423.0)">T</text><text xml:space="preserve" font-family="Akrobat-SemiBold" font-weight="bold" font-size="14.0" fill="#000000" transform="matrix(1.00, 0.00, -0.00, -1.00, 760.2, 423.0)">V</text><text xml:space="preserve" font-family="Akrobat-SemiBold" font-weight="bold" font-size="14.0" fill="#000000" transform="matrix(1.00, 0.00, -0.00, -1.00, 754.0, 363.0)">E</text><text xml:space="preserve" font-family="Akrobat-SemiBold" font-weight="bold" font-size="14.0" fill="#000000" transform="matrix(1.00, 0.00, -0.00, -1.00, 761.8, 363.0)">S</text><text xml:space="preserve" font-family="Akrobat-SemiBold" font-weight="bold" font-size="14.0" fill="#000000" transform="matrix(1.00, 0.00, -0.00, -1.00, 769.6, 363.0)">S</text><text xml:space="preserve" font-family="Akrobat-SemiBold" font-weight="bold" font-size="14.0" fill="#000000" transform="matrix(1.00, 0.00, -0.00, -1.00, 777.3, 363.0)">E</text><text xml:space="preserve" font-family="Akrobat-SemiBold" font-weight="bold" font-size="14.0" fill="#000000" transform="matrix(1.00, 0.00, -0.00, -1.00, 785.1, 363.0)">N</text><text xml:space="preserve" font-family="Akrobat-SemiBold" font-weight="bold" font-size="14.0" fill="#000000" transform="matrix(1.00, 0.00, -0.00, -1.00, 794.2, 363.0)">T</text><text xml:space="preserve" font-family="Akrobat-SemiBold" font-weight="bold" font-size="14.0" fill="#000000" transform="matrix(1.00, 0.00, -0.00, -1.00, 801.4, 363.0)">I</text><text xml:space="preserve" font-family="Akrobat-SemiBold" font-weight="bold" font-size="14.0" fill="#000000" transform="matrix(1.00, 0.00, -0.00, -1.00, 806.0, 363.0)">A</text><text xml:space="preserve" font-family="Akrobat-SemiBold" font-weight="bold" font-size="14.0" fill="#000000" transform="matrix(1.00, 0.00, -0.00, -1.00, 813.9, 363.0)">L</text><text xml:space="preserve" font-family="Akrobat-SemiBold" font-weight="bold" font-size="14.0" fill="#000000" transform="matrix(1.00, 0.00, -0.00, -1.00, 820.8, 363.0)">S</text><g opacity="0.75"><g><clipPath id="clip-2617"><path d="M 1010.0 523.0 L 1059.0 523.0 L 1059.0 572.0 L 1010.0 572.0 Z M 1010.0 523.0 "></path></clipPath><g clip-path="url(#clip-2617)"><path d="M 1049.7 562.8 C 1058.3 554.2 1058.3 540.3 1049.7 531.7 C 1041.1 523.1 1027.2 523.1 1018.6 531.7 C 1010.0 540.3 1010.0 554.2 1018.6 562.8 C 1027.2 571.4 1041.1 571.4 1049.7 562.8 Z M 1049.7 562.8 " fill="#FEFFFF"></path><path d="M 37.6 6.4 C 46.1 15.0 46.1 29.0 37.6 37.6 C 29.0 46.1 15.0 46.1 6.4 37.6 C -2.1 29.0 -2.1 15.0 6.4 6.4 C 15.0 -2.1 29.0 -2.1 37.6 6.4 Z M 37.6 6.4 " fill="none" stroke="#C82505" stroke-width="2.00" transform="matrix(1.00, 0.00, 0.00, -1.00, 1012.2, 569.3)"></path></g></g><g><clipPath id="clip-2618"><path d="M 1012.2 525.3 L 1056.2 525.3 L 1056.2 569.3 L 1012.2 569.3 Z M 1012.2 525.3 "></path></clipPath><g clip-path="url(#clip-2618)"><text xml:space="preserve" font-family="Entypo" font-size="28.0" fill="#C82505" transform="matrix(1.00, 0.00, -0.00, -1.00, 1029.0, 540.0)">❌</text></g></g></g><g opacity="0.75"><g><clipPath id="clip-2619"><path d="M 1123.0 523.0 L 1172.0 523.0 L 1172.0 572.0 L 1123.0 572.0 Z M 1123.0 523.0 "></path></clipPath><g clip-path="url(#clip-2619)"><path d="M 1163.2 562.8 C 1171.8 554.2 1171.8 540.3 1163.2 531.7 C 1154.6 523.1 1140.7 523.1 1132.1 531.7 C 1123.5 540.3 1123.5 554.2 1132.1 562.8 C 1140.7 571.4 1154.6 571.4 1163.2 562.8 Z M 1163.2 562.8 " fill="#6FBF40"></path><path d="M 37.6 6.4 C 46.1 15.0 46.1 29.0 37.6 37.6 C 29.0 46.1 15.0 46.1 6.4 37.6 C -2.1 29.0 -2.1 15.0 6.4 6.4 C 15.0 -2.1 29.0 -2.1 37.6 6.4 Z M 37.6 6.4 " fill="none" stroke="#6FBF40" stroke-width="2.00" transform="matrix(1.00, 0.00, 0.00, -1.00, 1125.7, 569.3)"></path></g></g><g><clipPath id="clip-2620"><path d="M 1125.7 525.3 L 1169.7 525.3 L 1169.7 569.3 L 1125.7 569.3 Z M 1125.7 525.3 "></path></clipPath><g clip-path="url(#clip-2620)"><text xml:space="preserve" font-family="Entypo" font-size="28.0" fill="#FEFFFF" transform="matrix(1.00, 0.00, -0.00, -1.00, 1142.0, 540.0)">✓</text></g></g></g><g opacity="0.75"><g><clipPath id="clip-2621"><path d="M 1066.0 523.0 L 1115.0 523.0 L 1115.0 572.0 L 1066.0 572.0 Z M 1066.0 523.0 "></path></clipPath><g clip-path="url(#clip-2621)"><path d="M 1106.5 562.8 C 1115.1 554.2 1115.1 540.3 1106.5 531.7 C 1097.9 523.1 1084.0 523.1 1075.4 531.7 C 1066.8 540.3 1066.8 554.2 1075.4 562.8 C 1084.0 571.4 1097.9 571.4 1106.5 562.8 Z M 1106.5 562.8 " fill="#FEFFFF"></path><path d="M 37.6 6.4 C 46.1 15.0 46.1 29.0 37.6 37.6 C 29.0 46.1 15.0 46.1 6.4 37.6 C -2.1 29.0 -2.1 15.0 6.4 6.4 C 15.0 -2.1 29.0 -2.1 37.6 6.4 Z M 37.6 6.4 " fill="none" stroke="#F5D327" stroke-width="2.00" transform="matrix(1.00, 0.00, 0.00, -1.00, 1068.9, 569.3)"></path></g></g><g><clipPath id="clip-2622"><path d="M 1068.9 525.3 L 1112.9 525.3 L 1112.9 569.3 L 1068.9 569.3 Z M 1068.9 525.3 "></path></clipPath><g clip-path="url(#clip-2622)"><text xml:space="preserve" font-family="Entypo" font-size="28.0" fill="#F5D327" transform="matrix(1.00, 0.00, -0.00, -1.00, 1083.0, 540.0)">⚠</text></g></g></g><g opacity="0.75"><g><clipPath id="clip-2623"><path d="M 1010.0 464.0 L 1059.0 464.0 L 1059.0 513.0 L 1010.0 513.0 Z M 1010.0 464.0 "></path></clipPath><g clip-path="url(#clip-2623)"><path d="M 1049.7 504.2 C 1058.3 495.6 1058.3 481.7 1049.7 473.1 C 1041.1 464.5 1027.2 464.5 1018.6 473.1 C 1010.0 481.7 1010.0 495.6 1018.6 504.2 C 1027.2 512.8 1041.1 512.8 1049.7 504.2 Z M 1049.7 504.2 " fill="#FEFFFF"></path><path d="M 37.6 6.4 C 46.1 15.0 46.1 29.0 37.6 37.6 C 29.0 46.1 15.0 46.1 6.4 37.6 C -2.1 29.0 -2.1 15.0 6.4 6.4 C 15.0 -2.1 29.0 -2.1 37.6 6.4 Z M 37.6 6.4 " fill="none" stroke="#C82505" stroke-width="2.00" transform="matrix(1.00, 0.00, 0.00, -1.00, 1012.2, 510.7)"></path></g></g><g><clipPath id="clip-2624"><path d="M 1012.2 466.7 L 1056.2 466.7 L 1056.2 510.7 L 1012.2 510.7 Z M 1012.2 466.7 "></path></clipPath><g clip-path="url(#clip-2624)"><text xml:space="preserve" font-family="Entypo" font-size="28.0" fill="#C82505" transform="matrix(1.00, 0.00, -0.00, -1.00, 1029.0, 482.0)">❌</text></g></g></g><g opacity="0.75"><g><clipPath id="clip-2625"><path d="M 1123.0 464.0 L 1172.0 464.0 L 1172.0 513.0 L 1123.0 513.0 Z M 1123.0 464.0 "></path></clipPath><g clip-path="url(#clip-2625)"><path d="M 1163.2 504.2 C 1171.8 495.6 1171.8 481.7 1163.2 473.1 C 1154.6 464.5 1140.7 464.5 1132.1 473.1 C 1123.5 481.7 1123.5 495.6 1132.1 504.2 C 1140.7 512.8 1154.6 512.8 1163.2 504.2 Z M 1163.2 504.2 " fill="#6FBF40"></path><path d="M 37.6 6.4 C 46.1 15.0 46.1 29.0 37.6 37.6 C 29.0 46.1 15.0 46.1 6.4 37.6 C -2.1 29.0 -2.1 15.0 6.4 6.4 C 15.0 -2.1 29.0 -2.1 37.6 6.4 Z M 37.6 6.4 " fill="none" stroke="#6FBF40" stroke-width="2.00" transform="matrix(1.00, 0.00, 0.00, -1.00, 1125.7, 510.7)"></path></g></g><g><clipPath id="clip-2626"><path d="M 1125.7 466.7 L 1169.7 466.7 L 1169.7 510.7 L 1125.7 510.7 Z M 1125.7 466.7 "></path></clipPath><g clip-path="url(#clip-2626)"><text xml:space="preserve" font-family="Entypo" font-size="28.0" fill="#FEFFFF" transform="matrix(1.00, 0.00, -0.00, -1.00, 1142.0, 482.0)">✓</text></g></g></g><g opacity="0.75"><g><clipPath id="clip-2627"><path d="M 1066.0 464.0 L 1115.0 464.0 L 1115.0 513.0 L 1066.0 513.0 Z M 1066.0 464.0 "></path></clipPath><g clip-path="url(#clip-2627)"><path d="M 1106.5 504.2 C 1115.1 495.6 1115.1 481.7 1106.5 473.1 C 1097.9 464.5 1084.0 464.5 1075.4 473.1 C 1066.8 481.7 1066.8 495.6 1075.4 504.2 C 1084.0 512.8 1097.9 512.8 1106.5 504.2 Z M 1106.5 504.2 " fill="#FEFFFF"></path><path d="M 37.6 6.4 C 46.1 15.0 46.1 29.0 37.6 37.6 C 29.0 46.1 15.0 46.1 6.4 37.6 C -2.1 29.0 -2.1 15.0 6.4 6.4 C 15.0 -2.1 29.0 -2.1 37.6 6.4 Z M 37.6 6.4 " fill="none" stroke="#F5D327" stroke-width="2.00" transform="matrix(1.00, 0.00, 0.00, -1.00, 1068.9, 510.7)"></path></g></g><g><clipPath id="clip-2628"><path d="M 1068.9 466.7 L 1112.9 466.7 L 1112.9 510.7 L 1068.9 510.7 Z M 1068.9 466.7 "></path></clipPath><g clip-path="url(#clip-2628)"><text xml:space="preserve" font-family="Entypo" font-size="28.0" fill="#F5D327" transform="matrix(1.00, 0.00, -0.00, -1.00, 1083.0, 482.0)">⚠</text></g></g></g><g opacity="0.75"><g><clipPath id="clip-2629"><path d="M 1010.0 406.0 L 1059.0 406.0 L 1059.0 455.0 L 1010.0 455.0 Z M 1010.0 406.0 "></path></clipPath><g clip-path="url(#clip-2629)"><path d="M 1049.7 446.0 C 1058.3 437.4 1058.3 423.5 1049.7 414.9 C 1041.1 406.3 1027.2 406.3 1018.6 414.9 C 1010.0 423.5 1010.0 437.4 1018.6 446.0 C 1027.2 454.6 1041.1 454.6 1049.7 446.0 Z M 1049.7 446.0 " fill="#FEFFFF"></path><path d="M 37.6 6.4 C 46.1 15.0 46.1 29.0 37.6 37.6 C 29.0 46.1 15.0 46.1 6.4 37.6 C -2.1 29.0 -2.1 15.0 6.4 6.4 C 15.0 -2.1 29.0 -2.1 37.6 6.4 Z M 37.6 6.4 " fill="none" stroke="#C82505" stroke-width="2.00" transform="matrix(1.00, 0.00, 0.00, -1.00, 1012.2, 452.4)"></path></g></g><g><clipPath id="clip-2630"><path d="M 1012.2 408.4 L 1056.2 408.4 L 1056.2 452.4 L 1012.2 452.4 Z M 1012.2 408.4 "></path></clipPath><g clip-path="url(#clip-2630)"><text xml:space="preserve" font-family="Entypo" font-size="28.0" fill="#C82505" transform="matrix(1.00, 0.00, -0.00, -1.00, 1029.0, 423.0)">❌</text></g></g></g><g opacity="0.75"><g><clipPath id="clip-2631"><path d="M 1123.0 406.0 L 1172.0 406.0 L 1172.0 455.0 L 1123.0 455.0 Z M 1123.0 406.0 "></path></clipPath><g clip-path="url(#clip-2631)"><path d="M 1163.2 446.0 C 1171.8 437.4 1171.8 423.5 1163.2 414.9 C 1154.6 406.3 1140.7 406.3 1132.1 414.9 C 1123.5 423.5 1123.5 437.4 1132.1 446.0 C 1140.7 454.6 1154.6 454.6 1163.2 446.0 Z M 1163.2 446.0 " fill="#6FBF40"></path><path d="M 37.6 6.4 C 46.1 15.0 46.1 29.0 37.6 37.6 C 29.0 46.1 15.0 46.1 6.4 37.6 C -2.1 29.0 -2.1 15.0 6.4 6.4 C 15.0 -2.1 29.0 -2.1 37.6 6.4 Z M 37.6 6.4 " fill="none" stroke="#6FBF40" stroke-width="2.00" transform="matrix(1.00, 0.00, 0.00, -1.00, 1125.7, 452.4)"></path></g></g><g><clipPath id="clip-2632"><path d="M 1125.7 408.4 L 1169.7 408.4 L 1169.7 452.4 L 1125.7 452.4 Z M 1125.7 408.4 "></path></clipPath><g clip-path="url(#clip-2632)"><text xml:space="preserve" font-family="Entypo" font-size="28.0" fill="#FEFFFF" transform="matrix(1.00, 0.00, -0.00, -1.00, 1142.0, 423.0)">✓</text></g></g></g><g opacity="0.75"><g><clipPath id="clip-2633"><path d="M 1066.0 406.0 L 1115.0 406.0 L 1115.0 455.0 L 1066.0 455.0 Z M 1066.0 406.0 "></path></clipPath><g clip-path="url(#clip-2633)"><path d="M 1106.5 446.0 C 1115.1 437.4 1115.1 423.5 1106.5 414.9 C 1097.9 406.3 1084.0 406.3 1075.4 414.9 C 1066.8 423.5 1066.8 437.4 1075.4 446.0 C 1084.0 454.6 1097.9 454.6 1106.5 446.0 Z M 1106.5 446.0 " fill="#FEFFFF"></path><path d="M 37.6 6.4 C 46.1 15.0 46.1 29.0 37.6 37.6 C 29.0 46.1 15.0 46.1 6.4 37.6 C -2.1 29.0 -2.1 15.0 6.4 6.4 C 15.0 -2.1 29.0 -2.1 37.6 6.4 Z M 37.6 6.4 " fill="none" stroke="#F5D327" stroke-width="2.00" transform="matrix(1.00, 0.00, 0.00, -1.00, 1068.9, 452.4)"></path></g></g><g><clipPath id="clip-2634"><path d="M 1068.9 408.4 L 1112.9 408.4 L 1112.9 452.4 L 1068.9 452.4 Z M 1068.9 408.4 "></path></clipPath><g clip-path="url(#clip-2634)"><text xml:space="preserve" font-family="Entypo" font-size="28.0" fill="#F5D327" transform="matrix(1.00, 0.00, -0.00, -1.00, 1083.0, 423.0)">⚠</text></g></g></g><g opacity="0.75"><g><clipPath id="clip-2635"><path d="M 1010.0 348.0 L 1059.0 348.0 L 1059.0 397.0 L 1010.0 397.0 Z M 1010.0 348.0 "></path></clipPath><g clip-path="url(#clip-2635)"><path d="M 1049.7 387.7 C 1058.3 379.2 1058.3 365.2 1049.7 356.6 C 1041.1 348.0 1027.2 348.0 1018.6 356.6 C 1010.0 365.2 1010.0 379.2 1018.6 387.7 C 1027.2 396.3 1041.1 396.3 1049.7 387.7 Z M 1049.7 387.7 " fill="#FEFFFF"></path><path d="M 37.6 6.4 C 46.1 15.0 46.1 29.0 37.6 37.6 C 29.0 46.1 15.0 46.1 6.4 37.6 C -2.1 29.0 -2.1 15.0 6.4 6.4 C 15.0 -2.1 29.0 -2.1 37.6 6.4 Z M 37.6 6.4 " fill="none" stroke="#C82505" stroke-width="2.00" transform="matrix(1.00, 0.00, 0.00, -1.00, 1012.2, 394.2)"></path></g></g><g><clipPath id="clip-2636"><path d="M 1012.2 350.2 L 1056.2 350.2 L 1056.2 394.2 L 1012.2 394.2 Z M 1012.2 350.2 "></path></clipPath><g clip-path="url(#clip-2636)"><text xml:space="preserve" font-family="Entypo" font-size="28.0" fill="#C82505" transform="matrix(1.00, 0.00, -0.00, -1.00, 1029.0, 365.0)">❌</text></g></g></g><g opacity="0.75"><g><clipPath id="clip-2637"><path d="M 1123.0 348.0 L 1172.0 348.0 L 1172.0 397.0 L 1123.0 397.0 Z M 1123.0 348.0 "></path></clipPath><g clip-path="url(#clip-2637)"><path d="M 1163.2 387.7 C 1171.8 379.2 1171.8 365.2 1163.2 356.6 C 1154.6 348.0 1140.7 348.0 1132.1 356.6 C 1123.5 365.2 1123.5 379.2 1132.1 387.7 C 1140.7 396.3 1154.6 396.3 1163.2 387.7 Z M 1163.2 387.7 " fill="#6FBF40"></path><path d="M 37.6 6.4 C 46.1 15.0 46.1 29.0 37.6 37.6 C 29.0 46.1 15.0 46.1 6.4 37.6 C -2.1 29.0 -2.1 15.0 6.4 6.4 C 15.0 -2.1 29.0 -2.1 37.6 6.4 Z M 37.6 6.4 " fill="none" stroke="#6FBF40" stroke-width="2.00" transform="matrix(1.00, 0.00, 0.00, -1.00, 1125.7, 394.2)"></path></g></g><g><clipPath id="clip-2638"><path d="M 1125.7 350.2 L 1169.7 350.2 L 1169.7 394.2 L 1125.7 394.2 Z M 1125.7 350.2 "></path></clipPath><g clip-path="url(#clip-2638)"><text xml:space="preserve" font-family="Entypo" font-size="28.0" fill="#FEFFFF" transform="matrix(1.00, 0.00, -0.00, -1.00, 1142.0, 365.0)">✓</text></g></g></g><g opacity="0.75"><g><clipPath id="clip-2639"><path d="M 1066.0 348.0 L 1115.0 348.0 L 1115.0 397.0 L 1066.0 397.0 Z M 1066.0 348.0 "></path></clipPath><g clip-path="url(#clip-2639)"><path d="M 1106.5 387.7 C 1115.1 379.2 1115.1 365.2 1106.5 356.6 C 1097.9 348.0 1084.0 348.0 1075.4 356.6 C 1066.8 365.2 1066.8 379.2 1075.4 387.7 C 1084.0 396.3 1097.9 396.3 1106.5 387.7 Z M 1106.5 387.7 " fill="#FEFFFF"></path><path d="M 37.6 6.4 C 46.1 15.0 46.1 29.0 37.6 37.6 C 29.0 46.1 15.0 46.1 6.4 37.6 C -2.1 29.0 -2.1 15.0 6.4 6.4 C 15.0 -2.1 29.0 -2.1 37.6 6.4 Z M 37.6 6.4 " fill="none" stroke="#F5D327" stroke-width="2.00" transform="matrix(1.00, 0.00, 0.00, -1.00, 1068.9, 394.2)"></path></g></g><g><clipPath id="clip-2640"><path d="M 1068.9 350.2 L 1112.9 350.2 L 1112.9 394.2 L 1068.9 394.2 Z M 1068.9 350.2 "></path></clipPath><g clip-path="url(#clip-2640)"><text xml:space="preserve" font-family="Entypo" font-size="28.0" fill="#F5D327" transform="matrix(1.00, 0.00, -0.00, -1.00, 1083.0, 365.0)">⚠</text></g></g></g><g opacity="0.75"><g><clipPath id="clip-2641"><path d="M 936.0 274.0 L 984.0 274.0 L 984.0 323.0 L 936.0 323.0 Z M 936.0 274.0 "></path></clipPath><g clip-path="url(#clip-2641)"><path d="M 975.6 313.6 C 984.1 305.0 984.1 291.1 975.6 282.5 C 967.0 273.9 953.0 273.9 944.4 282.5 C 935.9 291.1 935.9 305.0 944.4 313.6 C 953.0 322.2 967.0 322.2 975.6 313.6 Z M 975.6 313.6 " fill="#FEFFFF"></path><path d="M 37.6 6.4 C 46.1 15.0 46.1 29.0 37.6 37.6 C 29.0 46.1 15.0 46.1 6.4 37.6 C -2.1 29.0 -2.1 15.0 6.4 6.4 C 15.0 -2.1 29.0 -2.1 37.6 6.4 Z M 37.6 6.4 " fill="none" stroke="#00B4FF" stroke-width="2.00" transform="matrix(1.00, 0.00, 0.00, -1.00, 938.0, 320.1)"></path></g></g><g><clipPath id="clip-2642"><path d="M 938.0 276.1 L 982.0 276.1 L 982.0 320.1 L 938.0 320.1 Z M 938.0 276.1 "></path></clipPath><g clip-path="url(#clip-2642)"><text xml:space="preserve" font-family="LucidaGrande" font-size="23.0" fill="#00B4FF" transform="matrix(1.00, 0.00, -0.00, -1.00, 951.0, 290.0)">+</text></g></g></g><text xml:space="preserve" font-family="Entypo" font-size="55.0" fill="#00B4FF" transform="matrix(1.00, 0.00, -0.00, -1.00, 757.0, 706.0)">✓</text><text xml:space="preserve" font-family="Entypo" font-size="55.0" fill="#00B4FF" transform="matrix(1.00, 0.00, -0.00, -1.00, 757.0, 667.0)">✓</text><text xml:space="preserve" font-family="Entypo" font-size="55.0" fill="#00B4FF" transform="matrix(1.00, 0.00, -0.00, -1.00, 757.0, 628.0)">✓</text><path d="M 750.0 826.8 L 1170.0 826.8 L 1170.0 773.8 L 750.0 773.8 Z M 750.0 826.8 " fill="#000000"></path><path d="M 0.0 0.0 L 420.0 0.0 L 420.0 53.0 L 0.0 53.0 Z M 0.0 0.0 " fill="none" stroke="#000000" stroke-width="1.00" transform="matrix(1.00, 0.00, 0.00, -1.00, 750.0, 826.8)"></path><g><clipPath id="clip-2643"><path d="M 749.1 772.9 L 1170.9 772.9 L 1170.9 827.7 L 749.1 827.7 Z M 749.1 772.9 "></path></clipPath><g clip-path="url(#clip-2643)"><text xml:space="preserve" font-family="Akrobat-SemiBold" font-weight="bold" font-size="18.0" fill="#FEFFFF" transform="matrix(1.00, 0.00, -0.00, -1.00, 880.0, 804.0)">1</text><text xml:space="preserve" font-family="Akrobat-SemiBold" font-weight="bold" font-size="18.0" fill="#FEFFFF" transform="matrix(1.00, 0.00, -0.00, -1.00, 887.0, 804.0)">7</text><text xml:space="preserve" font-family="Akrobat-SemiBold" font-weight="bold" font-size="18.0" fill="#FEFFFF" transform="matrix(1.00, 0.00, -0.00, -1.00, 895.3, 804.0)">1</text><text xml:space="preserve" font-family="Akrobat-SemiBold" font-weight="bold" font-size="18.0" fill="#FEFFFF" transform="matrix(1.00, 0.00, -0.00, -1.00, 902.3, 804.0)">3</text><text xml:space="preserve" font-family="Akrobat-SemiBold" font-weight="bold" font-size="18.0" fill="#FEFFFF" transform="matrix(1.00, 0.00, -0.00, -1.00, 911.5, 804.0)"> </text><text xml:space="preserve" font-family="Akrobat-SemiBold" font-weight="bold" font-size="18.0" fill="#FEFFFF" transform="matrix(1.00, 0.00, -0.00, -1.00, 917.3, 804.0)">L</text><text xml:space="preserve" font-family="Akrobat-SemiBold" font-weight="bold" font-size="18.0" fill="#FEFFFF" transform="matrix(1.00, 0.00, -0.00, -1.00, 926.4, 804.0)">I</text><text xml:space="preserve" font-family="Akrobat-SemiBold" font-weight="bold" font-size="18.0" fill="#FEFFFF" transform="matrix(1.00, 0.00, -0.00, -1.00, 932.4, 804.0)">N</text><text xml:space="preserve" font-family="Akrobat-SemiBold" font-weight="bold" font-size="18.0" fill="#FEFFFF" transform="matrix(1.00, 0.00, -0.00, -1.00, 944.0, 804.0)">C</text><text xml:space="preserve" font-family="Akrobat-SemiBold" font-weight="bold" font-size="18.0" fill="#FEFFFF" transform="matrix(1.00, 0.00, -0.00, -1.00, 954.6, 804.0)">O</text><text xml:space="preserve" font-family="Akrobat-SemiBold" font-weight="bold" font-size="18.0" fill="#FEFFFF" transform="matrix(1.00, 0.00, -0.00, -1.00, 965.8, 804.0)">L</text><text xml:space="preserve" font-family="Akrobat-SemiBold" font-weight="bold" font-size="18.0" fill="#FEFFFF" transform="matrix(1.00, 0.00, -0.00, -1.00, 974.9, 804.0)">N</text><text xml:space="preserve" font-family="Akrobat-SemiBold" font-weight="bold" font-size="18.0" fill="#FEFFFF" transform="matrix(1.00, 0.00, -0.00, -1.00, 986.6, 804.0)"> </text><text xml:space="preserve" font-family="Akrobat-SemiBold" font-weight="bold" font-size="18.0" fill="#FEFFFF" transform="matrix(1.00, 0.00, -0.00, -1.00, 992.4, 804.0)">R</text><text xml:space="preserve" font-family="Akrobat-SemiBold" font-weight="bold" font-size="18.0" fill="#FEFFFF" transform="matrix(1.00, 0.00, -0.00, -1.00, 1003.1, 804.0)">D</text><text xml:space="preserve" font-family="Akrobat-SemiBold" font-weight="bold" font-size="18.0" fill="#FEFFFF" transform="matrix(1.00, 0.00, -0.00, -1.00, 1014.0, 804.0)"> </text><text xml:space="preserve" font-family="Akrobat-SemiBold" font-weight="bold" font-size="18.0" fill="#FEFFFF" transform="matrix(1.00, 0.00, -0.00, -1.00, 1019.8, 804.0)">N</text><text xml:space="preserve" font-family="Akrobat-SemiBold" font-weight="bold" font-size="18.0" fill="#FEFFFF" transform="matrix(1.00, 0.00, -0.00, -1.00, 1031.4, 804.0)">E</text><text xml:space="preserve" font-family="Akrobat-SemiBold" font-weight="bold" font-size="18.0" fill="#FEFFFF" transform="matrix(1.00, 0.00, -0.00, -1.00, 1041.5, 804.0)"> </text><text xml:space="preserve" font-family="Akrobat-SemiBold" font-weight="bold" font-size="18.0" fill="#FEFFFF" transform="matrix(1.00, 0.00, -0.00, -1.00, 864.0, 782.0)">W</text><text xml:space="preserve" font-family="Akrobat-SemiBold" font-weight="bold" font-size="18.0" fill="#FEFFFF" transform="matrix(1.00, 0.00, -0.00, -1.00, 878.5, 782.0)">A</text><text xml:space="preserve" font-family="Akrobat-SemiBold" font-weight="bold" font-size="18.0" fill="#FEFFFF" transform="matrix(1.00, 0.00, -0.00, -1.00, 888.6, 782.0)">S</text><text xml:space="preserve" font-family="Akrobat-SemiBold" font-weight="bold" font-size="18.0" fill="#FEFFFF" transform="matrix(1.00, 0.00, -0.00, -1.00, 898.5, 782.0)">H</text><text xml:space="preserve" font-family="Akrobat-SemiBold" font-weight="bold" font-size="18.0" fill="#FEFFFF" transform="matrix(1.00, 0.00, -0.00, -1.00, 909.9, 782.0)">I</text><text xml:space="preserve" font-family="Akrobat-SemiBold" font-weight="bold" font-size="18.0" fill="#FEFFFF" transform="matrix(1.00, 0.00, -0.00, -1.00, 915.8, 782.0)">N</text><text xml:space="preserve" font-family="Akrobat-SemiBold" font-weight="bold" font-size="18.0" fill="#FEFFFF" transform="matrix(1.00, 0.00, -0.00, -1.00, 927.5, 782.0)">G</text><text xml:space="preserve" font-family="Akrobat-SemiBold" font-weight="bold" font-size="18.0" fill="#FEFFFF" transform="matrix(1.00, 0.00, -0.00, -1.00, 938.3, 782.0)">T</text><text xml:space="preserve" font-family="Akrobat-SemiBold" font-weight="bold" font-size="18.0" fill="#FEFFFF" transform="matrix(1.00, 0.00, -0.00, -1.00, 947.6, 782.0)">O</text><text xml:space="preserve" font-family="Akrobat-SemiBold" font-weight="bold" font-size="18.0" fill="#FEFFFF" transform="matrix(1.00, 0.00, -0.00, -1.00, 958.8, 782.0)">N</text><text xml:space="preserve" font-family="Akrobat-SemiBold" font-weight="bold" font-size="18.0" fill="#FEFFFF" transform="matrix(1.00, 0.00, -0.00, -1.00, 970.5, 782.0)">,</text><text xml:space="preserve" font-family="Akrobat-SemiBold" font-weight="bold" font-size="18.0" fill="#FEFFFF" transform="matrix(1.00, 0.00, -0.00, -1.00, 975.2, 782.0)"> </text><text xml:space="preserve" font-family="Akrobat-SemiBold" font-weight="bold" font-size="18.0" fill="#FEFFFF" transform="matrix(1.00, 0.00, -0.00, -1.00, 980.9, 782.0)">D</text><text xml:space="preserve" font-family="Akrobat-SemiBold" font-weight="bold" font-size="18.0" fill="#FEFFFF" transform="matrix(1.00, 0.00, -0.00, -1.00, 991.8, 782.0)">C</text><text xml:space="preserve" font-family="Akrobat-SemiBold" font-weight="bold" font-size="18.0" fill="#FEFFFF" transform="matrix(1.00, 0.00, -0.00, -1.00, 1002.4, 782.0)"> </text><text xml:space="preserve" font-family="Akrobat-SemiBold" font-weight="bold" font-size="18.0" fill="#FEFFFF" transform="matrix(1.00, 0.00, -0.00, -1.00, 1008.2, 782.0)">2</text><text xml:space="preserve" font-family="Akrobat-SemiBold" font-weight="bold" font-size="18.0" fill="#FEFFFF" transform="matrix(1.00, 0.00, -0.00, -1.00, 1017.4, 782.0)">0</text><text xml:space="preserve" font-family="Akrobat-SemiBold" font-weight="bold" font-size="18.0" fill="#FEFFFF" transform="matrix(1.00, 0.00, -0.00, -1.00, 1027.5, 782.0)">0</text><text xml:space="preserve" font-family="Akrobat-SemiBold" font-weight="bold" font-size="18.0" fill="#FEFFFF" transform="matrix(1.00, 0.00, -0.00, -1.00, 1037.7, 782.0)">0</text><text xml:space="preserve" font-family="Akrobat-SemiBold" font-weight="bold" font-size="18.0" fill="#FEFFFF" transform="matrix(1.00, 0.00, -0.00, -1.00, 1047.9, 782.0)">2</text></g></g><path d="M 750.0 772.1 L 1170.0 772.1 L 1170.0 741.1 L 750.0 741.1 Z M 750.0 772.1 " fill="#000000"></path><path d="M 0.0 0.0 L 420.0 0.0 L 420.0 31.0 L 0.0 31.0 Z M 0.0 0.0 " fill="none" stroke="#000000" stroke-width="1.00" transform="matrix(1.00, 0.00, 0.00, -1.00, 750.0, 772.1)"></path><g><clipPath id="clip-2644"><path d="M 749.1 740.2 L 1170.9 740.2 L 1170.9 773.0 L 749.1 773.0 Z M 749.1 740.2 "></path></clipPath><g clip-path="url(#clip-2644)"><text xml:space="preserve" font-family="Akrobat-SemiBold" font-weight="bold" font-size="18.0" fill="#FEFFFF" transform="matrix(1.00, 0.00, -0.00, -1.00, 922.0, 749.0)">E</text><text xml:space="preserve" font-family="Akrobat-SemiBold" font-weight="bold" font-size="18.0" fill="#FEFFFF" transform="matrix(1.00, 0.00, -0.00, -1.00, 932.0, 749.0)">V</text><text xml:space="preserve" font-family="Akrobat-SemiBold" font-weight="bold" font-size="18.0" fill="#FEFFFF" transform="matrix(1.00, 0.00, -0.00, -1.00, 941.7, 749.0)">A</text><text xml:space="preserve" font-family="Akrobat-SemiBold" font-weight="bold" font-size="18.0" fill="#FEFFFF" transform="matrix(1.00, 0.00, -0.00, -1.00, 951.9, 749.0)">L</text><text xml:space="preserve" font-family="Akrobat-SemiBold" font-weight="bold" font-size="18.0" fill="#FEFFFF" transform="matrix(1.00, 0.00, -0.00, -1.00, 960.4, 749.0)">U</text><text xml:space="preserve" font-family="Akrobat-SemiBold" font-weight="bold" font-size="18.0" fill="#FEFFFF" transform="matrix(1.00, 0.00, -0.00, -1.00, 971.6, 749.0)">A</text><text xml:space="preserve" font-family="Akrobat-SemiBold" font-weight="bold" font-size="18.0" fill="#FEFFFF" transform="matrix(1.00, 0.00, -0.00, -1.00, 981.2, 749.0)">T</text><text xml:space="preserve" font-family="Akrobat-SemiBold" font-weight="bold" font-size="18.0" fill="#FEFFFF" transform="matrix(1.00, 0.00, -0.00, -1.00, 990.5, 749.0)">E</text></g></g><path d="M 750.0 209.3 L 1170.0 209.3 L 1170.0 164.3 L 750.0 164.3 Z M 750.0 209.3 " fill="#164E86"></path><path d="M 0.0 0.0 L 420.0 0.0 L 420.0 45.0 L 0.0 45.0 Z M 0.0 0.0 " fill="none" stroke="#002451" stroke-width="1.00" transform="matrix(1.00, 0.00, 0.00, -1.00, 750.0, 209.3)"></path><g><clipPath id="clip-2645"><path d="M 745.5 159.8 L 1174.5 159.8 L 1174.5 213.8 L 745.5 213.8 Z M 745.5 159.8 "></path></clipPath><g clip-path="url(#clip-2645)"><text xml:space="preserve" font-family="Akrobat-Regular" font-size="30.0" fill="#FEFFFF" transform="matrix(1.00, 0.00, -0.00, -1.00, 929.0, 175.0)">S</text><text xml:space="preserve" font-family="Akrobat-Regular" font-size="30.0" fill="#FEFFFF" transform="matrix(1.00, 0.00, -0.00, -1.00, 945.8, 175.0)">A</text><text xml:space="preserve" font-family="Akrobat-Regular" font-size="30.0" fill="#FEFFFF" transform="matrix(1.00, 0.00, -0.00, -1.00, 961.9, 175.0)">V</text><text xml:space="preserve" font-family="Akrobat-Regular" font-size="30.0" fill="#FEFFFF" transform="matrix(1.00, 0.00, -0.00, -1.00, 978.4, 175.0)">E</text></g></g><path d="M 750.0 246.5 L 1170.0 246.5 L 1170.0 215.5 L 750.0 215.5 Z M 750.0 246.5 " fill="#E2F6FF"></path><path d="M 0.0 0.0 L 420.0 0.0 L 420.0 31.0 L 0.0 31.0 Z M 0.0 0.0 " fill="none" stroke="#51A7F9" stroke-width="1.00" transform="matrix(1.00, 0.00, 0.00, -1.00, 750.0, 246.5)"></path><g><clipPath id="clip-2646"><path d="M 749.1 214.6 L 1170.9 214.6 L 1170.9 247.4 L 749.1 247.4 Z M 749.1 214.6 "></path></clipPath><g clip-path="url(#clip-2646)"><text xml:space="preserve" font-family="Akrobat-SemiBold" font-weight="bold" font-size="18.0" fill="#002451" transform="matrix(1.00, 0.00, -0.00, -1.00, 935.0, 224.0)">N</text><text xml:space="preserve" font-family="Akrobat-SemiBold" font-weight="bold" font-size="18.0" fill="#002451" transform="matrix(1.00, 0.00, -0.00, -1.00, 946.7, 224.0)">O</text><text xml:space="preserve" font-family="Akrobat-SemiBold" font-weight="bold" font-size="18.0" fill="#002451" transform="matrix(1.00, 0.00, -0.00, -1.00, 957.6, 224.0)">T</text><text xml:space="preserve" font-family="Akrobat-SemiBold" font-weight="bold" font-size="18.0" fill="#002451" transform="matrix(1.00, 0.00, -0.00, -1.00, 966.8, 224.0)">E</text><text xml:space="preserve" font-family="Akrobat-SemiBold" font-weight="bold" font-size="18.0" fill="#002451" transform="matrix(1.00, 0.00, -0.00, -1.00, 976.9, 224.0)">S</text></g></g><path d="M 992.5 562.8 C 1001.1 554.2 1001.1 540.3 992.5 531.7 C 983.9 523.1 970.0 523.1 961.4 531.7 C 952.8 540.3 952.8 554.2 961.4 562.8 C 970.0 571.4 983.9 571.4 992.5 562.8 Z M 992.5 562.8 " fill="#FEFFFF" fill-opacity="0.75"></path><path d="M 37.6 6.4 C 46.1 15.0 46.1 29.0 37.6 37.6 C 29.0 46.1 15.0 46.1 6.4 37.6 C -2.1 29.0 -2.1 15.0 6.4 6.4 C 15.0 -2.1 29.0 -2.1 37.6 6.4 Z M 37.6 6.4 " fill="none" stroke="#154E86" stroke-width="2.00" transform="matrix(1.00, 0.00, 0.00, -1.00, 954.9, 569.3)"></path><g><clipPath id="clip-2647"><path d="M 954.9 525.3 L 998.9 525.3 L 998.9 569.3 L 954.9 569.3 Z M 954.9 525.3 "></path></clipPath><g clip-path="url(#clip-2647)"><text xml:space="preserve" font-family="Entypo" font-size="28.0" fill="#154E86" transform="matrix(1.00, 0.00, -0.00, -1.00, 969.0, 540.0)">📷</text></g></g><path d="M 992.8 504.2 C 1001.4 495.6 1001.4 481.7 992.8 473.1 C 984.2 464.5 970.3 464.5 961.7 473.1 C 953.1 481.7 953.1 495.6 961.7 504.2 C 970.3 512.8 984.2 512.8 992.8 504.2 Z M 992.8 504.2 " fill="#154E86"></path><path d="M 37.6 6.4 C 46.1 15.0 46.1 29.0 37.6 37.6 C 29.0 46.1 15.0 46.1 6.4 37.6 C -2.1 29.0 -2.1 15.0 6.4 6.4 C 15.0 -2.1 29.0 -2.1 37.6 6.4 Z M 37.6 6.4 " fill="none" stroke="#154E86" stroke-width="2.00" transform="matrix(1.00, 0.00, 0.00, -1.00, 955.3, 510.7)"></path><g><clipPath id="clip-2648"><path d="M 955.3 466.7 L 999.3 466.7 L 999.3 510.7 L 955.3 510.7 Z M 955.3 466.7 "></path></clipPath><g clip-path="url(#clip-2648)"><text xml:space="preserve" font-family="Entypo" font-size="28.0" fill="#FEFFFF" transform="matrix(1.00, 0.00, -0.00, -1.00, 969.0, 482.0)">📷</text></g></g><path d="M 992.8 387.7 C 1001.4 379.2 1001.4 365.2 992.8 356.6 C 984.2 348.0 970.3 348.0 961.7 356.6 C 953.1 365.2 953.1 379.2 961.7 387.7 C 970.3 396.3 984.2 396.3 992.8 387.7 Z M 992.8 387.7 " fill="#FEFFFF" fill-opacity="0.75"></path><path d="M 37.6 6.4 C 46.1 15.0 46.1 29.0 37.6 37.6 C 29.0 46.1 15.0 46.1 6.4 37.6 C -2.1 29.0 -2.1 15.0 6.4 6.4 C 15.0 -2.1 29.0 -2.1 37.6 6.4 Z M 37.6 6.4 " fill="none" stroke="#154E86" stroke-width="2.00" transform="matrix(1.00, 0.00, 0.00, -1.00, 955.3, 394.2)"></path><g><clipPath id="clip-2649"><path d="M 955.3 350.2 L 999.3 350.2 L 999.3 394.2 L 955.3 394.2 Z M 955.3 350.2 "></path></clipPath><g clip-path="url(#clip-2649)"><text xml:space="preserve" font-family="Entypo" font-size="28.0" fill="#154E86" transform="matrix(1.00, 0.00, -0.00, -1.00, 969.0, 365.0)">📷</text></g></g><path d="M 992.5 444.3 C 1001.1 435.7 1001.1 421.8 992.5 413.2 C 983.9 404.6 970.0 404.6 961.4 413.2 C 952.8 421.8 952.8 435.7 961.4 444.3 C 970.0 452.9 983.9 452.9 992.5 444.3 Z M 992.5 444.3 " fill="#154E86"></path><path d="M 37.6 6.4 C 46.1 15.0 46.1 29.0 37.6 37.6 C 29.0 46.1 15.0 46.1 6.4 37.6 C -2.1 29.0 -2.1 15.0 6.4 6.4 C 15.0 -2.1 29.0 -2.1 37.6 6.4 Z M 37.6 6.4 " fill="none" stroke="#154E86" stroke-width="2.00" transform="matrix(1.00, 0.00, 0.00, -1.00, 954.9, 450.8)"></path><g><clipPath id="clip-2650"><path d="M 954.9 406.8 L 998.9 406.8 L 998.9 450.8 L 954.9 450.8 Z M 954.9 406.8 "></path></clipPath><g clip-path="url(#clip-2650)"><text xml:space="preserve" font-family="Entypo" font-size="28.0" fill="#FEFFFF" transform="matrix(1.00, 0.00, -0.00, -1.00, 969.0, 422.0)">📷</text></g></g></g></svg>