<?xml version="1.0" encoding="UTF-8" standalone="no"?><svg xmlns="http://www.w3.org/2000/svg" xmlns:xlink="http://www.w3.org/1999/xlink" clip-rule="evenodd" stroke-miterlimit="4.00" viewBox="0 0 49 49"><desc>SVG generated by Keynote</desc><defs></defs><g transform="matrix(1.00, 0.00, -0.00, -1.00, 0.0, 49.0)"><path d="M 40.2 39.8 C 48.8 31.2 48.8 17.3 40.2 8.7 C 31.6 0.1 17.7 0.1 9.1 8.7 C 0.5 17.3 0.5 31.2 9.1 39.8 C 17.7 48.4 31.6 48.4 40.2 39.8 Z M 40.2 39.8 " fill="#FEFFFF"></path><path d="M 37.6 6.4 C 46.1 15.0 46.1 29.0 37.6 37.6 C 29.0 46.1 15.0 46.1 6.4 37.6 C -2.1 29.0 -2.1 15.0 6.4 6.4 C 15.0 -2.1 29.0 -2.1 37.6 6.4 Z M 37.6 6.4 " fill="none" stroke="#6FBF40" stroke-width="2.00" transform="matrix(1.00, 0.00, 0.00, -1.00, 2.7, 46.3)"></path></g></svg>