<?xml version="1.0" encoding="UTF-8" standalone="no"?><svg xmlns="http://www.w3.org/2000/svg" xmlns:xlink="http://www.w3.org/1999/xlink" clip-rule="evenodd" stroke-miterlimit="4.00" viewBox="0 0 29 30"><desc>SVG generated by Keynote</desc><defs></defs><g transform="matrix(1.00, 0.00, -0.00, -1.00, 0.0, 30.0)"><g><clipPath id="clip-3321"><path d="M 2.0 1.0 L 28.0 1.0 L 28.0 28.0 L 2.0 28.0 Z M 2.0 1.0 "></path></clipPath><g clip-path="url(#clip-3321)"><path d="M 26.1 11.9 C 24.7 14.4 25.5 17.5 28.0 18.9 L 25.3 23.5 C 24.6 23.1 23.7 22.8 22.7 22.8 C 19.9 22.8 17.6 25.1 17.6 28.0 L 12.3 28.0 C 12.4 27.1 12.1 26.2 11.7 25.4 C 10.3 22.9 7.1 22.1 4.7 23.5 L 2.0 19.0 C 2.8 18.5 3.4 17.9 3.9 17.1 C 5.3 14.6 4.5 11.5 2.0 10.1 L 4.7 5.5 C 5.4 5.9 6.3 6.2 7.2 6.2 C 10.0 6.2 12.3 3.9 12.3 1.1 L 17.6 1.1 C 17.6 1.9 17.8 2.8 18.3 3.6 C 19.7 6.1 22.8 6.9 25.3 5.5 L 27.9 10.1 C 27.2 10.5 26.5 11.1 26.1 11.9 Z M 15.0 9.1 C 12.0 9.1 9.5 11.5 9.5 14.5 C 9.5 17.5 12.0 20.0 15.0 20.0 C 18.0 20.0 20.4 17.5 20.4 14.5 C 20.4 11.5 18.0 9.1 15.0 9.1 Z M 15.0 9.1 " fill="#000000"></path></g></g></g></svg>