<?xml version="1.0" encoding="UTF-8" standalone="no"?><svg xmlns="http://www.w3.org/2000/svg" xmlns:xlink="http://www.w3.org/1999/xlink" clip-rule="evenodd" stroke-miterlimit="4.00" viewBox="0 0 500 1017"><desc>SVG generated by Keynote</desc><defs></defs><g transform="matrix(1.00, 0.00, -0.00, -1.00, 0.0, 1017.0)"><g><clipPath id="clip-1005"><path d="M 495.4 726.4 L 496.9 726.4 C 497.7 726.4 498.4 727.0 498.4 727.9 L 498.4 799.9 C 498.4 800.7 497.7 801.4 496.9 801.4 L 495.4 801.4 L 495.4 941.4 C 495.4 982.8 461.8 1016.4 420.4 1016.4 L 79.4 1016.4 C 38.0 1016.4 4.4 982.8 4.4 941.4 L 4.4 888.4 L 2.9 888.4 C 2.0 888.4 1.4 887.7 1.4 886.9 L 1.4 848.9 C 1.4 848.0 2.0 847.4 2.9 847.4 L 4.4 847.4 L 4.4 801.4 L 2.9 801.4 C 2.0 801.4 1.4 800.7 1.4 799.9 L 1.4 727.9 C 1.4 727.0 2.0 726.4 2.9 726.4 L 4.4 726.4 L 4.4 709.4 L 2.9 709.4 C 2.0 709.4 1.4 708.7 1.4 707.9 L 1.4 635.9 C 1.4 635.0 2.0 634.4 2.9 634.4 L 4.4 634.4 L 4.4 77.4 C 4.4 35.9 37.9 2.4 79.4 2.4 L 420.4 2.4 C 461.8 2.4 495.4 35.9 495.4 77.4 L 495.4 726.4 L 495.4 726.4 L 495.4 726.4 Z M 34.4 893.4 L 34.4 127.4 L 465.4 127.4 L 465.4 893.4 L 34.4 893.4 L 34.4 893.4 Z M 249.4 33.4 C 270.4 33.4 287.4 50.4 287.4 71.4 C 287.4 92.4 270.4 109.4 249.4 109.4 C 228.4 109.4 211.4 92.4 211.4 71.4 C 211.4 50.4 228.4 33.4 249.4 33.4 L 249.4 33.4 Z M 249.4 37.4 C 268.1 37.4 283.4 52.6 283.4 71.4 C 283.4 90.1 268.1 105.4 249.4 105.4 C 230.6 105.4 215.4 90.1 215.4 71.4 C 215.4 52.6 230.6 37.4 249.4 37.4 L 249.4 37.4 Z M 171.4 944.4 C 175.8 944.4 179.4 948.0 179.4 952.4 C 179.4 956.8 175.8 960.4 171.4 960.4 C 167.0 960.4 163.4 956.8 163.4 952.4 C 163.4 948.0 167.0 944.4 171.4 944.4 L 171.4 944.4 Z M 250.4 979.4 C 253.1 979.4 255.4 981.6 255.4 984.4 C 255.4 987.1 253.1 989.4 250.4 989.4 C 247.6 989.4 245.4 987.1 245.4 984.4 C 245.4 981.6 247.6 979.4 250.4 979.4 L 250.4 979.4 Z M 214.4 956.4 C 212.2 956.4 210.4 954.6 210.4 952.4 C 210.4 950.2 212.2 948.4 214.4 948.4 L 286.4 948.4 C 288.6 948.4 290.4 950.2 290.4 952.4 C 290.4 954.6 288.6 956.4 286.4 956.4 L 214.4 956.4 L 214.4 956.4 Z M 214.4 956.4 "></path></clipPath><g clip-path="url(#clip-1005)"><g><clipPath id="clip-1006"><path d="M 1.4 2.4 L 498.4 2.4 L 498.4 1016.4 L 1.4 1016.4 Z M 1.4 2.4 "></path></clipPath><g clip-path="url(#clip-1006)"><path d="M -3.6 1021.4 L 503.4 1021.4 L 503.4 -2.6 L -3.6 -2.6 Z M -3.6 1021.4 " fill="#000000"></path></g></g></g></g></g></svg>