<?xml version="1.0" encoding="UTF-8" standalone="no"?><svg xmlns="http://www.w3.org/2000/svg" xmlns:xlink="http://www.w3.org/1999/xlink" clip-rule="evenodd" stroke-miterlimit="4.00" viewBox="0 0 210 236"><desc>SVG generated by Keynote</desc><defs></defs><g transform="matrix(1.00, 0.00, -0.00, -1.00, 0.0, 236.0)"><g><clipPath id="clip-1727"><path d="M 2.0 235.0 L 207.0 235.0 L 207.0 35.0 L 2.0 35.0 Z M 2.3 234.6 "></path></clipPath><g clip-path="url(#clip-1727)"><g><clipPath id="clip-1728"><path d="M 1.3 33.6 L 208.3 33.6 L 208.3 235.6 L 1.3 235.6 Z M 1.3 33.6 "></path></clipPath><g clip-path="url(#clip-1728)"><image xlink:href="../../245D97ED-3C91-4DC0-AC61-D3895807731E/assets/98EA419B894E714D840D0A0D96E015FD.jpeg" width="540.00" height="372.00" transform="matrix(0.55, 0.00, -0.00, -0.54, -44.0, 235.0)"></image></g></g></g></g><g><clipPath id="clip-1729"><path d="M 1.3 33.6 L 208.3 33.6 L 208.3 235.6 L 1.3 235.6 Z M 1.3 33.6 "></path></clipPath><g clip-path="url(#clip-1729)"><path d="M 0.0 0.0 L 0.0 200.0 L 205.0 200.0 L 205.0 0.0 L 0.0 0.0 Z M 0.0 0.0 " fill="none" stroke="#FEFFFF" stroke-width="2.00" transform="matrix(1.00, 0.00, 0.00, -1.00, 2.3, 234.6)"></path></g></g><g><clipPath id="clip-1730"><path d="M 0.7 0.8 L 209.7 0.8 L 209.7 36.8 L 0.7 36.8 Z M 0.7 0.8 "></path></clipPath><g clip-path="url(#clip-1730)"><path d="M 2.7 34.8 L 207.7 34.8 L 207.7 2.8 L 2.7 2.8 Z M 2.7 34.8 " fill="#797979" fill-opacity="0.50"></path><path d="M 0.0 0.0 L 205.0 0.0 L 205.0 32.0 L 0.0 32.0 Z M 0.0 0.0 " fill="none" stroke="#FEFFFF" stroke-width="2.00" transform="matrix(1.00, 0.00, 0.00, -1.00, 2.7, 34.8)"></path></g></g><g><clipPath id="clip-1731"><path d="M 2.3 2.4 L 208.1 2.4 L 208.1 35.2 L 2.3 35.2 Z M 2.3 2.4 "></path></clipPath><g clip-path="url(#clip-1731)"><text xml:space="preserve" font-family="Akrobat-SemiBold" font-weight="bold" font-size="18.0" fill="#FEFFFF" transform="matrix(1.00, 0.00, -0.00, -1.00, 38.0, 11.0)">H</text><text xml:space="preserve" font-family="Akrobat-SemiBold" font-weight="bold" font-size="18.0" fill="#FEFFFF" transform="matrix(1.00, 0.00, -0.00, -1.00, 49.4, 11.0)">I</text><text xml:space="preserve" font-family="Akrobat-SemiBold" font-weight="bold" font-size="18.0" fill="#FEFFFF" transform="matrix(1.00, 0.00, -0.00, -1.00, 55.3, 11.0)">P</text><text xml:space="preserve" font-family="Akrobat-SemiBold" font-weight="bold" font-size="18.0" fill="#FEFFFF" transform="matrix(1.00, 0.00, -0.00, -1.00, 66.0, 11.0)">S</text><text xml:space="preserve" font-family="Akrobat-SemiBold" font-weight="bold" font-size="18.0" fill="#FEFFFF" transform="matrix(1.00, 0.00, -0.00, -1.00, 76.0, 11.0)">T</text><text xml:space="preserve" font-family="Akrobat-SemiBold" font-weight="bold" font-size="18.0" fill="#FEFFFF" transform="matrix(1.00, 0.00, -0.00, -1.00, 85.3, 11.0)">E</text><text xml:space="preserve" font-family="Akrobat-SemiBold" font-weight="bold" font-size="18.0" fill="#FEFFFF" transform="matrix(1.00, 0.00, -0.00, -1.00, 95.3, 11.0)">R</text><text xml:space="preserve" font-family="Akrobat-SemiBold" font-weight="bold" font-size="18.0" fill="#FEFFFF" transform="matrix(1.00, 0.00, -0.00, -1.00, 106.0, 11.0)"> </text><text xml:space="preserve" font-family="Akrobat-SemiBold" font-weight="bold" font-size="18.0" fill="#FEFFFF" transform="matrix(1.00, 0.00, -0.00, -1.00, 111.8, 11.0)">H</text><text xml:space="preserve" font-family="Akrobat-SemiBold" font-weight="bold" font-size="18.0" fill="#FEFFFF" transform="matrix(1.00, 0.00, -0.00, -1.00, 123.2, 11.0)">E</text><text xml:space="preserve" font-family="Akrobat-SemiBold" font-weight="bold" font-size="18.0" fill="#FEFFFF" transform="matrix(1.00, 0.00, -0.00, -1.00, 133.3, 11.0)">A</text><text xml:space="preserve" font-family="Akrobat-SemiBold" font-weight="bold" font-size="18.0" fill="#FEFFFF" transform="matrix(1.00, 0.00, -0.00, -1.00, 143.0, 11.0)">V</text><text xml:space="preserve" font-family="Akrobat-SemiBold" font-weight="bold" font-size="18.0" fill="#FEFFFF" transform="matrix(1.00, 0.00, -0.00, -1.00, 153.1, 11.0)">E</text><text xml:space="preserve" font-family="Akrobat-SemiBold" font-weight="bold" font-size="18.0" fill="#FEFFFF" transform="matrix(1.00, 0.00, -0.00, -1.00, 163.1, 11.0)">N</text></g></g></g></svg>