<?xml version="1.0" encoding="UTF-8" standalone="no"?><svg xmlns="http://www.w3.org/2000/svg" xmlns:xlink="http://www.w3.org/1999/xlink" clip-rule="evenodd" stroke-miterlimit="4.00" viewBox="0 0 424 48"><desc>SVG generated by Keynote</desc><defs></defs><g transform="matrix(1.00, 0.00, -0.00, -1.00, 0.0, 48.0)"><path d="M 2.0 46.5 L 422.0 46.5 L 422.0 1.5 L 2.0 1.5 Z M 2.0 46.5 " fill="#FEFFFF" fill-opacity="0.50"></path><path d="M 0.0 0.0 L 420.0 0.0 L 420.0 45.0 L 0.0 45.0 Z M 0.0 0.0 " fill="none" stroke="#52575F" stroke-width="1.00" transform="matrix(1.00, 0.00, 0.00, -1.00, 2.0, 46.5)"></path><g><clipPath id="clip-1720"><path d="M -2.5 -3.0 L 426.5 -3.0 L 426.5 51.0 L -2.5 51.0 Z M -2.5 -3.0 "></path></clipPath><g clip-path="url(#clip-1720)"><text xml:space="preserve" font-family="Akrobat-Light" font-size="30.0" fill="#FEFFFF" transform="matrix(1.00, 0.00, -0.00, -1.00, 134.0, 12.0)">P</text><text xml:space="preserve" font-family="Akrobat-Light" font-size="30.0" fill="#FEFFFF" transform="matrix(1.00, 0.00, -0.00, -1.00, 150.7, 12.0)">R</text><text xml:space="preserve" font-family="Akrobat-Light" font-size="30.0" fill="#FEFFFF" transform="matrix(1.00, 0.00, -0.00, -1.00, 167.8, 12.0)">O</text><text xml:space="preserve" font-family="Akrobat-Light" font-size="30.0" fill="#FEFFFF" transform="matrix(1.00, 0.00, -0.00, -1.00, 186.2, 12.0)">P</text><text xml:space="preserve" font-family="Akrobat-Light" font-size="30.0" fill="#FEFFFF" transform="matrix(1.00, 0.00, -0.00, -1.00, 202.8, 12.0)">E</text><text xml:space="preserve" font-family="Akrobat-Light" font-size="30.0" fill="#FEFFFF" transform="matrix(1.00, 0.00, -0.00, -1.00, 219.2, 12.0)">R</text><text xml:space="preserve" font-family="Akrobat-Light" font-size="30.0" fill="#FEFFFF" transform="matrix(1.00, 0.00, -0.00, -1.00, 236.4, 12.0)">T</text><text xml:space="preserve" font-family="Akrobat-Light" font-size="30.0" fill="#FEFFFF" transform="matrix(1.00, 0.00, -0.00, -1.00, 251.4, 12.0)">I</text><text xml:space="preserve" font-family="Akrobat-Light" font-size="30.0" fill="#FEFFFF" transform="matrix(1.00, 0.00, -0.00, -1.00, 260.6, 12.0)">E</text><text xml:space="preserve" font-family="Akrobat-Light" font-size="30.0" fill="#FEFFFF" transform="matrix(1.00, 0.00, -0.00, -1.00, 277.0, 12.0)">S</text></g></g></g></svg>