<?xml version="1.0" encoding="UTF-8" standalone="no"?><svg xmlns="http://www.w3.org/2000/svg" xmlns:xlink="http://www.w3.org/1999/xlink" clip-rule="evenodd" stroke-miterlimit="4.00" viewBox="0 0 210 236"><desc>SVG generated by Keynote</desc><defs></defs><g transform="matrix(1.00, 0.00, -0.00, -1.00, 0.0, 236.0)"><g><clipPath id="clip-1722"><path d="M 3.0 234.0 L 208.0 234.0 L 208.0 34.0 L 3.0 34.0 Z M 2.8 234.2 "></path></clipPath><g clip-path="url(#clip-1722)"><g><clipPath id="clip-1723"><path d="M 1.8 33.2 L 208.8 33.2 L 208.8 235.2 L 1.8 235.2 Z M 1.8 33.2 "></path></clipPath><g clip-path="url(#clip-1723)"><image xlink:href="../../7D845C88-9D36-4D54-84B6-6D208BC815DA/assets/265EAB72B09A19BD068ED02E419A7BFE.png" width="498.00" height="332.00" transform="matrix(1.00, 0.00, -0.00, -0.65, -245.0, 242.0)"></image></g></g></g></g><g><clipPath id="clip-1724"><path d="M 1.8 33.2 L 208.8 33.2 L 208.8 235.2 L 1.8 235.2 Z M 1.8 33.2 "></path></clipPath><g clip-path="url(#clip-1724)"><path d="M 0.0 0.0 L 0.0 200.0 L 205.0 200.0 L 205.0 0.0 L 0.0 0.0 Z M 0.0 0.0 " fill="none" stroke="#FEFFFF" stroke-width="2.00" transform="matrix(1.00, 0.00, 0.00, -1.00, 2.8, 234.2)"></path></g></g><g><clipPath id="clip-1725"><path d="M 0.2 0.4 L 209.2 0.4 L 209.2 36.4 L 0.2 36.4 Z M 0.2 0.4 "></path></clipPath><g clip-path="url(#clip-1725)"><path d="M 2.2 34.4 L 207.2 34.4 L 207.2 2.4 L 2.2 2.4 Z M 2.2 34.4 " fill="#797979" fill-opacity="0.50"></path><path d="M 0.0 0.0 L 205.0 0.0 L 205.0 32.0 L 0.0 32.0 Z M 0.0 0.0 " fill="none" stroke="#FEFFFF" stroke-width="2.00" transform="matrix(1.00, 0.00, 0.00, -1.00, 2.2, 34.4)"></path></g></g><g><clipPath id="clip-1726"><path d="M 1.8 2.0 L 207.6 2.0 L 207.6 34.8 L 1.8 34.8 Z M 1.8 2.0 "></path></clipPath><g clip-path="url(#clip-1726)"><text xml:space="preserve" font-family="Akrobat-SemiBold" font-weight="bold" font-size="18.0" fill="#FEFFFF" transform="matrix(1.00, 0.00, -0.00, -1.00, 32.0, 11.0)">D</text><text xml:space="preserve" font-family="Akrobat-SemiBold" font-weight="bold" font-size="18.0" fill="#FEFFFF" transform="matrix(1.00, 0.00, -0.00, -1.00, 42.9, 11.0)">C</text><text xml:space="preserve" font-family="Akrobat-SemiBold" font-weight="bold" font-size="18.0" fill="#FEFFFF" transform="matrix(1.00, 0.00, -0.00, -1.00, 53.4, 11.0)"> </text><text xml:space="preserve" font-family="Akrobat-SemiBold" font-weight="bold" font-size="18.0" fill="#FEFFFF" transform="matrix(1.00, 0.00, -0.00, -1.00, 59.2, 11.0)">U</text><text xml:space="preserve" font-family="Akrobat-SemiBold" font-weight="bold" font-size="18.0" fill="#FEFFFF" transform="matrix(1.00, 0.00, -0.00, -1.00, 70.4, 11.0)">N</text><text xml:space="preserve" font-family="Akrobat-SemiBold" font-weight="bold" font-size="18.0" fill="#FEFFFF" transform="matrix(1.00, 0.00, -0.00, -1.00, 82.1, 11.0)">D</text><text xml:space="preserve" font-family="Akrobat-SemiBold" font-weight="bold" font-size="18.0" fill="#FEFFFF" transform="matrix(1.00, 0.00, -0.00, -1.00, 93.0, 11.0)">E</text><text xml:space="preserve" font-family="Akrobat-SemiBold" font-weight="bold" font-size="18.0" fill="#FEFFFF" transform="matrix(1.00, 0.00, -0.00, -1.00, 103.0, 11.0)">R</text><text xml:space="preserve" font-family="Akrobat-SemiBold" font-weight="bold" font-size="18.0" fill="#FEFFFF" transform="matrix(1.00, 0.00, -0.00, -1.00, 113.7, 11.0)">G</text><text xml:space="preserve" font-family="Akrobat-SemiBold" font-weight="bold" font-size="18.0" fill="#FEFFFF" transform="matrix(1.00, 0.00, -0.00, -1.00, 124.4, 11.0)">R</text><text xml:space="preserve" font-family="Akrobat-SemiBold" font-weight="bold" font-size="18.0" fill="#FEFFFF" transform="matrix(1.00, 0.00, -0.00, -1.00, 135.1, 11.0)">O</text><text xml:space="preserve" font-family="Akrobat-SemiBold" font-weight="bold" font-size="18.0" fill="#FEFFFF" transform="matrix(1.00, 0.00, -0.00, -1.00, 146.3, 11.0)">U</text><text xml:space="preserve" font-family="Akrobat-SemiBold" font-weight="bold" font-size="18.0" fill="#FEFFFF" transform="matrix(1.00, 0.00, -0.00, -1.00, 157.5, 11.0)">N</text><text xml:space="preserve" font-family="Akrobat-SemiBold" font-weight="bold" font-size="18.0" fill="#FEFFFF" transform="matrix(1.00, 0.00, -0.00, -1.00, 169.1, 11.0)">D</text></g></g></g></svg>