<?xml version="1.0" encoding="UTF-8" standalone="no"?><svg xmlns="http://www.w3.org/2000/svg" xmlns:xlink="http://www.w3.org/1999/xlink" clip-rule="evenodd" stroke-miterlimit="4.00" viewBox="0 0 500 1016"><desc>SVG generated by Keynote</desc><defs></defs><g transform="matrix(1.00, 0.00, -0.00, -1.00, 0.0, 1016.0)"><g><clipPath id="clip-3414"><path d="M 496.0 725.0 L 497.5 725.0 C 498.3 725.0 499.0 725.7 499.0 726.5 L 499.0 798.5 C 499.0 799.3 498.3 800.0 497.5 800.0 L 496.0 800.0 L 496.0 940.0 C 496.0 981.4 462.4 1015.0 421.0 1015.0 L 80.0 1015.0 C 38.6 1015.0 5.0 981.4 5.0 940.0 L 5.0 887.0 L 3.5 887.0 C 2.7 887.0 2.0 886.3 2.0 885.5 L 2.0 847.5 C 2.0 846.7 2.7 846.0 3.5 846.0 L 5.0 846.0 L 5.0 800.0 L 3.5 800.0 C 2.7 800.0 2.0 799.3 2.0 798.5 L 2.0 726.5 C 2.0 725.7 2.7 725.0 3.5 725.0 L 5.0 725.0 L 5.0 708.0 L 3.5 708.0 C 2.7 708.0 2.0 707.3 2.0 706.5 L 2.0 634.5 C 2.0 633.7 2.7 633.0 3.5 633.0 L 5.0 633.0 L 5.0 76.0 C 5.0 34.6 38.6 1.0 80.0 1.0 L 421.0 1.0 C 462.4 1.0 496.0 34.6 496.0 76.0 L 496.0 725.0 L 496.0 725.0 L 496.0 725.0 Z M 35.0 892.0 L 35.0 126.0 L 466.0 126.0 L 466.0 892.0 L 35.0 892.0 L 35.0 892.0 Z M 250.0 32.0 C 271.0 32.0 288.0 49.0 288.0 70.0 C 288.0 91.0 271.0 108.0 250.0 108.0 C 229.0 108.0 212.0 91.0 212.0 70.0 C 212.0 49.0 229.0 32.0 250.0 32.0 L 250.0 32.0 Z M 250.0 36.0 C 268.8 36.0 284.0 51.2 284.0 70.0 C 284.0 88.8 268.8 104.0 250.0 104.0 C 231.2 104.0 216.0 88.8 216.0 70.0 C 216.0 51.2 231.2 36.0 250.0 36.0 L 250.0 36.0 Z M 172.0 943.0 C 176.4 943.0 180.0 946.6 180.0 951.0 C 180.0 955.4 176.4 959.0 172.0 959.0 C 167.6 959.0 164.0 955.4 164.0 951.0 C 164.0 946.6 167.6 943.0 172.0 943.0 L 172.0 943.0 Z M 251.0 978.0 C 253.8 978.0 256.0 980.2 256.0 983.0 C 256.0 985.8 253.8 988.0 251.0 988.0 C 248.2 988.0 246.0 985.8 246.0 983.0 C 246.0 980.2 248.2 978.0 251.0 978.0 L 251.0 978.0 Z M 215.0 955.0 C 212.8 955.0 211.0 953.2 211.0 951.0 C 211.0 948.8 212.8 947.0 215.0 947.0 L 287.0 947.0 C 289.2 947.0 291.0 948.8 291.0 951.0 C 291.0 953.2 289.2 955.0 287.0 955.0 L 215.0 955.0 L 215.0 955.0 Z M 215.0 955.0 "></path></clipPath><g clip-path="url(#clip-3414)"><g><clipPath id="clip-3415"><path d="M 2.0 1.0 L 499.0 1.0 L 499.0 1015.0 L 2.0 1015.0 Z M 2.0 1.0 "></path></clipPath><g clip-path="url(#clip-3415)"><path d="M -3.0 1020.0 L 504.0 1020.0 L 504.0 -4.0 L -3.0 -4.0 Z M -3.0 1020.0 " fill="#000000"></path></g></g></g></g></g></svg>