<?xml version="1.0" encoding="UTF-8" standalone="no"?><svg xmlns="http://www.w3.org/2000/svg" xmlns:xlink="http://www.w3.org/1999/xlink" clip-rule="evenodd" stroke-miterlimit="4.00" viewBox="0 0 1920 1080"><desc>SVG generated by Keynote</desc><defs></defs><g transform="matrix(1.00, 0.00, -0.00, -1.00, 0.0, 1080.0)"><path d="M 0.0 1080.0 L 1920.0 1080.0 L 1920.0 0.0 L 0.0 0.0 Z M 0.0 1080.0 " fill="#FEFFFF"></path><g opacity="0.25"><g><clipPath id="clip-26"><path d="M 1387.0 40.0 L 1884.0 40.0 L 1884.0 140.0 L 1387.0 140.0 Z M 1387.0 40.0 "></path></clipPath><g clip-path="url(#clip-26)"><g><g><clipPath id="clip-27"><path d="M 1387.0 347.8 L 1884.0 347.8 L 1884.0 -149.5 L 1387.0 -149.5 Z M 1387.0 347.8 "></path></clipPath><g clip-path="url(#clip-27)"><g><clipPath id="clip-28"><path d="M 1387.0 40.0 L 1884.0 40.0 L 1884.0 140.0 L 1387.0 140.0 Z M 1387.0 40.0 "></path></clipPath><g clip-path="url(#clip-28)"><g opacity="0.25"><g><clipPath id="clip-29"><path d="M 1788.3 44.2 L 1884.0 44.2 L 1884.0 133.4 L 1788.3 133.4 Z M 1788.3 44.2 "></path></clipPath><g clip-path="url(#clip-29)"><path d="M 1835.9 55.7 C 1835.9 55.7 1841.7 68.7 1842.0 76.7 C 1821.8 76.7 1805.4 87.2 1805.4 100.2 C 1805.4 113.2 1821.8 123.8 1841.9 123.8 C 1862.1 123.8 1878.5 113.2 1878.5 100.2 C 1878.5 78.5 1835.9 55.7 1835.9 55.7 M 1836.1 133.4 C 1809.7 133.4 1788.3 119.5 1788.3 102.5 C 1788.3 85.4 1809.7 71.7 1836.1 71.7 C 1835.8 61.3 1828.1 44.2 1828.1 44.2 C 1828.1 44.2 1884.0 74.0 1884.0 102.5 C 1884.0 119.5 1862.6 133.4 1836.1 133.4 " fill="#020302"></path></g></g></g></g></g></g></g><g><clipPath id="clip-30"><path d="M 1387.0 40.0 L 1884.0 40.0 L 1884.0 140.0 L 1387.0 140.0 Z M 1387.0 40.0 "></path></clipPath><g clip-path="url(#clip-30)"><text xml:space="preserve" font-family="JosefinSlab" font-size="12.8" fill="#221F1F" transform="matrix(2.48, 0.00, -0.00, -2.49, 1730.8, 48.0)">G</text><text xml:space="preserve" font-family="JosefinSlab" font-size="12.8" fill="#221F1F" transform="matrix(2.48, 0.00, -0.00, -2.49, 1750.2, 48.0)">R</text><text xml:space="preserve" font-family="JosefinSlab" font-size="12.8" fill="#221F1F" transform="matrix(2.48, 0.00, -0.00, -2.49, 1768.4, 48.0)">O</text><text xml:space="preserve" font-family="JosefinSlab" font-size="12.8" fill="#221F1F" transform="matrix(2.48, 0.00, -0.00, -2.49, 1793.5, 48.0)">U</text><text xml:space="preserve" font-family="JosefinSlab" font-size="12.8" fill="#221F1F" transform="matrix(2.48, 0.00, -0.00, -2.49, 1815.7, 48.0)">P</text><text xml:space="preserve" font-family="JosefinSlab" font-size="12.8" fill="#221F1F" transform="matrix(2.48, 0.00, -0.00, -2.49, 1390.0, 112.9)">T</text><text xml:space="preserve" font-family="JosefinSlab" font-size="12.8" fill="#221F1F" transform="matrix(2.48, 0.00, -0.00, -2.49, 1409.8, 112.9)">H</text><text xml:space="preserve" font-family="JosefinSlab" font-size="12.8" fill="#221F1F" transform="matrix(2.48, 0.00, -0.00, -2.49, 1433.4, 112.9)">E</text></g></g><g><clipPath id="clip-31"><path d="M 1387.0 347.8 L 1884.0 347.8 L 1884.0 -149.5 L 1387.0 -149.5 Z M 1387.0 347.8 "></path></clipPath><g clip-path="url(#clip-31)"><g><clipPath id="clip-32"><path d="M 1387.0 40.0 L 1884.0 40.0 L 1884.0 140.0 L 1387.0 140.0 Z M 1387.0 40.0 "></path></clipPath><g clip-path="url(#clip-32)"><text xml:space="preserve" font-family="JosefinSlab-Bold" font-weight="bold" font-size="19.3" fill="#221F1F" transform="matrix(2.48, 0.00, -0.00, -2.49, 1387.0, 74.6)">C</text><text xml:space="preserve" font-family="JosefinSlab-Bold" font-weight="bold" font-size="19.3" fill="#221F1F" transform="matrix(2.48, 0.00, -0.00, -2.49, 1416.2, 74.6)">R</text><text xml:space="preserve" font-family="JosefinSlab-Bold" font-weight="bold" font-size="19.3" fill="#221F1F" transform="matrix(2.48, 0.00, -0.00, -2.49, 1443.8, 74.6)">A</text><text xml:space="preserve" font-family="JosefinSlab-Bold" font-weight="bold" font-size="19.3" fill="#221F1F" transform="matrix(2.48, 0.00, -0.00, -2.49, 1481.5, 74.6)">N</text><text xml:space="preserve" font-family="JosefinSlab-Bold" font-weight="bold" font-size="19.3" fill="#221F1F" transform="matrix(2.48, 0.00, -0.00, -2.49, 1522.4, 74.6)">F</text><text xml:space="preserve" font-family="JosefinSlab-Bold" font-weight="bold" font-size="19.3" fill="#221F1F" transform="matrix(2.48, 0.00, -0.00, -2.49, 1549.0, 74.6)">O</text><text xml:space="preserve" font-family="JosefinSlab-Bold" font-weight="bold" font-size="19.3" fill="#221F1F" transform="matrix(2.48, 0.00, -0.00, -2.49, 1586.6, 74.6)">R</text><text xml:space="preserve" font-family="JosefinSlab-Bold" font-weight="bold" font-size="19.3" fill="#221F1F" transform="matrix(2.48, 0.00, -0.00, -2.49, 1614.2, 74.6)">D</text><text xml:space="preserve" font-family="JosefinSlab-Bold" font-weight="bold" font-size="19.3" fill="#221F1F" transform="matrix(2.48, 0.00, -0.00, -2.49, 1644.4, 74.6)">T</text><text xml:space="preserve" font-family="JosefinSlab-Bold" font-weight="bold" font-size="19.3" fill="#221F1F" transform="matrix(2.48, 0.00, -0.00, -2.49, 1674.3, 74.6)">E</text><text xml:space="preserve" font-family="JosefinSlab-Bold" font-weight="bold" font-size="19.3" fill="#221F1F" transform="matrix(2.48, 0.00, -0.00, -2.49, 1701.6, 74.6)">A</text><text xml:space="preserve" font-family="JosefinSlab-Bold" font-weight="bold" font-size="19.3" fill="#221F1F" transform="matrix(2.48, 0.00, -0.00, -2.49, 1739.3, 74.6)">G</text><text xml:space="preserve" font-family="JosefinSlab-Bold" font-weight="bold" font-size="19.3" fill="#221F1F" transform="matrix(2.48, 0.00, -0.00, -2.49, 1768.4, 74.6)">U</text><text xml:space="preserve" font-family="JosefinSlab-Bold" font-weight="bold" font-size="19.3" fill="#221F1F" transform="matrix(2.48, 0.00, -0.00, -2.49, 1803.3, 74.6)">E</text></g></g></g></g></g></g></g></g><g opacity="0.50"><g><clipPath id="clip-33"><path d="M 1206.0 757.0 L 1207.5 757.0 C 1208.3 757.0 1209.0 757.7 1209.0 758.5 L 1209.0 830.5 C 1209.0 831.3 1208.3 832.0 1207.5 832.0 L 1206.0 832.0 L 1206.0 972.0 C 1206.0 1013.4 1172.4 1047.0 1131.0 1047.0 L 790.0 1047.0 C 748.6 1047.0 715.0 1013.4 715.0 972.0 L 715.0 919.0 L 713.5 919.0 C 712.7 919.0 712.0 918.3 712.0 917.5 L 712.0 879.5 C 712.0 878.7 712.7 878.0 713.5 878.0 L 715.0 878.0 L 715.0 832.0 L 713.5 832.0 C 712.7 832.0 712.0 831.3 712.0 830.5 L 712.0 758.5 C 712.0 757.7 712.7 757.0 713.5 757.0 L 715.0 757.0 L 715.0 740.0 L 713.5 740.0 C 712.7 740.0 712.0 739.3 712.0 738.5 L 712.0 666.5 C 712.0 665.7 712.7 665.0 713.5 665.0 L 715.0 665.0 L 715.0 108.0 C 715.0 66.6 748.6 33.0 790.0 33.0 L 1131.0 33.0 C 1172.4 33.0 1206.0 66.6 1206.0 108.0 L 1206.0 757.0 L 1206.0 757.0 L 1206.0 757.0 Z M 745.0 924.0 L 745.0 158.0 L 1176.0 158.0 L 1176.0 924.0 L 745.0 924.0 L 745.0 924.0 Z M 960.0 64.0 C 981.0 64.0 998.0 81.0 998.0 102.0 C 998.0 123.0 981.0 140.0 960.0 140.0 C 939.0 140.0 922.0 123.0 922.0 102.0 C 922.0 81.0 939.0 64.0 960.0 64.0 L 960.0 64.0 Z M 960.0 68.0 C 978.8 68.0 994.0 83.2 994.0 102.0 C 994.0 120.8 978.8 136.0 960.0 136.0 C 941.2 136.0 926.0 120.8 926.0 102.0 C 926.0 83.2 941.2 68.0 960.0 68.0 L 960.0 68.0 Z M 882.0 975.0 C 886.4 975.0 890.0 978.6 890.0 983.0 C 890.0 987.4 886.4 991.0 882.0 991.0 C 877.6 991.0 874.0 987.4 874.0 983.0 C 874.0 978.6 877.6 975.0 882.0 975.0 L 882.0 975.0 Z M 961.0 1010.0 C 963.8 1010.0 966.0 1012.2 966.0 1015.0 C 966.0 1017.8 963.8 1020.0 961.0 1020.0 C 958.2 1020.0 956.0 1017.8 956.0 1015.0 C 956.0 1012.2 958.2 1010.0 961.0 1010.0 L 961.0 1010.0 Z M 925.0 987.0 C 922.8 987.0 921.0 985.2 921.0 983.0 C 921.0 980.8 922.8 979.0 925.0 979.0 L 997.0 979.0 C 999.2 979.0 1001.0 980.8 1001.0 983.0 C 1001.0 985.2 999.2 987.0 997.0 987.0 L 925.0 987.0 L 925.0 987.0 Z M 925.0 987.0 "></path></clipPath><g clip-path="url(#clip-33)"><g><clipPath id="clip-34"><path d="M 712.0 33.0 L 1209.0 33.0 L 1209.0 1047.0 L 712.0 1047.0 Z M 712.0 33.0 "></path></clipPath><g clip-path="url(#clip-34)"><path d="M 707.0 1052.0 L 1214.0 1052.0 L 1214.0 28.0 L 707.0 28.0 Z M 707.0 1052.0 " fill="#000000"></path></g></g></g></g></g><path d="M 743.8 924.7 L 1176.2 924.7 L 1176.2 157.3 L 743.8 157.3 Z M 743.8 924.7 " fill="#000000"></path><image xlink:href="../../F28C9CA0-A05A-4A2C-90F7-8BC49B335395/assets/20064BB011BBDF5DF94BD6FDEAB4DB4C.png" width="106.00" height="101.00" transform="matrix(0.49, 0.00, -0.00, -0.50, 937.0, 916.0)"></image><text xml:space="preserve" font-family="Akrobat-SemiBold" font-weight="bold" font-size="48.0" fill="#A9A9A9" transform="matrix(1.00, 0.00, -0.00, -1.00, 449.5, 779.0)">R</text><text xml:space="preserve" font-family="Akrobat-SemiBold" font-weight="bold" font-size="38.4" fill="#A9A9A9" transform="matrix(1.00, 0.00, -0.00, -1.00, 478.0, 779.0)">O</text><text xml:space="preserve" font-family="Akrobat-SemiBold" font-weight="bold" font-size="38.4" fill="#A9A9A9" transform="matrix(1.00, 0.00, -0.00, -1.00, 502.9, 779.0)">O</text><text xml:space="preserve" font-family="Akrobat-SemiBold" font-weight="bold" font-size="38.4" fill="#A9A9A9" transform="matrix(1.00, 0.00, -0.00, -1.00, 527.7, 779.0)">M</text><text xml:space="preserve" font-family="Akrobat-SemiBold" font-weight="bold" font-size="48.0" fill="#A9A9A9" transform="matrix(1.00, 0.00, -0.00, -1.00, 558.3, 779.0)">R</text><text xml:space="preserve" font-family="Akrobat-SemiBold" font-weight="bold" font-size="38.4" fill="#A9A9A9" transform="matrix(1.00, 0.00, -0.00, -1.00, 586.8, 779.0)">E</text><text xml:space="preserve" font-family="Akrobat-SemiBold" font-weight="bold" font-size="38.4" fill="#A9A9A9" transform="matrix(1.00, 0.00, -0.00, -1.00, 609.2, 779.0)">F</text><text xml:space="preserve" font-family="Akrobat-SemiBold" font-weight="bold" font-size="38.4" fill="#A9A9A9" transform="matrix(1.00, 0.00, -0.00, -1.00, 630.3, 779.0)">S</text><text xml:space="preserve" font-family="Akrobat-SemiBold" font-weight="bold" font-size="48.0" fill="#A9A9A9" transform="matrix(1.00, 0.00, -0.00, -1.00, 652.6, 779.0)"> </text><text xml:space="preserve" font-family="Akrobat-SemiBold" font-weight="bold" font-size="38.4" fill="#A9A9A9" transform="matrix(1.00, 0.00, -0.00, -1.00, 302.4, 721.0)">I</text><text xml:space="preserve" font-family="Akrobat-SemiBold" font-weight="bold" font-size="38.4" fill="#A9A9A9" transform="matrix(1.00, 0.00, -0.00, -1.00, 316.0, 721.0)">S</text><text xml:space="preserve" font-family="Akrobat-SemiBold" font-weight="bold" font-size="48.0" fill="#A9A9A9" transform="matrix(1.00, 0.00, -0.00, -1.00, 338.4, 721.0)"> </text><text xml:space="preserve" font-family="Akrobat-SemiBold" font-weight="bold" font-size="38.4" fill="#A9A9A9" transform="matrix(1.00, 0.00, -0.00, -1.00, 353.8, 721.0)">A</text><text xml:space="preserve" font-family="Akrobat-SemiBold" font-weight="bold" font-size="48.0" fill="#A9A9A9" transform="matrix(1.00, 0.00, -0.00, -1.00, 376.5, 721.0)"> </text><text xml:space="preserve" font-family="Akrobat-SemiBold" font-weight="bold" font-size="38.4" fill="#A9A9A9" transform="matrix(1.00, 0.00, -0.00, -1.00, 392.0, 721.0)">N</text><text xml:space="preserve" font-family="Akrobat-SemiBold" font-weight="bold" font-size="38.4" fill="#A9A9A9" transform="matrix(1.00, 0.00, -0.00, -1.00, 417.8, 721.0)">E</text><text xml:space="preserve" font-family="Akrobat-SemiBold" font-weight="bold" font-size="38.4" fill="#A9A9A9" transform="matrix(1.00, 0.00, -0.00, -1.00, 440.2, 721.0)">W</text><text xml:space="preserve" font-family="Akrobat-SemiBold" font-weight="bold" font-size="48.0" fill="#A9A9A9" transform="matrix(1.00, 0.00, -0.00, -1.00, 473.1, 721.0)"> </text><text xml:space="preserve" font-family="Akrobat-SemiBold" font-weight="bold" font-size="38.4" fill="#A9A9A9" transform="matrix(1.00, 0.00, -0.00, -1.00, 488.6, 721.0)">C</text><text xml:space="preserve" font-family="Akrobat-SemiBold" font-weight="bold" font-size="38.4" fill="#A9A9A9" transform="matrix(1.00, 0.00, -0.00, -1.00, 512.1, 721.0)">O</text><text xml:space="preserve" font-family="Akrobat-SemiBold" font-weight="bold" font-size="38.4" fill="#A9A9A9" transform="matrix(1.00, 0.00, -0.00, -1.00, 536.9, 721.0)">N</text><text xml:space="preserve" font-family="Akrobat-SemiBold" font-weight="bold" font-size="38.4" fill="#A9A9A9" transform="matrix(1.00, 0.00, -0.00, -1.00, 562.8, 721.0)">C</text><text xml:space="preserve" font-family="Akrobat-SemiBold" font-weight="bold" font-size="38.4" fill="#A9A9A9" transform="matrix(1.00, 0.00, -0.00, -1.00, 586.2, 721.0)">E</text><text xml:space="preserve" font-family="Akrobat-SemiBold" font-weight="bold" font-size="38.4" fill="#A9A9A9" transform="matrix(1.00, 0.00, -0.00, -1.00, 608.6, 721.0)">P</text><text xml:space="preserve" font-family="Akrobat-SemiBold" font-weight="bold" font-size="38.4" fill="#A9A9A9" transform="matrix(1.00, 0.00, -0.00, -1.00, 631.8, 721.0)">T</text><text xml:space="preserve" font-family="Akrobat-SemiBold" font-weight="bold" font-size="48.0" fill="#A9A9A9" transform="matrix(1.00, 0.00, -0.00, -1.00, 652.6, 721.0)"> </text><text xml:space="preserve" font-family="Akrobat-SemiBold" font-weight="bold" font-size="38.4" fill="#A9A9A9" transform="matrix(1.00, 0.00, -0.00, -1.00, 199.5, 663.0)">I</text><text xml:space="preserve" font-family="Akrobat-SemiBold" font-weight="bold" font-size="38.4" fill="#A9A9A9" transform="matrix(1.00, 0.00, -0.00, -1.00, 213.0, 663.0)">N</text><text xml:space="preserve" font-family="Akrobat-SemiBold" font-weight="bold" font-size="48.0" fill="#A9A9A9" transform="matrix(1.00, 0.00, -0.00, -1.00, 238.9, 663.0)"> </text><text xml:space="preserve" font-family="Akrobat-SemiBold" font-weight="bold" font-size="38.4" fill="#A9A9A9" transform="matrix(1.00, 0.00, -0.00, -1.00, 254.3, 663.0)">F</text><text xml:space="preserve" font-family="Akrobat-SemiBold" font-weight="bold" font-size="38.4" fill="#A9A9A9" transform="matrix(1.00, 0.00, -0.00, -1.00, 275.4, 663.0)">I</text><text xml:space="preserve" font-family="Akrobat-SemiBold" font-weight="bold" font-size="38.4" fill="#A9A9A9" transform="matrix(1.00, 0.00, -0.00, -1.00, 289.0, 663.0)">N</text><text xml:space="preserve" font-family="Akrobat-SemiBold" font-weight="bold" font-size="38.4" fill="#A9A9A9" transform="matrix(1.00, 0.00, -0.00, -1.00, 314.8, 663.0)">D</text><text xml:space="preserve" font-family="Akrobat-SemiBold" font-weight="bold" font-size="38.4" fill="#A9A9A9" transform="matrix(1.00, 0.00, -0.00, -1.00, 339.0, 663.0)">I</text><text xml:space="preserve" font-family="Akrobat-SemiBold" font-weight="bold" font-size="38.4" fill="#A9A9A9" transform="matrix(1.00, 0.00, -0.00, -1.00, 352.6, 663.0)">N</text><text xml:space="preserve" font-family="Akrobat-SemiBold" font-weight="bold" font-size="38.4" fill="#A9A9A9" transform="matrix(1.00, 0.00, -0.00, -1.00, 378.5, 663.0)">G</text><text xml:space="preserve" font-family="Akrobat-SemiBold" font-weight="bold" font-size="48.0" fill="#A9A9A9" transform="matrix(1.00, 0.00, -0.00, -1.00, 402.5, 663.0)"> </text><text xml:space="preserve" font-family="Akrobat-SemiBold" font-weight="bold" font-size="38.4" fill="#A9A9A9" transform="matrix(1.00, 0.00, -0.00, -1.00, 417.9, 663.0)">S</text><text xml:space="preserve" font-family="Akrobat-SemiBold" font-weight="bold" font-size="38.4" fill="#A9A9A9" transform="matrix(1.00, 0.00, -0.00, -1.00, 440.0, 663.0)">H</text><text xml:space="preserve" font-family="Akrobat-SemiBold" font-weight="bold" font-size="38.4" fill="#A9A9A9" transform="matrix(1.00, 0.00, -0.00, -1.00, 465.3, 663.0)">O</text><text xml:space="preserve" font-family="Akrobat-SemiBold" font-weight="bold" font-size="38.4" fill="#A9A9A9" transform="matrix(1.00, 0.00, -0.00, -1.00, 490.1, 663.0)">R</text><text xml:space="preserve" font-family="Akrobat-SemiBold" font-weight="bold" font-size="38.4" fill="#A9A9A9" transform="matrix(1.00, 0.00, -0.00, -1.00, 513.9, 663.0)">T</text><text xml:space="preserve" font-family="Akrobat-SemiBold" font-weight="bold" font-size="48.0" fill="#A9A9A9" transform="matrix(1.00, 0.00, -0.00, -1.00, 534.7, 663.0)">-</text><text xml:space="preserve" font-family="Akrobat-SemiBold" font-weight="bold" font-size="38.4" fill="#A9A9A9" transform="matrix(1.00, 0.00, -0.00, -1.00, 555.2, 663.0)">T</text><text xml:space="preserve" font-family="Akrobat-SemiBold" font-weight="bold" font-size="38.4" fill="#A9A9A9" transform="matrix(1.00, 0.00, -0.00, -1.00, 575.9, 663.0)">E</text><text xml:space="preserve" font-family="Akrobat-SemiBold" font-weight="bold" font-size="38.4" fill="#A9A9A9" transform="matrix(1.00, 0.00, -0.00, -1.00, 598.3, 663.0)">R</text><text xml:space="preserve" font-family="Akrobat-SemiBold" font-weight="bold" font-size="38.4" fill="#A9A9A9" transform="matrix(1.00, 0.00, -0.00, -1.00, 622.1, 663.0)">M</text><text xml:space="preserve" font-family="Akrobat-SemiBold" font-weight="bold" font-size="48.0" fill="#A9A9A9" transform="matrix(1.00, 0.00, -0.00, -1.00, 652.6, 663.0)"> </text><text xml:space="preserve" font-family="Akrobat-SemiBold" font-weight="bold" font-size="38.4" fill="#A9A9A9" transform="matrix(1.00, 0.00, -0.00, -1.00, 282.7, 605.0)">R</text><text xml:space="preserve" font-family="Akrobat-SemiBold" font-weight="bold" font-size="38.4" fill="#A9A9A9" transform="matrix(1.00, 0.00, -0.00, -1.00, 306.5, 605.0)">E</text><text xml:space="preserve" font-family="Akrobat-SemiBold" font-weight="bold" font-size="38.4" fill="#A9A9A9" transform="matrix(1.00, 0.00, -0.00, -1.00, 328.9, 605.0)">N</text><text xml:space="preserve" font-family="Akrobat-SemiBold" font-weight="bold" font-size="38.4" fill="#A9A9A9" transform="matrix(1.00, 0.00, -0.00, -1.00, 354.7, 605.0)">T</text><text xml:space="preserve" font-family="Akrobat-SemiBold" font-weight="bold" font-size="38.4" fill="#A9A9A9" transform="matrix(1.00, 0.00, -0.00, -1.00, 374.1, 605.0)">A</text><text xml:space="preserve" font-family="Akrobat-SemiBold" font-weight="bold" font-size="38.4" fill="#A9A9A9" transform="matrix(1.00, 0.00, -0.00, -1.00, 396.9, 605.0)">L</text><text xml:space="preserve" font-family="Akrobat-SemiBold" font-weight="bold" font-size="48.0" fill="#A9A9A9" transform="matrix(1.00, 0.00, -0.00, -1.00, 417.3, 605.0)"> </text><text xml:space="preserve" font-family="Akrobat-SemiBold" font-weight="bold" font-size="38.4" fill="#A9A9A9" transform="matrix(1.00, 0.00, -0.00, -1.00, 432.8, 605.0)">P</text><text xml:space="preserve" font-family="Akrobat-SemiBold" font-weight="bold" font-size="38.4" fill="#A9A9A9" transform="matrix(1.00, 0.00, -0.00, -1.00, 455.8, 605.0)">R</text><text xml:space="preserve" font-family="Akrobat-SemiBold" font-weight="bold" font-size="38.4" fill="#A9A9A9" transform="matrix(1.00, 0.00, -0.00, -1.00, 479.5, 605.0)">O</text><text xml:space="preserve" font-family="Akrobat-SemiBold" font-weight="bold" font-size="38.4" fill="#A9A9A9" transform="matrix(1.00, 0.00, -0.00, -1.00, 504.4, 605.0)">P</text><text xml:space="preserve" font-family="Akrobat-SemiBold" font-weight="bold" font-size="38.4" fill="#A9A9A9" transform="matrix(1.00, 0.00, -0.00, -1.00, 527.4, 605.0)">E</text><text xml:space="preserve" font-family="Akrobat-SemiBold" font-weight="bold" font-size="38.4" fill="#A9A9A9" transform="matrix(1.00, 0.00, -0.00, -1.00, 549.8, 605.0)">R</text><text xml:space="preserve" font-family="Akrobat-SemiBold" font-weight="bold" font-size="38.4" fill="#A9A9A9" transform="matrix(1.00, 0.00, -0.00, -1.00, 573.6, 605.0)">T</text><text xml:space="preserve" font-family="Akrobat-SemiBold" font-weight="bold" font-size="38.4" fill="#A9A9A9" transform="matrix(1.00, 0.00, -0.00, -1.00, 594.3, 605.0)">I</text><text xml:space="preserve" font-family="Akrobat-SemiBold" font-weight="bold" font-size="38.4" fill="#A9A9A9" transform="matrix(1.00, 0.00, -0.00, -1.00, 607.9, 605.0)">E</text><text xml:space="preserve" font-family="Akrobat-SemiBold" font-weight="bold" font-size="38.4" fill="#A9A9A9" transform="matrix(1.00, 0.00, -0.00, -1.00, 630.3, 605.0)">S</text></g></svg>