<?xml version="1.0" encoding="UTF-8" standalone="no"?><svg xmlns="http://www.w3.org/2000/svg" xmlns:xlink="http://www.w3.org/1999/xlink" clip-rule="evenodd" stroke-miterlimit="4.00" viewBox="0 0 239 32"><desc>SVG generated by Keynote</desc><defs></defs><g transform="matrix(1.00, 0.00, -0.00, -1.00, 0.0, 32.0)"><text xml:space="preserve" font-family="Akrobat-SemiBold" font-weight="bold" font-size="38.4" fill="#A9A9A9" transform="matrix(1.00, 0.00, -0.00, -1.00, -1.4, 2.1)">I</text><text xml:space="preserve" font-family="Akrobat-SemiBold" font-weight="bold" font-size="38.4" fill="#A9A9A9" transform="matrix(1.00, 0.00, -0.00, -1.00, 12.2, 2.1)">N</text><text xml:space="preserve" font-family="Akrobat-SemiBold" font-weight="bold" font-size="38.4" fill="#A9A9A9" transform="matrix(1.00, 0.00, -0.00, -1.00, 38.0, 2.1)">F</text><text xml:space="preserve" font-family="Akrobat-SemiBold" font-weight="bold" font-size="38.4" fill="#A9A9A9" transform="matrix(1.00, 0.00, -0.00, -1.00, 59.1, 2.1)">O</text><text xml:space="preserve" font-family="Akrobat-SemiBold" font-weight="bold" font-size="38.4" fill="#A9A9A9" transform="matrix(1.00, 0.00, -0.00, -1.00, 83.9, 2.1)">R</text><text xml:space="preserve" font-family="Akrobat-SemiBold" font-weight="bold" font-size="38.4" fill="#A9A9A9" transform="matrix(1.00, 0.00, -0.00, -1.00, 107.7, 2.1)">M</text><text xml:space="preserve" font-family="Akrobat-SemiBold" font-weight="bold" font-size="38.4" fill="#A9A9A9" transform="matrix(1.00, 0.00, -0.00, -1.00, 138.3, 2.1)">A</text><text xml:space="preserve" font-family="Akrobat-SemiBold" font-weight="bold" font-size="38.4" fill="#A9A9A9" transform="matrix(1.00, 0.00, -0.00, -1.00, 159.6, 2.1)">T</text><text xml:space="preserve" font-family="Akrobat-SemiBold" font-weight="bold" font-size="38.4" fill="#A9A9A9" transform="matrix(1.00, 0.00, -0.00, -1.00, 180.3, 2.1)">I</text><text xml:space="preserve" font-family="Akrobat-SemiBold" font-weight="bold" font-size="38.4" fill="#A9A9A9" transform="matrix(1.00, 0.00, -0.00, -1.00, 193.9, 2.1)">O</text><text xml:space="preserve" font-family="Akrobat-SemiBold" font-weight="bold" font-size="38.4" fill="#A9A9A9" transform="matrix(1.00, 0.00, -0.00, -1.00, 218.8, 2.1)">N</text></g></svg>