<?xml version="1.0" encoding="UTF-8" standalone="no"?><svg xmlns="http://www.w3.org/2000/svg" xmlns:xlink="http://www.w3.org/1999/xlink" clip-rule="evenodd" stroke-miterlimit="4.00" viewBox="0 0 424 49"><desc>SVG generated by Keynote</desc><defs></defs><g transform="matrix(1.00, 0.00, -0.00, -1.00, 0.0, 49.0)"><path d="M 2.0 47.5 L 422.0 47.5 L 422.0 2.5 L 2.0 2.5 Z M 2.0 47.5 " fill="#164E86"></path><path d="M 0.0 0.0 L 420.0 0.0 L 420.0 45.0 L 0.0 45.0 Z M 0.0 0.0 " fill="none" stroke="#002451" stroke-width="1.00" transform="matrix(1.00, 0.00, 0.00, -1.00, 2.0, 47.5)"></path><g><clipPath id="clip-46"><path d="M -2.5 -2.0 L 426.5 -2.0 L 426.5 52.0 L -2.5 52.0 Z M -2.5 -2.0 "></path></clipPath><g clip-path="url(#clip-46)"><text xml:space="preserve" font-family="Akrobat-Regular" font-size="30.0" fill="#FEFFFF" transform="matrix(1.00, 0.00, -0.00, -1.00, 136.0, 13.0)">S</text><text xml:space="preserve" font-family="Akrobat-Regular" font-size="30.0" fill="#FEFFFF" transform="matrix(1.00, 0.00, -0.00, -1.00, 152.5, 13.0)">T</text><text xml:space="preserve" font-family="Akrobat-Regular" font-size="30.0" fill="#FEFFFF" transform="matrix(1.00, 0.00, -0.00, -1.00, 166.7, 13.0)">A</text><text xml:space="preserve" font-family="Akrobat-Regular" font-size="30.0" fill="#FEFFFF" transform="matrix(1.00, 0.00, -0.00, -1.00, 183.4, 13.0)">R</text><text xml:space="preserve" font-family="Akrobat-Regular" font-size="30.0" fill="#FEFFFF" transform="matrix(1.00, 0.00, -0.00, -1.00, 200.9, 13.0)">T</text><text xml:space="preserve" font-family="Akrobat-Regular" font-size="30.0" fill="#FEFFFF" transform="matrix(1.00, 0.00, -0.00, -1.00, 216.1, 13.0)"> </text><text xml:space="preserve" font-family="Akrobat-Regular" font-size="30.0" fill="#FEFFFF" transform="matrix(1.00, 0.00, -0.00, -1.00, 226.0, 13.0)">E</text><text xml:space="preserve" font-family="Akrobat-Regular" font-size="30.0" fill="#FEFFFF" transform="matrix(1.00, 0.00, -0.00, -1.00, 242.6, 13.0)">V</text><text xml:space="preserve" font-family="Akrobat-Regular" font-size="30.0" fill="#FEFFFF" transform="matrix(1.00, 0.00, -0.00, -1.00, 258.4, 13.0)">A</text><text xml:space="preserve" font-family="Akrobat-Regular" font-size="30.0" fill="#FEFFFF" transform="matrix(1.00, 0.00, -0.00, -1.00, 275.2, 13.0)">L</text></g></g></g></svg>