<?xml version="1.0" encoding="UTF-8" standalone="no"?><svg xmlns="http://www.w3.org/2000/svg" xmlns:xlink="http://www.w3.org/1999/xlink" clip-rule="evenodd" stroke-miterlimit="4.00" viewBox="0 0 344 22"><desc>SVG generated by Keynote</desc><defs></defs><g transform="matrix(1.00, 0.00, -0.00, -1.00, 0.0, 22.0)"><text xml:space="preserve" font-family="Akrobat-Regular" font-size="18.0" fill="#FEFFFF" transform="matrix(1.00, 0.00, -0.00, -1.00, 1.0, 5.0)">O</text><text xml:space="preserve" font-family="Akrobat-Regular" font-size="18.0" fill="#FEFFFF" transform="matrix(1.00, 0.00, -0.00, -1.00, 10.3, 5.0)">u</text><text xml:space="preserve" font-family="Akrobat-Regular" font-size="18.0" fill="#FEFFFF" transform="matrix(1.00, 0.00, -0.00, -1.00, 18.6, 5.0)">r</text><text xml:space="preserve" font-family="Akrobat-Regular" font-size="18.0" fill="#FEFFFF" transform="matrix(1.00, 0.00, -0.00, -1.00, 24.6, 5.0)"> </text><text xml:space="preserve" font-family="Akrobat-Regular" font-size="18.0" fill="#FEFFFF" transform="matrix(1.00, 0.00, -0.00, -1.00, 28.7, 5.0)">R</text><text xml:space="preserve" font-family="Akrobat-Regular" font-size="18.0" fill="#FEFFFF" transform="matrix(1.00, 0.00, -0.00, -1.00, 37.2, 5.0)">o</text><text xml:space="preserve" font-family="Akrobat-Regular" font-size="18.0" fill="#FEFFFF" transform="matrix(1.00, 0.00, -0.00, -1.00, 45.4, 5.0)">o</text><text xml:space="preserve" font-family="Akrobat-Regular" font-size="18.0" fill="#FEFFFF" transform="matrix(1.00, 0.00, -0.00, -1.00, 53.6, 5.0)">m</text><text xml:space="preserve" font-family="Akrobat-Regular" font-size="18.0" fill="#FEFFFF" transform="matrix(1.00, 0.00, -0.00, -1.00, 66.7, 5.0)">R</text><text xml:space="preserve" font-family="Akrobat-Regular" font-size="18.0" fill="#FEFFFF" transform="matrix(1.00, 0.00, -0.00, -1.00, 75.2, 5.0)">e</text><text xml:space="preserve" font-family="Akrobat-Regular" font-size="18.0" fill="#FEFFFF" transform="matrix(1.00, 0.00, -0.00, -1.00, 83.3, 5.0)">f</text><text xml:space="preserve" font-family="Akrobat-Regular" font-size="18.0" fill="#FEFFFF" transform="matrix(1.00, 0.00, -0.00, -1.00, 88.5, 5.0)"> </text><text xml:space="preserve" font-family="Akrobat-Regular" font-size="18.0" fill="#FEFFFF" transform="matrix(1.00, 0.00, -0.00, -1.00, 92.6, 5.0)">f</text><text xml:space="preserve" font-family="Akrobat-Regular" font-size="18.0" fill="#FEFFFF" transform="matrix(1.00, 0.00, -0.00, -1.00, 97.8, 5.0)">o</text><text xml:space="preserve" font-family="Akrobat-Regular" font-size="18.0" fill="#FEFFFF" transform="matrix(1.00, 0.00, -0.00, -1.00, 106.0, 5.0)">u</text><text xml:space="preserve" font-family="Akrobat-Regular" font-size="18.0" fill="#FEFFFF" transform="matrix(1.00, 0.00, -0.00, -1.00, 114.4, 5.0)">n</text><text xml:space="preserve" font-family="Akrobat-Regular" font-size="18.0" fill="#FEFFFF" transform="matrix(1.00, 0.00, -0.00, -1.00, 122.7, 5.0)">d</text><text xml:space="preserve" font-family="Akrobat-Regular" font-size="18.0" fill="#FEFFFF" transform="matrix(1.00, 0.00, -0.00, -1.00, 131.0, 5.0)"> </text><text xml:space="preserve" font-family="Akrobat-Regular" font-size="18.0" fill="#FEFFFF" transform="matrix(1.00, 0.00, -0.00, -1.00, 135.1, 5.0)">t</text><text xml:space="preserve" font-family="Akrobat-Regular" font-size="18.0" fill="#FEFFFF" transform="matrix(1.00, 0.00, -0.00, -1.00, 140.5, 5.0)">w</text><text xml:space="preserve" font-family="Akrobat-Regular" font-size="18.0" fill="#FEFFFF" transform="matrix(1.00, 0.00, -0.00, -1.00, 151.4, 5.0)">o</text><text xml:space="preserve" font-family="Akrobat-Regular" font-size="18.0" fill="#FEFFFF" transform="matrix(1.00, 0.00, -0.00, -1.00, 159.6, 5.0)"> </text><text xml:space="preserve" font-family="Akrobat-Regular" font-size="18.0" fill="#FEFFFF" transform="matrix(1.00, 0.00, -0.00, -1.00, 163.7, 5.0)">(</text><text xml:space="preserve" font-family="Akrobat-Regular" font-size="18.0" fill="#FEFFFF" transform="matrix(1.00, 0.00, -0.00, -1.00, 168.7, 5.0)">2</text><text xml:space="preserve" font-family="Akrobat-Regular" font-size="18.0" fill="#FEFFFF" transform="matrix(1.00, 0.00, -0.00, -1.00, 175.9, 5.0)">)</text><text xml:space="preserve" font-family="Akrobat-Regular" font-size="18.0" fill="#FEFFFF" transform="matrix(1.00, 0.00, -0.00, -1.00, 180.9, 5.0)"> </text><text xml:space="preserve" font-family="Akrobat-Regular" font-size="18.0" fill="#FEFFFF" transform="matrix(1.00, 0.00, -0.00, -1.00, 185.0, 5.0)">r</text><text xml:space="preserve" font-family="Akrobat-Regular" font-size="18.0" fill="#FEFFFF" transform="matrix(1.00, 0.00, -0.00, -1.00, 190.8, 5.0)">e</text><text xml:space="preserve" font-family="Akrobat-Regular" font-size="18.0" fill="#FEFFFF" transform="matrix(1.00, 0.00, -0.00, -1.00, 198.9, 5.0)">d</text><text xml:space="preserve" font-family="Akrobat-Regular" font-size="18.0" fill="#FEFFFF" transform="matrix(1.00, 0.00, -0.00, -1.00, 207.2, 5.0)"> </text><text xml:space="preserve" font-family="Akrobat-Regular" font-size="18.0" fill="#FEFFFF" transform="matrix(1.00, 0.00, -0.00, -1.00, 211.4, 5.0)">f</text><text xml:space="preserve" font-family="Akrobat-Regular" font-size="18.0" fill="#FEFFFF" transform="matrix(1.00, 0.00, -0.00, -1.00, 216.6, 5.0)">l</text><text xml:space="preserve" font-family="Akrobat-Regular" font-size="18.0" fill="#FEFFFF" transform="matrix(1.00, 0.00, -0.00, -1.00, 220.1, 5.0)">a</text><text xml:space="preserve" font-family="Akrobat-Regular" font-size="18.0" fill="#FEFFFF" transform="matrix(1.00, 0.00, -0.00, -1.00, 228.2, 5.0)">g</text><text xml:space="preserve" font-family="Akrobat-Regular" font-size="18.0" fill="#FEFFFF" transform="matrix(1.00, 0.00, -0.00, -1.00, 236.5, 5.0)">s</text><text xml:space="preserve" font-family="Akrobat-Regular" font-size="18.0" fill="#FEFFFF" transform="matrix(1.00, 0.00, -0.00, -1.00, 243.7, 5.0)"> </text><text xml:space="preserve" font-family="Akrobat-Regular" font-size="18.0" fill="#FEFFFF" transform="matrix(1.00, 0.00, -0.00, -1.00, 247.9, 5.0)">f</text><text xml:space="preserve" font-family="Akrobat-Regular" font-size="18.0" fill="#FEFFFF" transform="matrix(1.00, 0.00, -0.00, -1.00, 253.1, 5.0)">o</text><text xml:space="preserve" font-family="Akrobat-Regular" font-size="18.0" fill="#FEFFFF" transform="matrix(1.00, 0.00, -0.00, -1.00, 261.3, 5.0)">r</text><text xml:space="preserve" font-family="Akrobat-Regular" font-size="18.0" fill="#FEFFFF" transform="matrix(1.00, 0.00, -0.00, -1.00, 267.3, 5.0)"> </text><text xml:space="preserve" font-family="Akrobat-Regular" font-size="18.0" fill="#FEFFFF" transform="matrix(1.00, 0.00, -0.00, -1.00, 271.4, 5.0)">t</text><text xml:space="preserve" font-family="Akrobat-Regular" font-size="18.0" fill="#FEFFFF" transform="matrix(1.00, 0.00, -0.00, -1.00, 276.7, 5.0)">h</text><text xml:space="preserve" font-family="Akrobat-Regular" font-size="18.0" fill="#FEFFFF" transform="matrix(1.00, 0.00, -0.00, -1.00, 285.0, 5.0)">i</text><text xml:space="preserve" font-family="Akrobat-Regular" font-size="18.0" fill="#FEFFFF" transform="matrix(1.00, 0.00, -0.00, -1.00, 288.5, 5.0)">s</text><text xml:space="preserve" font-family="Akrobat-Regular" font-size="18.0" fill="#FEFFFF" transform="matrix(1.00, 0.00, -0.00, -1.00, 295.7, 5.0)"> </text><text xml:space="preserve" font-family="Akrobat-Regular" font-size="18.0" fill="#FEFFFF" transform="matrix(1.00, 0.00, -0.00, -1.00, 299.8, 5.0)">r</text><text xml:space="preserve" font-family="Akrobat-Regular" font-size="18.0" fill="#FEFFFF" transform="matrix(1.00, 0.00, -0.00, -1.00, 305.6, 5.0)">e</text><text xml:space="preserve" font-family="Akrobat-Regular" font-size="18.0" fill="#FEFFFF" transform="matrix(1.00, 0.00, -0.00, -1.00, 313.7, 5.0)">n</text><text xml:space="preserve" font-family="Akrobat-Regular" font-size="18.0" fill="#FEFFFF" transform="matrix(1.00, 0.00, -0.00, -1.00, 322.1, 5.0)">t</text><text xml:space="preserve" font-family="Akrobat-Regular" font-size="18.0" fill="#FEFFFF" transform="matrix(1.00, 0.00, -0.00, -1.00, 327.4, 5.0)">a</text><text xml:space="preserve" font-family="Akrobat-Regular" font-size="18.0" fill="#FEFFFF" transform="matrix(1.00, 0.00, -0.00, -1.00, 335.5, 5.0)">l</text><text xml:space="preserve" font-family="Akrobat-Regular" font-size="18.0" fill="#FEFFFF" transform="matrix(1.00, 0.00, -0.00, -1.00, 339.0, 5.0)">.</text></g></svg>