<?xml version="1.0" encoding="UTF-8" standalone="no"?><svg xmlns="http://www.w3.org/2000/svg" xmlns:xlink="http://www.w3.org/1999/xlink" clip-rule="evenodd" stroke-miterlimit="4.00" viewBox="0 0 101 101"><desc>SVG generated by Keynote</desc><defs></defs><g transform="matrix(1.00, 0.00, -0.00, -1.00, 0.0, 101.0)"><g><clipPath id="clip-2503"><path d="M 49.6 95.9 L 49.6 95.9 C 74.8 95.9 95.2 75.5 95.2 50.3 L 95.2 50.3 C 95.2 25.1 74.8 4.7 49.6 4.7 L 49.6 4.7 C 24.4 4.7 4.0 25.1 4.0 50.3 L 4.0 50.3 C 4.0 75.5 24.4 95.9 49.6 95.9 Z M 49.6 95.9 "></path></clipPath><g clip-path="url(#clip-2503)"><g><clipPath id="clip-2504"><path d="M 1.0 1.5 L 98.4 1.5 L 98.4 99.0 L 1.0 99.0 Z M 1.0 1.5 "></path></clipPath><g clip-path="url(#clip-2504)"><g><g><clipPath id="clip-2505"><path d="M 1.2 98.5 L 98.0 98.5 L 98.0 1.7 L 1.2 1.7 Z M 1.2 98.5 "></path></clipPath><g clip-path="url(#clip-2505)"><g><clipPath id="clip-2506"><path d="M 4.0 4.0 L 96.0 4.0 L 96.0 96.0 L 4.0 96.0 Z M 4.0 4.0 "></path></clipPath><g clip-path="url(#clip-2506)"><image xlink:href="../../7D845C88-9D36-4D54-84B6-6D208BC815DA/assets/7C7500CBD6CAB428A0937BBD4143F309.png" width="121.00" height="121.00" transform="matrix(0.80, 0.00, -0.00, -0.80, 0.8, 98.3)"></image></g></g></g></g></g></g></g></g></g><g><clipPath id="clip-2507"><path d="M 1.0 1.0 L 99.0 1.0 L 99.0 99.0 L 1.0 99.0 Z M 1.0 1.0 "></path></clipPath><g clip-path="url(#clip-2507)"><path d="M 615.5 49.0 L 615.5 49.0 C 640.6 49.0 661.0 69.4 661.0 94.5 L 661.0 94.5 C 661.0 119.6 640.6 140.0 615.5 140.0 L 615.5 140.0 C 590.4 140.0 570.0 119.6 570.0 94.5 L 570.0 94.5 C 570.0 69.4 590.4 49.0 615.5 49.0 Z M 615.5 49.0 " fill="none" stroke="#000000" stroke-width="4.00" stroke-miterlimit="0.00" stroke-linecap="round" stroke-linejoin="round" transform="matrix(1.00, 0.00, 0.00, -1.00, -566.0, 145.0)"></path><path d="M 615.5 49.0 L 615.5 49.0 C 640.6 49.0 661.0 69.4 661.0 94.5 L 661.0 94.5 C 661.0 119.6 640.6 140.0 615.5 140.0 L 615.5 140.0 C 590.4 140.0 570.0 119.6 570.0 94.5 L 570.0 94.5 C 570.0 69.4 590.4 49.0 615.5 49.0 Z M 615.5 49.0 " fill="none" stroke="#FEFFFF" stroke-width="2.00" stroke-miterlimit="0.00" stroke-linecap="round" stroke-linejoin="round" transform="matrix(1.00, 0.00, 0.00, -1.00, -566.0, 145.0)"></path></g></g></g></svg>