<?xml version="1.0" encoding="UTF-8" standalone="no"?><svg xmlns="http://www.w3.org/2000/svg" xmlns:xlink="http://www.w3.org/1999/xlink" clip-rule="evenodd" stroke-miterlimit="4.00" viewBox="0 0 1920 1080"><desc>SVG generated by Keynote</desc><defs></defs><g transform="matrix(1.00, 0.00, -0.00, -1.00, 0.0, 1080.0)"><path d="M 0.0 1080.0 L 1920.0 1080.0 L 1920.0 0.0 L 0.0 0.0 Z M 0.0 1080.0 " fill="#FEFFFF"></path><path d="M -2.5 1081.5 L 1922.5 1081.5 L 1922.5 901.5 L -2.5 901.5 Z M -2.5 1081.5 " fill="#BFBFBF"></path><path d="M -2.5 179.9 L 1922.5 179.9 L 1922.5 -0.1 L -2.5 -0.1 Z M -2.5 179.9 " fill="#BFBFBF"></path><text xml:space="preserve" font-family="Akrobat-Bold" font-weight="bold" font-size="18.0" fill="#000000" transform="matrix(1.00, 0.00, -0.00, -1.00, 1303.0, 273.0)">w</text><text xml:space="preserve" font-family="Akrobat-Bold" font-weight="bold" font-size="18.0" fill="#000000" transform="matrix(1.00, 0.00, -0.00, -1.00, 1314.7, 273.0)">w</text><text xml:space="preserve" font-family="Akrobat-Bold" font-weight="bold" font-size="18.0" fill="#000000" transform="matrix(1.00, 0.00, -0.00, -1.00, 1326.3, 273.0)">w</text><text xml:space="preserve" font-family="Akrobat-Bold" font-weight="bold" font-size="18.0" fill="#000000" transform="matrix(1.00, 0.00, -0.00, -1.00, 1336.8, 273.0)">.</text><text xml:space="preserve" font-family="Akrobat-Bold" font-weight="bold" font-size="18.0" fill="#000000" transform="matrix(1.00, 0.00, -0.00, -1.00, 1340.2, 273.0)">c</text><text xml:space="preserve" font-family="Akrobat-Bold" font-weight="bold" font-size="18.0" fill="#000000" transform="matrix(1.00, 0.00, -0.00, -1.00, 1348.0, 273.0)">r</text><text xml:space="preserve" font-family="Akrobat-Bold" font-weight="bold" font-size="18.0" fill="#000000" transform="matrix(1.00, 0.00, -0.00, -1.00, 1354.1, 273.0)">a</text><text xml:space="preserve" font-family="Akrobat-Bold" font-weight="bold" font-size="18.0" fill="#000000" transform="matrix(1.00, 0.00, -0.00, -1.00, 1362.2, 273.0)">n</text><text xml:space="preserve" font-family="Akrobat-Bold" font-weight="bold" font-size="18.0" fill="#000000" transform="matrix(1.00, 0.00, -0.00, -1.00, 1370.7, 273.0)">f</text><text xml:space="preserve" font-family="Akrobat-Bold" font-weight="bold" font-size="18.0" fill="#000000" transform="matrix(1.00, 0.00, -0.00, -1.00, 1376.2, 273.0)">o</text><text xml:space="preserve" font-family="Akrobat-Bold" font-weight="bold" font-size="18.0" fill="#000000" transform="matrix(1.00, 0.00, -0.00, -1.00, 1384.5, 273.0)">r</text><text xml:space="preserve" font-family="Akrobat-Bold" font-weight="bold" font-size="18.0" fill="#000000" transform="matrix(1.00, 0.00, -0.00, -1.00, 1390.5, 273.0)">d</text><text xml:space="preserve" font-family="Akrobat-Bold" font-weight="bold" font-size="18.0" fill="#000000" transform="matrix(1.00, 0.00, -0.00, -1.00, 1398.9, 273.0)">t</text><text xml:space="preserve" font-family="Akrobat-Bold" font-weight="bold" font-size="18.0" fill="#000000" transform="matrix(1.00, 0.00, -0.00, -1.00, 1404.6, 273.0)">e</text><text xml:space="preserve" font-family="Akrobat-Bold" font-weight="bold" font-size="18.0" fill="#000000" transform="matrix(1.00, 0.00, -0.00, -1.00, 1412.8, 273.0)">a</text><text xml:space="preserve" font-family="Akrobat-Bold" font-weight="bold" font-size="18.0" fill="#000000" transform="matrix(1.00, 0.00, -0.00, -1.00, 1421.0, 273.0)">g</text><text xml:space="preserve" font-family="Akrobat-Bold" font-weight="bold" font-size="18.0" fill="#000000" transform="matrix(1.00, 0.00, -0.00, -1.00, 1429.5, 273.0)">u</text><text xml:space="preserve" font-family="Akrobat-Bold" font-weight="bold" font-size="18.0" fill="#000000" transform="matrix(1.00, 0.00, -0.00, -1.00, 1437.9, 273.0)">e</text><text xml:space="preserve" font-family="Akrobat-Bold" font-weight="bold" font-size="18.0" fill="#000000" transform="matrix(1.00, 0.00, -0.00, -1.00, 1446.1, 273.0)">.</text><text xml:space="preserve" font-family="Akrobat-Bold" font-weight="bold" font-size="18.0" fill="#000000" transform="matrix(1.00, 0.00, -0.00, -1.00, 1449.6, 273.0)">c</text><text xml:space="preserve" font-family="Akrobat-Bold" font-weight="bold" font-size="18.0" fill="#000000" transform="matrix(1.00, 0.00, -0.00, -1.00, 1457.4, 273.0)">o</text><text xml:space="preserve" font-family="Akrobat-Bold" font-weight="bold" font-size="18.0" fill="#000000" transform="matrix(1.00, 0.00, -0.00, -1.00, 1465.8, 273.0)">m</text><g opacity="0.26"><g><clipPath id="clip-743"><path d="M 1298.0 258.0 L 1799.0 258.0 L 1799.0 361.0 L 1298.0 361.0 Z M 1298.0 258.0 "></path></clipPath><g clip-path="url(#clip-743)"><image xlink:href="../../F28C9CA0-A05A-4A2C-90F7-8BC49B335395/assets/C81748EE4541B41AB8E62948DB0A057F.png" width="498.00" height="100.00" transform="matrix(1.00, 0.00, -0.00, -1.00, 1300.0, 359.0)"></image></g></g></g><text xml:space="preserve" font-family="Akrobat-Bold" font-weight="bold" font-size="90.0" fill="#52575F" transform="matrix(1.00, 0.00, -0.00, -1.00, 184.0, 561.0)">R</text><text xml:space="preserve" font-family="Akrobat-Bold" font-weight="bold" font-size="90.0" fill="#52575F" transform="matrix(1.00, 0.00, -0.00, -1.00, 231.2, 561.0)">O</text><text xml:space="preserve" font-family="Akrobat-Bold" font-weight="bold" font-size="90.0" fill="#52575F" transform="matrix(1.00, 0.00, -0.00, -1.00, 280.5, 561.0)">O</text><text xml:space="preserve" font-family="Akrobat-Bold" font-weight="bold" font-size="90.0" fill="#52575F" transform="matrix(1.00, 0.00, -0.00, -1.00, 329.8, 561.0)">M</text><text xml:space="preserve" font-family="Akrobat-Bold" font-weight="bold" font-size="90.0" fill="#52575F" transform="matrix(1.00, 0.00, -0.00, -1.00, 393.5, 561.0)">R</text><text xml:space="preserve" font-family="Akrobat-Bold" font-weight="bold" font-size="90.0" fill="#52575F" transform="matrix(1.00, 0.00, -0.00, -1.00, 440.7, 561.0)">E</text><text xml:space="preserve" font-family="Akrobat-Bold" font-weight="bold" font-size="90.0" fill="#52575F" transform="matrix(1.00, 0.00, -0.00, -1.00, 484.0, 561.0)">F</text><text xml:space="preserve" font-family="Akrobat-Bold" font-weight="bold" font-size="90.0" fill="#52575F" transform="matrix(1.00, 0.00, -0.00, -1.00, 524.0, 561.0)">S</text><g><clipPath id="clip-744"><path d="M 162.6 445.8 L 1092.3 445.8 L 1092.3 537.8 L 162.6 537.8 Z M 162.6 445.8 "></path></clipPath><g clip-path="url(#clip-744)"><text xml:space="preserve" font-family="JosefinSans" font-size="84.0" fill="#000000" transform="matrix(1.00, 0.00, -0.00, -1.00, 184.0, 458.0)">R</text><text xml:space="preserve" font-family="JosefinSans" font-size="84.0" fill="#000000" transform="matrix(1.00, 0.00, -0.00, -1.00, 231.1, 458.0)">e</text><text xml:space="preserve" font-family="JosefinSans" font-size="84.0" fill="#000000" transform="matrix(1.00, 0.00, -0.00, -1.00, 269.4, 458.0)">f</text><text xml:space="preserve" font-family="JosefinSans" font-size="84.0" fill="#000000" transform="matrix(1.00, 0.00, -0.00, -1.00, 292.7, 458.0)"> </text><text xml:space="preserve" font-family="JosefinSans" font-size="84.0" fill="#000000" transform="matrix(1.00, 0.00, -0.00, -1.00, 310.1, 458.0)">V</text><text xml:space="preserve" font-family="JosefinSans" font-size="84.0" fill="#000000" transform="matrix(1.00, 0.00, -0.00, -1.00, 360.1, 458.0)">i</text><text xml:space="preserve" font-family="JosefinSans" font-size="84.0" fill="#000000" transform="matrix(1.00, 0.00, -0.00, -1.00, 376.2, 458.0)">e</text><text xml:space="preserve" font-family="JosefinSans" font-size="84.0" fill="#000000" transform="matrix(1.00, 0.00, -0.00, -1.00, 414.1, 458.0)">w</text></g></g></g></svg>