<?xml version="1.0" encoding="UTF-8" standalone="no"?><svg xmlns="http://www.w3.org/2000/svg" xmlns:xlink="http://www.w3.org/1999/xlink" clip-rule="evenodd" stroke-miterlimit="4.00" viewBox="0 0 1920 1080"><desc>SVG generated by Keynote</desc><defs></defs><g transform="matrix(1.00, 0.00, -0.00, -1.00, 0.0, 1080.0)"><path d="M 0.0 1080.0 L 1920.0 1080.0 L 1920.0 0.0 L 0.0 0.0 Z M 0.0 1080.0 " fill="#FEFFFF"></path><g><clipPath id="clip-2115"><path d="M 712.0 1047.0 L 1209.0 1047.0 L 1209.0 33.0 L 712.0 33.0 Z M 711.5 1047.0 "></path></clipPath><g clip-path="url(#clip-2115)"><g><clipPath id="clip-2116"><path d="M 1206.0 757.0 L 1207.5 757.0 C 1208.3 757.0 1209.0 757.7 1209.0 758.5 L 1209.0 830.5 C 1209.0 831.3 1208.3 832.0 1207.5 832.0 L 1206.0 832.0 L 1206.0 972.0 C 1206.0 1013.4 1172.4 1047.0 1131.0 1047.0 L 790.0 1047.0 C 748.6 1047.0 715.0 1013.4 715.0 972.0 L 715.0 919.0 L 713.5 919.0 C 712.7 919.0 712.0 918.3 712.0 917.5 L 712.0 879.5 C 712.0 878.7 712.7 878.0 713.5 878.0 L 715.0 878.0 L 715.0 832.0 L 713.5 832.0 C 712.7 832.0 712.0 831.3 712.0 830.5 L 712.0 758.5 C 712.0 757.7 712.7 757.0 713.5 757.0 L 715.0 757.0 L 715.0 740.0 L 713.5 740.0 C 712.7 740.0 712.0 739.3 712.0 738.5 L 712.0 666.5 C 712.0 665.7 712.7 665.0 713.5 665.0 L 715.0 665.0 L 715.0 108.0 C 715.0 66.6 748.6 33.0 790.0 33.0 L 1131.0 33.0 C 1172.4 33.0 1206.0 66.6 1206.0 108.0 L 1206.0 757.0 L 1206.0 757.0 L 1206.0 757.0 Z M 745.0 924.0 L 745.0 158.0 L 1176.0 158.0 L 1176.0 924.0 L 745.0 924.0 L 745.0 924.0 Z M 960.0 64.0 C 981.0 64.0 998.0 81.0 998.0 102.0 C 998.0 123.0 981.0 140.0 960.0 140.0 C 939.0 140.0 922.0 123.0 922.0 102.0 C 922.0 81.0 939.0 64.0 960.0 64.0 L 960.0 64.0 Z M 960.0 68.0 C 978.8 68.0 994.0 83.2 994.0 102.0 C 994.0 120.8 978.8 136.0 960.0 136.0 C 941.2 136.0 926.0 120.8 926.0 102.0 C 926.0 83.2 941.2 68.0 960.0 68.0 L 960.0 68.0 Z M 882.0 975.0 C 886.4 975.0 890.0 978.6 890.0 983.0 C 890.0 987.4 886.4 991.0 882.0 991.0 C 877.6 991.0 874.0 987.4 874.0 983.0 C 874.0 978.6 877.6 975.0 882.0 975.0 L 882.0 975.0 Z M 961.0 1010.0 C 963.8 1010.0 966.0 1012.2 966.0 1015.0 C 966.0 1017.8 963.8 1020.0 961.0 1020.0 C 958.2 1020.0 956.0 1017.8 956.0 1015.0 C 956.0 1012.2 958.2 1010.0 961.0 1010.0 L 961.0 1010.0 Z M 925.0 987.0 C 922.8 987.0 921.0 985.2 921.0 983.0 C 921.0 980.8 922.8 979.0 925.0 979.0 L 997.0 979.0 C 999.2 979.0 1001.0 980.8 1001.0 983.0 C 1001.0 985.2 999.2 987.0 997.0 987.0 L 925.0 987.0 L 925.0 987.0 Z M 925.0 987.0 "></path></clipPath><g clip-path="url(#clip-2116)"><g><clipPath id="clip-2117"><path d="M 712.0 33.0 L 1209.0 33.0 L 1209.0 1047.0 L 712.0 1047.0 Z M 712.0 33.0 "></path></clipPath><g clip-path="url(#clip-2117)"><path d="M 707.0 1052.0 L 1214.0 1052.0 L 1214.0 28.0 L 707.0 28.0 Z M 707.0 1052.0 " fill="#000000"></path></g></g></g></g></g></g><path d="M 743.8 924.7 L 1176.2 924.7 L 1176.2 157.3 L 743.8 157.3 Z M 743.8 924.7 " fill="#000000"></path><image xlink:href="../../F28C9CA0-A05A-4A2C-90F7-8BC49B335395/assets/20064BB011BBDF5DF94BD6FDEAB4DB4C.png" width="106.00" height="101.00" transform="matrix(0.49, 0.00, -0.00, -0.50, 937.0, 916.0)"></image><path d="M 1160.3 903.6 C 1167.3 896.5 1167.3 885.1 1160.3 878.1 C 1153.2 871.1 1141.8 871.1 1134.8 878.1 C 1127.8 885.1 1127.8 896.5 1134.8 903.6 C 1141.8 910.6 1153.2 910.6 1160.3 903.6 Z M 1160.3 903.6 " fill="#FEFFFF" fill-opacity="0.30"></path><path d="M 30.7 5.3 C 37.8 12.3 37.8 23.7 30.7 30.7 C 23.7 37.8 12.3 37.8 5.3 30.7 C -1.8 23.7 -1.8 12.3 5.3 5.3 C 12.3 -1.8 23.7 -1.8 30.7 5.3 Z M 30.7 5.3 " fill="none" stroke="#FEFFFF" stroke-width="2.00" transform="matrix(1.00, 0.00, 0.00, -1.00, 1129.5, 908.8)"></path><g><clipPath id="clip-2118"><path d="M 1129.5 869.8 L 1165.5 869.8 L 1165.5 911.8 L 1129.5 911.8 Z M 1129.5 869.8 "></path></clipPath><g clip-path="url(#clip-2118)"><text xml:space="preserve" font-family="Entypo" font-size="28.0" fill="#FEFFFF" transform="matrix(1.00, 0.00, -0.00, -1.00, 1140.0, 884.0)">⚙</text></g></g><image xlink:href="../../F28C9CA0-A05A-4A2C-90F7-8BC49B335395/assets/1DA3DC7FF4F320EB7CB273595CED7E5B.png" width="555.00" height="200.00" transform="matrix(0.50, 0.00, -0.00, -0.50, 1591.0, 150.0)"></image><path d="M 750.0 857.6 L 1170.0 857.6 L 1170.0 812.6 L 750.0 812.6 Z M 750.0 857.6 " fill="#FEFFFF" fill-opacity="0.50"></path><path d="M 0.0 0.0 L 420.0 0.0 L 420.0 45.0 L 0.0 45.0 Z M 0.0 0.0 " fill="none" stroke="#52575F" stroke-width="1.00" transform="matrix(1.00, 0.00, 0.00, -1.00, 750.0, 857.6)"></path><g><clipPath id="clip-2119"><path d="M 745.5 808.1 L 1174.5 808.1 L 1174.5 862.1 L 745.5 862.1 Z M 745.5 808.1 "></path></clipPath><g clip-path="url(#clip-2119)"><text xml:space="preserve" font-family="Akrobat-Light" font-size="30.0" fill="#FEFFFF" transform="matrix(1.00, 0.00, -0.00, -1.00, 922.0, 823.0)">C</text><text xml:space="preserve" font-family="Akrobat-Light" font-size="30.0" fill="#FEFFFF" transform="matrix(1.00, 0.00, -0.00, -1.00, 939.2, 823.0)">L</text><text xml:space="preserve" font-family="Akrobat-Light" font-size="30.0" fill="#FEFFFF" transform="matrix(1.00, 0.00, -0.00, -1.00, 954.1, 823.0)">A</text><text xml:space="preserve" font-family="Akrobat-Light" font-size="30.0" fill="#FEFFFF" transform="matrix(1.00, 0.00, -0.00, -1.00, 970.5, 823.0)">I</text><text xml:space="preserve" font-family="Akrobat-Light" font-size="30.0" fill="#FEFFFF" transform="matrix(1.00, 0.00, -0.00, -1.00, 979.7, 823.0)">M</text></g></g><path d="M 750.0 807.5 L 1170.0 807.5 L 1170.0 762.5 L 750.0 762.5 Z M 750.0 807.5 " fill="#FEFFFF" fill-opacity="0.50"></path><path d="M 0.0 0.0 L 420.0 0.0 L 420.0 45.0 L 0.0 45.0 Z M 0.0 0.0 " fill="none" stroke="#52575F" stroke-width="1.00" transform="matrix(1.00, 0.00, 0.00, -1.00, 750.0, 807.5)"></path><g><clipPath id="clip-2120"><path d="M 745.5 758.0 L 1174.5 758.0 L 1174.5 812.0 L 745.5 812.0 Z M 745.5 758.0 "></path></clipPath><g clip-path="url(#clip-2120)"><text xml:space="preserve" font-family="Akrobat-Light" font-size="30.0" fill="#FEFFFF" transform="matrix(1.00, 0.00, -0.00, -1.00, 882.0, 773.0)">P</text><text xml:space="preserve" font-family="Akrobat-Light" font-size="30.0" fill="#FEFFFF" transform="matrix(1.00, 0.00, -0.00, -1.00, 898.7, 773.0)">R</text><text xml:space="preserve" font-family="Akrobat-Light" font-size="30.0" fill="#FEFFFF" transform="matrix(1.00, 0.00, -0.00, -1.00, 915.8, 773.0)">O</text><text xml:space="preserve" font-family="Akrobat-Light" font-size="30.0" fill="#FEFFFF" transform="matrix(1.00, 0.00, -0.00, -1.00, 934.2, 773.0)">P</text><text xml:space="preserve" font-family="Akrobat-Light" font-size="30.0" fill="#FEFFFF" transform="matrix(1.00, 0.00, -0.00, -1.00, 950.8, 773.0)">E</text><text xml:space="preserve" font-family="Akrobat-Light" font-size="30.0" fill="#FEFFFF" transform="matrix(1.00, 0.00, -0.00, -1.00, 967.2, 773.0)">R</text><text xml:space="preserve" font-family="Akrobat-Light" font-size="30.0" fill="#FEFFFF" transform="matrix(1.00, 0.00, -0.00, -1.00, 984.4, 773.0)">T</text><text xml:space="preserve" font-family="Akrobat-Light" font-size="30.0" fill="#FEFFFF" transform="matrix(1.00, 0.00, -0.00, -1.00, 999.4, 773.0)">I</text><text xml:space="preserve" font-family="Akrobat-Light" font-size="30.0" fill="#FEFFFF" transform="matrix(1.00, 0.00, -0.00, -1.00, 1008.6, 773.0)">E</text><text xml:space="preserve" font-family="Akrobat-Light" font-size="30.0" fill="#FEFFFF" transform="matrix(1.00, 0.00, -0.00, -1.00, 1025.0, 773.0)">S</text></g></g><path d="M 750.0 757.4 L 1170.0 757.4 L 1170.0 712.4 L 750.0 712.4 Z M 750.0 757.4 " fill="#FEFFFF" fill-opacity="0.50"></path><path d="M 0.0 0.0 L 420.0 0.0 L 420.0 45.0 L 0.0 45.0 Z M 0.0 0.0 " fill="none" stroke="#52575F" stroke-width="1.00" transform="matrix(1.00, 0.00, 0.00, -1.00, 750.0, 757.4)"></path><g><clipPath id="clip-2121"><path d="M 745.5 707.9 L 1174.5 707.9 L 1174.5 761.9 L 745.5 761.9 Z M 745.5 707.9 "></path></clipPath><g clip-path="url(#clip-2121)"><text xml:space="preserve" font-family="Akrobat-Light" font-size="30.0" fill="#FEFFFF" transform="matrix(1.00, 0.00, -0.00, -1.00, 918.0, 723.0)">T</text><text xml:space="preserve" font-family="Akrobat-Light" font-size="30.0" fill="#FEFFFF" transform="matrix(1.00, 0.00, -0.00, -1.00, 933.0, 723.0)">E</text><text xml:space="preserve" font-family="Akrobat-Light" font-size="30.0" fill="#FEFFFF" transform="matrix(1.00, 0.00, -0.00, -1.00, 949.4, 723.0)">A</text><text xml:space="preserve" font-family="Akrobat-Light" font-size="30.0" fill="#FEFFFF" transform="matrix(1.00, 0.00, -0.00, -1.00, 965.8, 723.0)">M</text><text xml:space="preserve" font-family="Akrobat-Light" font-size="30.0" fill="#FEFFFF" transform="matrix(1.00, 0.00, -0.00, -1.00, 988.0, 723.0)">S</text></g></g><g><clipPath id="clip-2122"><path d="M 858.0 698.0 L 1063.0 698.0 L 1063.0 498.0 L 858.0 498.0 Z M 857.8 698.2 "></path></clipPath><g clip-path="url(#clip-2122)"><g><clipPath id="clip-2123"><path d="M 856.8 497.2 L 1063.8 497.2 L 1063.8 699.2 L 856.8 699.2 Z M 856.8 497.2 "></path></clipPath><g clip-path="url(#clip-2123)"><image xlink:href="../../7D845C88-9D36-4D54-84B6-6D208BC815DA/assets/265EAB72B09A19BD068ED02E419A7BFE.png" width="498.00" height="332.00" transform="matrix(1.00, 0.00, -0.00, -0.65, 610.0, 706.0)"></image></g></g></g></g><g><clipPath id="clip-2124"><path d="M 856.8 497.2 L 1063.8 497.2 L 1063.8 699.2 L 856.8 699.2 Z M 856.8 497.2 "></path></clipPath><g clip-path="url(#clip-2124)"><path d="M 0.0 0.0 L 0.0 200.0 L 205.0 200.0 L 205.0 0.0 L 0.0 0.0 Z M 0.0 0.0 " fill="none" stroke="#FEFFFF" stroke-width="2.00" transform="matrix(1.00, 0.00, 0.00, -1.00, 857.8, 698.2)"></path></g></g><g><clipPath id="clip-2125"><path d="M 855.2 464.4 L 1064.2 464.4 L 1064.2 500.4 L 855.2 500.4 Z M 855.2 464.4 "></path></clipPath><g clip-path="url(#clip-2125)"><path d="M 857.2 498.4 L 1062.2 498.4 L 1062.2 466.4 L 857.2 466.4 Z M 857.2 498.4 " fill="#797979" fill-opacity="0.50"></path><path d="M 0.0 0.0 L 205.0 0.0 L 205.0 32.0 L 0.0 32.0 Z M 0.0 0.0 " fill="none" stroke="#FEFFFF" stroke-width="2.00" transform="matrix(1.00, 0.00, 0.00, -1.00, 857.2, 498.4)"></path></g></g><g><clipPath id="clip-2126"><path d="M 856.8 466.0 L 1062.6 466.0 L 1062.6 498.8 L 856.8 498.8 Z M 856.8 466.0 "></path></clipPath><g clip-path="url(#clip-2126)"><text xml:space="preserve" font-family="Akrobat-SemiBold" font-weight="bold" font-size="18.0" fill="#FEFFFF" transform="matrix(1.00, 0.00, -0.00, -1.00, 887.0, 475.0)">D</text><text xml:space="preserve" font-family="Akrobat-SemiBold" font-weight="bold" font-size="18.0" fill="#FEFFFF" transform="matrix(1.00, 0.00, -0.00, -1.00, 897.9, 475.0)">C</text><text xml:space="preserve" font-family="Akrobat-SemiBold" font-weight="bold" font-size="18.0" fill="#FEFFFF" transform="matrix(1.00, 0.00, -0.00, -1.00, 908.4, 475.0)"> </text><text xml:space="preserve" font-family="Akrobat-SemiBold" font-weight="bold" font-size="18.0" fill="#FEFFFF" transform="matrix(1.00, 0.00, -0.00, -1.00, 914.2, 475.0)">U</text><text xml:space="preserve" font-family="Akrobat-SemiBold" font-weight="bold" font-size="18.0" fill="#FEFFFF" transform="matrix(1.00, 0.00, -0.00, -1.00, 925.4, 475.0)">N</text><text xml:space="preserve" font-family="Akrobat-SemiBold" font-weight="bold" font-size="18.0" fill="#FEFFFF" transform="matrix(1.00, 0.00, -0.00, -1.00, 937.1, 475.0)">D</text><text xml:space="preserve" font-family="Akrobat-SemiBold" font-weight="bold" font-size="18.0" fill="#FEFFFF" transform="matrix(1.00, 0.00, -0.00, -1.00, 948.0, 475.0)">E</text><text xml:space="preserve" font-family="Akrobat-SemiBold" font-weight="bold" font-size="18.0" fill="#FEFFFF" transform="matrix(1.00, 0.00, -0.00, -1.00, 958.0, 475.0)">R</text><text xml:space="preserve" font-family="Akrobat-SemiBold" font-weight="bold" font-size="18.0" fill="#FEFFFF" transform="matrix(1.00, 0.00, -0.00, -1.00, 968.7, 475.0)">G</text><text xml:space="preserve" font-family="Akrobat-SemiBold" font-weight="bold" font-size="18.0" fill="#FEFFFF" transform="matrix(1.00, 0.00, -0.00, -1.00, 979.4, 475.0)">R</text><text xml:space="preserve" font-family="Akrobat-SemiBold" font-weight="bold" font-size="18.0" fill="#FEFFFF" transform="matrix(1.00, 0.00, -0.00, -1.00, 990.1, 475.0)">O</text><text xml:space="preserve" font-family="Akrobat-SemiBold" font-weight="bold" font-size="18.0" fill="#FEFFFF" transform="matrix(1.00, 0.00, -0.00, -1.00, 1001.3, 475.0)">U</text><text xml:space="preserve" font-family="Akrobat-SemiBold" font-weight="bold" font-size="18.0" fill="#FEFFFF" transform="matrix(1.00, 0.00, -0.00, -1.00, 1012.5, 475.0)">N</text><text xml:space="preserve" font-family="Akrobat-SemiBold" font-weight="bold" font-size="18.0" fill="#FEFFFF" transform="matrix(1.00, 0.00, -0.00, -1.00, 1024.1, 475.0)">D</text></g></g><g><clipPath id="clip-2127"><path d="M 860.0 408.0 L 1065.0 408.0 L 1065.0 208.0 L 860.0 208.0 Z M 860.3 407.6 "></path></clipPath><g clip-path="url(#clip-2127)"><g><clipPath id="clip-2128"><path d="M 859.3 206.6 L 1066.3 206.6 L 1066.3 408.6 L 859.3 408.6 Z M 859.3 206.6 "></path></clipPath><g clip-path="url(#clip-2128)"><image xlink:href="../../245D97ED-3C91-4DC0-AC61-D3895807731E/assets/98EA419B894E714D840D0A0D96E015FD.jpeg" width="540.00" height="372.00" transform="matrix(0.55, 0.00, -0.00, -0.54, 814.0, 408.0)"></image></g></g></g></g><g><clipPath id="clip-2129"><path d="M 859.3 206.6 L 1066.3 206.6 L 1066.3 408.6 L 859.3 408.6 Z M 859.3 206.6 "></path></clipPath><g clip-path="url(#clip-2129)"><path d="M 0.0 0.0 L 0.0 200.0 L 205.0 200.0 L 205.0 0.0 L 0.0 0.0 Z M 0.0 0.0 " fill="none" stroke="#FEFFFF" stroke-width="2.00" transform="matrix(1.00, 0.00, 0.00, -1.00, 860.3, 407.6)"></path></g></g><g><clipPath id="clip-2130"><path d="M 858.7 173.8 L 1067.7 173.8 L 1067.7 209.8 L 858.7 209.8 Z M 858.7 173.8 "></path></clipPath><g clip-path="url(#clip-2130)"><path d="M 860.7 207.8 L 1065.7 207.8 L 1065.7 175.8 L 860.7 175.8 Z M 860.7 207.8 " fill="#797979" fill-opacity="0.50"></path><path d="M 0.0 0.0 L 205.0 0.0 L 205.0 32.0 L 0.0 32.0 Z M 0.0 0.0 " fill="none" stroke="#FEFFFF" stroke-width="2.00" transform="matrix(1.00, 0.00, 0.00, -1.00, 860.7, 207.8)"></path></g></g><g><clipPath id="clip-2131"><path d="M 860.3 175.4 L 1066.1 175.4 L 1066.1 208.2 L 860.3 208.2 Z M 860.3 175.4 "></path></clipPath><g clip-path="url(#clip-2131)"><text xml:space="preserve" font-family="Akrobat-SemiBold" font-weight="bold" font-size="18.0" fill="#FEFFFF" transform="matrix(1.00, 0.00, -0.00, -1.00, 896.0, 184.0)">H</text><text xml:space="preserve" font-family="Akrobat-SemiBold" font-weight="bold" font-size="18.0" fill="#FEFFFF" transform="matrix(1.00, 0.00, -0.00, -1.00, 907.4, 184.0)">I</text><text xml:space="preserve" font-family="Akrobat-SemiBold" font-weight="bold" font-size="18.0" fill="#FEFFFF" transform="matrix(1.00, 0.00, -0.00, -1.00, 913.3, 184.0)">P</text><text xml:space="preserve" font-family="Akrobat-SemiBold" font-weight="bold" font-size="18.0" fill="#FEFFFF" transform="matrix(1.00, 0.00, -0.00, -1.00, 924.0, 184.0)">S</text><text xml:space="preserve" font-family="Akrobat-SemiBold" font-weight="bold" font-size="18.0" fill="#FEFFFF" transform="matrix(1.00, 0.00, -0.00, -1.00, 934.0, 184.0)">T</text><text xml:space="preserve" font-family="Akrobat-SemiBold" font-weight="bold" font-size="18.0" fill="#FEFFFF" transform="matrix(1.00, 0.00, -0.00, -1.00, 943.3, 184.0)">E</text><text xml:space="preserve" font-family="Akrobat-SemiBold" font-weight="bold" font-size="18.0" fill="#FEFFFF" transform="matrix(1.00, 0.00, -0.00, -1.00, 953.3, 184.0)">R</text><text xml:space="preserve" font-family="Akrobat-SemiBold" font-weight="bold" font-size="18.0" fill="#FEFFFF" transform="matrix(1.00, 0.00, -0.00, -1.00, 964.0, 184.0)"> </text><text xml:space="preserve" font-family="Akrobat-SemiBold" font-weight="bold" font-size="18.0" fill="#FEFFFF" transform="matrix(1.00, 0.00, -0.00, -1.00, 969.8, 184.0)">H</text><text xml:space="preserve" font-family="Akrobat-SemiBold" font-weight="bold" font-size="18.0" fill="#FEFFFF" transform="matrix(1.00, 0.00, -0.00, -1.00, 981.2, 184.0)">E</text><text xml:space="preserve" font-family="Akrobat-SemiBold" font-weight="bold" font-size="18.0" fill="#FEFFFF" transform="matrix(1.00, 0.00, -0.00, -1.00, 991.3, 184.0)">A</text><text xml:space="preserve" font-family="Akrobat-SemiBold" font-weight="bold" font-size="18.0" fill="#FEFFFF" transform="matrix(1.00, 0.00, -0.00, -1.00, 1001.0, 184.0)">V</text><text xml:space="preserve" font-family="Akrobat-SemiBold" font-weight="bold" font-size="18.0" fill="#FEFFFF" transform="matrix(1.00, 0.00, -0.00, -1.00, 1011.1, 184.0)">E</text><text xml:space="preserve" font-family="Akrobat-SemiBold" font-weight="bold" font-size="18.0" fill="#FEFFFF" transform="matrix(1.00, 0.00, -0.00, -1.00, 1021.1, 184.0)">N</text></g></g><text xml:space="preserve" font-family="Akrobat-SemiBold" font-weight="bold" font-size="18.0" fill="#FEFFFF" transform="matrix(1.00, 0.00, -0.00, -1.00, 828.0, 430.0)">Y</text><text xml:space="preserve" font-family="Akrobat-SemiBold" font-weight="bold" font-size="18.0" fill="#FEFFFF" transform="matrix(1.00, 0.00, -0.00, -1.00, 837.6, 430.0)">O</text><text xml:space="preserve" font-family="Akrobat-SemiBold" font-weight="bold" font-size="18.0" fill="#FEFFFF" transform="matrix(1.00, 0.00, -0.00, -1.00, 848.8, 430.0)">U</text><text xml:space="preserve" font-family="Akrobat-SemiBold" font-weight="bold" font-size="18.0" fill="#FEFFFF" transform="matrix(1.00, 0.00, -0.00, -1.00, 860.0, 430.0)"> </text><text xml:space="preserve" font-family="Akrobat-SemiBold" font-weight="bold" font-size="18.0" fill="#FEFFFF" transform="matrix(1.00, 0.00, -0.00, -1.00, 865.8, 430.0)">H</text><text xml:space="preserve" font-family="Akrobat-SemiBold" font-weight="bold" font-size="18.0" fill="#FEFFFF" transform="matrix(1.00, 0.00, -0.00, -1.00, 877.2, 430.0)">A</text><text xml:space="preserve" font-family="Akrobat-SemiBold" font-weight="bold" font-size="18.0" fill="#FEFFFF" transform="matrix(1.00, 0.00, -0.00, -1.00, 887.0, 430.0)">V</text><text xml:space="preserve" font-family="Akrobat-SemiBold" font-weight="bold" font-size="18.0" fill="#FEFFFF" transform="matrix(1.00, 0.00, -0.00, -1.00, 897.1, 430.0)">E</text><text xml:space="preserve" font-family="Akrobat-SemiBold" font-weight="bold" font-size="18.0" fill="#FEFFFF" transform="matrix(1.00, 0.00, -0.00, -1.00, 907.1, 430.0)"> </text><text xml:space="preserve" font-family="Akrobat-SemiBold" font-weight="bold" font-size="18.0" fill="#FEFFFF" transform="matrix(1.00, 0.00, -0.00, -1.00, 912.9, 430.0)">B</text><text xml:space="preserve" font-family="Akrobat-SemiBold" font-weight="bold" font-size="18.0" fill="#FEFFFF" transform="matrix(1.00, 0.00, -0.00, -1.00, 923.5, 430.0)">E</text><text xml:space="preserve" font-family="Akrobat-SemiBold" font-weight="bold" font-size="18.0" fill="#FEFFFF" transform="matrix(1.00, 0.00, -0.00, -1.00, 933.6, 430.0)">E</text><text xml:space="preserve" font-family="Akrobat-SemiBold" font-weight="bold" font-size="18.0" fill="#FEFFFF" transform="matrix(1.00, 0.00, -0.00, -1.00, 943.6, 430.0)">N</text><text xml:space="preserve" font-family="Akrobat-SemiBold" font-weight="bold" font-size="18.0" fill="#FEFFFF" transform="matrix(1.00, 0.00, -0.00, -1.00, 955.3, 430.0)"> </text><text xml:space="preserve" font-family="Akrobat-SemiBold" font-weight="bold" font-size="18.0" fill="#FEFFFF" transform="matrix(1.00, 0.00, -0.00, -1.00, 961.1, 430.0)">I</text><text xml:space="preserve" font-family="Akrobat-SemiBold" font-weight="bold" font-size="18.0" fill="#FEFFFF" transform="matrix(1.00, 0.00, -0.00, -1.00, 967.0, 430.0)">N</text><text xml:space="preserve" font-family="Akrobat-SemiBold" font-weight="bold" font-size="18.0" fill="#FEFFFF" transform="matrix(1.00, 0.00, -0.00, -1.00, 978.7, 430.0)">V</text><text xml:space="preserve" font-family="Akrobat-SemiBold" font-weight="bold" font-size="18.0" fill="#FEFFFF" transform="matrix(1.00, 0.00, -0.00, -1.00, 988.7, 430.0)">I</text><text xml:space="preserve" font-family="Akrobat-SemiBold" font-weight="bold" font-size="18.0" fill="#FEFFFF" transform="matrix(1.00, 0.00, -0.00, -1.00, 994.7, 430.0)">T</text><text xml:space="preserve" font-family="Akrobat-SemiBold" font-weight="bold" font-size="18.0" fill="#FEFFFF" transform="matrix(1.00, 0.00, -0.00, -1.00, 1003.9, 430.0)">E</text><text xml:space="preserve" font-family="Akrobat-SemiBold" font-weight="bold" font-size="18.0" fill="#FEFFFF" transform="matrix(1.00, 0.00, -0.00, -1.00, 1014.0, 430.0)">D</text><text xml:space="preserve" font-family="Akrobat-SemiBold" font-weight="bold" font-size="18.0" fill="#FEFFFF" transform="matrix(1.00, 0.00, -0.00, -1.00, 1024.8, 430.0)"> </text><text xml:space="preserve" font-family="Akrobat-SemiBold" font-weight="bold" font-size="18.0" fill="#FEFFFF" transform="matrix(1.00, 0.00, -0.00, -1.00, 1030.6, 430.0)">T</text><text xml:space="preserve" font-family="Akrobat-SemiBold" font-weight="bold" font-size="18.0" fill="#FEFFFF" transform="matrix(1.00, 0.00, -0.00, -1.00, 1040.0, 430.0)">O</text><text xml:space="preserve" font-family="Akrobat-SemiBold" font-weight="bold" font-size="18.0" fill="#FEFFFF" transform="matrix(1.00, 0.00, -0.00, -1.00, 1051.2, 430.0)"> </text><text xml:space="preserve" font-family="Akrobat-SemiBold" font-weight="bold" font-size="18.0" fill="#FEFFFF" transform="matrix(1.00, 0.00, -0.00, -1.00, 1057.0, 430.0)">J</text><text xml:space="preserve" font-family="Akrobat-SemiBold" font-weight="bold" font-size="18.0" fill="#FEFFFF" transform="matrix(1.00, 0.00, -0.00, -1.00, 1063.5, 430.0)">O</text><text xml:space="preserve" font-family="Akrobat-SemiBold" font-weight="bold" font-size="18.0" fill="#FEFFFF" transform="matrix(1.00, 0.00, -0.00, -1.00, 1074.8, 430.0)">I</text><text xml:space="preserve" font-family="Akrobat-SemiBold" font-weight="bold" font-size="18.0" fill="#FEFFFF" transform="matrix(1.00, 0.00, -0.00, -1.00, 1080.7, 430.0)">N</text><text xml:space="preserve" font-family="Akrobat-SemiBold" font-weight="bold" font-size="18.0" fill="#FEFFFF" transform="matrix(1.00, 0.00, -0.00, -1.00, 1092.3, 430.0)">:</text></g></svg>