<?xml version="1.0" encoding="UTF-8" standalone="no"?><svg xmlns="http://www.w3.org/2000/svg" xmlns:xlink="http://www.w3.org/1999/xlink" clip-rule="evenodd" stroke-miterlimit="4.00" viewBox="0 0 424 66"><desc>SVG generated by Keynote</desc><defs></defs><g transform="matrix(1.00, 0.00, -0.00, -1.00, 0.0, 66.0)"><path d="M 0.0 0.0 L 420.0 0.0 L 420.0 61.0 L 0.0 61.0 Z M 0.0 0.0 " fill="none" stroke="#85878C" stroke-width="2.00" transform="matrix(1.00, 0.00, 0.00, -1.00, 2.0, 63.1)"></path><g><clipPath id="clip-355"><path d="M 3.0 3.1 L 421.0 3.1 L 421.0 62.1 L 3.0 62.1 Z M 3.0 3.1 "></path></clipPath><g clip-path="url(#clip-355)"><text xml:space="preserve" font-family="Akrobat-SemiBold" font-weight="bold" font-size="12.0" fill="#000000" transform="matrix(1.00, 0.00, -0.00, -1.00, 195.0, 46.0)">N</text><text xml:space="preserve" font-family="Akrobat-SemiBold" font-weight="bold" font-size="12.0" fill="#000000" transform="matrix(1.00, 0.00, -0.00, -1.00, 202.8, 46.0)">O</text><text xml:space="preserve" font-family="Akrobat-SemiBold" font-weight="bold" font-size="12.0" fill="#000000" transform="matrix(1.00, 0.00, -0.00, -1.00, 210.1, 46.0)">T</text><text xml:space="preserve" font-family="Akrobat-SemiBold" font-weight="bold" font-size="12.0" fill="#000000" transform="matrix(1.00, 0.00, -0.00, -1.00, 216.2, 46.0)">E</text><text xml:space="preserve" font-family="Akrobat-SemiBold" font-weight="bold" font-size="12.0" fill="#000000" transform="matrix(1.00, 0.00, -0.00, -1.00, 222.9, 46.0)">S</text></g></g></g></svg>