<?xml version="1.0" encoding="UTF-8" standalone="no"?><svg xmlns="http://www.w3.org/2000/svg" xmlns:xlink="http://www.w3.org/1999/xlink" clip-rule="evenodd" stroke-miterlimit="4.00" viewBox="0 0 80 80"><desc>SVG generated by Keynote</desc><defs></defs><g transform="matrix(1.00, 0.00, -0.00, -1.00, 0.0, 80.0)"><path d="M 66.1 66.9 C 80.7 52.3 80.7 28.5 66.1 13.9 C 51.4 -0.7 27.7 -0.7 13.0 13.9 C -1.6 28.5 -1.6 52.3 13.0 66.9 C 27.7 81.6 51.4 81.6 66.1 66.9 Z M 66.1 66.9 " fill="#FEFFFF"></path><path d="M 64.0 11.0 C 78.7 25.6 78.7 49.4 64.0 64.0 C 49.4 78.7 25.6 78.7 11.0 64.0 C -3.7 49.4 -3.7 25.6 11.0 11.0 C 25.6 -3.7 49.4 -3.7 64.0 11.0 Z M 64.0 11.0 " fill="none" stroke="#6FBF40" stroke-width="2.00" transform="matrix(1.00, 0.00, 0.00, -1.00, 2.1, 77.9)"></path><g><clipPath id="clip-357"><path d="M 2.1 -0.8 L 77.1 -0.8 L 77.1 81.7 L 2.1 81.7 Z M 2.1 -0.8 "></path></clipPath><g clip-path="url(#clip-357)"><text xml:space="preserve" font-family="Entypo" font-size="55.0" fill="#6FBF40" transform="matrix(1.00, 0.00, -0.00, -1.00, 28.0, 27.0)">✓</text></g></g></g></svg>