<?xml version="1.0" encoding="UTF-8" standalone="no"?><svg xmlns="http://www.w3.org/2000/svg" xmlns:xlink="http://www.w3.org/1999/xlink" clip-rule="evenodd" stroke-miterlimit="4.00" viewBox="0 0 53 53"><desc>SVG generated by Keynote</desc><defs></defs><g transform="matrix(1.00, 0.00, -0.00, -1.00, 0.0, 53.0)"><path d="M 43.0 43.4 C 52.4 34.0 52.4 18.8 43.0 9.4 C 33.6 0.1 18.5 0.1 9.1 9.4 C -0.3 18.8 -0.3 34.0 9.1 43.4 C 18.5 52.7 33.6 52.7 43.0 43.4 Z M 43.0 43.4 " fill="#000000" fill-opacity="0.50"></path><path d="M 41.0 7.0 C 50.3 16.4 50.3 31.6 41.0 41.0 C 31.6 50.3 16.4 50.3 7.0 41.0 C -2.3 31.6 -2.3 16.4 7.0 7.0 C 16.4 -2.3 31.6 -2.3 41.0 7.0 Z M 41.0 7.0 " fill="none" stroke="#47F91C" stroke-width="2.00" transform="matrix(1.00, 0.00, 0.00, -1.00, 2.1, 50.4)"></path><g><clipPath id="clip-2590"><path d="M 1.6 2.4 L 50.6 2.4 L 50.6 50.4 L 1.6 50.4 Z M 1.6 2.4 "></path></clipPath><g clip-path="url(#clip-2590)"><text xml:space="preserve" font-family="Akrobat-Light" font-size="24.0" fill="#48F91B" transform="matrix(1.00, 0.00, -0.00, -1.00, 21.0, 17.0)">A</text></g></g></g></svg>