<?xml version="1.0" encoding="UTF-8" standalone="no"?><svg xmlns="http://www.w3.org/2000/svg" xmlns:xlink="http://www.w3.org/1999/xlink" clip-rule="evenodd" stroke-miterlimit="4.00" viewBox="0 0 53 53"><desc>SVG generated by Keynote</desc><defs></defs><g transform="matrix(1.00, 0.00, -0.00, -1.00, 0.0, 53.0)"><path d="M 43.6 43.4 C 53.0 34.0 53.0 18.8 43.6 9.4 C 34.2 0.1 19.0 0.1 9.7 9.4 C 0.3 18.8 0.3 34.0 9.7 43.4 C 19.0 52.7 34.2 52.7 43.6 43.4 Z M 43.6 43.4 " fill="#000000" fill-opacity="0.49"></path><path d="M 41.0 7.0 C 50.3 16.4 50.3 31.6 41.0 41.0 C 31.6 50.3 16.4 50.3 7.0 41.0 C -2.3 31.6 -2.3 16.4 7.0 7.0 C 16.4 -2.3 31.6 -2.3 41.0 7.0 Z M 41.0 7.0 " fill="none" stroke="#01FCF7" stroke-width="2.00" transform="matrix(1.00, 0.00, 0.00, -1.00, 2.6, 50.4)"></path><g><clipPath id="clip-2598"><path d="M 2.1 2.4 L 51.1 2.4 L 51.1 50.4 L 2.1 50.4 Z M 2.1 2.4 "></path></clipPath><g clip-path="url(#clip-2598)"><text xml:space="preserve" font-family="Akrobat-Light" font-size="24.0" fill="#01FCF8" transform="matrix(1.00, 0.00, -0.00, -1.00, 21.0, 17.0)">B</text></g></g></g></svg>