<?xml version="1.0" encoding="UTF-8" standalone="no"?><svg xmlns="http://www.w3.org/2000/svg" xmlns:xlink="http://www.w3.org/1999/xlink" clip-rule="evenodd" stroke-miterlimit="4.00" viewBox="0 0 1920 1080"><desc>SVG generated by Keynote</desc><defs><linearGradient id="gradSh1.33" x1="0.0" y1="0.0" x2="100.0" y2="0.0" gradientUnits="userSpaceOnUse" gradientTransform="matrix(4.22, 0.00, 0.00, -0.12, 750.6, 745.4)"><stop offset="0.00000" stop-color="#FFBF00"></stop><stop offset="0.01540" stop-color="#FEC000"></stop><stop offset="0.17595" stop-color="#7EFF01"></stop><stop offset="0.17742" stop-color="#7DFF01"></stop><stop offset="0.17815" stop-color="#7CFF02"></stop><stop offset="0.17962" stop-color="#7BFF02"></stop><stop offset="0.18328" stop-color="#78FF04"></stop><stop offset="0.18475" stop-color="#77FF04"></stop><stop offset="0.19428" stop-color="#70FF08"></stop><stop offset="0.19501" stop-color="#6FFF08"></stop><stop offset="0.21481" stop-color="#60FF10"></stop><stop offset="0.21628" stop-color="#5FFF10"></stop><stop offset="0.25660" stop-color="#40FF20"></stop><stop offset="0.25806" stop-color="#3FFF20"></stop><stop offset="0.25953" stop-color="#3EFF21"></stop><stop offset="0.29912" stop-color="#1FFF30"></stop><stop offset="0.30132" stop-color="#1EFF31"></stop><stop offset="0.32038" stop-color="#0FFF38"></stop><stop offset="0.32331" stop-color="#0DFF39"></stop><stop offset="0.33065" stop-color="#07FF3C"></stop><stop offset="0.33284" stop-color="#06FF3D"></stop><stop offset="0.33578" stop-color="#03FF3E"></stop><stop offset="0.33798" stop-color="#02FF3F"></stop><stop offset="0.33871" stop-color="#01FF3F"></stop><stop offset="0.33944" stop-color="#00FF40"></stop><stop offset="0.34091" stop-color="#00FF41"></stop><stop offset="0.62317" stop-color="#007FFF"></stop><stop offset="0.62610" stop-color="#007CFF"></stop><stop offset="0.68109" stop-color="#013FFF"></stop><stop offset="0.68255" stop-color="#023FFF"></stop><stop offset="0.68475" stop-color="#033EFF"></stop><stop offset="0.68548" stop-color="#043EFF"></stop><stop offset="0.68695" stop-color="#053DFF"></stop><stop offset="0.69062" stop-color="#083CFF"></stop><stop offset="0.69355" stop-color="#0A3BFF"></stop><stop offset="0.70088" stop-color="#1039FF"></stop><stop offset="0.70161" stop-color="#1038FF"></stop><stop offset="0.72141" stop-color="#2031FF"></stop><stop offset="0.72361" stop-color="#2131FF"></stop><stop offset="0.76320" stop-color="#4023FF"></stop><stop offset="0.76393" stop-color="#4022FF"></stop><stop offset="0.84677" stop-color="#8005FF"></stop><stop offset="0.84897" stop-color="#8104FF"></stop><stop offset="0.85044" stop-color="#8205FE"></stop><stop offset="1.00000" stop-color="#942177"></stop></linearGradient></defs><g transform="matrix(1.00, 0.00, -0.00, -1.00, 0.0, 1080.0)"><path d="M 0.0 1080.0 L 1920.0 1080.0 L 1920.0 0.0 L 0.0 0.0 Z M 0.0 1080.0 " fill="#FEFFFF"></path><g><clipPath id="clip-1057"><path d="M 712.0 1047.0 L 1209.0 1047.0 L 1209.0 33.0 L 712.0 33.0 Z M 711.5 1047.0 "></path></clipPath><g clip-path="url(#clip-1057)"><g><clipPath id="clip-1058"><path d="M 1206.0 757.0 L 1207.5 757.0 C 1208.3 757.0 1209.0 757.7 1209.0 758.5 L 1209.0 830.5 C 1209.0 831.3 1208.3 832.0 1207.5 832.0 L 1206.0 832.0 L 1206.0 972.0 C 1206.0 1013.4 1172.4 1047.0 1131.0 1047.0 L 790.0 1047.0 C 748.6 1047.0 715.0 1013.4 715.0 972.0 L 715.0 919.0 L 713.5 919.0 C 712.7 919.0 712.0 918.3 712.0 917.5 L 712.0 879.5 C 712.0 878.7 712.7 878.0 713.5 878.0 L 715.0 878.0 L 715.0 832.0 L 713.5 832.0 C 712.7 832.0 712.0 831.3 712.0 830.5 L 712.0 758.5 C 712.0 757.7 712.7 757.0 713.5 757.0 L 715.0 757.0 L 715.0 740.0 L 713.5 740.0 C 712.7 740.0 712.0 739.3 712.0 738.5 L 712.0 666.5 C 712.0 665.7 712.7 665.0 713.5 665.0 L 715.0 665.0 L 715.0 108.0 C 715.0 66.6 748.6 33.0 790.0 33.0 L 1131.0 33.0 C 1172.4 33.0 1206.0 66.6 1206.0 108.0 L 1206.0 757.0 L 1206.0 757.0 L 1206.0 757.0 Z M 745.0 924.0 L 745.0 158.0 L 1176.0 158.0 L 1176.0 924.0 L 745.0 924.0 L 745.0 924.0 Z M 960.0 64.0 C 981.0 64.0 998.0 81.0 998.0 102.0 C 998.0 123.0 981.0 140.0 960.0 140.0 C 939.0 140.0 922.0 123.0 922.0 102.0 C 922.0 81.0 939.0 64.0 960.0 64.0 L 960.0 64.0 Z M 960.0 68.0 C 978.8 68.0 994.0 83.2 994.0 102.0 C 994.0 120.8 978.8 136.0 960.0 136.0 C 941.2 136.0 926.0 120.8 926.0 102.0 C 926.0 83.2 941.2 68.0 960.0 68.0 L 960.0 68.0 Z M 882.0 975.0 C 886.4 975.0 890.0 978.6 890.0 983.0 C 890.0 987.4 886.4 991.0 882.0 991.0 C 877.6 991.0 874.0 987.4 874.0 983.0 C 874.0 978.6 877.6 975.0 882.0 975.0 L 882.0 975.0 Z M 961.0 1010.0 C 963.8 1010.0 966.0 1012.2 966.0 1015.0 C 966.0 1017.8 963.8 1020.0 961.0 1020.0 C 958.2 1020.0 956.0 1017.8 956.0 1015.0 C 956.0 1012.2 958.2 1010.0 961.0 1010.0 L 961.0 1010.0 Z M 925.0 987.0 C 922.8 987.0 921.0 985.2 921.0 983.0 C 921.0 980.8 922.8 979.0 925.0 979.0 L 997.0 979.0 C 999.2 979.0 1001.0 980.8 1001.0 983.0 C 1001.0 985.2 999.2 987.0 997.0 987.0 L 925.0 987.0 L 925.0 987.0 Z M 925.0 987.0 "></path></clipPath><g clip-path="url(#clip-1058)"><g><clipPath id="clip-1059"><path d="M 712.0 33.0 L 1209.0 33.0 L 1209.0 1047.0 L 712.0 1047.0 Z M 712.0 33.0 "></path></clipPath><g clip-path="url(#clip-1059)"><path d="M 707.0 1052.0 L 1214.0 1052.0 L 1214.0 28.0 L 707.0 28.0 Z M 707.0 1052.0 " fill="#000000"></path></g></g></g></g></g></g><path d="M 743.8 924.7 L 1176.2 924.7 L 1176.2 157.3 L 743.8 157.3 Z M 743.8 924.7 " fill="#000000"></path><g opacity="0.38"><g><clipPath id="clip-1060"><path d="M 744.0 925.0 L 1176.0 925.0 L 1176.0 155.0 L 744.0 155.0 Z M 744.1 924.5 "></path></clipPath><g clip-path="url(#clip-1060)"><g><clipPath id="clip-1061"><path d="M 743.0 154.0 L 1177.0 154.0 L 1177.0 926.0 L 743.0 926.0 Z M 743.0 154.0 "></path></clipPath><g clip-path="url(#clip-1061)"><image xlink:href="../../F28C9CA0-A05A-4A2C-90F7-8BC49B335395/assets/EC732C86881DD7D4A26BF59C69194A10.png" width="813.00" height="540.00" transform="matrix(1.43, 0.00, -0.00, -1.43, 160.0, 925.0)"></image></g></g></g></g></g><image xlink:href="../../F28C9CA0-A05A-4A2C-90F7-8BC49B335395/assets/20064BB011BBDF5DF94BD6FDEAB4DB4C.png" width="106.00" height="101.00" transform="matrix(0.49, 0.00, -0.00, -0.50, 937.0, 916.0)"></image><image xlink:href="../../F28C9CA0-A05A-4A2C-90F7-8BC49B335395/assets/1DA3DC7FF4F320EB7CB273595CED7E5B.png" width="555.00" height="200.00" transform="matrix(0.50, 0.00, -0.00, -0.50, 1591.0, 150.0)"></image><path d="M 750.0 855.6 L 1170.0 855.6 L 1170.0 810.6 L 750.0 810.6 Z M 750.0 855.6 " fill="#797979"></path><path d="M 0.0 0.0 L 420.0 0.0 L 420.0 45.0 L 0.0 45.0 Z M 0.0 0.0 " fill="none" stroke="#52575F" stroke-width="1.00" transform="matrix(1.00, 0.00, 0.00, -1.00, 750.0, 855.6)"></path><g><clipPath id="clip-1062"><path d="M 745.5 806.1 L 1174.5 806.1 L 1174.5 860.1 L 745.5 860.1 Z M 745.5 806.1 "></path></clipPath><g clip-path="url(#clip-1062)"><text xml:space="preserve" font-family="Akrobat-Light" font-size="30.0" fill="#FEFFFF" transform="matrix(1.00, 0.00, -0.00, -1.00, 931.0, 821.0)">F</text><text xml:space="preserve" font-family="Akrobat-Light" font-size="30.0" fill="#FEFFFF" transform="matrix(1.00, 0.00, -0.00, -1.00, 946.5, 821.0)">I</text><text xml:space="preserve" font-family="Akrobat-Light" font-size="30.0" fill="#FEFFFF" transform="matrix(1.00, 0.00, -0.00, -1.00, 955.8, 821.0)">N</text><text xml:space="preserve" font-family="Akrobat-Light" font-size="30.0" fill="#FEFFFF" transform="matrix(1.00, 0.00, -0.00, -1.00, 974.8, 821.0)">D</text></g></g><path d="M 750.0 805.5 L 1170.0 805.5 L 1170.0 760.5 L 750.0 760.5 Z M 750.0 805.5 " fill="#797979"></path><path d="M 0.0 0.0 L 420.0 0.0 L 420.0 45.0 L 0.0 45.0 Z M 0.0 0.0 " fill="none" stroke="#52575F" stroke-width="1.00" transform="matrix(1.00, 0.00, 0.00, -1.00, 750.0, 805.5)"></path><g><clipPath id="clip-1063"><path d="M 745.5 756.0 L 1174.5 756.0 L 1174.5 810.0 L 745.5 810.0 Z M 745.5 756.0 "></path></clipPath><g clip-path="url(#clip-1063)"><text xml:space="preserve" font-family="Akrobat-Light" font-size="30.0" fill="#FEFFFF" transform="matrix(1.00, 0.00, -0.00, -1.00, 897.0, 771.0)">D</text><text xml:space="preserve" font-family="Akrobat-Light" font-size="30.0" fill="#FEFFFF" transform="matrix(1.00, 0.00, -0.00, -1.00, 914.8, 771.0)">I</text><text xml:space="preserve" font-family="Akrobat-Light" font-size="30.0" fill="#FEFFFF" transform="matrix(1.00, 0.00, -0.00, -1.00, 924.0, 771.0)">S</text><text xml:space="preserve" font-family="Akrobat-Light" font-size="30.0" fill="#FEFFFF" transform="matrix(1.00, 0.00, -0.00, -1.00, 940.2, 771.0)">C</text><text xml:space="preserve" font-family="Akrobat-Light" font-size="30.0" fill="#FEFFFF" transform="matrix(1.00, 0.00, -0.00, -1.00, 957.4, 771.0)">O</text><text xml:space="preserve" font-family="Akrobat-Light" font-size="30.0" fill="#FEFFFF" transform="matrix(1.00, 0.00, -0.00, -1.00, 975.8, 771.0)">V</text><text xml:space="preserve" font-family="Akrobat-Light" font-size="30.0" fill="#FEFFFF" transform="matrix(1.00, 0.00, -0.00, -1.00, 991.9, 771.0)">E</text><text xml:space="preserve" font-family="Akrobat-Light" font-size="30.0" fill="#FEFFFF" transform="matrix(1.00, 0.00, -0.00, -1.00, 1008.3, 771.0)">R</text></g></g><path d="M 750.0 207.4 L 1170.0 207.4 L 1170.0 162.4 L 750.0 162.4 Z M 750.0 207.4 " fill="#797979"></path><path d="M 0.0 0.0 L 420.0 0.0 L 420.0 45.0 L 0.0 45.0 Z M 0.0 0.0 " fill="none" stroke="#52575F" stroke-width="1.00" transform="matrix(1.00, 0.00, 0.00, -1.00, 750.0, 207.4)"></path><g><clipPath id="clip-1064"><path d="M 745.5 157.9 L 1174.5 157.9 L 1174.5 211.9 L 745.5 211.9 Z M 745.5 157.9 "></path></clipPath><g clip-path="url(#clip-1064)"><text xml:space="preserve" font-family="Akrobat-Light" font-size="30.0" fill="#FEFFFF" transform="matrix(1.00, 0.00, -0.00, -1.00, 892.0, 173.0)">F</text><text xml:space="preserve" font-family="Akrobat-Light" font-size="30.0" fill="#FEFFFF" transform="matrix(1.00, 0.00, -0.00, -1.00, 906.6, 173.0)">A</text><text xml:space="preserve" font-family="Akrobat-Light" font-size="30.0" fill="#FEFFFF" transform="matrix(1.00, 0.00, -0.00, -1.00, 922.5, 173.0)">V</text><text xml:space="preserve" font-family="Akrobat-Light" font-size="30.0" fill="#FEFFFF" transform="matrix(1.00, 0.00, -0.00, -1.00, 938.6, 173.0)">O</text><text xml:space="preserve" font-family="Akrobat-Light" font-size="30.0" fill="#FEFFFF" transform="matrix(1.00, 0.00, -0.00, -1.00, 957.0, 173.0)">R</text><text xml:space="preserve" font-family="Akrobat-Light" font-size="30.0" fill="#FEFFFF" transform="matrix(1.00, 0.00, -0.00, -1.00, 974.2, 173.0)">I</text><text xml:space="preserve" font-family="Akrobat-Light" font-size="30.0" fill="#FEFFFF" transform="matrix(1.00, 0.00, -0.00, -1.00, 983.4, 173.0)">T</text><text xml:space="preserve" font-family="Akrobat-Light" font-size="30.0" fill="#FEFFFF" transform="matrix(1.00, 0.00, -0.00, -1.00, 998.4, 173.0)">E</text><text xml:space="preserve" font-family="Akrobat-Light" font-size="30.0" fill="#FEFFFF" transform="matrix(1.00, 0.00, -0.00, -1.00, 1014.8, 173.0)">S</text></g></g><text xml:space="preserve" font-family="Akrobat-SemiBold" font-weight="bold" font-size="14.0" fill="#FEFFFF" transform="matrix(1.00, 0.00, -0.00, -1.00, 758.0, 281.0)">#</text><text xml:space="preserve" font-family="Akrobat-SemiBold" font-weight="bold" font-size="14.0" fill="#FEFFFF" transform="matrix(1.00, 0.00, -0.00, -1.00, 767.7, 281.0)"> </text><text xml:space="preserve" font-family="Akrobat-SemiBold" font-weight="bold" font-size="14.0" fill="#FEFFFF" transform="matrix(1.00, 0.00, -0.00, -1.00, 772.2, 281.0)">G</text><text xml:space="preserve" font-family="Akrobat-SemiBold" font-weight="bold" font-size="14.0" fill="#FEFFFF" transform="matrix(1.00, 0.00, -0.00, -1.00, 780.6, 281.0)">U</text><text xml:space="preserve" font-family="Akrobat-SemiBold" font-weight="bold" font-size="14.0" fill="#FEFFFF" transform="matrix(1.00, 0.00, -0.00, -1.00, 789.3, 281.0)">E</text><text xml:space="preserve" font-family="Akrobat-SemiBold" font-weight="bold" font-size="14.0" fill="#FEFFFF" transform="matrix(1.00, 0.00, -0.00, -1.00, 797.1, 281.0)">S</text><text xml:space="preserve" font-family="Akrobat-SemiBold" font-weight="bold" font-size="14.0" fill="#FEFFFF" transform="matrix(1.00, 0.00, -0.00, -1.00, 804.9, 281.0)">T</text><text xml:space="preserve" font-family="Akrobat-SemiBold" font-weight="bold" font-size="14.0" fill="#FEFFFF" transform="matrix(1.00, 0.00, -0.00, -1.00, 812.2, 281.0)">S</text><text xml:space="preserve" font-family="Akrobat-SemiBold" font-weight="bold" font-size="14.0" fill="#FEFFFF" transform="matrix(1.00, 0.00, -0.00, -1.00, 758.0, 397.0)">L</text><text xml:space="preserve" font-family="Akrobat-SemiBold" font-weight="bold" font-size="14.0" fill="#FEFFFF" transform="matrix(1.00, 0.00, -0.00, -1.00, 765.1, 397.0)">O</text><text xml:space="preserve" font-family="Akrobat-SemiBold" font-weight="bold" font-size="14.0" fill="#FEFFFF" transform="matrix(1.00, 0.00, -0.00, -1.00, 773.8, 397.0)">C</text><text xml:space="preserve" font-family="Akrobat-SemiBold" font-weight="bold" font-size="14.0" fill="#FEFFFF" transform="matrix(1.00, 0.00, -0.00, -1.00, 781.7, 397.0)">A</text><text xml:space="preserve" font-family="Akrobat-SemiBold" font-weight="bold" font-size="14.0" fill="#FEFFFF" transform="matrix(1.00, 0.00, -0.00, -1.00, 789.2, 397.0)">T</text><text xml:space="preserve" font-family="Akrobat-SemiBold" font-weight="bold" font-size="14.0" fill="#FEFFFF" transform="matrix(1.00, 0.00, -0.00, -1.00, 796.4, 397.0)">I</text><text xml:space="preserve" font-family="Akrobat-SemiBold" font-weight="bold" font-size="14.0" fill="#FEFFFF" transform="matrix(1.00, 0.00, -0.00, -1.00, 801.0, 397.0)">O</text><text xml:space="preserve" font-family="Akrobat-SemiBold" font-weight="bold" font-size="14.0" fill="#FEFFFF" transform="matrix(1.00, 0.00, -0.00, -1.00, 809.7, 397.0)">N</text><text xml:space="preserve" font-family="Akrobat-SemiBold" font-weight="bold" font-size="14.0" fill="#FEFFFF" transform="matrix(1.00, 0.00, -0.00, -1.00, 758.0, 339.0)">D</text><text xml:space="preserve" font-family="Akrobat-SemiBold" font-weight="bold" font-size="14.0" fill="#FEFFFF" transform="matrix(1.00, 0.00, -0.00, -1.00, 766.3, 339.0)">A</text><text xml:space="preserve" font-family="Akrobat-SemiBold" font-weight="bold" font-size="14.0" fill="#FEFFFF" transform="matrix(1.00, 0.00, -0.00, -1.00, 773.7, 339.0)">T</text><text xml:space="preserve" font-family="Akrobat-SemiBold" font-weight="bold" font-size="14.0" fill="#FEFFFF" transform="matrix(1.00, 0.00, -0.00, -1.00, 780.9, 339.0)">E</text><text xml:space="preserve" font-family="Akrobat-SemiBold" font-weight="bold" font-size="14.0" fill="#FEFFFF" transform="matrix(1.00, 0.00, -0.00, -1.00, 788.7, 339.0)">S</text><g opacity="0.25"><g><clipPath id="clip-1065"><path d="M 753.0 383.0 L 1167.0 383.0 L 1167.0 387.0 L 753.0 387.0 Z M 753.0 383.0 "></path></clipPath><g clip-path="url(#clip-1065)"><path d="M 0.0 0.0 L 410.8 0.0 " fill="none" stroke="#FEFFFF" stroke-width="1.00" transform="matrix(1.00, 0.00, 0.00, -1.00, 754.6, 385.0)"></path></g></g></g><g opacity="0.25"><g><clipPath id="clip-1066"><path d="M 753.0 324.0 L 1167.0 324.0 L 1167.0 328.0 L 753.0 328.0 Z M 753.0 324.0 "></path></clipPath><g clip-path="url(#clip-1066)"><path d="M 0.0 0.0 L 410.8 0.0 " fill="none" stroke="#FEFFFF" stroke-width="1.00" transform="matrix(1.00, 0.00, 0.00, -1.00, 754.6, 325.8)"></path></g></g></g><g opacity="0.25"><g><clipPath id="clip-1067"><path d="M 756.0 267.0 L 1170.0 267.0 L 1170.0 271.0 L 756.0 271.0 Z M 756.0 267.0 "></path></clipPath><g clip-path="url(#clip-1067)"><path d="M 0.0 0.0 L 410.8 0.0 " fill="none" stroke="#FEFFFF" stroke-width="1.00" transform="matrix(1.00, 0.00, 0.00, -1.00, 757.6, 269.1)"></path></g></g></g><g><clipPath id="clip-1068"><path d="M 961.0 740.0 L 1171.0 740.0 L 1171.0 440.0 L 961.0 440.0 Z M 961.2 740.4 "></path></clipPath><g clip-path="url(#clip-1068)"><image xlink:href="../../852D5869-872B-4984-98EF-AC2DB5F4A5AA/assets/BF0F8BA60D9F0758313BE27EE84F9B5F.png" width="806.00" height="535.00" transform="matrix(0.60, 0.00, -0.00, -0.57, 825.0, 740.0)"></image></g></g><g><clipPath id="clip-1069"><path d="M 752.0 740.0 L 962.0 740.0 L 962.0 440.0 L 752.0 440.0 Z M 752.0 740.2 "></path></clipPath><g clip-path="url(#clip-1069)"><image xlink:href="../../852D5869-872B-4984-98EF-AC2DB5F4A5AA/assets/9D3CBD253A2B895B5B8A41004E8C3402.png" width="850.00" height="566.00" transform="matrix(0.60, 0.00, -0.00, -0.57, 498.0, 752.0)"></image></g></g><g><clipPath id="clip-1070"><path d="M 751.6 750.4 L 1171.6 750.4 L 1171.6 740.4 L 751.6 740.4 Z M 751.6 750.4 "></path></clipPath><g clip-path="url(#clip-1070)"><path d="M 751.6 750.4 L 1171.6 750.4 L 1171.6 740.4 L 751.6 740.4 Z M 751.6 750.4 " fill="url(#gradSh1.33)"></path></g></g><path d="M 960.6 748.4 L 966.1 737.3 L 955.0 737.3 Z M 960.6 748.4 " fill="#0267FF"></path><path d="M 5.5 0.0 L 11.1 11.1 L 0.0 11.1 Z M 5.5 0.0 " fill="none" stroke="#FEFFFF" stroke-width="1.00" transform="matrix(1.00, 0.00, 0.00, -1.00, 955.0, 748.4)"></path><path d="M 1160.6 483.3 C 1170.0 473.9 1170.0 458.7 1160.6 449.3 C 1151.2 440.0 1136.0 440.0 1126.7 449.3 C 1117.3 458.7 1117.3 473.9 1126.7 483.3 C 1136.0 492.7 1151.2 492.7 1160.6 483.3 Z M 1160.6 483.3 " fill="#000000" fill-opacity="0.50"></path><path d="M 41.0 7.0 C 50.3 16.4 50.3 31.6 41.0 41.0 C 31.6 50.3 16.4 50.3 7.0 41.0 C -2.3 31.6 -2.3 16.4 7.0 7.0 C 16.4 -2.3 31.6 -2.3 41.0 7.0 Z M 41.0 7.0 " fill="none" stroke="#D02ECD" stroke-width="2.00" transform="matrix(1.00, 0.00, 0.00, -1.00, 1119.6, 490.3)"></path><g><clipPath id="clip-1071"><path d="M 1119.1 442.3 L 1168.1 442.3 L 1168.1 490.3 L 1119.1 490.3 Z M 1119.1 442.3 "></path></clipPath><g clip-path="url(#clip-1071)"><text xml:space="preserve" font-family="Akrobat-Light" font-size="24.0" fill="#D82FD6" transform="matrix(1.00, 0.00, -0.00, -1.00, 1138.0, 457.0)">B</text></g></g><path d="M 795.5 483.9 C 804.8 474.5 804.8 459.3 795.5 449.9 C 786.1 440.6 770.9 440.6 761.5 449.9 C 752.1 459.3 752.1 474.5 761.5 483.9 C 770.9 493.2 786.1 493.2 795.5 483.9 Z M 795.5 483.9 " fill="#000000" fill-opacity="0.50"></path><path d="M 41.0 7.0 C 50.3 16.4 50.3 31.6 41.0 41.0 C 31.6 50.3 16.4 50.3 7.0 41.0 C -2.3 31.6 -2.3 16.4 7.0 7.0 C 16.4 -2.3 31.6 -2.3 41.0 7.0 Z M 41.0 7.0 " fill="none" stroke="#FF9200" stroke-width="2.00" transform="matrix(1.00, 0.00, 0.00, -1.00, 754.5, 490.9)"></path><g><clipPath id="clip-1072"><path d="M 754.0 442.9 L 803.0 442.9 L 803.0 490.9 L 754.0 490.9 Z M 754.0 442.9 "></path></clipPath><g clip-path="url(#clip-1072)"><text xml:space="preserve" font-family="Akrobat-Light" font-size="24.0" fill="#FF9200" transform="matrix(1.00, 0.00, -0.00, -1.00, 773.0, 457.0)">A</text></g></g><path d="M 1160.3 903.6 C 1167.3 896.5 1167.3 885.1 1160.3 878.1 C 1153.2 871.1 1141.8 871.1 1134.8 878.1 C 1127.8 885.1 1127.8 896.5 1134.8 903.6 C 1141.8 910.6 1153.2 910.6 1160.3 903.6 Z M 1160.3 903.6 " fill="#FEFFFF" fill-opacity="0.30"></path><path d="M 30.7 5.3 C 37.8 12.3 37.8 23.7 30.7 30.7 C 23.7 37.8 12.3 37.8 5.3 30.7 C -1.8 23.7 -1.8 12.3 5.3 5.3 C 12.3 -1.8 23.7 -1.8 30.7 5.3 Z M 30.7 5.3 " fill="none" stroke="#FEFFFF" stroke-width="2.00" transform="matrix(1.00, 0.00, 0.00, -1.00, 1129.5, 908.8)"></path><g><clipPath id="clip-1073"><path d="M 1129.5 869.8 L 1165.5 869.8 L 1165.5 911.8 L 1129.5 911.8 Z M 1129.5 869.8 "></path></clipPath><g clip-path="url(#clip-1073)"><text xml:space="preserve" font-family="Entypo" font-size="28.0" fill="#FEFFFF" transform="matrix(1.00, 0.00, -0.00, -1.00, 1140.0, 884.0)">⚙</text></g></g></g></svg>