<?xml version="1.0" encoding="UTF-8" standalone="no"?><svg xmlns="http://www.w3.org/2000/svg" xmlns:xlink="http://www.w3.org/1999/xlink" clip-rule="evenodd" stroke-miterlimit="4.00" viewBox="0 0 1920 1080"><desc>SVG generated by Keynote</desc><defs></defs><g transform="matrix(1.00, 0.00, -0.00, -1.00, 0.0, 1080.0)"><path d="M 0.0 1080.0 L 1920.0 1080.0 L 1920.0 0.0 L 0.0 0.0 Z M 0.0 1080.0 " fill="#FEFFFF"></path><path d="M -2.5 1081.5 L 1922.5 1081.5 L 1922.5 901.5 L -2.5 901.5 Z M -2.5 1081.5 " fill="#BFBFBF"></path><path d="M -2.5 179.9 L 1922.5 179.9 L 1922.5 -0.1 L -2.5 -0.1 Z M -2.5 179.9 " fill="#BFBFBF"></path><text xml:space="preserve" font-family="Akrobat-Bold" font-weight="bold" font-size="18.0" fill="#000000" transform="matrix(1.00, 0.00, -0.00, -1.00, 1303.0, 273.0)">w</text><text xml:space="preserve" font-family="Akrobat-Bold" font-weight="bold" font-size="18.0" fill="#000000" transform="matrix(1.00, 0.00, -0.00, -1.00, 1314.7, 273.0)">w</text><text xml:space="preserve" font-family="Akrobat-Bold" font-weight="bold" font-size="18.0" fill="#000000" transform="matrix(1.00, 0.00, -0.00, -1.00, 1326.3, 273.0)">w</text><text xml:space="preserve" font-family="Akrobat-Bold" font-weight="bold" font-size="18.0" fill="#000000" transform="matrix(1.00, 0.00, -0.00, -1.00, 1336.8, 273.0)">.</text><text xml:space="preserve" font-family="Akrobat-Bold" font-weight="bold" font-size="18.0" fill="#000000" transform="matrix(1.00, 0.00, -0.00, -1.00, 1340.2, 273.0)">c</text><text xml:space="preserve" font-family="Akrobat-Bold" font-weight="bold" font-size="18.0" fill="#000000" transform="matrix(1.00, 0.00, -0.00, -1.00, 1348.0, 273.0)">r</text><text xml:space="preserve" font-family="Akrobat-Bold" font-weight="bold" font-size="18.0" fill="#000000" transform="matrix(1.00, 0.00, -0.00, -1.00, 1354.1, 273.0)">a</text><text xml:space="preserve" font-family="Akrobat-Bold" font-weight="bold" font-size="18.0" fill="#000000" transform="matrix(1.00, 0.00, -0.00, -1.00, 1362.2, 273.0)">n</text><text xml:space="preserve" font-family="Akrobat-Bold" font-weight="bold" font-size="18.0" fill="#000000" transform="matrix(1.00, 0.00, -0.00, -1.00, 1370.7, 273.0)">f</text><text xml:space="preserve" font-family="Akrobat-Bold" font-weight="bold" font-size="18.0" fill="#000000" transform="matrix(1.00, 0.00, -0.00, -1.00, 1376.2, 273.0)">o</text><text xml:space="preserve" font-family="Akrobat-Bold" font-weight="bold" font-size="18.0" fill="#000000" transform="matrix(1.00, 0.00, -0.00, -1.00, 1384.5, 273.0)">r</text><text xml:space="preserve" font-family="Akrobat-Bold" font-weight="bold" font-size="18.0" fill="#000000" transform="matrix(1.00, 0.00, -0.00, -1.00, 1390.5, 273.0)">d</text><text xml:space="preserve" font-family="Akrobat-Bold" font-weight="bold" font-size="18.0" fill="#000000" transform="matrix(1.00, 0.00, -0.00, -1.00, 1398.9, 273.0)">t</text><text xml:space="preserve" font-family="Akrobat-Bold" font-weight="bold" font-size="18.0" fill="#000000" transform="matrix(1.00, 0.00, -0.00, -1.00, 1404.6, 273.0)">e</text><text xml:space="preserve" font-family="Akrobat-Bold" font-weight="bold" font-size="18.0" fill="#000000" transform="matrix(1.00, 0.00, -0.00, -1.00, 1412.8, 273.0)">a</text><text xml:space="preserve" font-family="Akrobat-Bold" font-weight="bold" font-size="18.0" fill="#000000" transform="matrix(1.00, 0.00, -0.00, -1.00, 1421.0, 273.0)">g</text><text xml:space="preserve" font-family="Akrobat-Bold" font-weight="bold" font-size="18.0" fill="#000000" transform="matrix(1.00, 0.00, -0.00, -1.00, 1429.5, 273.0)">u</text><text xml:space="preserve" font-family="Akrobat-Bold" font-weight="bold" font-size="18.0" fill="#000000" transform="matrix(1.00, 0.00, -0.00, -1.00, 1437.9, 273.0)">e</text><text xml:space="preserve" font-family="Akrobat-Bold" font-weight="bold" font-size="18.0" fill="#000000" transform="matrix(1.00, 0.00, -0.00, -1.00, 1446.1, 273.0)">.</text><text xml:space="preserve" font-family="Akrobat-Bold" font-weight="bold" font-size="18.0" fill="#000000" transform="matrix(1.00, 0.00, -0.00, -1.00, 1449.6, 273.0)">c</text><text xml:space="preserve" font-family="Akrobat-Bold" font-weight="bold" font-size="18.0" fill="#000000" transform="matrix(1.00, 0.00, -0.00, -1.00, 1457.4, 273.0)">o</text><text xml:space="preserve" font-family="Akrobat-Bold" font-weight="bold" font-size="18.0" fill="#000000" transform="matrix(1.00, 0.00, -0.00, -1.00, 1465.8, 273.0)">m</text><image xlink:href="../../F28C9CA0-A05A-4A2C-90F7-8BC49B335395/assets/C81748EE4541B41AB8E62948DB0A057F.png" width="498.00" height="100.00" transform="matrix(1.00, 0.00, -0.00, -1.00, 1300.0, 364.0)"></image><text xml:space="preserve" font-family="Akrobat-Bold" font-weight="bold" font-size="18.0" fill="#000000" transform="matrix(1.00, 0.00, -0.00, -1.00, 1303.0, 389.0)">D</text><text xml:space="preserve" font-family="Akrobat-Bold" font-weight="bold" font-size="18.0" fill="#000000" transform="matrix(1.00, 0.00, -0.00, -1.00, 1312.0, 389.0)">e</text><text xml:space="preserve" font-family="Akrobat-Bold" font-weight="bold" font-size="18.0" fill="#000000" transform="matrix(1.00, 0.00, -0.00, -1.00, 1320.2, 389.0)">s</text><text xml:space="preserve" font-family="Akrobat-Bold" font-weight="bold" font-size="18.0" fill="#000000" transform="matrix(1.00, 0.00, -0.00, -1.00, 1327.7, 389.0)">i</text><text xml:space="preserve" font-family="Akrobat-Bold" font-weight="bold" font-size="18.0" fill="#000000" transform="matrix(1.00, 0.00, -0.00, -1.00, 1331.5, 389.0)">g</text><text xml:space="preserve" font-family="Akrobat-Bold" font-weight="bold" font-size="18.0" fill="#000000" transform="matrix(1.00, 0.00, -0.00, -1.00, 1340.0, 389.0)">n</text><text xml:space="preserve" font-family="Akrobat-Bold" font-weight="bold" font-size="18.0" fill="#000000" transform="matrix(1.00, 0.00, -0.00, -1.00, 1348.5, 389.0)">e</text><text xml:space="preserve" font-family="Akrobat-Bold" font-weight="bold" font-size="18.0" fill="#000000" transform="matrix(1.00, 0.00, -0.00, -1.00, 1356.6, 389.0)">d</text><text xml:space="preserve" font-family="Akrobat-Bold" font-weight="bold" font-size="18.0" fill="#000000" transform="matrix(1.00, 0.00, -0.00, -1.00, 1365.0, 389.0)"> </text><text xml:space="preserve" font-family="Akrobat-Bold" font-weight="bold" font-size="18.0" fill="#000000" transform="matrix(1.00, 0.00, -0.00, -1.00, 1368.9, 389.0)">b</text><text xml:space="preserve" font-family="Akrobat-Bold" font-weight="bold" font-size="18.0" fill="#000000" transform="matrix(1.00, 0.00, -0.00, -1.00, 1376.9, 389.0)">y</text><text xml:space="preserve" font-family="Akrobat-Bold" font-weight="bold" font-size="18.0" fill="#000000" transform="matrix(1.00, 0.00, -0.00, -1.00, 1384.4, 389.0)">:</text><image xlink:href="../../F28C9CA0-A05A-4A2C-90F7-8BC49B335395/assets/1DA3DC7FF4F320EB7CB273595CED7E5B.png" width="555.00" height="200.00" transform="matrix(1.00, 0.00, -0.00, -1.00, 177.0, 732.0)"></image><g><clipPath id="clip-1074"><path d="M 162.6 445.8 L 1092.3 445.8 L 1092.3 537.8 L 162.6 537.8 Z M 162.6 445.8 "></path></clipPath><g clip-path="url(#clip-1074)"><text xml:space="preserve" font-family="JosefinSans" font-size="84.0" fill="#000000" transform="matrix(1.00, 0.00, -0.00, -1.00, 184.0, 458.0)">G</text><text xml:space="preserve" font-family="JosefinSans" font-size="84.0" fill="#000000" transform="matrix(1.00, 0.00, -0.00, -1.00, 240.1, 458.0)">u</text><text xml:space="preserve" font-family="JosefinSans" font-size="84.0" fill="#000000" transform="matrix(1.00, 0.00, -0.00, -1.00, 280.6, 458.0)">e</text><text xml:space="preserve" font-family="JosefinSans" font-size="84.0" fill="#000000" transform="matrix(1.00, 0.00, -0.00, -1.00, 318.9, 458.0)">s</text><text xml:space="preserve" font-family="JosefinSans" font-size="84.0" fill="#000000" transform="matrix(1.00, 0.00, -0.00, -1.00, 346.8, 458.0)">t</text><text xml:space="preserve" font-family="JosefinSans" font-size="84.0" fill="#000000" transform="matrix(1.00, 0.00, -0.00, -1.00, 369.2, 458.0)"> </text><text xml:space="preserve" font-family="JosefinSans" font-size="84.0" fill="#000000" transform="matrix(1.00, 0.00, -0.00, -1.00, 386.6, 458.0)">V</text><text xml:space="preserve" font-family="JosefinSans" font-size="84.0" fill="#000000" transform="matrix(1.00, 0.00, -0.00, -1.00, 436.7, 458.0)">i</text><text xml:space="preserve" font-family="JosefinSans" font-size="84.0" fill="#000000" transform="matrix(1.00, 0.00, -0.00, -1.00, 452.7, 458.0)">e</text><text xml:space="preserve" font-family="JosefinSans" font-size="84.0" fill="#000000" transform="matrix(1.00, 0.00, -0.00, -1.00, 490.6, 458.0)">w</text></g></g></g></svg>