<?xml version="1.0" encoding="UTF-8" standalone="no"?><svg xmlns="http://www.w3.org/2000/svg" xmlns:xlink="http://www.w3.org/1999/xlink" clip-rule="evenodd" stroke-miterlimit="4.00" viewBox="0 0 1017 500"><desc>SVG generated by Keynote</desc><defs></defs><g transform="matrix(1.00, 0.00, -0.00, -1.00, 0.0, 500.0)"><g><clipPath id="clip-3372"><path d="M 1015.0 1.0 L 1015.0 498.0 L 1.0 498.0 L 1.0 1.0 Z M 1015.0 1.0 "></path></clipPath><g clip-path="url(#clip-3372)"><g><clipPath id="clip-3373"><path d="M 291.0 495.0 L 291.0 496.5 C 291.0 497.3 290.3 498.0 289.5 498.0 L 217.5 498.0 C 216.7 498.0 216.0 497.3 216.0 496.5 L 216.0 495.0 L 76.0 495.0 C 34.6 495.0 1.0 461.4 1.0 420.0 L 1.0 79.0 C 1.0 37.6 34.6 4.0 76.0 4.0 L 129.0 4.0 L 129.0 2.5 C 129.0 1.7 129.7 1.0 130.5 1.0 L 168.5 1.0 C 169.3 1.0 170.0 1.7 170.0 2.5 L 170.0 4.0 L 216.0 4.0 L 216.0 2.5 C 216.0 1.7 216.7 1.0 217.5 1.0 L 289.5 1.0 C 290.3 1.0 291.0 1.7 291.0 2.5 L 291.0 4.0 L 308.0 4.0 L 308.0 2.5 C 308.0 1.7 308.7 1.0 309.5 1.0 L 381.5 1.0 C 382.3 1.0 383.0 1.7 383.0 2.5 L 383.0 4.0 L 940.0 4.0 C 981.4 4.0 1015.0 37.6 1015.0 79.0 L 1015.0 420.0 C 1015.0 461.4 981.4 495.0 940.0 495.0 L 291.0 495.0 L 291.0 495.0 L 291.0 495.0 Z M 124.0 34.0 L 890.0 34.0 L 890.0 465.0 L 124.0 465.0 L 124.0 34.0 L 124.0 34.0 Z M 984.0 249.0 C 984.0 270.0 967.0 287.0 946.0 287.0 C 925.0 287.0 908.0 270.0 908.0 249.0 C 908.0 228.0 925.0 211.0 946.0 211.0 C 967.0 211.0 984.0 228.0 984.0 249.0 L 984.0 249.0 Z M 980.0 249.0 C 980.0 267.8 964.8 283.0 946.0 283.0 C 927.2 283.0 912.0 267.8 912.0 249.0 C 912.0 230.2 927.2 215.0 946.0 215.0 C 964.8 215.0 980.0 230.2 980.0 249.0 L 980.0 249.0 Z M 73.0 171.0 C 73.0 175.4 69.4 179.0 65.0 179.0 C 60.6 179.0 57.0 175.4 57.0 171.0 C 57.0 166.6 60.6 163.0 65.0 163.0 C 69.4 163.0 73.0 166.6 73.0 171.0 L 73.0 171.0 Z M 38.0 250.0 C 38.0 252.8 35.8 255.0 33.0 255.0 C 30.2 255.0 28.0 252.8 28.0 250.0 C 28.0 247.2 30.2 245.0 33.0 245.0 C 35.8 245.0 38.0 247.2 38.0 250.0 L 38.0 250.0 Z M 61.0 214.0 C 61.0 211.8 62.8 210.0 65.0 210.0 C 67.2 210.0 69.0 211.8 69.0 214.0 L 69.0 286.0 C 69.0 288.2 67.2 290.0 65.0 290.0 C 62.8 290.0 61.0 288.2 61.0 286.0 L 61.0 214.0 L 61.0 214.0 Z M 61.0 214.0 "></path></clipPath><g clip-path="url(#clip-3373)"><path d="M -4.0 -4.0 L -4.0 503.0 L 1020.0 503.0 L 1020.0 -4.0 Z M -4.0 -4.0 " fill="#000000"></path></g></g></g></g></g></svg>