<?xml version="1.0" encoding="UTF-8" standalone="no"?><svg xmlns="http://www.w3.org/2000/svg" xmlns:xlink="http://www.w3.org/1999/xlink" clip-rule="evenodd" stroke-miterlimit="4.00" viewBox="0 0 49 49"><desc>SVG generated by Keynote</desc><defs></defs><g transform="matrix(1.00, 0.00, -0.00, -1.00, 0.0, 49.0)"><path d="M 40.4 39.7 C 49.0 31.1 49.0 17.1 40.4 8.5 C 31.8 -0.1 17.9 -0.1 9.3 8.5 C 0.7 17.1 0.7 31.1 9.3 39.7 C 17.9 48.2 31.8 48.2 40.4 39.7 Z M 40.4 39.7 " fill="#FEFFFF"></path><path d="M 37.6 6.4 C 46.1 15.0 46.1 29.0 37.6 37.6 C 29.0 46.1 15.0 46.1 6.4 37.6 C -2.1 29.0 -2.1 15.0 6.4 6.4 C 15.0 -2.1 29.0 -2.1 37.6 6.4 Z M 37.6 6.4 " fill="none" stroke="#F5D327" stroke-width="2.00" transform="matrix(1.00, 0.00, 0.00, -1.00, 2.9, 46.1)"></path></g></svg>