<?xml version="1.0" encoding="UTF-8" standalone="no"?><svg xmlns="http://www.w3.org/2000/svg" xmlns:xlink="http://www.w3.org/1999/xlink" clip-rule="evenodd" stroke-miterlimit="4.00" viewBox="0 0 49 49"><desc>SVG generated by Keynote</desc><defs></defs><g transform="matrix(1.00, 0.00, -0.00, -1.00, 0.0, 49.0)"><path d="M 40.4 39.8 C 49.0 31.2 49.0 17.2 40.4 8.6 C 31.8 0.1 17.9 0.1 9.3 8.6 C 0.7 17.2 0.7 31.2 9.3 39.8 C 17.9 48.3 31.8 48.3 40.4 39.8 Z M 40.4 39.8 " fill="#FEFFFF"></path><path d="M 37.6 6.4 C 46.1 15.0 46.1 29.0 37.6 37.6 C 29.0 46.1 15.0 46.1 6.4 37.6 C -2.1 29.0 -2.1 15.0 6.4 6.4 C 15.0 -2.1 29.0 -2.1 37.6 6.4 Z M 37.6 6.4 " fill="none" stroke="#F5D327" stroke-width="2.00" transform="matrix(1.00, 0.00, 0.00, -1.00, 2.8, 46.2)"></path><g><clipPath id="clip-1504"><path d="M 2.8 2.2 L 46.8 2.2 L 46.8 46.2 L 2.8 46.2 Z M 2.8 2.2 "></path></clipPath><g clip-path="url(#clip-1504)"><text xml:space="preserve" font-family="Entypo" font-size="28.0" fill="#F5D327" transform="matrix(1.00, 0.00, -0.00, -1.00, 17.0, 17.0)">⚠</text></g></g></g></svg>