<?xml version="1.0" encoding="UTF-8" standalone="no"?><svg xmlns="http://www.w3.org/2000/svg" xmlns:xlink="http://www.w3.org/1999/xlink" clip-rule="evenodd" stroke-miterlimit="4.00" viewBox="0 0 48 49"><desc>SVG generated by Keynote</desc><defs></defs><g transform="matrix(1.00, 0.00, -0.00, -1.00, 0.0, 49.0)"><path d="M 39.6 39.8 C 48.1 31.3 48.1 17.3 39.6 8.7 C 31.0 0.1 17.0 0.1 8.4 8.7 C -0.1 17.3 -0.1 31.3 8.4 39.8 C 17.0 48.4 31.0 48.4 39.6 39.8 Z M 39.6 39.8 " fill="#FEFFFF"></path><path d="M 37.6 6.4 C 46.1 15.0 46.1 29.0 37.6 37.6 C 29.0 46.1 15.0 46.1 6.4 37.6 C -2.1 29.0 -2.1 15.0 6.4 6.4 C 15.0 -2.1 29.0 -2.1 37.6 6.4 Z M 37.6 6.4 " fill="none" stroke="#00B4FF" stroke-width="2.00" transform="matrix(1.00, 0.00, 0.00, -1.00, 2.0, 46.3)"></path><g><clipPath id="clip-568"><path d="M 2.0 2.3 L 46.0 2.3 L 46.0 46.3 L 2.0 46.3 Z M 2.0 2.3 "></path></clipPath><g clip-path="url(#clip-568)"><text xml:space="preserve" font-family="LucidaGrande" font-size="23.0" fill="#00B4FF" transform="matrix(1.00, 0.00, -0.00, -1.00, 15.0, 16.0)">+</text></g></g></g></svg>