<?xml version="1.0" encoding="UTF-8" standalone="no"?><svg xmlns="http://www.w3.org/2000/svg" xmlns:xlink="http://www.w3.org/1999/xlink" clip-rule="evenodd" stroke-miterlimit="4.00" viewBox="0 0 49 49"><desc>SVG generated by Keynote</desc><defs></defs><g transform="matrix(1.00, 0.00, -0.00, -1.00, 0.0, 49.0)"><path d="M 40.4 40.2 C 49.0 31.7 49.0 17.7 40.4 9.1 C 31.8 0.5 17.9 0.5 9.3 9.1 C 0.7 17.7 0.7 31.7 9.3 40.2 C 17.9 48.8 31.8 48.8 40.4 40.2 Z M 40.4 40.2 " fill="#F5D327"></path><path d="M 37.6 6.4 C 46.1 15.0 46.1 29.0 37.6 37.6 C 29.0 46.1 15.0 46.1 6.4 37.6 C -2.1 29.0 -2.1 15.0 6.4 6.4 C 15.0 -2.1 29.0 -2.1 37.6 6.4 Z M 37.6 6.4 " fill="none" stroke="#F5D327" stroke-width="2.00" transform="matrix(1.00, 0.00, 0.00, -1.00, 2.8, 46.7)"></path><g><clipPath id="clip-1438"><path d="M 2.8 2.7 L 46.8 2.7 L 46.8 46.7 L 2.8 46.7 Z M 2.8 2.7 "></path></clipPath><g clip-path="url(#clip-1438)"><text xml:space="preserve" font-family="Entypo" font-size="28.0" fill="#FEFFFF" transform="matrix(1.00, 0.00, -0.00, -1.00, 17.0, 18.0)">⚠</text></g></g></g></svg>