<?xml version="1.0" encoding="UTF-8" standalone="no"?><svg xmlns="http://www.w3.org/2000/svg" xmlns:xlink="http://www.w3.org/1999/xlink" clip-rule="evenodd" stroke-miterlimit="4.00" viewBox="0 0 53 53"><desc>SVG generated by Keynote</desc><defs></defs><g transform="matrix(1.00, 0.00, -0.00, -1.00, 0.0, 53.0)"><path d="M 43.7 43.2 C 53.1 33.9 53.1 18.7 43.7 9.3 C 34.3 -0.1 19.2 -0.1 9.8 9.3 C 0.4 18.7 0.4 33.9 9.8 43.2 C 19.2 52.6 34.3 52.6 43.7 43.2 Z M 43.7 43.2 " fill="#FEFFFF" fill-opacity="0.30"></path><path d="M 41.0 7.0 C 50.3 16.4 50.3 31.6 41.0 41.0 C 31.6 50.3 16.4 50.3 7.0 41.0 C -2.3 31.6 -2.3 16.4 7.0 7.0 C 16.4 -2.3 31.6 -2.3 41.0 7.0 Z M 41.0 7.0 " fill="none" stroke="#FEFFFF" stroke-width="2.00" transform="matrix(1.00, 0.00, 0.00, -1.00, 2.7, 50.3)"></path><g><clipPath id="clip-2676"><path d="M 2.7 -0.8 L 50.7 -0.8 L 50.7 53.2 L 2.7 53.2 Z M 2.7 -0.8 "></path></clipPath><g clip-path="url(#clip-2676)"><text xml:space="preserve" font-family="Entypo" font-size="36.0" fill="#FEFFFF" transform="matrix(1.00, 0.00, -0.00, -1.00, 16.0, 17.0)">☼</text></g></g></g></svg>