<?xml version="1.0" encoding="UTF-8" standalone="no"?><svg xmlns="http://www.w3.org/2000/svg" xmlns:xlink="http://www.w3.org/1999/xlink" clip-rule="evenodd" stroke-miterlimit="4.00" viewBox="0 0 167 26"><desc>SVG generated by Keynote</desc><defs></defs><g transform="matrix(1.00, 0.00, -0.00, -1.00, 0.0, 26.0)"><text xml:space="preserve" font-family="Akrobat-Regular" font-size="24.0" fill="#FEFFFF" transform="matrix(1.00, 0.00, -0.00, -1.00, 0.0, 6.0)">o</text><text xml:space="preserve" font-family="Akrobat-Regular" font-size="24.0" fill="#FEFFFF" transform="matrix(1.00, 0.00, -0.00, -1.00, 10.9, 6.0)">r</text><text xml:space="preserve" font-family="Akrobat-Regular" font-size="24.0" fill="#FEFFFF" transform="matrix(1.00, 0.00, -0.00, -1.00, 18.7, 6.0)">a</text><text xml:space="preserve" font-family="Akrobat-Regular" font-size="24.0" fill="#FEFFFF" transform="matrix(1.00, 0.00, -0.00, -1.00, 29.4, 6.0)">c</text><text xml:space="preserve" font-family="Akrobat-Regular" font-size="24.0" fill="#FEFFFF" transform="matrix(1.00, 0.00, -0.00, -1.00, 39.7, 6.0)">l</text><text xml:space="preserve" font-family="Akrobat-Regular" font-size="24.0" fill="#FEFFFF" transform="matrix(1.00, 0.00, -0.00, -1.00, 44.4, 6.0)">e</text><text xml:space="preserve" font-family="Akrobat-Regular" font-size="24.0" fill="#FEFFFF" transform="matrix(1.00, 0.00, -0.00, -1.00, 55.2, 6.0)">@</text><text xml:space="preserve" font-family="Akrobat-Regular" font-size="24.0" fill="#FEFFFF" transform="matrix(1.00, 0.00, -0.00, -1.00, 73.4, 6.0)">g</text><text xml:space="preserve" font-family="Akrobat-Regular" font-size="24.0" fill="#FEFFFF" transform="matrix(1.00, 0.00, -0.00, -1.00, 84.6, 6.0)">m</text><text xml:space="preserve" font-family="Akrobat-Regular" font-size="24.0" fill="#FEFFFF" transform="matrix(1.00, 0.00, -0.00, -1.00, 101.9, 6.0)">a</text><text xml:space="preserve" font-family="Akrobat-Regular" font-size="24.0" fill="#FEFFFF" transform="matrix(1.00, 0.00, -0.00, -1.00, 112.6, 6.0)">i</text><text xml:space="preserve" font-family="Akrobat-Regular" font-size="24.0" fill="#FEFFFF" transform="matrix(1.00, 0.00, -0.00, -1.00, 117.2, 6.0)">l</text><text xml:space="preserve" font-family="Akrobat-Regular" font-size="24.0" fill="#FEFFFF" transform="matrix(1.00, 0.00, -0.00, -1.00, 121.9, 6.0)">.</text><text xml:space="preserve" font-family="Akrobat-Regular" font-size="24.0" fill="#FEFFFF" transform="matrix(1.00, 0.00, -0.00, -1.00, 126.3, 6.0)">c</text><text xml:space="preserve" font-family="Akrobat-Regular" font-size="24.0" fill="#FEFFFF" transform="matrix(1.00, 0.00, -0.00, -1.00, 136.7, 6.0)">o</text><text xml:space="preserve" font-family="Akrobat-Regular" font-size="24.0" fill="#FEFFFF" transform="matrix(1.00, 0.00, -0.00, -1.00, 147.6, 6.0)">m</text></g></svg>