<?xml version="1.0" encoding="UTF-8" standalone="no"?><svg xmlns="http://www.w3.org/2000/svg" xmlns:xlink="http://www.w3.org/1999/xlink" clip-rule="evenodd" stroke-miterlimit="4.00" viewBox="0 0 242 31"><desc>SVG generated by Keynote</desc><defs></defs><g transform="matrix(1.00, 0.00, -0.00, -1.00, 0.0, 31.0)"><text xml:space="preserve" font-family="Akrobat-SemiBold" font-weight="bold" font-size="38.4" fill="#A9A9A9" transform="matrix(1.00, 0.00, -0.00, -1.00, -1.0, 2.0)">M</text><text xml:space="preserve" font-family="Akrobat-SemiBold" font-weight="bold" font-size="38.4" fill="#A9A9A9" transform="matrix(1.00, 0.00, -0.00, -1.00, 29.6, 2.0)">I</text><text xml:space="preserve" font-family="Akrobat-SemiBold" font-weight="bold" font-size="38.4" fill="#A9A9A9" transform="matrix(1.00, 0.00, -0.00, -1.00, 43.2, 2.0)">N</text><text xml:space="preserve" font-family="Akrobat-SemiBold" font-weight="bold" font-size="38.4" fill="#A9A9A9" transform="matrix(1.00, 0.00, -0.00, -1.00, 69.0, 2.0)">I</text><text xml:space="preserve" font-family="Akrobat-SemiBold" font-weight="bold" font-size="48.0" fill="#A9A9A9" transform="matrix(1.00, 0.00, -0.00, -1.00, 82.6, 2.0)">-</text><text xml:space="preserve" font-family="Akrobat-SemiBold" font-weight="bold" font-size="38.4" fill="#A9A9A9" transform="matrix(1.00, 0.00, -0.00, -1.00, 103.1, 2.0)">B</text><text xml:space="preserve" font-family="Akrobat-SemiBold" font-weight="bold" font-size="38.4" fill="#A9A9A9" transform="matrix(1.00, 0.00, -0.00, -1.00, 126.7, 2.0)">R</text><text xml:space="preserve" font-family="Akrobat-SemiBold" font-weight="bold" font-size="38.4" fill="#A9A9A9" transform="matrix(1.00, 0.00, -0.00, -1.00, 150.5, 2.0)">A</text><text xml:space="preserve" font-family="Akrobat-SemiBold" font-weight="bold" font-size="38.4" fill="#A9A9A9" transform="matrix(1.00, 0.00, -0.00, -1.00, 173.2, 2.0)">N</text><text xml:space="preserve" font-family="Akrobat-SemiBold" font-weight="bold" font-size="38.4" fill="#A9A9A9" transform="matrix(1.00, 0.00, -0.00, -1.00, 199.1, 2.0)">D</text><text xml:space="preserve" font-family="Akrobat-SemiBold" font-weight="bold" font-size="38.4" fill="#A9A9A9" transform="matrix(1.00, 0.00, -0.00, -1.00, 223.3, 2.0)">S</text></g></svg>