<?xml version="1.0" encoding="UTF-8" standalone="no"?><svg xmlns="http://www.w3.org/2000/svg" xmlns:xlink="http://www.w3.org/1999/xlink" clip-rule="evenodd" stroke-miterlimit="4.00" viewBox="0 0 424 49"><desc>SVG generated by Keynote</desc><defs></defs><g transform="matrix(1.00, 0.00, -0.00, -1.00, 0.0, 49.0)"><path d="M 2.4 47.1 L 422.4 47.1 L 422.4 2.1 L 2.4 2.1 Z M 2.4 47.1 " fill="#FEFFFF" fill-opacity="0.50"></path><path d="M 0.0 0.0 L 420.0 0.0 L 420.0 45.0 L 0.0 45.0 Z M 0.0 0.0 " fill="none" stroke="#52575F" stroke-width="1.00" transform="matrix(1.00, 0.00, 0.00, -1.00, 2.4, 47.1)"></path><g><clipPath id="clip-1144"><path d="M -2.1 -2.4 L 426.9 -2.4 L 426.9 51.6 L -2.1 51.6 Z M -2.1 -2.4 "></path></clipPath><g clip-path="url(#clip-1144)"><text xml:space="preserve" font-family="Akrobat-Light" font-size="30.0" fill="#FEFFFF" transform="matrix(1.00, 0.00, -0.00, -1.00, 174.0, 13.0)">C</text><text xml:space="preserve" font-family="Akrobat-Light" font-size="30.0" fill="#FEFFFF" transform="matrix(1.00, 0.00, -0.00, -1.00, 191.2, 13.0)">L</text><text xml:space="preserve" font-family="Akrobat-Light" font-size="30.0" fill="#FEFFFF" transform="matrix(1.00, 0.00, -0.00, -1.00, 206.1, 13.0)">A</text><text xml:space="preserve" font-family="Akrobat-Light" font-size="30.0" fill="#FEFFFF" transform="matrix(1.00, 0.00, -0.00, -1.00, 222.5, 13.0)">I</text><text xml:space="preserve" font-family="Akrobat-Light" font-size="30.0" fill="#FEFFFF" transform="matrix(1.00, 0.00, -0.00, -1.00, 231.7, 13.0)">M</text></g></g></g></svg>