<?xml version="1.0" encoding="UTF-8" standalone="no"?><svg xmlns="http://www.w3.org/2000/svg" xmlns:xlink="http://www.w3.org/1999/xlink" clip-rule="evenodd" stroke-miterlimit="4.00" viewBox="0 0 424 35"><desc>SVG generated by Keynote</desc><defs></defs><g transform="matrix(1.00, 0.00, -0.00, -1.00, 0.0, 35.0)"><path d="M 2.0 33.2 L 422.0 33.2 L 422.0 2.2 L 2.0 2.2 Z M 2.0 33.2 " fill="#E2F6FF"></path><path d="M 0.0 0.0 L 420.0 0.0 L 420.0 31.0 L 0.0 31.0 Z M 0.0 0.0 " fill="none" stroke="#51A7F9" stroke-width="1.00" transform="matrix(1.00, 0.00, 0.00, -1.00, 2.0, 33.2)"></path><g><clipPath id="clip-585"><path d="M 1.1 1.3 L 422.9 1.3 L 422.9 34.1 L 1.1 34.1 Z M 1.1 1.3 "></path></clipPath><g clip-path="url(#clip-585)"><text xml:space="preserve" font-family="Akrobat-SemiBold" font-weight="bold" font-size="18.0" fill="#002451" transform="matrix(1.00, 0.00, -0.00, -1.00, 172.0, 10.0)">E</text><text xml:space="preserve" font-family="Akrobat-SemiBold" font-weight="bold" font-size="18.0" fill="#002451" transform="matrix(1.00, 0.00, -0.00, -1.00, 182.0, 10.0)">D</text><text xml:space="preserve" font-family="Akrobat-SemiBold" font-weight="bold" font-size="18.0" fill="#002451" transform="matrix(1.00, 0.00, -0.00, -1.00, 192.9, 10.0)">I</text><text xml:space="preserve" font-family="Akrobat-SemiBold" font-weight="bold" font-size="18.0" fill="#002451" transform="matrix(1.00, 0.00, -0.00, -1.00, 198.9, 10.0)">T</text><text xml:space="preserve" font-family="Akrobat-SemiBold" font-weight="bold" font-size="18.0" fill="#002451" transform="matrix(1.00, 0.00, -0.00, -1.00, 208.2, 10.0)"> </text><text xml:space="preserve" font-family="Akrobat-SemiBold" font-weight="bold" font-size="18.0" fill="#002451" transform="matrix(1.00, 0.00, -0.00, -1.00, 214.0, 10.0)">E</text><text xml:space="preserve" font-family="Akrobat-SemiBold" font-weight="bold" font-size="18.0" fill="#002451" transform="matrix(1.00, 0.00, -0.00, -1.00, 224.0, 10.0)">V</text><text xml:space="preserve" font-family="Akrobat-SemiBold" font-weight="bold" font-size="18.0" fill="#002451" transform="matrix(1.00, 0.00, -0.00, -1.00, 233.6, 10.0)">A</text><text xml:space="preserve" font-family="Akrobat-SemiBold" font-weight="bold" font-size="18.0" fill="#002451" transform="matrix(1.00, 0.00, -0.00, -1.00, 243.8, 10.0)">L</text></g></g></g></svg>