<?xml version="1.0" encoding="UTF-8" standalone="no"?><svg xmlns="http://www.w3.org/2000/svg" xmlns:xlink="http://www.w3.org/1999/xlink" clip-rule="evenodd" stroke-miterlimit="4.00" viewBox="0 0 1920 1080"><desc>SVG generated by Keynote</desc><defs></defs><g transform="matrix(1.00, 0.00, -0.00, -1.00, 0.0, 1080.0)"><path d="M 0.0 1080.0 L 1920.0 1080.0 L 1920.0 0.0 L 0.0 0.0 Z M 0.0 1080.0 " fill="#FEFFFF"></path><g opacity="0.50"><g><clipPath id="clip-629"><path d="M 1206.0 757.0 L 1207.5 757.0 C 1208.3 757.0 1209.0 757.7 1209.0 758.5 L 1209.0 830.5 C 1209.0 831.3 1208.3 832.0 1207.5 832.0 L 1206.0 832.0 L 1206.0 972.0 C 1206.0 1013.4 1172.4 1047.0 1131.0 1047.0 L 790.0 1047.0 C 748.6 1047.0 715.0 1013.4 715.0 972.0 L 715.0 919.0 L 713.5 919.0 C 712.7 919.0 712.0 918.3 712.0 917.5 L 712.0 879.5 C 712.0 878.7 712.7 878.0 713.5 878.0 L 715.0 878.0 L 715.0 832.0 L 713.5 832.0 C 712.7 832.0 712.0 831.3 712.0 830.5 L 712.0 758.5 C 712.0 757.7 712.7 757.0 713.5 757.0 L 715.0 757.0 L 715.0 740.0 L 713.5 740.0 C 712.7 740.0 712.0 739.3 712.0 738.5 L 712.0 666.5 C 712.0 665.7 712.7 665.0 713.5 665.0 L 715.0 665.0 L 715.0 108.0 C 715.0 66.6 748.6 33.0 790.0 33.0 L 1131.0 33.0 C 1172.4 33.0 1206.0 66.6 1206.0 108.0 L 1206.0 757.0 L 1206.0 757.0 L 1206.0 757.0 Z M 745.0 924.0 L 745.0 158.0 L 1176.0 158.0 L 1176.0 924.0 L 745.0 924.0 L 745.0 924.0 Z M 960.0 64.0 C 981.0 64.0 998.0 81.0 998.0 102.0 C 998.0 123.0 981.0 140.0 960.0 140.0 C 939.0 140.0 922.0 123.0 922.0 102.0 C 922.0 81.0 939.0 64.0 960.0 64.0 L 960.0 64.0 Z M 960.0 68.0 C 978.8 68.0 994.0 83.2 994.0 102.0 C 994.0 120.8 978.8 136.0 960.0 136.0 C 941.2 136.0 926.0 120.8 926.0 102.0 C 926.0 83.2 941.2 68.0 960.0 68.0 L 960.0 68.0 Z M 882.0 975.0 C 886.4 975.0 890.0 978.6 890.0 983.0 C 890.0 987.4 886.4 991.0 882.0 991.0 C 877.6 991.0 874.0 987.4 874.0 983.0 C 874.0 978.6 877.6 975.0 882.0 975.0 L 882.0 975.0 Z M 961.0 1010.0 C 963.8 1010.0 966.0 1012.2 966.0 1015.0 C 966.0 1017.8 963.8 1020.0 961.0 1020.0 C 958.2 1020.0 956.0 1017.8 956.0 1015.0 C 956.0 1012.2 958.2 1010.0 961.0 1010.0 L 961.0 1010.0 Z M 925.0 987.0 C 922.8 987.0 921.0 985.2 921.0 983.0 C 921.0 980.8 922.8 979.0 925.0 979.0 L 997.0 979.0 C 999.2 979.0 1001.0 980.8 1001.0 983.0 C 1001.0 985.2 999.2 987.0 997.0 987.0 L 925.0 987.0 L 925.0 987.0 Z M 925.0 987.0 "></path></clipPath><g clip-path="url(#clip-629)"><g><clipPath id="clip-630"><path d="M 712.0 33.0 L 1209.0 33.0 L 1209.0 1047.0 L 712.0 1047.0 Z M 712.0 33.0 "></path></clipPath><g clip-path="url(#clip-630)"><path d="M 707.0 1052.0 L 1214.0 1052.0 L 1214.0 28.0 L 707.0 28.0 Z M 707.0 1052.0 " fill="#000000"></path></g></g></g></g></g><image xlink:href="../../7D845C88-9D36-4D54-84B6-6D208BC815DA/assets/23B6A4889E4950E0BA49A0B1EBAA65A9.png" width="50.00" height="50.00" transform="matrix(1.00, 0.00, -0.00, -1.00, 935.0, 916.0)"></image><path d="M 750.0 859.0 L 1170.0 859.0 L 1170.0 829.0 L 750.0 829.0 Z M 750.0 859.0 " fill="#000000"></path><g><clipPath id="clip-631"><path d="M 748.6 827.6 L 1171.4 827.6 L 1171.4 860.4 L 748.6 860.4 Z M 748.6 827.6 "></path></clipPath><g clip-path="url(#clip-631)"><text xml:space="preserve" font-family="Akrobat-Black" font-weight="bold" font-size="18.0" fill="#FEFFFF" transform="matrix(1.00, 0.00, -0.00, -1.00, 945.0, 837.0)">R</text><text xml:space="preserve" font-family="Akrobat-Black" font-weight="bold" font-size="18.0" fill="#FEFFFF" transform="matrix(1.00, 0.00, -0.00, -1.00, 956.3, 837.0)">E</text><text xml:space="preserve" font-family="Akrobat-Black" font-weight="bold" font-size="18.0" fill="#FEFFFF" transform="matrix(1.00, 0.00, -0.00, -1.00, 966.5, 837.0)">F</text></g></g><g><clipPath id="clip-632"><path d="M 1144.0 873.0 L 1170.0 873.0 L 1170.0 900.0 L 1144.0 900.0 Z M 1144.0 873.0 "></path></clipPath><g clip-path="url(#clip-632)"><path d="M 1168.1 883.9 C 1166.7 886.4 1167.5 889.5 1170.0 890.9 L 1167.3 895.5 C 1166.6 895.1 1165.7 894.8 1164.7 894.8 C 1161.9 894.8 1159.6 897.1 1159.6 900.0 L 1154.3 900.0 C 1154.4 899.1 1154.1 898.2 1153.7 897.4 C 1152.3 894.9 1149.1 894.1 1146.7 895.5 L 1144.0 891.0 C 1144.8 890.5 1145.4 889.9 1145.9 889.1 C 1147.3 886.6 1146.5 883.5 1144.0 882.1 L 1146.7 877.5 C 1147.4 877.9 1148.3 878.2 1149.2 878.2 C 1152.0 878.2 1154.3 875.9 1154.3 873.1 L 1159.6 873.1 C 1159.6 873.9 1159.8 874.8 1160.3 875.6 C 1161.7 878.1 1164.8 878.9 1167.3 877.5 L 1169.9 882.1 C 1169.2 882.5 1168.5 883.1 1168.1 883.9 Z M 1157.0 881.1 C 1154.0 881.1 1151.5 883.5 1151.5 886.5 C 1151.5 889.5 1154.0 892.0 1157.0 892.0 C 1160.0 892.0 1162.4 889.5 1162.4 886.5 C 1162.4 883.5 1160.0 881.1 1157.0 881.1 Z M 1157.0 881.1 " fill="#000000"></path></g></g><g opacity="0.26"><g><clipPath id="clip-633"><path d="M 1385.0 38.0 L 1886.0 38.0 L 1886.0 141.0 L 1385.0 141.0 Z M 1385.0 38.0 "></path></clipPath><g clip-path="url(#clip-633)"><image xlink:href="../../F28C9CA0-A05A-4A2C-90F7-8BC49B335395/assets/C81748EE4541B41AB8E62948DB0A057F.png" width="498.00" height="100.00" transform="matrix(1.00, 0.00, -0.00, -1.00, 1387.0, 140.0)"></image></g></g></g><text xml:space="preserve" font-family="Akrobat-SemiBold" font-weight="bold" font-size="14.0" fill="#000000" transform="matrix(1.00, 0.00, -0.00, -1.00, 755.0, 526.0)">F</text><text xml:space="preserve" font-family="Akrobat-SemiBold" font-weight="bold" font-size="14.0" fill="#000000" transform="matrix(1.00, 0.00, -0.00, -1.00, 762.3, 526.0)">I</text><text xml:space="preserve" font-family="Akrobat-SemiBold" font-weight="bold" font-size="14.0" fill="#000000" transform="matrix(1.00, 0.00, -0.00, -1.00, 766.9, 526.0)">N</text><text xml:space="preserve" font-family="Akrobat-SemiBold" font-weight="bold" font-size="14.0" fill="#000000" transform="matrix(1.00, 0.00, -0.00, -1.00, 776.0, 526.0)">I</text><text xml:space="preserve" font-family="Akrobat-SemiBold" font-weight="bold" font-size="14.0" fill="#000000" transform="matrix(1.00, 0.00, -0.00, -1.00, 780.6, 526.0)">S</text><text xml:space="preserve" font-family="Akrobat-SemiBold" font-weight="bold" font-size="14.0" fill="#000000" transform="matrix(1.00, 0.00, -0.00, -1.00, 788.3, 526.0)">H</text><text xml:space="preserve" font-family="Akrobat-SemiBold" font-weight="bold" font-size="14.0" fill="#000000" transform="matrix(1.00, 0.00, -0.00, -1.00, 797.2, 526.0)">E</text><text xml:space="preserve" font-family="Akrobat-SemiBold" font-weight="bold" font-size="14.0" fill="#000000" transform="matrix(1.00, 0.00, -0.00, -1.00, 805.0, 526.0)">D</text><path d="M 750.0 754.3 L 1170.0 754.3 L 1170.0 701.3 L 750.0 701.3 Z M 750.0 754.3 " fill="#E2F6FF"></path><path d="M 0.0 0.0 L 420.0 0.0 L 420.0 53.0 L 0.0 53.0 Z M 0.0 0.0 " fill="none" stroke="#51A7F9" stroke-width="1.00" transform="matrix(1.00, 0.00, 0.00, -1.00, 750.0, 754.3)"></path><g><clipPath id="clip-634"><path d="M 749.1 700.4 L 1170.9 700.4 L 1170.9 755.2 L 749.1 755.2 Z M 749.1 700.4 "></path></clipPath><g clip-path="url(#clip-634)"><text xml:space="preserve" font-family="Akrobat-SemiBold" font-weight="bold" font-size="18.0" fill="#002451" transform="matrix(1.00, 0.00, -0.00, -1.00, 888.0, 731.0)">1</text><text xml:space="preserve" font-family="Akrobat-SemiBold" font-weight="bold" font-size="18.0" fill="#002451" transform="matrix(1.00, 0.00, -0.00, -1.00, 895.0, 731.0)">5</text><text xml:space="preserve" font-family="Akrobat-SemiBold" font-weight="bold" font-size="18.0" fill="#002451" transform="matrix(1.00, 0.00, -0.00, -1.00, 904.3, 731.0)">5</text><text xml:space="preserve" font-family="Akrobat-SemiBold" font-weight="bold" font-size="18.0" fill="#002451" transform="matrix(1.00, 0.00, -0.00, -1.00, 913.5, 731.0)">5</text><text xml:space="preserve" font-family="Akrobat-SemiBold" font-weight="bold" font-size="18.0" fill="#002451" transform="matrix(1.00, 0.00, -0.00, -1.00, 922.8, 731.0)"> </text><text xml:space="preserve" font-family="Akrobat-SemiBold" font-weight="bold" font-size="18.0" fill="#002451" transform="matrix(1.00, 0.00, -0.00, -1.00, 928.6, 731.0)">I</text><text xml:space="preserve" font-family="Akrobat-SemiBold" font-weight="bold" font-size="18.0" fill="#002451" transform="matrix(1.00, 0.00, -0.00, -1.00, 934.5, 731.0)">N</text><text xml:space="preserve" font-family="Akrobat-SemiBold" font-weight="bold" font-size="18.0" fill="#002451" transform="matrix(1.00, 0.00, -0.00, -1.00, 946.2, 731.0)">L</text><text xml:space="preserve" font-family="Akrobat-SemiBold" font-weight="bold" font-size="18.0" fill="#002451" transform="matrix(1.00, 0.00, -0.00, -1.00, 955.3, 731.0)">E</text><text xml:space="preserve" font-family="Akrobat-SemiBold" font-weight="bold" font-size="18.0" fill="#002451" transform="matrix(1.00, 0.00, -0.00, -1.00, 965.3, 731.0)">T</text><text xml:space="preserve" font-family="Akrobat-SemiBold" font-weight="bold" font-size="18.0" fill="#002451" transform="matrix(1.00, 0.00, -0.00, -1.00, 974.7, 731.0)"> </text><text xml:space="preserve" font-family="Akrobat-SemiBold" font-weight="bold" font-size="18.0" fill="#002451" transform="matrix(1.00, 0.00, -0.00, -1.00, 980.4, 731.0)">R</text><text xml:space="preserve" font-family="Akrobat-SemiBold" font-weight="bold" font-size="18.0" fill="#002451" transform="matrix(1.00, 0.00, -0.00, -1.00, 991.1, 731.0)">D</text><text xml:space="preserve" font-family="Akrobat-SemiBold" font-weight="bold" font-size="18.0" fill="#002451" transform="matrix(1.00, 0.00, -0.00, -1.00, 1002.0, 731.0)"> </text><text xml:space="preserve" font-family="Akrobat-SemiBold" font-weight="bold" font-size="18.0" fill="#002451" transform="matrix(1.00, 0.00, -0.00, -1.00, 1007.8, 731.0)">N</text><text xml:space="preserve" font-family="Akrobat-SemiBold" font-weight="bold" font-size="18.0" fill="#002451" transform="matrix(1.00, 0.00, -0.00, -1.00, 1019.5, 731.0)">W</text><text xml:space="preserve" font-family="Akrobat-SemiBold" font-weight="bold" font-size="18.0" fill="#002451" transform="matrix(1.00, 0.00, -0.00, -1.00, 1034.5, 731.0)"> </text><text xml:space="preserve" font-family="Akrobat-SemiBold" font-weight="bold" font-size="18.0" fill="#002451" transform="matrix(1.00, 0.00, -0.00, -1.00, 864.0, 709.0)">W</text><text xml:space="preserve" font-family="Akrobat-SemiBold" font-weight="bold" font-size="18.0" fill="#002451" transform="matrix(1.00, 0.00, -0.00, -1.00, 878.5, 709.0)">A</text><text xml:space="preserve" font-family="Akrobat-SemiBold" font-weight="bold" font-size="18.0" fill="#002451" transform="matrix(1.00, 0.00, -0.00, -1.00, 888.6, 709.0)">S</text><text xml:space="preserve" font-family="Akrobat-SemiBold" font-weight="bold" font-size="18.0" fill="#002451" transform="matrix(1.00, 0.00, -0.00, -1.00, 898.5, 709.0)">H</text><text xml:space="preserve" font-family="Akrobat-SemiBold" font-weight="bold" font-size="18.0" fill="#002451" transform="matrix(1.00, 0.00, -0.00, -1.00, 909.9, 709.0)">I</text><text xml:space="preserve" font-family="Akrobat-SemiBold" font-weight="bold" font-size="18.0" fill="#002451" transform="matrix(1.00, 0.00, -0.00, -1.00, 915.8, 709.0)">N</text><text xml:space="preserve" font-family="Akrobat-SemiBold" font-weight="bold" font-size="18.0" fill="#002451" transform="matrix(1.00, 0.00, -0.00, -1.00, 927.5, 709.0)">G</text><text xml:space="preserve" font-family="Akrobat-SemiBold" font-weight="bold" font-size="18.0" fill="#002451" transform="matrix(1.00, 0.00, -0.00, -1.00, 938.3, 709.0)">T</text><text xml:space="preserve" font-family="Akrobat-SemiBold" font-weight="bold" font-size="18.0" fill="#002451" transform="matrix(1.00, 0.00, -0.00, -1.00, 947.6, 709.0)">O</text><text xml:space="preserve" font-family="Akrobat-SemiBold" font-weight="bold" font-size="18.0" fill="#002451" transform="matrix(1.00, 0.00, -0.00, -1.00, 958.8, 709.0)">N</text><text xml:space="preserve" font-family="Akrobat-SemiBold" font-weight="bold" font-size="18.0" fill="#002451" transform="matrix(1.00, 0.00, -0.00, -1.00, 970.5, 709.0)">,</text><text xml:space="preserve" font-family="Akrobat-SemiBold" font-weight="bold" font-size="18.0" fill="#002451" transform="matrix(1.00, 0.00, -0.00, -1.00, 975.2, 709.0)"> </text><text xml:space="preserve" font-family="Akrobat-SemiBold" font-weight="bold" font-size="18.0" fill="#002451" transform="matrix(1.00, 0.00, -0.00, -1.00, 980.9, 709.0)">D</text><text xml:space="preserve" font-family="Akrobat-SemiBold" font-weight="bold" font-size="18.0" fill="#002451" transform="matrix(1.00, 0.00, -0.00, -1.00, 991.8, 709.0)">C</text><text xml:space="preserve" font-family="Akrobat-SemiBold" font-weight="bold" font-size="18.0" fill="#002451" transform="matrix(1.00, 0.00, -0.00, -1.00, 1002.4, 709.0)"> </text><text xml:space="preserve" font-family="Akrobat-SemiBold" font-weight="bold" font-size="18.0" fill="#002451" transform="matrix(1.00, 0.00, -0.00, -1.00, 1008.2, 709.0)">2</text><text xml:space="preserve" font-family="Akrobat-SemiBold" font-weight="bold" font-size="18.0" fill="#002451" transform="matrix(1.00, 0.00, -0.00, -1.00, 1017.4, 709.0)">0</text><text xml:space="preserve" font-family="Akrobat-SemiBold" font-weight="bold" font-size="18.0" fill="#002451" transform="matrix(1.00, 0.00, -0.00, -1.00, 1027.5, 709.0)">0</text><text xml:space="preserve" font-family="Akrobat-SemiBold" font-weight="bold" font-size="18.0" fill="#002451" transform="matrix(1.00, 0.00, -0.00, -1.00, 1037.7, 709.0)">0</text><text xml:space="preserve" font-family="Akrobat-SemiBold" font-weight="bold" font-size="18.0" fill="#002451" transform="matrix(1.00, 0.00, -0.00, -1.00, 1047.9, 709.0)">2</text></g></g><path d="M 750.0 692.9 L 1170.0 692.9 L 1170.0 639.9 L 750.0 639.9 Z M 750.0 692.9 " fill="#E2F6FF"></path><path d="M 0.0 0.0 L 420.0 0.0 L 420.0 53.0 L 0.0 53.0 Z M 0.0 0.0 " fill="none" stroke="#000000" stroke-width="1.00" transform="matrix(1.00, 0.00, 0.00, -1.00, 750.0, 692.9)"></path><g><clipPath id="clip-635"><path d="M 749.1 639.0 L 1170.9 639.0 L 1170.9 693.8 L 749.1 693.8 Z M 749.1 639.0 "></path></clipPath><g clip-path="url(#clip-635)"><text xml:space="preserve" font-family="Akrobat-SemiBold" font-weight="bold" font-size="18.0" fill="#002451" transform="matrix(1.00, 0.00, -0.00, -1.00, 880.0, 670.0)">1</text><text xml:space="preserve" font-family="Akrobat-SemiBold" font-weight="bold" font-size="18.0" fill="#002451" transform="matrix(1.00, 0.00, -0.00, -1.00, 887.0, 670.0)">7</text><text xml:space="preserve" font-family="Akrobat-SemiBold" font-weight="bold" font-size="18.0" fill="#002451" transform="matrix(1.00, 0.00, -0.00, -1.00, 895.3, 670.0)">1</text><text xml:space="preserve" font-family="Akrobat-SemiBold" font-weight="bold" font-size="18.0" fill="#002451" transform="matrix(1.00, 0.00, -0.00, -1.00, 902.3, 670.0)">3</text><text xml:space="preserve" font-family="Akrobat-SemiBold" font-weight="bold" font-size="18.0" fill="#002451" transform="matrix(1.00, 0.00, -0.00, -1.00, 911.5, 670.0)"> </text><text xml:space="preserve" font-family="Akrobat-SemiBold" font-weight="bold" font-size="18.0" fill="#002451" transform="matrix(1.00, 0.00, -0.00, -1.00, 917.3, 670.0)">L</text><text xml:space="preserve" font-family="Akrobat-SemiBold" font-weight="bold" font-size="18.0" fill="#002451" transform="matrix(1.00, 0.00, -0.00, -1.00, 926.4, 670.0)">I</text><text xml:space="preserve" font-family="Akrobat-SemiBold" font-weight="bold" font-size="18.0" fill="#002451" transform="matrix(1.00, 0.00, -0.00, -1.00, 932.4, 670.0)">N</text><text xml:space="preserve" font-family="Akrobat-SemiBold" font-weight="bold" font-size="18.0" fill="#002451" transform="matrix(1.00, 0.00, -0.00, -1.00, 944.0, 670.0)">C</text><text xml:space="preserve" font-family="Akrobat-SemiBold" font-weight="bold" font-size="18.0" fill="#002451" transform="matrix(1.00, 0.00, -0.00, -1.00, 954.6, 670.0)">O</text><text xml:space="preserve" font-family="Akrobat-SemiBold" font-weight="bold" font-size="18.0" fill="#002451" transform="matrix(1.00, 0.00, -0.00, -1.00, 965.8, 670.0)">L</text><text xml:space="preserve" font-family="Akrobat-SemiBold" font-weight="bold" font-size="18.0" fill="#002451" transform="matrix(1.00, 0.00, -0.00, -1.00, 974.9, 670.0)">N</text><text xml:space="preserve" font-family="Akrobat-SemiBold" font-weight="bold" font-size="18.0" fill="#002451" transform="matrix(1.00, 0.00, -0.00, -1.00, 986.6, 670.0)"> </text><text xml:space="preserve" font-family="Akrobat-SemiBold" font-weight="bold" font-size="18.0" fill="#002451" transform="matrix(1.00, 0.00, -0.00, -1.00, 992.4, 670.0)">R</text><text xml:space="preserve" font-family="Akrobat-SemiBold" font-weight="bold" font-size="18.0" fill="#002451" transform="matrix(1.00, 0.00, -0.00, -1.00, 1003.1, 670.0)">D</text><text xml:space="preserve" font-family="Akrobat-SemiBold" font-weight="bold" font-size="18.0" fill="#002451" transform="matrix(1.00, 0.00, -0.00, -1.00, 1014.0, 670.0)"> </text><text xml:space="preserve" font-family="Akrobat-SemiBold" font-weight="bold" font-size="18.0" fill="#002451" transform="matrix(1.00, 0.00, -0.00, -1.00, 1019.8, 670.0)">N</text><text xml:space="preserve" font-family="Akrobat-SemiBold" font-weight="bold" font-size="18.0" fill="#002451" transform="matrix(1.00, 0.00, -0.00, -1.00, 1031.4, 670.0)">E</text><text xml:space="preserve" font-family="Akrobat-SemiBold" font-weight="bold" font-size="18.0" fill="#002451" transform="matrix(1.00, 0.00, -0.00, -1.00, 1041.5, 670.0)"> </text><text xml:space="preserve" font-family="Akrobat-SemiBold" font-weight="bold" font-size="18.0" fill="#002451" transform="matrix(1.00, 0.00, -0.00, -1.00, 864.0, 648.0)">W</text><text xml:space="preserve" font-family="Akrobat-SemiBold" font-weight="bold" font-size="18.0" fill="#002451" transform="matrix(1.00, 0.00, -0.00, -1.00, 878.5, 648.0)">A</text><text xml:space="preserve" font-family="Akrobat-SemiBold" font-weight="bold" font-size="18.0" fill="#002451" transform="matrix(1.00, 0.00, -0.00, -1.00, 888.6, 648.0)">S</text><text xml:space="preserve" font-family="Akrobat-SemiBold" font-weight="bold" font-size="18.0" fill="#002451" transform="matrix(1.00, 0.00, -0.00, -1.00, 898.5, 648.0)">H</text><text xml:space="preserve" font-family="Akrobat-SemiBold" font-weight="bold" font-size="18.0" fill="#002451" transform="matrix(1.00, 0.00, -0.00, -1.00, 909.9, 648.0)">I</text><text xml:space="preserve" font-family="Akrobat-SemiBold" font-weight="bold" font-size="18.0" fill="#002451" transform="matrix(1.00, 0.00, -0.00, -1.00, 915.8, 648.0)">N</text><text xml:space="preserve" font-family="Akrobat-SemiBold" font-weight="bold" font-size="18.0" fill="#002451" transform="matrix(1.00, 0.00, -0.00, -1.00, 927.5, 648.0)">G</text><text xml:space="preserve" font-family="Akrobat-SemiBold" font-weight="bold" font-size="18.0" fill="#002451" transform="matrix(1.00, 0.00, -0.00, -1.00, 938.3, 648.0)">T</text><text xml:space="preserve" font-family="Akrobat-SemiBold" font-weight="bold" font-size="18.0" fill="#002451" transform="matrix(1.00, 0.00, -0.00, -1.00, 947.6, 648.0)">O</text><text xml:space="preserve" font-family="Akrobat-SemiBold" font-weight="bold" font-size="18.0" fill="#002451" transform="matrix(1.00, 0.00, -0.00, -1.00, 958.8, 648.0)">N</text><text xml:space="preserve" font-family="Akrobat-SemiBold" font-weight="bold" font-size="18.0" fill="#002451" transform="matrix(1.00, 0.00, -0.00, -1.00, 970.5, 648.0)">,</text><text xml:space="preserve" font-family="Akrobat-SemiBold" font-weight="bold" font-size="18.0" fill="#002451" transform="matrix(1.00, 0.00, -0.00, -1.00, 975.2, 648.0)"> </text><text xml:space="preserve" font-family="Akrobat-SemiBold" font-weight="bold" font-size="18.0" fill="#002451" transform="matrix(1.00, 0.00, -0.00, -1.00, 980.9, 648.0)">D</text><text xml:space="preserve" font-family="Akrobat-SemiBold" font-weight="bold" font-size="18.0" fill="#002451" transform="matrix(1.00, 0.00, -0.00, -1.00, 991.8, 648.0)">C</text><text xml:space="preserve" font-family="Akrobat-SemiBold" font-weight="bold" font-size="18.0" fill="#002451" transform="matrix(1.00, 0.00, -0.00, -1.00, 1002.4, 648.0)"> </text><text xml:space="preserve" font-family="Akrobat-SemiBold" font-weight="bold" font-size="18.0" fill="#002451" transform="matrix(1.00, 0.00, -0.00, -1.00, 1008.2, 648.0)">2</text><text xml:space="preserve" font-family="Akrobat-SemiBold" font-weight="bold" font-size="18.0" fill="#002451" transform="matrix(1.00, 0.00, -0.00, -1.00, 1017.4, 648.0)">0</text><text xml:space="preserve" font-family="Akrobat-SemiBold" font-weight="bold" font-size="18.0" fill="#002451" transform="matrix(1.00, 0.00, -0.00, -1.00, 1027.5, 648.0)">0</text><text xml:space="preserve" font-family="Akrobat-SemiBold" font-weight="bold" font-size="18.0" fill="#002451" transform="matrix(1.00, 0.00, -0.00, -1.00, 1037.7, 648.0)">0</text><text xml:space="preserve" font-family="Akrobat-SemiBold" font-weight="bold" font-size="18.0" fill="#002451" transform="matrix(1.00, 0.00, -0.00, -1.00, 1047.9, 648.0)">2</text></g></g><path d="M 750.0 510.3 L 1170.0 510.3 L 1170.0 457.3 L 750.0 457.3 Z M 750.0 510.3 " fill="#E2F6FF"></path><path d="M 0.0 0.0 L 420.0 0.0 L 420.0 53.0 L 0.0 53.0 Z M 0.0 0.0 " fill="none" stroke="#000000" stroke-width="1.00" transform="matrix(1.00, 0.00, 0.00, -1.00, 750.0, 510.3)"></path><g><clipPath id="clip-636"><path d="M 749.1 456.4 L 1170.9 456.4 L 1170.9 511.2 L 749.1 511.2 Z M 749.1 456.4 "></path></clipPath><g clip-path="url(#clip-636)"><text xml:space="preserve" font-family="Akrobat-SemiBold" font-weight="bold" font-size="18.0" fill="#002451" transform="matrix(1.00, 0.00, -0.00, -1.00, 896.0, 487.0)">1</text><text xml:space="preserve" font-family="Akrobat-SemiBold" font-weight="bold" font-size="18.0" fill="#002451" transform="matrix(1.00, 0.00, -0.00, -1.00, 903.0, 487.0)">2</text><text xml:space="preserve" font-family="Akrobat-SemiBold" font-weight="bold" font-size="18.0" fill="#002451" transform="matrix(1.00, 0.00, -0.00, -1.00, 912.2, 487.0)">3</text><text xml:space="preserve" font-family="Akrobat-SemiBold" font-weight="bold" font-size="18.0" fill="#002451" transform="matrix(1.00, 0.00, -0.00, -1.00, 921.5, 487.0)">3</text><text xml:space="preserve" font-family="Akrobat-SemiBold" font-weight="bold" font-size="18.0" fill="#002451" transform="matrix(1.00, 0.00, -0.00, -1.00, 930.7, 487.0)"> </text><text xml:space="preserve" font-family="Akrobat-SemiBold" font-weight="bold" font-size="18.0" fill="#002451" transform="matrix(1.00, 0.00, -0.00, -1.00, 936.5, 487.0)">O</text><text xml:space="preserve" font-family="Akrobat-SemiBold" font-weight="bold" font-size="18.0" fill="#002451" transform="matrix(1.00, 0.00, -0.00, -1.00, 947.7, 487.0)">U</text><text xml:space="preserve" font-family="Akrobat-SemiBold" font-weight="bold" font-size="18.0" fill="#002451" transform="matrix(1.00, 0.00, -0.00, -1.00, 958.9, 487.0)">T</text><text xml:space="preserve" font-family="Akrobat-SemiBold" font-weight="bold" font-size="18.0" fill="#002451" transform="matrix(1.00, 0.00, -0.00, -1.00, 968.2, 487.0)">C</text><text xml:space="preserve" font-family="Akrobat-SemiBold" font-weight="bold" font-size="18.0" fill="#002451" transform="matrix(1.00, 0.00, -0.00, -1.00, 978.8, 487.0)">R</text><text xml:space="preserve" font-family="Akrobat-SemiBold" font-weight="bold" font-size="18.0" fill="#002451" transform="matrix(1.00, 0.00, -0.00, -1.00, 989.5, 487.0)">Y</text><text xml:space="preserve" font-family="Akrobat-SemiBold" font-weight="bold" font-size="18.0" fill="#002451" transform="matrix(1.00, 0.00, -0.00, -1.00, 999.1, 487.0)"> </text><text xml:space="preserve" font-family="Akrobat-SemiBold" font-weight="bold" font-size="18.0" fill="#002451" transform="matrix(1.00, 0.00, -0.00, -1.00, 1004.9, 487.0)">L</text><text xml:space="preserve" font-family="Akrobat-SemiBold" font-weight="bold" font-size="18.0" fill="#002451" transform="matrix(1.00, 0.00, -0.00, -1.00, 1014.0, 487.0)">N</text><text xml:space="preserve" font-family="Akrobat-SemiBold" font-weight="bold" font-size="18.0" fill="#002451" transform="matrix(1.00, 0.00, -0.00, -1.00, 1025.7, 487.0)"> </text><text xml:space="preserve" font-family="Akrobat-SemiBold" font-weight="bold" font-size="18.0" fill="#002451" transform="matrix(1.00, 0.00, -0.00, -1.00, 864.0, 465.0)">W</text><text xml:space="preserve" font-family="Akrobat-SemiBold" font-weight="bold" font-size="18.0" fill="#002451" transform="matrix(1.00, 0.00, -0.00, -1.00, 878.5, 465.0)">A</text><text xml:space="preserve" font-family="Akrobat-SemiBold" font-weight="bold" font-size="18.0" fill="#002451" transform="matrix(1.00, 0.00, -0.00, -1.00, 888.6, 465.0)">S</text><text xml:space="preserve" font-family="Akrobat-SemiBold" font-weight="bold" font-size="18.0" fill="#002451" transform="matrix(1.00, 0.00, -0.00, -1.00, 898.5, 465.0)">H</text><text xml:space="preserve" font-family="Akrobat-SemiBold" font-weight="bold" font-size="18.0" fill="#002451" transform="matrix(1.00, 0.00, -0.00, -1.00, 909.9, 465.0)">I</text><text xml:space="preserve" font-family="Akrobat-SemiBold" font-weight="bold" font-size="18.0" fill="#002451" transform="matrix(1.00, 0.00, -0.00, -1.00, 915.8, 465.0)">N</text><text xml:space="preserve" font-family="Akrobat-SemiBold" font-weight="bold" font-size="18.0" fill="#002451" transform="matrix(1.00, 0.00, -0.00, -1.00, 927.5, 465.0)">G</text><text xml:space="preserve" font-family="Akrobat-SemiBold" font-weight="bold" font-size="18.0" fill="#002451" transform="matrix(1.00, 0.00, -0.00, -1.00, 938.3, 465.0)">T</text><text xml:space="preserve" font-family="Akrobat-SemiBold" font-weight="bold" font-size="18.0" fill="#002451" transform="matrix(1.00, 0.00, -0.00, -1.00, 947.6, 465.0)">O</text><text xml:space="preserve" font-family="Akrobat-SemiBold" font-weight="bold" font-size="18.0" fill="#002451" transform="matrix(1.00, 0.00, -0.00, -1.00, 958.8, 465.0)">N</text><text xml:space="preserve" font-family="Akrobat-SemiBold" font-weight="bold" font-size="18.0" fill="#002451" transform="matrix(1.00, 0.00, -0.00, -1.00, 970.5, 465.0)">,</text><text xml:space="preserve" font-family="Akrobat-SemiBold" font-weight="bold" font-size="18.0" fill="#002451" transform="matrix(1.00, 0.00, -0.00, -1.00, 975.2, 465.0)"> </text><text xml:space="preserve" font-family="Akrobat-SemiBold" font-weight="bold" font-size="18.0" fill="#002451" transform="matrix(1.00, 0.00, -0.00, -1.00, 980.9, 465.0)">D</text><text xml:space="preserve" font-family="Akrobat-SemiBold" font-weight="bold" font-size="18.0" fill="#002451" transform="matrix(1.00, 0.00, -0.00, -1.00, 991.8, 465.0)">C</text><text xml:space="preserve" font-family="Akrobat-SemiBold" font-weight="bold" font-size="18.0" fill="#002451" transform="matrix(1.00, 0.00, -0.00, -1.00, 1002.4, 465.0)"> </text><text xml:space="preserve" font-family="Akrobat-SemiBold" font-weight="bold" font-size="18.0" fill="#002451" transform="matrix(1.00, 0.00, -0.00, -1.00, 1008.2, 465.0)">2</text><text xml:space="preserve" font-family="Akrobat-SemiBold" font-weight="bold" font-size="18.0" fill="#002451" transform="matrix(1.00, 0.00, -0.00, -1.00, 1017.4, 465.0)">0</text><text xml:space="preserve" font-family="Akrobat-SemiBold" font-weight="bold" font-size="18.0" fill="#002451" transform="matrix(1.00, 0.00, -0.00, -1.00, 1027.5, 465.0)">0</text><text xml:space="preserve" font-family="Akrobat-SemiBold" font-weight="bold" font-size="18.0" fill="#002451" transform="matrix(1.00, 0.00, -0.00, -1.00, 1037.7, 465.0)">0</text><text xml:space="preserve" font-family="Akrobat-SemiBold" font-weight="bold" font-size="18.0" fill="#002451" transform="matrix(1.00, 0.00, -0.00, -1.00, 1047.9, 465.0)">2</text></g></g><path d="M 750.0 448.9 L 1170.0 448.9 L 1170.0 395.9 L 750.0 395.9 Z M 750.0 448.9 " fill="#E2F6FF"></path><path d="M 0.0 0.0 L 420.0 0.0 L 420.0 53.0 L 0.0 53.0 Z M 0.0 0.0 " fill="none" stroke="#000000" stroke-width="1.00" transform="matrix(1.00, 0.00, 0.00, -1.00, 750.0, 448.9)"></path><g><clipPath id="clip-637"><path d="M 749.1 395.0 L 1170.9 395.0 L 1170.9 449.8 L 749.1 449.8 Z M 749.1 395.0 "></path></clipPath><g clip-path="url(#clip-637)"><text xml:space="preserve" font-family="Akrobat-SemiBold" font-weight="bold" font-size="18.0" fill="#002451" transform="matrix(1.00, 0.00, -0.00, -1.00, 883.0, 426.0)">5</text><text xml:space="preserve" font-family="Akrobat-SemiBold" font-weight="bold" font-size="18.0" fill="#002451" transform="matrix(1.00, 0.00, -0.00, -1.00, 892.3, 426.0)">6</text><text xml:space="preserve" font-family="Akrobat-SemiBold" font-weight="bold" font-size="18.0" fill="#002451" transform="matrix(1.00, 0.00, -0.00, -1.00, 902.0, 426.0)">7</text><text xml:space="preserve" font-family="Akrobat-SemiBold" font-weight="bold" font-size="18.0" fill="#002451" transform="matrix(1.00, 0.00, -0.00, -1.00, 910.7, 426.0)">7</text><text xml:space="preserve" font-family="Akrobat-SemiBold" font-weight="bold" font-size="18.0" fill="#002451" transform="matrix(1.00, 0.00, -0.00, -1.00, 919.0, 426.0)"> </text><text xml:space="preserve" font-family="Akrobat-SemiBold" font-weight="bold" font-size="18.0" fill="#002451" transform="matrix(1.00, 0.00, -0.00, -1.00, 924.8, 426.0)">M</text><text xml:space="preserve" font-family="Akrobat-SemiBold" font-weight="bold" font-size="18.0" fill="#002451" transform="matrix(1.00, 0.00, -0.00, -1.00, 938.7, 426.0)">O</text><text xml:space="preserve" font-family="Akrobat-SemiBold" font-weight="bold" font-size="18.0" fill="#002451" transform="matrix(1.00, 0.00, -0.00, -1.00, 949.9, 426.0)">N</text><text xml:space="preserve" font-family="Akrobat-SemiBold" font-weight="bold" font-size="18.0" fill="#002451" transform="matrix(1.00, 0.00, -0.00, -1.00, 961.6, 426.0)">E</text><text xml:space="preserve" font-family="Akrobat-SemiBold" font-weight="bold" font-size="18.0" fill="#002451" transform="matrix(1.00, 0.00, -0.00, -1.00, 971.6, 426.0)">T</text><text xml:space="preserve" font-family="Akrobat-SemiBold" font-weight="bold" font-size="18.0" fill="#002451" transform="matrix(1.00, 0.00, -0.00, -1.00, 980.3, 426.0)">A</text><text xml:space="preserve" font-family="Akrobat-SemiBold" font-weight="bold" font-size="18.0" fill="#002451" transform="matrix(1.00, 0.00, -0.00, -1.00, 990.5, 426.0)">R</text><text xml:space="preserve" font-family="Akrobat-SemiBold" font-weight="bold" font-size="18.0" fill="#002451" transform="matrix(1.00, 0.00, -0.00, -1.00, 1001.2, 426.0)">Y</text><text xml:space="preserve" font-family="Akrobat-SemiBold" font-weight="bold" font-size="18.0" fill="#002451" transform="matrix(1.00, 0.00, -0.00, -1.00, 1010.8, 426.0)"> </text><text xml:space="preserve" font-family="Akrobat-SemiBold" font-weight="bold" font-size="18.0" fill="#002451" transform="matrix(1.00, 0.00, -0.00, -1.00, 1016.6, 426.0)">R</text><text xml:space="preserve" font-family="Akrobat-SemiBold" font-weight="bold" font-size="18.0" fill="#002451" transform="matrix(1.00, 0.00, -0.00, -1.00, 1027.3, 426.0)">D</text><text xml:space="preserve" font-family="Akrobat-SemiBold" font-weight="bold" font-size="18.0" fill="#002451" transform="matrix(1.00, 0.00, -0.00, -1.00, 1038.2, 426.0)"> </text><text xml:space="preserve" font-family="Akrobat-SemiBold" font-weight="bold" font-size="18.0" fill="#002451" transform="matrix(1.00, 0.00, -0.00, -1.00, 864.0, 404.0)">W</text><text xml:space="preserve" font-family="Akrobat-SemiBold" font-weight="bold" font-size="18.0" fill="#002451" transform="matrix(1.00, 0.00, -0.00, -1.00, 878.5, 404.0)">A</text><text xml:space="preserve" font-family="Akrobat-SemiBold" font-weight="bold" font-size="18.0" fill="#002451" transform="matrix(1.00, 0.00, -0.00, -1.00, 888.6, 404.0)">S</text><text xml:space="preserve" font-family="Akrobat-SemiBold" font-weight="bold" font-size="18.0" fill="#002451" transform="matrix(1.00, 0.00, -0.00, -1.00, 898.5, 404.0)">H</text><text xml:space="preserve" font-family="Akrobat-SemiBold" font-weight="bold" font-size="18.0" fill="#002451" transform="matrix(1.00, 0.00, -0.00, -1.00, 909.9, 404.0)">I</text><text xml:space="preserve" font-family="Akrobat-SemiBold" font-weight="bold" font-size="18.0" fill="#002451" transform="matrix(1.00, 0.00, -0.00, -1.00, 915.8, 404.0)">N</text><text xml:space="preserve" font-family="Akrobat-SemiBold" font-weight="bold" font-size="18.0" fill="#002451" transform="matrix(1.00, 0.00, -0.00, -1.00, 927.5, 404.0)">G</text><text xml:space="preserve" font-family="Akrobat-SemiBold" font-weight="bold" font-size="18.0" fill="#002451" transform="matrix(1.00, 0.00, -0.00, -1.00, 938.3, 404.0)">T</text><text xml:space="preserve" font-family="Akrobat-SemiBold" font-weight="bold" font-size="18.0" fill="#002451" transform="matrix(1.00, 0.00, -0.00, -1.00, 947.6, 404.0)">O</text><text xml:space="preserve" font-family="Akrobat-SemiBold" font-weight="bold" font-size="18.0" fill="#002451" transform="matrix(1.00, 0.00, -0.00, -1.00, 958.8, 404.0)">N</text><text xml:space="preserve" font-family="Akrobat-SemiBold" font-weight="bold" font-size="18.0" fill="#002451" transform="matrix(1.00, 0.00, -0.00, -1.00, 970.5, 404.0)">,</text><text xml:space="preserve" font-family="Akrobat-SemiBold" font-weight="bold" font-size="18.0" fill="#002451" transform="matrix(1.00, 0.00, -0.00, -1.00, 975.2, 404.0)"> </text><text xml:space="preserve" font-family="Akrobat-SemiBold" font-weight="bold" font-size="18.0" fill="#002451" transform="matrix(1.00, 0.00, -0.00, -1.00, 980.9, 404.0)">D</text><text xml:space="preserve" font-family="Akrobat-SemiBold" font-weight="bold" font-size="18.0" fill="#002451" transform="matrix(1.00, 0.00, -0.00, -1.00, 991.8, 404.0)">C</text><text xml:space="preserve" font-family="Akrobat-SemiBold" font-weight="bold" font-size="18.0" fill="#002451" transform="matrix(1.00, 0.00, -0.00, -1.00, 1002.4, 404.0)"> </text><text xml:space="preserve" font-family="Akrobat-SemiBold" font-weight="bold" font-size="18.0" fill="#002451" transform="matrix(1.00, 0.00, -0.00, -1.00, 1008.2, 404.0)">2</text><text xml:space="preserve" font-family="Akrobat-SemiBold" font-weight="bold" font-size="18.0" fill="#002451" transform="matrix(1.00, 0.00, -0.00, -1.00, 1017.4, 404.0)">0</text><text xml:space="preserve" font-family="Akrobat-SemiBold" font-weight="bold" font-size="18.0" fill="#002451" transform="matrix(1.00, 0.00, -0.00, -1.00, 1027.5, 404.0)">0</text><text xml:space="preserve" font-family="Akrobat-SemiBold" font-weight="bold" font-size="18.0" fill="#002451" transform="matrix(1.00, 0.00, -0.00, -1.00, 1037.7, 404.0)">0</text><text xml:space="preserve" font-family="Akrobat-SemiBold" font-weight="bold" font-size="18.0" fill="#002451" transform="matrix(1.00, 0.00, -0.00, -1.00, 1047.9, 404.0)">2</text></g></g><path d="M 750.0 387.5 L 1170.0 387.5 L 1170.0 334.5 L 750.0 334.5 Z M 750.0 387.5 " fill="#E2F6FF"></path><path d="M 0.0 0.0 L 420.0 0.0 L 420.0 53.0 L 0.0 53.0 Z M 0.0 0.0 " fill="none" stroke="#000000" stroke-width="1.00" transform="matrix(1.00, 0.00, 0.00, -1.00, 750.0, 387.5)"></path><g><clipPath id="clip-638"><path d="M 749.1 333.6 L 1170.9 333.6 L 1170.9 388.4 L 749.1 388.4 Z M 749.1 333.6 "></path></clipPath><g clip-path="url(#clip-638)"><text xml:space="preserve" font-family="Akrobat-SemiBold" font-weight="bold" font-size="18.0" fill="#002451" transform="matrix(1.00, 0.00, -0.00, -1.00, 891.0, 365.0)">9</text><text xml:space="preserve" font-family="Akrobat-SemiBold" font-weight="bold" font-size="18.0" fill="#002451" transform="matrix(1.00, 0.00, -0.00, -1.00, 900.7, 365.0)">8</text><text xml:space="preserve" font-family="Akrobat-SemiBold" font-weight="bold" font-size="18.0" fill="#002451" transform="matrix(1.00, 0.00, -0.00, -1.00, 910.7, 365.0)">7</text><text xml:space="preserve" font-family="Akrobat-SemiBold" font-weight="bold" font-size="18.0" fill="#002451" transform="matrix(1.00, 0.00, -0.00, -1.00, 918.6, 365.0)">6</text><text xml:space="preserve" font-family="Akrobat-SemiBold" font-weight="bold" font-size="18.0" fill="#002451" transform="matrix(1.00, 0.00, -0.00, -1.00, 928.3, 365.0)"> </text><text xml:space="preserve" font-family="Akrobat-SemiBold" font-weight="bold" font-size="18.0" fill="#002451" transform="matrix(1.00, 0.00, -0.00, -1.00, 934.1, 365.0)">O</text><text xml:space="preserve" font-family="Akrobat-SemiBold" font-weight="bold" font-size="18.0" fill="#002451" transform="matrix(1.00, 0.00, -0.00, -1.00, 945.3, 365.0)">U</text><text xml:space="preserve" font-family="Akrobat-SemiBold" font-weight="bold" font-size="18.0" fill="#002451" transform="matrix(1.00, 0.00, -0.00, -1.00, 956.5, 365.0)">T</text><text xml:space="preserve" font-family="Akrobat-SemiBold" font-weight="bold" font-size="18.0" fill="#002451" transform="matrix(1.00, 0.00, -0.00, -1.00, 965.7, 365.0)">E</text><text xml:space="preserve" font-family="Akrobat-SemiBold" font-weight="bold" font-size="18.0" fill="#002451" transform="matrix(1.00, 0.00, -0.00, -1.00, 975.8, 365.0)">R</text><text xml:space="preserve" font-family="Akrobat-SemiBold" font-weight="bold" font-size="18.0" fill="#002451" transform="matrix(1.00, 0.00, -0.00, -1.00, 986.5, 365.0)"> </text><text xml:space="preserve" font-family="Akrobat-SemiBold" font-weight="bold" font-size="18.0" fill="#002451" transform="matrix(1.00, 0.00, -0.00, -1.00, 992.3, 365.0)">M</text><text xml:space="preserve" font-family="Akrobat-SemiBold" font-weight="bold" font-size="18.0" fill="#002451" transform="matrix(1.00, 0.00, -0.00, -1.00, 1006.1, 365.0)"> </text><text xml:space="preserve" font-family="Akrobat-SemiBold" font-weight="bold" font-size="18.0" fill="#002451" transform="matrix(1.00, 0.00, -0.00, -1.00, 1011.9, 365.0)">S</text><text xml:space="preserve" font-family="Akrobat-SemiBold" font-weight="bold" font-size="18.0" fill="#002451" transform="matrix(1.00, 0.00, -0.00, -1.00, 1022.0, 365.0)">T</text><text xml:space="preserve" font-family="Akrobat-SemiBold" font-weight="bold" font-size="18.0" fill="#002451" transform="matrix(1.00, 0.00, -0.00, -1.00, 1031.3, 365.0)"> </text><text xml:space="preserve" font-family="Akrobat-SemiBold" font-weight="bold" font-size="18.0" fill="#002451" transform="matrix(1.00, 0.00, -0.00, -1.00, 864.0, 343.0)">W</text><text xml:space="preserve" font-family="Akrobat-SemiBold" font-weight="bold" font-size="18.0" fill="#002451" transform="matrix(1.00, 0.00, -0.00, -1.00, 878.5, 343.0)">A</text><text xml:space="preserve" font-family="Akrobat-SemiBold" font-weight="bold" font-size="18.0" fill="#002451" transform="matrix(1.00, 0.00, -0.00, -1.00, 888.6, 343.0)">S</text><text xml:space="preserve" font-family="Akrobat-SemiBold" font-weight="bold" font-size="18.0" fill="#002451" transform="matrix(1.00, 0.00, -0.00, -1.00, 898.5, 343.0)">H</text><text xml:space="preserve" font-family="Akrobat-SemiBold" font-weight="bold" font-size="18.0" fill="#002451" transform="matrix(1.00, 0.00, -0.00, -1.00, 909.9, 343.0)">I</text><text xml:space="preserve" font-family="Akrobat-SemiBold" font-weight="bold" font-size="18.0" fill="#002451" transform="matrix(1.00, 0.00, -0.00, -1.00, 915.8, 343.0)">N</text><text xml:space="preserve" font-family="Akrobat-SemiBold" font-weight="bold" font-size="18.0" fill="#002451" transform="matrix(1.00, 0.00, -0.00, -1.00, 927.5, 343.0)">G</text><text xml:space="preserve" font-family="Akrobat-SemiBold" font-weight="bold" font-size="18.0" fill="#002451" transform="matrix(1.00, 0.00, -0.00, -1.00, 938.3, 343.0)">T</text><text xml:space="preserve" font-family="Akrobat-SemiBold" font-weight="bold" font-size="18.0" fill="#002451" transform="matrix(1.00, 0.00, -0.00, -1.00, 947.6, 343.0)">O</text><text xml:space="preserve" font-family="Akrobat-SemiBold" font-weight="bold" font-size="18.0" fill="#002451" transform="matrix(1.00, 0.00, -0.00, -1.00, 958.8, 343.0)">N</text><text xml:space="preserve" font-family="Akrobat-SemiBold" font-weight="bold" font-size="18.0" fill="#002451" transform="matrix(1.00, 0.00, -0.00, -1.00, 970.5, 343.0)">,</text><text xml:space="preserve" font-family="Akrobat-SemiBold" font-weight="bold" font-size="18.0" fill="#002451" transform="matrix(1.00, 0.00, -0.00, -1.00, 975.2, 343.0)"> </text><text xml:space="preserve" font-family="Akrobat-SemiBold" font-weight="bold" font-size="18.0" fill="#002451" transform="matrix(1.00, 0.00, -0.00, -1.00, 980.9, 343.0)">D</text><text xml:space="preserve" font-family="Akrobat-SemiBold" font-weight="bold" font-size="18.0" fill="#002451" transform="matrix(1.00, 0.00, -0.00, -1.00, 991.8, 343.0)">C</text><text xml:space="preserve" font-family="Akrobat-SemiBold" font-weight="bold" font-size="18.0" fill="#002451" transform="matrix(1.00, 0.00, -0.00, -1.00, 1002.4, 343.0)"> </text><text xml:space="preserve" font-family="Akrobat-SemiBold" font-weight="bold" font-size="18.0" fill="#002451" transform="matrix(1.00, 0.00, -0.00, -1.00, 1008.2, 343.0)">2</text><text xml:space="preserve" font-family="Akrobat-SemiBold" font-weight="bold" font-size="18.0" fill="#002451" transform="matrix(1.00, 0.00, -0.00, -1.00, 1017.4, 343.0)">0</text><text xml:space="preserve" font-family="Akrobat-SemiBold" font-weight="bold" font-size="18.0" fill="#002451" transform="matrix(1.00, 0.00, -0.00, -1.00, 1027.5, 343.0)">0</text><text xml:space="preserve" font-family="Akrobat-SemiBold" font-weight="bold" font-size="18.0" fill="#002451" transform="matrix(1.00, 0.00, -0.00, -1.00, 1037.7, 343.0)">0</text><text xml:space="preserve" font-family="Akrobat-SemiBold" font-weight="bold" font-size="18.0" fill="#002451" transform="matrix(1.00, 0.00, -0.00, -1.00, 1047.9, 343.0)">2</text></g></g><text xml:space="preserve" font-family="Akrobat-SemiBold" font-weight="bold" font-size="14.0" fill="#000000" transform="matrix(1.00, 0.00, -0.00, -1.00, 755.0, 770.0)">C</text><text xml:space="preserve" font-family="Akrobat-SemiBold" font-weight="bold" font-size="14.0" fill="#000000" transform="matrix(1.00, 0.00, -0.00, -1.00, 763.2, 770.0)">U</text><text xml:space="preserve" font-family="Akrobat-SemiBold" font-weight="bold" font-size="14.0" fill="#000000" transform="matrix(1.00, 0.00, -0.00, -1.00, 771.9, 770.0)">R</text><text xml:space="preserve" font-family="Akrobat-SemiBold" font-weight="bold" font-size="14.0" fill="#000000" transform="matrix(1.00, 0.00, -0.00, -1.00, 780.2, 770.0)">R</text><text xml:space="preserve" font-family="Akrobat-SemiBold" font-weight="bold" font-size="14.0" fill="#000000" transform="matrix(1.00, 0.00, -0.00, -1.00, 788.5, 770.0)">E</text><text xml:space="preserve" font-family="Akrobat-SemiBold" font-weight="bold" font-size="14.0" fill="#000000" transform="matrix(1.00, 0.00, -0.00, -1.00, 796.4, 770.0)">N</text><text xml:space="preserve" font-family="Akrobat-SemiBold" font-weight="bold" font-size="14.0" fill="#000000" transform="matrix(1.00, 0.00, -0.00, -1.00, 805.4, 770.0)">T</text></g></svg>