<?xml version="1.0" encoding="UTF-8" standalone="no"?><svg xmlns="http://www.w3.org/2000/svg" xmlns:xlink="http://www.w3.org/1999/xlink" clip-rule="evenodd" stroke-miterlimit="4.00" viewBox="0 0 1920 1080"><desc>SVG generated by Keynote</desc><defs></defs><g transform="matrix(1.00, 0.00, -0.00, -1.00, 0.0, 1080.0)"><path d="M 0.0 1080.0 L 1920.0 1080.0 L 1920.0 0.0 L 0.0 0.0 Z M 0.0 1080.0 " fill="#FEFFFF"></path><g><clipPath id="clip-428"><path d="M 712.0 1047.0 L 1209.0 1047.0 L 1209.0 33.0 L 712.0 33.0 Z M 711.5 1047.0 "></path></clipPath><g clip-path="url(#clip-428)"><g><clipPath id="clip-429"><path d="M 1206.0 757.0 L 1207.5 757.0 C 1208.3 757.0 1209.0 757.7 1209.0 758.5 L 1209.0 830.5 C 1209.0 831.3 1208.3 832.0 1207.5 832.0 L 1206.0 832.0 L 1206.0 972.0 C 1206.0 1013.4 1172.4 1047.0 1131.0 1047.0 L 790.0 1047.0 C 748.6 1047.0 715.0 1013.4 715.0 972.0 L 715.0 919.0 L 713.5 919.0 C 712.7 919.0 712.0 918.3 712.0 917.5 L 712.0 879.5 C 712.0 878.7 712.7 878.0 713.5 878.0 L 715.0 878.0 L 715.0 832.0 L 713.5 832.0 C 712.7 832.0 712.0 831.3 712.0 830.5 L 712.0 758.5 C 712.0 757.7 712.7 757.0 713.5 757.0 L 715.0 757.0 L 715.0 740.0 L 713.5 740.0 C 712.7 740.0 712.0 739.3 712.0 738.5 L 712.0 666.5 C 712.0 665.7 712.7 665.0 713.5 665.0 L 715.0 665.0 L 715.0 108.0 C 715.0 66.6 748.6 33.0 790.0 33.0 L 1131.0 33.0 C 1172.4 33.0 1206.0 66.6 1206.0 108.0 L 1206.0 757.0 L 1206.0 757.0 L 1206.0 757.0 Z M 745.0 924.0 L 745.0 158.0 L 1176.0 158.0 L 1176.0 924.0 L 745.0 924.0 L 745.0 924.0 Z M 960.0 64.0 C 981.0 64.0 998.0 81.0 998.0 102.0 C 998.0 123.0 981.0 140.0 960.0 140.0 C 939.0 140.0 922.0 123.0 922.0 102.0 C 922.0 81.0 939.0 64.0 960.0 64.0 L 960.0 64.0 Z M 960.0 68.0 C 978.8 68.0 994.0 83.2 994.0 102.0 C 994.0 120.8 978.8 136.0 960.0 136.0 C 941.2 136.0 926.0 120.8 926.0 102.0 C 926.0 83.2 941.2 68.0 960.0 68.0 L 960.0 68.0 Z M 882.0 975.0 C 886.4 975.0 890.0 978.6 890.0 983.0 C 890.0 987.4 886.4 991.0 882.0 991.0 C 877.6 991.0 874.0 987.4 874.0 983.0 C 874.0 978.6 877.6 975.0 882.0 975.0 L 882.0 975.0 Z M 961.0 1010.0 C 963.8 1010.0 966.0 1012.2 966.0 1015.0 C 966.0 1017.8 963.8 1020.0 961.0 1020.0 C 958.2 1020.0 956.0 1017.8 956.0 1015.0 C 956.0 1012.2 958.2 1010.0 961.0 1010.0 L 961.0 1010.0 Z M 925.0 987.0 C 922.8 987.0 921.0 985.2 921.0 983.0 C 921.0 980.8 922.8 979.0 925.0 979.0 L 997.0 979.0 C 999.2 979.0 1001.0 980.8 1001.0 983.0 C 1001.0 985.2 999.2 987.0 997.0 987.0 L 925.0 987.0 L 925.0 987.0 Z M 925.0 987.0 "></path></clipPath><g clip-path="url(#clip-429)"><g><clipPath id="clip-430"><path d="M 712.0 33.0 L 1209.0 33.0 L 1209.0 1047.0 L 712.0 1047.0 Z M 712.0 33.0 "></path></clipPath><g clip-path="url(#clip-430)"><path d="M 707.0 1052.0 L 1214.0 1052.0 L 1214.0 28.0 L 707.0 28.0 Z M 707.0 1052.0 " fill="#000000"></path></g></g></g></g></g></g><path d="M 743.8 924.7 L 1176.2 924.7 L 1176.2 157.3 L 743.8 157.3 Z M 743.8 924.7 " fill="#000000"></path><g opacity="0.38"><g><clipPath id="clip-431"><path d="M 744.0 925.0 L 1176.0 925.0 L 1176.0 155.0 L 744.0 155.0 Z M 744.1 924.5 "></path></clipPath><g clip-path="url(#clip-431)"><g><clipPath id="clip-432"><path d="M 743.0 154.0 L 1177.0 154.0 L 1177.0 926.0 L 743.0 926.0 Z M 743.0 154.0 "></path></clipPath><g clip-path="url(#clip-432)"><image xlink:href="../../F28C9CA0-A05A-4A2C-90F7-8BC49B335395/assets/EC732C86881DD7D4A26BF59C69194A10.png" width="813.00" height="540.00" transform="matrix(1.43, 0.00, -0.00, -1.43, 160.0, 925.0)"></image></g></g></g></g></g><image xlink:href="../../F28C9CA0-A05A-4A2C-90F7-8BC49B335395/assets/20064BB011BBDF5DF94BD6FDEAB4DB4C.png" width="106.00" height="101.00" transform="matrix(0.49, 0.00, -0.00, -0.50, 937.0, 916.0)"></image><image xlink:href="../../F28C9CA0-A05A-4A2C-90F7-8BC49B335395/assets/1DA3DC7FF4F320EB7CB273595CED7E5B.png" width="555.00" height="200.00" transform="matrix(0.50, 0.00, -0.00, -0.50, 1591.0, 150.0)"></image><path d="M 750.0 856.6 L 1170.0 856.6 L 1170.0 811.6 L 750.0 811.6 Z M 750.0 856.6 " fill="#797979"></path><path d="M 0.0 0.0 L 420.0 0.0 L 420.0 45.0 L 0.0 45.0 Z M 0.0 0.0 " fill="none" stroke="#52575F" stroke-width="1.00" transform="matrix(1.00, 0.00, 0.00, -1.00, 750.0, 856.6)"></path><g><clipPath id="clip-433"><path d="M 745.5 807.1 L 1174.5 807.1 L 1174.5 861.1 L 745.5 861.1 Z M 745.5 807.1 "></path></clipPath><g clip-path="url(#clip-433)"><text xml:space="preserve" font-family="Akrobat-Light" font-size="30.0" fill="#FEFFFF" transform="matrix(1.00, 0.00, -0.00, -1.00, 931.0, 822.0)">F</text><text xml:space="preserve" font-family="Akrobat-Light" font-size="30.0" fill="#FEFFFF" transform="matrix(1.00, 0.00, -0.00, -1.00, 946.5, 822.0)">I</text><text xml:space="preserve" font-family="Akrobat-Light" font-size="30.0" fill="#FEFFFF" transform="matrix(1.00, 0.00, -0.00, -1.00, 955.8, 822.0)">N</text><text xml:space="preserve" font-family="Akrobat-Light" font-size="30.0" fill="#FEFFFF" transform="matrix(1.00, 0.00, -0.00, -1.00, 974.8, 822.0)">D</text></g></g><path d="M 750.0 806.5 L 1170.0 806.5 L 1170.0 761.5 L 750.0 761.5 Z M 750.0 806.5 " fill="#797979"></path><path d="M 0.0 0.0 L 420.0 0.0 L 420.0 45.0 L 0.0 45.0 Z M 0.0 0.0 " fill="none" stroke="#52575F" stroke-width="1.00" transform="matrix(1.00, 0.00, 0.00, -1.00, 750.0, 806.5)"></path><g><clipPath id="clip-434"><path d="M 745.5 757.0 L 1174.5 757.0 L 1174.5 811.0 L 745.5 811.0 Z M 745.5 757.0 "></path></clipPath><g clip-path="url(#clip-434)"><text xml:space="preserve" font-family="Akrobat-Light" font-size="30.0" fill="#FEFFFF" transform="matrix(1.00, 0.00, -0.00, -1.00, 897.0, 772.0)">D</text><text xml:space="preserve" font-family="Akrobat-Light" font-size="30.0" fill="#FEFFFF" transform="matrix(1.00, 0.00, -0.00, -1.00, 914.8, 772.0)">I</text><text xml:space="preserve" font-family="Akrobat-Light" font-size="30.0" fill="#FEFFFF" transform="matrix(1.00, 0.00, -0.00, -1.00, 924.0, 772.0)">S</text><text xml:space="preserve" font-family="Akrobat-Light" font-size="30.0" fill="#FEFFFF" transform="matrix(1.00, 0.00, -0.00, -1.00, 940.2, 772.0)">C</text><text xml:space="preserve" font-family="Akrobat-Light" font-size="30.0" fill="#FEFFFF" transform="matrix(1.00, 0.00, -0.00, -1.00, 957.4, 772.0)">O</text><text xml:space="preserve" font-family="Akrobat-Light" font-size="30.0" fill="#FEFFFF" transform="matrix(1.00, 0.00, -0.00, -1.00, 975.8, 772.0)">V</text><text xml:space="preserve" font-family="Akrobat-Light" font-size="30.0" fill="#FEFFFF" transform="matrix(1.00, 0.00, -0.00, -1.00, 991.9, 772.0)">E</text><text xml:space="preserve" font-family="Akrobat-Light" font-size="30.0" fill="#FEFFFF" transform="matrix(1.00, 0.00, -0.00, -1.00, 1008.3, 772.0)">R</text></g></g><path d="M 750.0 756.4 L 1170.0 756.4 L 1170.0 711.4 L 750.0 711.4 Z M 750.0 756.4 " fill="#797979"></path><path d="M 0.0 0.0 L 420.0 0.0 L 420.0 45.0 L 0.0 45.0 Z M 0.0 0.0 " fill="none" stroke="#52575F" stroke-width="1.00" transform="matrix(1.00, 0.00, 0.00, -1.00, 750.0, 756.4)"></path><g><clipPath id="clip-435"><path d="M 745.5 706.9 L 1174.5 706.9 L 1174.5 760.9 L 745.5 760.9 Z M 745.5 706.9 "></path></clipPath><g clip-path="url(#clip-435)"><text xml:space="preserve" font-family="Akrobat-Light" font-size="30.0" fill="#FEFFFF" transform="matrix(1.00, 0.00, -0.00, -1.00, 892.0, 722.0)">F</text><text xml:space="preserve" font-family="Akrobat-Light" font-size="30.0" fill="#FEFFFF" transform="matrix(1.00, 0.00, -0.00, -1.00, 906.6, 722.0)">A</text><text xml:space="preserve" font-family="Akrobat-Light" font-size="30.0" fill="#FEFFFF" transform="matrix(1.00, 0.00, -0.00, -1.00, 922.5, 722.0)">V</text><text xml:space="preserve" font-family="Akrobat-Light" font-size="30.0" fill="#FEFFFF" transform="matrix(1.00, 0.00, -0.00, -1.00, 938.6, 722.0)">O</text><text xml:space="preserve" font-family="Akrobat-Light" font-size="30.0" fill="#FEFFFF" transform="matrix(1.00, 0.00, -0.00, -1.00, 957.0, 722.0)">R</text><text xml:space="preserve" font-family="Akrobat-Light" font-size="30.0" fill="#FEFFFF" transform="matrix(1.00, 0.00, -0.00, -1.00, 974.2, 722.0)">I</text><text xml:space="preserve" font-family="Akrobat-Light" font-size="30.0" fill="#FEFFFF" transform="matrix(1.00, 0.00, -0.00, -1.00, 983.4, 722.0)">T</text><text xml:space="preserve" font-family="Akrobat-Light" font-size="30.0" fill="#FEFFFF" transform="matrix(1.00, 0.00, -0.00, -1.00, 998.4, 722.0)">E</text><text xml:space="preserve" font-family="Akrobat-Light" font-size="30.0" fill="#FEFFFF" transform="matrix(1.00, 0.00, -0.00, -1.00, 1014.8, 722.0)">S</text></g></g><path d="M 980.0 403.3 C 989.3 394.0 989.3 378.8 980.0 369.4 C 970.6 360.0 955.4 360.0 946.0 369.4 C 936.7 378.8 936.7 394.0 946.0 403.3 C 955.4 412.7 970.6 412.7 980.0 403.3 Z M 980.0 403.3 " fill="#FEFFFF" fill-opacity="0.30"></path><path d="M 41.0 7.0 C 50.3 16.4 50.3 31.6 41.0 41.0 C 31.6 50.3 16.4 50.3 7.0 41.0 C -2.3 31.6 -2.3 16.4 7.0 7.0 C 16.4 -2.3 31.6 -2.3 41.0 7.0 Z M 41.0 7.0 " fill="none" stroke="#FEFFFF" stroke-width="2.00" transform="matrix(1.00, 0.00, 0.00, -1.00, 939.0, 410.4)"></path><g><clipPath id="clip-436"><path d="M 939.0 359.3 L 987.0 359.3 L 987.0 413.3 L 939.0 413.3 Z M 939.0 359.3 "></path></clipPath><g clip-path="url(#clip-436)"><text xml:space="preserve" font-family="Entypo" font-size="36.0" fill="#FEFFFF" transform="matrix(1.00, 0.00, -0.00, -1.00, 953.0, 377.0)">☼</text></g></g><path d="M 1160.3 903.6 C 1167.3 896.5 1167.3 885.1 1160.3 878.1 C 1153.2 871.1 1141.8 871.1 1134.8 878.1 C 1127.8 885.1 1127.8 896.5 1134.8 903.6 C 1141.8 910.6 1153.2 910.6 1160.3 903.6 Z M 1160.3 903.6 " fill="#FEFFFF" fill-opacity="0.30"></path><path d="M 30.7 5.3 C 37.8 12.3 37.8 23.7 30.7 30.7 C 23.7 37.8 12.3 37.8 5.3 30.7 C -1.8 23.7 -1.8 12.3 5.3 5.3 C 12.3 -1.8 23.7 -1.8 30.7 5.3 Z M 30.7 5.3 " fill="none" stroke="#FEFFFF" stroke-width="2.00" transform="matrix(1.00, 0.00, 0.00, -1.00, 1129.5, 908.8)"></path><g><clipPath id="clip-437"><path d="M 1129.5 869.8 L 1165.5 869.8 L 1165.5 911.8 L 1129.5 911.8 Z M 1129.5 869.8 "></path></clipPath><g clip-path="url(#clip-437)"><text xml:space="preserve" font-family="Entypo" font-size="28.0" fill="#FEFFFF" transform="matrix(1.00, 0.00, -0.00, -1.00, 1140.0, 884.0)">⚙</text></g></g><path d="M 752.0 496.6 L 952.0 496.6 L 952.0 452.6 L 752.0 452.6 Z M 752.0 496.6 " fill="#797979" fill-opacity="0.50"></path><path d="M 0.0 0.0 L 200.0 0.0 L 200.0 44.0 L 0.0 44.0 Z M 0.0 0.0 " fill="none" stroke="#FEFFFF" stroke-width="2.00" transform="matrix(1.00, 0.00, 0.00, -1.00, 752.0, 496.6)"></path><g><clipPath id="clip-438"><path d="M 752.8 453.4 L 951.2 453.4 L 951.2 495.8 L 752.8 495.8 Z M 752.8 453.4 "></path></clipPath><g clip-path="url(#clip-438)"><text xml:space="preserve" font-family="Akrobat-SemiBold" font-weight="bold" font-size="14.0" fill="#FEFFFF" transform="matrix(1.00, 0.00, -0.00, -1.00, 810.0, 477.0)">1</text><text xml:space="preserve" font-family="Akrobat-SemiBold" font-weight="bold" font-size="14.0" fill="#FEFFFF" transform="matrix(1.00, 0.00, -0.00, -1.00, 815.4, 477.0)">8</text><text xml:space="preserve" font-family="Akrobat-SemiBold" font-weight="bold" font-size="14.0" fill="#FEFFFF" transform="matrix(1.00, 0.00, -0.00, -1.00, 823.3, 477.0)">5</text><text xml:space="preserve" font-family="Akrobat-SemiBold" font-weight="bold" font-size="14.0" fill="#FEFFFF" transform="matrix(1.00, 0.00, -0.00, -1.00, 830.5, 477.0)">5</text><text xml:space="preserve" font-family="Akrobat-SemiBold" font-weight="bold" font-size="14.0" fill="#FEFFFF" transform="matrix(1.00, 0.00, -0.00, -1.00, 837.7, 477.0)"> </text><text xml:space="preserve" font-family="Akrobat-SemiBold" font-weight="bold" font-size="14.0" fill="#FEFFFF" transform="matrix(1.00, 0.00, -0.00, -1.00, 842.2, 477.0)">K</text><text xml:space="preserve" font-family="Akrobat-SemiBold" font-weight="bold" font-size="14.0" fill="#FEFFFF" transform="matrix(1.00, 0.00, -0.00, -1.00, 850.5, 477.0)"> </text><text xml:space="preserve" font-family="Akrobat-SemiBold" font-weight="bold" font-size="14.0" fill="#FEFFFF" transform="matrix(1.00, 0.00, -0.00, -1.00, 855.0, 477.0)">S</text><text xml:space="preserve" font-family="Akrobat-SemiBold" font-weight="bold" font-size="14.0" fill="#FEFFFF" transform="matrix(1.00, 0.00, -0.00, -1.00, 862.8, 477.0)">T</text><text xml:space="preserve" font-family="Akrobat-SemiBold" font-weight="bold" font-size="14.0" fill="#FEFFFF" transform="matrix(1.00, 0.00, -0.00, -1.00, 870.0, 477.0)"> </text><text xml:space="preserve" font-family="Akrobat-SemiBold" font-weight="bold" font-size="14.0" fill="#FEFFFF" transform="matrix(1.00, 0.00, -0.00, -1.00, 874.5, 477.0)">N</text><text xml:space="preserve" font-family="Akrobat-SemiBold" font-weight="bold" font-size="14.0" fill="#FEFFFF" transform="matrix(1.00, 0.00, -0.00, -1.00, 883.6, 477.0)">W</text><text xml:space="preserve" font-family="Akrobat-SemiBold" font-weight="bold" font-size="14.0" fill="#FEFFFF" transform="matrix(1.00, 0.00, -0.00, -1.00, 895.3, 477.0)"> </text><text xml:space="preserve" font-family="Akrobat-SemiBold" font-weight="bold" font-size="14.0" fill="#FEFFFF" transform="matrix(1.00, 0.00, -0.00, -1.00, 778.0, 460.0)">W</text><text xml:space="preserve" font-family="Akrobat-SemiBold" font-weight="bold" font-size="14.0" fill="#FEFFFF" transform="matrix(1.00, 0.00, -0.00, -1.00, 789.3, 460.0)">A</text><text xml:space="preserve" font-family="Akrobat-SemiBold" font-weight="bold" font-size="14.0" fill="#FEFFFF" transform="matrix(1.00, 0.00, -0.00, -1.00, 797.2, 460.0)">S</text><text xml:space="preserve" font-family="Akrobat-SemiBold" font-weight="bold" font-size="14.0" fill="#FEFFFF" transform="matrix(1.00, 0.00, -0.00, -1.00, 804.8, 460.0)">H</text><text xml:space="preserve" font-family="Akrobat-SemiBold" font-weight="bold" font-size="14.0" fill="#FEFFFF" transform="matrix(1.00, 0.00, -0.00, -1.00, 813.7, 460.0)">I</text><text xml:space="preserve" font-family="Akrobat-SemiBold" font-weight="bold" font-size="14.0" fill="#FEFFFF" transform="matrix(1.00, 0.00, -0.00, -1.00, 818.3, 460.0)">N</text><text xml:space="preserve" font-family="Akrobat-SemiBold" font-weight="bold" font-size="14.0" fill="#FEFFFF" transform="matrix(1.00, 0.00, -0.00, -1.00, 827.4, 460.0)">G</text><text xml:space="preserve" font-family="Akrobat-SemiBold" font-weight="bold" font-size="14.0" fill="#FEFFFF" transform="matrix(1.00, 0.00, -0.00, -1.00, 835.8, 460.0)">T</text><text xml:space="preserve" font-family="Akrobat-SemiBold" font-weight="bold" font-size="14.0" fill="#FEFFFF" transform="matrix(1.00, 0.00, -0.00, -1.00, 843.0, 460.0)">O</text><text xml:space="preserve" font-family="Akrobat-SemiBold" font-weight="bold" font-size="14.0" fill="#FEFFFF" transform="matrix(1.00, 0.00, -0.00, -1.00, 851.8, 460.0)">N</text><text xml:space="preserve" font-family="Akrobat-SemiBold" font-weight="bold" font-size="14.0" fill="#FEFFFF" transform="matrix(1.00, 0.00, -0.00, -1.00, 860.8, 460.0)">,</text><text xml:space="preserve" font-family="Akrobat-SemiBold" font-weight="bold" font-size="14.0" fill="#FEFFFF" transform="matrix(1.00, 0.00, -0.00, -1.00, 864.5, 460.0)"> </text><text xml:space="preserve" font-family="Akrobat-SemiBold" font-weight="bold" font-size="14.0" fill="#FEFFFF" transform="matrix(1.00, 0.00, -0.00, -1.00, 869.0, 460.0)">D</text><text xml:space="preserve" font-family="Akrobat-SemiBold" font-weight="bold" font-size="14.0" fill="#FEFFFF" transform="matrix(1.00, 0.00, -0.00, -1.00, 877.4, 460.0)">C</text><text xml:space="preserve" font-family="Akrobat-SemiBold" font-weight="bold" font-size="14.0" fill="#FEFFFF" transform="matrix(1.00, 0.00, -0.00, -1.00, 885.6, 460.0)"> </text><text xml:space="preserve" font-family="Akrobat-SemiBold" font-weight="bold" font-size="14.0" fill="#FEFFFF" transform="matrix(1.00, 0.00, -0.00, -1.00, 890.1, 460.0)">2</text><text xml:space="preserve" font-family="Akrobat-SemiBold" font-weight="bold" font-size="14.0" fill="#FEFFFF" transform="matrix(1.00, 0.00, -0.00, -1.00, 897.3, 460.0)">0</text><text xml:space="preserve" font-family="Akrobat-SemiBold" font-weight="bold" font-size="14.0" fill="#FEFFFF" transform="matrix(1.00, 0.00, -0.00, -1.00, 905.2, 460.0)">0</text><text xml:space="preserve" font-family="Akrobat-SemiBold" font-weight="bold" font-size="14.0" fill="#FEFFFF" transform="matrix(1.00, 0.00, -0.00, -1.00, 913.1, 460.0)">0</text><text xml:space="preserve" font-family="Akrobat-SemiBold" font-weight="bold" font-size="14.0" fill="#FEFFFF" transform="matrix(1.00, 0.00, -0.00, -1.00, 921.0, 460.0)">2</text></g></g><g><clipPath id="clip-439"><path d="M 752.0 702.0 L 952.0 702.0 L 952.0 502.0 L 752.0 502.0 Z M 752.0 702.2 "></path></clipPath><g clip-path="url(#clip-439)"><image xlink:href="../../852D5869-872B-4984-98EF-AC2DB5F4A5AA/assets/9D3CBD253A2B895B5B8A41004E8C3402.png" width="850.00" height="566.00" transform="matrix(0.57, 0.00, -0.00, -0.38, 510.0, 710.0)"></image></g></g><path d="M 969.4 496.6 L 1169.4 496.6 L 1169.4 452.6 L 969.4 452.6 Z M 969.4 496.6 " fill="#797979" fill-opacity="0.50"></path><path d="M 0.0 0.0 L 200.0 0.0 L 200.0 44.0 L 0.0 44.0 Z M 0.0 0.0 " fill="none" stroke="#FEFFFF" stroke-width="2.00" transform="matrix(1.00, 0.00, 0.00, -1.00, 969.4, 496.6)"></path><g><clipPath id="clip-440"><path d="M 970.2 453.4 L 1168.6 453.4 L 1168.6 495.8 L 970.2 495.8 Z M 970.2 453.4 "></path></clipPath><g clip-path="url(#clip-440)"><text xml:space="preserve" font-family="Akrobat-SemiBold" font-weight="bold" font-size="14.0" fill="#FEFFFF" transform="matrix(1.00, 0.00, -0.00, -1.00, 1007.0, 477.0)">1</text><text xml:space="preserve" font-family="Akrobat-SemiBold" font-weight="bold" font-size="14.0" fill="#FEFFFF" transform="matrix(1.00, 0.00, -0.00, -1.00, 1012.4, 477.0)">7</text><text xml:space="preserve" font-family="Akrobat-SemiBold" font-weight="bold" font-size="14.0" fill="#FEFFFF" transform="matrix(1.00, 0.00, -0.00, -1.00, 1018.9, 477.0)">1</text><text xml:space="preserve" font-family="Akrobat-SemiBold" font-weight="bold" font-size="14.0" fill="#FEFFFF" transform="matrix(1.00, 0.00, -0.00, -1.00, 1024.3, 477.0)">3</text><text xml:space="preserve" font-family="Akrobat-SemiBold" font-weight="bold" font-size="14.0" fill="#FEFFFF" transform="matrix(1.00, 0.00, -0.00, -1.00, 1031.5, 477.0)"> </text><text xml:space="preserve" font-family="Akrobat-SemiBold" font-weight="bold" font-size="14.0" fill="#FEFFFF" transform="matrix(1.00, 0.00, -0.00, -1.00, 1036.0, 477.0)">L</text><text xml:space="preserve" font-family="Akrobat-SemiBold" font-weight="bold" font-size="14.0" fill="#FEFFFF" transform="matrix(1.00, 0.00, -0.00, -1.00, 1043.1, 477.0)">I</text><text xml:space="preserve" font-family="Akrobat-SemiBold" font-weight="bold" font-size="14.0" fill="#FEFFFF" transform="matrix(1.00, 0.00, -0.00, -1.00, 1047.7, 477.0)">N</text><text xml:space="preserve" font-family="Akrobat-SemiBold" font-weight="bold" font-size="14.0" fill="#FEFFFF" transform="matrix(1.00, 0.00, -0.00, -1.00, 1056.8, 477.0)">C</text><text xml:space="preserve" font-family="Akrobat-SemiBold" font-weight="bold" font-size="14.0" fill="#FEFFFF" transform="matrix(1.00, 0.00, -0.00, -1.00, 1065.0, 477.0)">O</text><text xml:space="preserve" font-family="Akrobat-SemiBold" font-weight="bold" font-size="14.0" fill="#FEFFFF" transform="matrix(1.00, 0.00, -0.00, -1.00, 1073.7, 477.0)">L</text><text xml:space="preserve" font-family="Akrobat-SemiBold" font-weight="bold" font-size="14.0" fill="#FEFFFF" transform="matrix(1.00, 0.00, -0.00, -1.00, 1080.8, 477.0)">N</text><text xml:space="preserve" font-family="Akrobat-SemiBold" font-weight="bold" font-size="14.0" fill="#FEFFFF" transform="matrix(1.00, 0.00, -0.00, -1.00, 1089.9, 477.0)"> </text><text xml:space="preserve" font-family="Akrobat-SemiBold" font-weight="bold" font-size="14.0" fill="#FEFFFF" transform="matrix(1.00, 0.00, -0.00, -1.00, 1094.4, 477.0)">R</text><text xml:space="preserve" font-family="Akrobat-SemiBold" font-weight="bold" font-size="14.0" fill="#FEFFFF" transform="matrix(1.00, 0.00, -0.00, -1.00, 1102.7, 477.0)">D</text><text xml:space="preserve" font-family="Akrobat-SemiBold" font-weight="bold" font-size="14.0" fill="#FEFFFF" transform="matrix(1.00, 0.00, -0.00, -1.00, 1111.2, 477.0)"> </text><text xml:space="preserve" font-family="Akrobat-SemiBold" font-weight="bold" font-size="14.0" fill="#FEFFFF" transform="matrix(1.00, 0.00, -0.00, -1.00, 1115.7, 477.0)">N</text><text xml:space="preserve" font-family="Akrobat-SemiBold" font-weight="bold" font-size="14.0" fill="#FEFFFF" transform="matrix(1.00, 0.00, -0.00, -1.00, 1124.8, 477.0)">E</text><text xml:space="preserve" font-family="Akrobat-SemiBold" font-weight="bold" font-size="14.0" fill="#FEFFFF" transform="matrix(1.00, 0.00, -0.00, -1.00, 1132.6, 477.0)"> </text><text xml:space="preserve" font-family="Akrobat-SemiBold" font-weight="bold" font-size="14.0" fill="#FEFFFF" transform="matrix(1.00, 0.00, -0.00, -1.00, 995.0, 460.0)">W</text><text xml:space="preserve" font-family="Akrobat-SemiBold" font-weight="bold" font-size="14.0" fill="#FEFFFF" transform="matrix(1.00, 0.00, -0.00, -1.00, 1006.3, 460.0)">A</text><text xml:space="preserve" font-family="Akrobat-SemiBold" font-weight="bold" font-size="14.0" fill="#FEFFFF" transform="matrix(1.00, 0.00, -0.00, -1.00, 1014.2, 460.0)">S</text><text xml:space="preserve" font-family="Akrobat-SemiBold" font-weight="bold" font-size="14.0" fill="#FEFFFF" transform="matrix(1.00, 0.00, -0.00, -1.00, 1021.8, 460.0)">H</text><text xml:space="preserve" font-family="Akrobat-SemiBold" font-weight="bold" font-size="14.0" fill="#FEFFFF" transform="matrix(1.00, 0.00, -0.00, -1.00, 1030.7, 460.0)">I</text><text xml:space="preserve" font-family="Akrobat-SemiBold" font-weight="bold" font-size="14.0" fill="#FEFFFF" transform="matrix(1.00, 0.00, -0.00, -1.00, 1035.3, 460.0)">N</text><text xml:space="preserve" font-family="Akrobat-SemiBold" font-weight="bold" font-size="14.0" fill="#FEFFFF" transform="matrix(1.00, 0.00, -0.00, -1.00, 1044.4, 460.0)">G</text><text xml:space="preserve" font-family="Akrobat-SemiBold" font-weight="bold" font-size="14.0" fill="#FEFFFF" transform="matrix(1.00, 0.00, -0.00, -1.00, 1052.8, 460.0)">T</text><text xml:space="preserve" font-family="Akrobat-SemiBold" font-weight="bold" font-size="14.0" fill="#FEFFFF" transform="matrix(1.00, 0.00, -0.00, -1.00, 1060.0, 460.0)">O</text><text xml:space="preserve" font-family="Akrobat-SemiBold" font-weight="bold" font-size="14.0" fill="#FEFFFF" transform="matrix(1.00, 0.00, -0.00, -1.00, 1068.8, 460.0)">N</text><text xml:space="preserve" font-family="Akrobat-SemiBold" font-weight="bold" font-size="14.0" fill="#FEFFFF" transform="matrix(1.00, 0.00, -0.00, -1.00, 1077.8, 460.0)">,</text><text xml:space="preserve" font-family="Akrobat-SemiBold" font-weight="bold" font-size="14.0" fill="#FEFFFF" transform="matrix(1.00, 0.00, -0.00, -1.00, 1081.5, 460.0)"> </text><text xml:space="preserve" font-family="Akrobat-SemiBold" font-weight="bold" font-size="14.0" fill="#FEFFFF" transform="matrix(1.00, 0.00, -0.00, -1.00, 1086.0, 460.0)">D</text><text xml:space="preserve" font-family="Akrobat-SemiBold" font-weight="bold" font-size="14.0" fill="#FEFFFF" transform="matrix(1.00, 0.00, -0.00, -1.00, 1094.4, 460.0)">C</text><text xml:space="preserve" font-family="Akrobat-SemiBold" font-weight="bold" font-size="14.0" fill="#FEFFFF" transform="matrix(1.00, 0.00, -0.00, -1.00, 1102.6, 460.0)"> </text><text xml:space="preserve" font-family="Akrobat-SemiBold" font-weight="bold" font-size="14.0" fill="#FEFFFF" transform="matrix(1.00, 0.00, -0.00, -1.00, 1107.1, 460.0)">2</text><text xml:space="preserve" font-family="Akrobat-SemiBold" font-weight="bold" font-size="14.0" fill="#FEFFFF" transform="matrix(1.00, 0.00, -0.00, -1.00, 1114.3, 460.0)">0</text><text xml:space="preserve" font-family="Akrobat-SemiBold" font-weight="bold" font-size="14.0" fill="#FEFFFF" transform="matrix(1.00, 0.00, -0.00, -1.00, 1122.2, 460.0)">0</text><text xml:space="preserve" font-family="Akrobat-SemiBold" font-weight="bold" font-size="14.0" fill="#FEFFFF" transform="matrix(1.00, 0.00, -0.00, -1.00, 1130.1, 460.0)">0</text><text xml:space="preserve" font-family="Akrobat-SemiBold" font-weight="bold" font-size="14.0" fill="#FEFFFF" transform="matrix(1.00, 0.00, -0.00, -1.00, 1138.0, 460.0)">2</text></g></g><g><clipPath id="clip-441"><path d="M 969.0 702.0 L 1169.0 702.0 L 1169.0 502.0 L 969.0 502.0 Z M 969.4 702.2 "></path></clipPath><g clip-path="url(#clip-441)"><image xlink:href="../../2C8DF491-FC47-49AD-9F65-0B5E18AEB122/assets/98EA419B894E714D840D0A0D96E015FD.jpeg" width="540.00" height="372.00" transform="matrix(0.54, 0.00, -0.00, -0.54, 924.0, 702.0)"></image></g></g></g></svg>