<?xml version="1.0" encoding="UTF-8" standalone="no"?><svg xmlns="http://www.w3.org/2000/svg" xmlns:xlink="http://www.w3.org/1999/xlink" clip-rule="evenodd" stroke-miterlimit="4.00" viewBox="0 0 1920 1080"><desc>SVG generated by Keynote</desc><defs></defs><g transform="matrix(1.00, 0.00, -0.00, -1.00, 0.0, 1080.0)"><path d="M 0.0 1080.0 L 1920.0 1080.0 L 1920.0 0.0 L 0.0 0.0 Z M 0.0 1080.0 " fill="#FEFFFF"></path><g><clipPath id="clip-2453"><path d="M 1206.0 757.0 L 1207.5 757.0 C 1208.3 757.0 1209.0 757.7 1209.0 758.5 L 1209.0 830.5 C 1209.0 831.3 1208.3 832.0 1207.5 832.0 L 1206.0 832.0 L 1206.0 972.0 C 1206.0 1013.4 1172.4 1047.0 1131.0 1047.0 L 790.0 1047.0 C 748.6 1047.0 715.0 1013.4 715.0 972.0 L 715.0 919.0 L 713.5 919.0 C 712.7 919.0 712.0 918.3 712.0 917.5 L 712.0 879.5 C 712.0 878.7 712.7 878.0 713.5 878.0 L 715.0 878.0 L 715.0 832.0 L 713.5 832.0 C 712.7 832.0 712.0 831.3 712.0 830.5 L 712.0 758.5 C 712.0 757.7 712.7 757.0 713.5 757.0 L 715.0 757.0 L 715.0 740.0 L 713.5 740.0 C 712.7 740.0 712.0 739.3 712.0 738.5 L 712.0 666.5 C 712.0 665.7 712.7 665.0 713.5 665.0 L 715.0 665.0 L 715.0 108.0 C 715.0 66.6 748.6 33.0 790.0 33.0 L 1131.0 33.0 C 1172.4 33.0 1206.0 66.6 1206.0 108.0 L 1206.0 757.0 L 1206.0 757.0 L 1206.0 757.0 Z M 745.0 924.0 L 745.0 158.0 L 1176.0 158.0 L 1176.0 924.0 L 745.0 924.0 L 745.0 924.0 Z M 960.0 64.0 C 981.0 64.0 998.0 81.0 998.0 102.0 C 998.0 123.0 981.0 140.0 960.0 140.0 C 939.0 140.0 922.0 123.0 922.0 102.0 C 922.0 81.0 939.0 64.0 960.0 64.0 L 960.0 64.0 Z M 960.0 68.0 C 978.8 68.0 994.0 83.2 994.0 102.0 C 994.0 120.8 978.8 136.0 960.0 136.0 C 941.2 136.0 926.0 120.8 926.0 102.0 C 926.0 83.2 941.2 68.0 960.0 68.0 L 960.0 68.0 Z M 882.0 975.0 C 886.4 975.0 890.0 978.6 890.0 983.0 C 890.0 987.4 886.4 991.0 882.0 991.0 C 877.6 991.0 874.0 987.4 874.0 983.0 C 874.0 978.6 877.6 975.0 882.0 975.0 L 882.0 975.0 Z M 961.0 1010.0 C 963.8 1010.0 966.0 1012.2 966.0 1015.0 C 966.0 1017.8 963.8 1020.0 961.0 1020.0 C 958.2 1020.0 956.0 1017.8 956.0 1015.0 C 956.0 1012.2 958.2 1010.0 961.0 1010.0 L 961.0 1010.0 Z M 925.0 987.0 C 922.8 987.0 921.0 985.2 921.0 983.0 C 921.0 980.8 922.8 979.0 925.0 979.0 L 997.0 979.0 C 999.2 979.0 1001.0 980.8 1001.0 983.0 C 1001.0 985.2 999.2 987.0 997.0 987.0 L 925.0 987.0 L 925.0 987.0 Z M 925.0 987.0 "></path></clipPath><g clip-path="url(#clip-2453)"><g><clipPath id="clip-2454"><path d="M 712.0 33.0 L 1209.0 33.0 L 1209.0 1047.0 L 712.0 1047.0 Z M 712.0 33.0 "></path></clipPath><g clip-path="url(#clip-2454)"><path d="M 707.0 1052.0 L 1214.0 1052.0 L 1214.0 28.0 L 707.0 28.0 Z M 707.0 1052.0 " fill="#000000"></path></g></g></g></g><path d="M 743.8 924.7 L 1176.2 924.7 L 1176.2 157.3 L 743.8 157.3 Z M 743.8 924.7 " fill="#000000"></path><g opacity="0.26"><g><clipPath id="clip-2455"><path d="M 1385.0 38.0 L 1886.0 38.0 L 1886.0 141.0 L 1385.0 141.0 Z M 1385.0 38.0 "></path></clipPath><g clip-path="url(#clip-2455)"><image xlink:href="../../F28C9CA0-A05A-4A2C-90F7-8BC49B335395/assets/C81748EE4541B41AB8E62948DB0A057F.png" width="498.00" height="100.00" transform="matrix(1.00, 0.00, -0.00, -1.00, 1387.0, 140.0)"></image></g></g></g><g opacity="0.38"><g><clipPath id="clip-2456"><path d="M 744.0 925.0 L 1176.0 925.0 L 1176.0 155.0 L 744.0 155.0 Z M 744.1 924.5 "></path></clipPath><g clip-path="url(#clip-2456)"><g><clipPath id="clip-2457"><path d="M 743.0 154.0 L 1177.0 154.0 L 1177.0 926.0 L 743.0 926.0 Z M 743.0 154.0 "></path></clipPath><g clip-path="url(#clip-2457)"><image xlink:href="EC732C86881DD7D4A26BF59C69194A10.png" width="813.00" height="540.00" transform="matrix(1.43, 0.00, -0.00, -1.43, 160.0, 925.0)"></image></g></g></g></g></g><image xlink:href="20064BB011BBDF5DF94BD6FDEAB4DB4C.png" width="106.00" height="101.00" transform="matrix(1.00, 0.00, -0.00, -0.99, 917.0, 629.0)"></image><image xlink:href="FBB006407AC8F25FF43879897434FB3C.png" width="267.00" height="67.00" transform="matrix(1.00, 0.00, -0.00, -1.00, 827.0, 522.0)"></image></g></svg>