<?xml version="1.0" encoding="UTF-8" standalone="no"?><svg xmlns="http://www.w3.org/2000/svg" xmlns:xlink="http://www.w3.org/1999/xlink" clip-rule="evenodd" stroke-miterlimit="4.00" viewBox="0 0 105 105"><desc>SVG generated by Keynote</desc><defs></defs><g transform="matrix(1.00, 0.00, -0.00, -1.00, 0.0, 105.0)"><g><clipPath id="clip-1419"><path d="M 87.5 87.4 C 107.0 67.9 107.0 36.2 87.5 16.7 C 68.0 -2.8 36.3 -2.8 16.8 16.7 C -2.7 36.2 -2.7 67.9 16.8 87.4 C 36.3 106.9 68.0 106.9 87.5 87.4 Z M 87.5 87.4 "></path></clipPath><g clip-path="url(#clip-1419)"><image xlink:href="../../452615F7-26D9-4567-A7A7-81A717ADE565/assets/1B1FB6C32AC8C9342D5987367E6BD8E5.png" width="103.00" height="109.00" transform="matrix(0.97, 0.00, -0.00, -0.97, 2.1, 104.9)"></image></g></g><path d="M 85.4 14.6 C 104.9 34.2 104.9 65.8 85.4 85.4 C 65.8 104.9 34.2 104.9 14.6 85.4 C -4.9 65.8 -4.9 34.2 14.6 14.6 C 34.2 -4.9 65.8 -4.9 85.4 14.6 Z M 85.4 14.6 " fill="none" stroke="#FEFFFF" stroke-width="2.00" transform="matrix(1.00, 0.00, 0.00, -1.00, 2.1, 102.0)"></path></g></svg>