<?xml version="1.0" encoding="UTF-8" standalone="no"?><svg xmlns="http://www.w3.org/2000/svg" xmlns:xlink="http://www.w3.org/1999/xlink" clip-rule="evenodd" stroke-miterlimit="4.00" viewBox="0 0 99 17"><desc>SVG generated by Keynote</desc><defs></defs><g transform="matrix(1.00, 0.00, -0.00, -1.00, 0.0, 17.0)"><text xml:space="preserve" font-family="Akrobat-SemiBold" font-weight="bold" font-size="18.0" fill="#FEFFFF" transform="matrix(1.00, 0.00, -0.00, -1.00, 1.0, 2.0)">P</text><text xml:space="preserve" font-family="Akrobat-SemiBold" font-weight="bold" font-size="18.0" fill="#FEFFFF" transform="matrix(1.00, 0.00, -0.00, -1.00, 11.3, 2.0)">R</text><text xml:space="preserve" font-family="Akrobat-SemiBold" font-weight="bold" font-size="18.0" fill="#FEFFFF" transform="matrix(1.00, 0.00, -0.00, -1.00, 22.0, 2.0)">O</text><text xml:space="preserve" font-family="Akrobat-SemiBold" font-weight="bold" font-size="18.0" fill="#FEFFFF" transform="matrix(1.00, 0.00, -0.00, -1.00, 33.2, 2.0)">P</text><text xml:space="preserve" font-family="Akrobat-SemiBold" font-weight="bold" font-size="18.0" fill="#FEFFFF" transform="matrix(1.00, 0.00, -0.00, -1.00, 43.6, 2.0)">E</text><text xml:space="preserve" font-family="Akrobat-SemiBold" font-weight="bold" font-size="18.0" fill="#FEFFFF" transform="matrix(1.00, 0.00, -0.00, -1.00, 53.6, 2.0)">R</text><text xml:space="preserve" font-family="Akrobat-SemiBold" font-weight="bold" font-size="18.0" fill="#FEFFFF" transform="matrix(1.00, 0.00, -0.00, -1.00, 64.3, 2.0)">T</text><text xml:space="preserve" font-family="Akrobat-SemiBold" font-weight="bold" font-size="18.0" fill="#FEFFFF" transform="matrix(1.00, 0.00, -0.00, -1.00, 73.6, 2.0)">I</text><text xml:space="preserve" font-family="Akrobat-SemiBold" font-weight="bold" font-size="18.0" fill="#FEFFFF" transform="matrix(1.00, 0.00, -0.00, -1.00, 79.5, 2.0)">E</text><text xml:space="preserve" font-family="Akrobat-SemiBold" font-weight="bold" font-size="18.0" fill="#FEFFFF" transform="matrix(1.00, 0.00, -0.00, -1.00, 89.5, 2.0)">S</text></g></svg>