<?xml version="1.0" encoding="UTF-8" standalone="no"?><svg xmlns="http://www.w3.org/2000/svg" xmlns:xlink="http://www.w3.org/1999/xlink" clip-rule="evenodd" stroke-miterlimit="4.00" viewBox="0 0 97 26"><desc>SVG generated by Keynote</desc><defs></defs><g transform="matrix(1.00, 0.00, -0.00, -1.00, 0.0, 26.0)"><text xml:space="preserve" font-family="Akrobat-Regular" font-size="24.0" fill="#FEFFFF" transform="matrix(1.00, 0.00, -0.00, -1.00, 1.0, 6.0)">B</text><text xml:space="preserve" font-family="Akrobat-Regular" font-size="24.0" fill="#FEFFFF" transform="matrix(1.00, 0.00, -0.00, -1.00, 12.7, 6.0)">a</text><text xml:space="preserve" font-family="Akrobat-Regular" font-size="24.0" fill="#FEFFFF" transform="matrix(1.00, 0.00, -0.00, -1.00, 23.4, 6.0)">r</text><text xml:space="preserve" font-family="Akrobat-Regular" font-size="24.0" fill="#FEFFFF" transform="matrix(1.00, 0.00, -0.00, -1.00, 31.4, 6.0)">r</text><text xml:space="preserve" font-family="Akrobat-Regular" font-size="24.0" fill="#FEFFFF" transform="matrix(1.00, 0.00, -0.00, -1.00, 39.3, 6.0)">y</text><text xml:space="preserve" font-family="Akrobat-Regular" font-size="24.0" fill="#FEFFFF" transform="matrix(1.00, 0.00, -0.00, -1.00, 48.6, 6.0)"> </text><text xml:space="preserve" font-family="Akrobat-Regular" font-size="24.0" fill="#FEFFFF" transform="matrix(1.00, 0.00, -0.00, -1.00, 54.1, 6.0)">A</text><text xml:space="preserve" font-family="Akrobat-Regular" font-size="24.0" fill="#FEFFFF" transform="matrix(1.00, 0.00, -0.00, -1.00, 65.1, 6.0)">l</text><text xml:space="preserve" font-family="Akrobat-Regular" font-size="24.0" fill="#FEFFFF" transform="matrix(1.00, 0.00, -0.00, -1.00, 69.8, 6.0)">l</text><text xml:space="preserve" font-family="Akrobat-Regular" font-size="24.0" fill="#FEFFFF" transform="matrix(1.00, 0.00, -0.00, -1.00, 74.5, 6.0)">e</text><text xml:space="preserve" font-family="Akrobat-Regular" font-size="24.0" fill="#FEFFFF" transform="matrix(1.00, 0.00, -0.00, -1.00, 85.3, 6.0)">n</text></g></svg>