<?xml version="1.0" encoding="UTF-8" standalone="no"?><svg xmlns="http://www.w3.org/2000/svg" xmlns:xlink="http://www.w3.org/1999/xlink" clip-rule="evenodd" stroke-miterlimit="4.00" viewBox="0 0 414 39"><desc>SVG generated by Keynote</desc><defs></defs><g transform="matrix(1.00, 0.00, -0.00, -1.00, 0.0, 39.0)"><text xml:space="preserve" font-family="Akrobat-SemiBold" font-weight="bold" font-size="48.0" fill="#A9A9A9" transform="matrix(1.00, 0.00, -0.00, -1.00, 0.3, 3.0)">S</text><text xml:space="preserve" font-family="Akrobat-SemiBold" font-weight="bold" font-size="38.4" fill="#A9A9A9" transform="matrix(1.00, 0.00, -0.00, -1.00, 27.1, 3.0)">E</text><text xml:space="preserve" font-family="Akrobat-SemiBold" font-weight="bold" font-size="38.4" fill="#A9A9A9" transform="matrix(1.00, 0.00, -0.00, -1.00, 49.5, 3.0)">E</text><text xml:space="preserve" font-family="Akrobat-SemiBold" font-weight="bold" font-size="48.0" fill="#A9A9A9" transform="matrix(1.00, 0.00, -0.00, -1.00, 71.8, 3.0)"> </text><text xml:space="preserve" font-family="Akrobat-SemiBold" font-weight="bold" font-size="38.4" fill="#A9A9A9" transform="matrix(1.00, 0.00, -0.00, -1.00, 87.3, 3.0)">Y</text><text xml:space="preserve" font-family="Akrobat-SemiBold" font-weight="bold" font-size="38.4" fill="#A9A9A9" transform="matrix(1.00, 0.00, -0.00, -1.00, 108.8, 3.0)">O</text><text xml:space="preserve" font-family="Akrobat-SemiBold" font-weight="bold" font-size="38.4" fill="#A9A9A9" transform="matrix(1.00, 0.00, -0.00, -1.00, 133.7, 3.0)">U</text><text xml:space="preserve" font-family="Akrobat-SemiBold" font-weight="bold" font-size="38.4" fill="#A9A9A9" transform="matrix(1.00, 0.00, -0.00, -1.00, 158.5, 3.0)">R</text><text xml:space="preserve" font-family="Akrobat-SemiBold" font-weight="bold" font-size="48.0" fill="#A9A9A9" transform="matrix(1.00, 0.00, -0.00, -1.00, 182.3, 3.0)"> </text><text xml:space="preserve" font-family="Akrobat-SemiBold" font-weight="bold" font-size="38.4" fill="#A9A9A9" transform="matrix(1.00, 0.00, -0.00, -1.00, 197.8, 3.0)">P</text><text xml:space="preserve" font-family="Akrobat-SemiBold" font-weight="bold" font-size="38.4" fill="#A9A9A9" transform="matrix(1.00, 0.00, -0.00, -1.00, 220.8, 3.0)">R</text><text xml:space="preserve" font-family="Akrobat-SemiBold" font-weight="bold" font-size="38.4" fill="#A9A9A9" transform="matrix(1.00, 0.00, -0.00, -1.00, 244.5, 3.0)">O</text><text xml:space="preserve" font-family="Akrobat-SemiBold" font-weight="bold" font-size="38.4" fill="#A9A9A9" transform="matrix(1.00, 0.00, -0.00, -1.00, 269.4, 3.0)">P</text><text xml:space="preserve" font-family="Akrobat-SemiBold" font-weight="bold" font-size="38.4" fill="#A9A9A9" transform="matrix(1.00, 0.00, -0.00, -1.00, 292.4, 3.0)">E</text><text xml:space="preserve" font-family="Akrobat-SemiBold" font-weight="bold" font-size="38.4" fill="#A9A9A9" transform="matrix(1.00, 0.00, -0.00, -1.00, 314.8, 3.0)">R</text><text xml:space="preserve" font-family="Akrobat-SemiBold" font-weight="bold" font-size="38.4" fill="#A9A9A9" transform="matrix(1.00, 0.00, -0.00, -1.00, 338.6, 3.0)">T</text><text xml:space="preserve" font-family="Akrobat-SemiBold" font-weight="bold" font-size="38.4" fill="#A9A9A9" transform="matrix(1.00, 0.00, -0.00, -1.00, 359.3, 3.0)">I</text><text xml:space="preserve" font-family="Akrobat-SemiBold" font-weight="bold" font-size="38.4" fill="#A9A9A9" transform="matrix(1.00, 0.00, -0.00, -1.00, 372.9, 3.0)">E</text><text xml:space="preserve" font-family="Akrobat-SemiBold" font-weight="bold" font-size="38.4" fill="#A9A9A9" transform="matrix(1.00, 0.00, -0.00, -1.00, 395.3, 3.0)">S</text></g></svg>