<?xml version="1.0" encoding="UTF-8" standalone="no"?><svg xmlns="http://www.w3.org/2000/svg" xmlns:xlink="http://www.w3.org/1999/xlink" clip-rule="evenodd" stroke-miterlimit="4.00" viewBox="0 0 53 53"><desc>SVG generated by Keynote</desc><defs></defs><g transform="matrix(1.00, 0.00, -0.00, -1.00, 0.0, 53.0)"><path d="M 44.0 43.4 C 53.3 34.0 53.3 18.8 44.0 9.4 C 34.6 0.1 19.4 0.1 10.0 9.4 C 0.6 18.8 0.6 34.0 10.0 43.4 C 19.4 52.7 34.6 52.7 44.0 43.4 Z M 44.0 43.4 " fill="#000000" fill-opacity="0.50"></path><path d="M 41.0 7.0 C 50.3 16.4 50.3 31.6 41.0 41.0 C 31.6 50.3 16.4 50.3 7.0 41.0 C -2.3 31.6 -2.3 16.4 7.0 7.0 C 16.4 -2.3 31.6 -2.3 41.0 7.0 Z M 41.0 7.0 " fill="none" stroke="#934792" stroke-width="2.00" transform="matrix(1.00, 0.00, 0.00, -1.00, 3.0, 50.4)"></path></g></svg>